<svg id="Capa_1" data-name="Capa 1" xmlns="http://www.w3.org/2000/svg" viewBox="0 0 386 391"><defs><style>.cls-1{fill:#ad7736}</style></defs><g id="VcIZT6.tif"><path class="cls-1" d="M361.36 314.35v45.14a4.89 4.89 0 01-.75.3c-1.51-.1-3-.3-4.54-.3H24.45c-1.51 0-3 .18-4.54.28l-.84-.34v-46.76a2.72 2.72 0 001.49-2.5c5.09-12.47 14.39-19.8 27.16-23.83 27.56-8.7 54.93-18 82.43-26.87 3.09-1 4.09-2.28 4-5.47-.25-7.65-.13-15.31 0-23a9.78 9.78 0 00-1.6-5.86 67.34 67.34 0 01-10.38-27c-.53-3.41-1.9-4-4.82-3.81-3.88.2-7.79.08-11.68 0-14.68-.18-25.59-10.66-26-25.39-.28-9.32-.1-18.64 0-28 0-3.35.37-6.81 2.1-9.7 2.26-3.78 2.42-7.76 2.49-12 .82-48.2 36-90.88 83.17-100.93a26.69 26.69 0 015.27-.31c8.21-.05 16.44.44 24.61-.1 19.94-1.33 37.25 5.73 53 16.85 30.08 21.27 45.49 50.62 46.06 87.57a14.69 14.69 0 001.78 7.51c2.21 3.83 2.81 8.12 2.82 12.48 0 8.49.08 17 0 25.46-.15 15.87-11 26.56-26.9 26.65-4 0-8.07.08-12.1 0-1.93 0-3 .28-3.33 2.55a71.28 71.28 0 01-10.83 28.63 7.47 7.47 0 00-1 4.37c0 8.21.14 16.42-.07 24.63-.07 2.84.78 4 3.55 4.92 27.5 8.89 54.87 18.18 82.43 26.88 12.76 4 22.08 11.34 27.18 23.8zm-171.21 25.1c26 0 52-.09 78 .1 3.81 0 4.75-1.05 4.49-4.64-.32-4.42 0-8.9-.11-13.34 0-2 .37-3.05 2.73-3 4.86.16 9.74.15 14.6 0 2.21-.06 2.9.67 2.84 2.86-.13 5.14 0 10.29-.07 15.44-.05 2 .6 2.6 2.6 2.59q21.92-.11 43.82 0c2.22 0 2.89-.72 2.82-2.87-.13-4.17 0-8.35 0-12.52-.11-9.26-4.12-14.84-12.92-17.74-28.9-9.52-57.83-18.95-86.71-28.52a5.55 5.55 0 00-6 1.19 103.9 103.9 0 01-22.6 14.07c-15.75 7.24-31.42 7.21-47.13-.17A103.69 103.69 0 01144 278.72a4.82 4.82 0 00-5.23-1c-29.42 9.73-58.87 19.35-88.29 29.07-7.41 2.45-11.37 7.81-11.82 15.53-.29 4.85 0 9.74-.13 14.6-.05 2 .67 2.62 2.65 2.61q21.92-.11 43.82 0c2.25 0 2.83-.73 2.77-2.85-.13-5 .08-10-.09-15-.08-2.42.76-3.11 3.11-3 4.58.16 9.18.18 13.77 0 2.5-.11 3.44.59 3.32 3.22-.19 4.58.15 9.19-.12 13.77-.18 3.1.72 4 3.9 3.94 26.18-.22 52.34-.16 78.49-.16zm39.26-123c-8.46 0-16.37-.08-24.28.06-2.44 0-3.5-.45-3.37-3.17a126.5 126.5 0 000-13.77c-.17-3 1.06-3.37 3.59-3.34 9.74.13 19.48-.06 29.22.12 2.95.06 4.15-.68 4.42-3.78 1.08-12.23.2-24.47.56-36.7.06-2.34-1.53-2.26-3-2.51A49.72 49.72 0 01206 136c-1.76-2.06-2.55-2.39-4.5-.07a49.25 49.25 0 01-32.13 17.65c-8.37 1.12-16.93.42-25.37.42-2.35 0-3.1.65-3.06 3 .13 10-.14 20 .15 30.06a53.37 53.37 0 0010.65 30.65c19.82 27.07 59.54 26.71 77.67-1.26zm37.77-100.89a29 29 0 014.17 0c3.82.54 4.81-.64 4.28-4.68-6.41-48.56-52.27-82.15-100.71-73.58-37 6.54-66.45 38.09-70.25 75.11-.24 2.3 0 3.33 2.64 3.16a76 76 0 0110 0c3 .21 4.14-.56 4.74-3.85C128 79.32 156 55.49 188.49 54.8a69.65 69.65 0 0169.19 53.14c1.83 7.62 1.83 7.62 9.5 7.62zM141 125.53a35 35 0 010 4.58c-.41 3 .56 4.12 3.81 4 6.1-.29 12.24 0 18.36-.12a31.52 31.52 0 0029.09-21.29c1.16-3.24-.4-8.06 3.06-9.53 3.06-1.31 7.12-.29 10.74-.29a11.1 11.1 0 002.08 0c4.28-.85 5.69.83 6.41 5.21 2.08 12.69 9.9 20.77 22 24.77 1.81.6 3.13.83 3.07-1.94-.14-6 .07-12-1.36-17.85a49.25 49.25 0 00-53.63-37.71c-25.38 2.88-43.58 23.84-43.63 50.17zm85.7 121.77c-24.32 14.26-48.3 14.19-72.51.27 0 4.11.05 7.72 0 11.33a4.08 4.08 0 001.65 3.57c7.29 5.86 15 11 23.93 14.09a29.67 29.67 0 0018 .92c10.38-2.87 19.19-8.59 27.46-15.28a3.36 3.36 0 001.47-2.81c-.08-3.84-.05-7.68-.05-12.09zM120.87 155c0-5.55-.05-11.1 0-16.65 0-1.81-.28-2.83-2.45-2.75-4.3.14-8.6 0-12.9.07-3.62.1-5.74 2.1-5.78 5.73-.11 9-.09 18 0 27 0 3.61 2 5.71 5.69 5.8 4.3.1 8.6-.05 12.89.07 2 .06 2.6-.74 2.57-2.67-.09-5.5-.02-11.05-.02-16.6zm138.72-.18c0 5.54.08 11.09 0 16.64-.05 2.16.61 2.94 2.81 2.86 4-.15 8 0 12.06-.07 4.21-.09 6.23-1.92 6.29-6 .11-8.88.08-17.76 0-26.63 0-3.84-2.2-5.86-6-5.92-4-.07-8.05.1-12.06-.07-2.33-.1-3.15.58-3.08 3 .09 5.37-.02 10.79-.02 16.2z"/><path class="cls-1" d="M20.57 310.17a2.72 2.72 0 01-1.49 2.5v-2.5zM19.08 359.43l.84.34-.84 1.33zM19.08 371.12l.84.84q-1.08.24-.84-.84zM360.62 359.79a4.89 4.89 0 00.75-.3c-.14.38-.37.58-.75.3z"/></g></svg>