<svg xmlns="http://www.w3.org/2000/svg" height="512" width="512"><path d="M272.866 269.188a7.51 7.51 0 00-9.505 4.738 7.762 7.762 0 01-7.371 5.302 7.763 7.763 0 01-7.371-5.302 7.511 7.511 0 00-14.244 4.767c3.114 9.304 11.8 15.555 21.615 15.555s18.501-6.251 21.615-15.555a7.509 7.509 0 00-4.739-9.505zm-56.332-44.609a7.51 7.51 0 00-7.51 7.51v10.451c0 4.148 3.362 7.51 7.51 7.51s7.51-3.362 7.51-7.51v-10.451a7.509 7.509 0 00-7.51-7.51zm78.913 0a7.51 7.51 0 00-7.51 7.51v10.451c0 4.148 3.362 7.51 7.51 7.51s7.51-3.362 7.51-7.51v-10.451a7.509 7.509 0 00-7.51-7.51z" data-original="#000000" class="active-path" data-old_color="#000000" fill="#AD7733"/><path d="M491.941 4.795a7.472 7.472 0 00-1.978-2.872 7.206 7.206 0 00-1.334-.953 7.634 7.634 0 00-3.685-.97h-273.41c-4.148 0-7.51 3.362-7.51 7.51s3.362 7.51 7.51 7.51h256.569l-37.796 42.077H81.673L43.879 15.02h133.226c4.148 0 7.51-3.362 7.51-7.51S181.253 0 177.105 0H27.038a7.587 7.587 0 00-3.003.63 7.566 7.566 0 00-3.136 2.563 7.559 7.559 0 00-1.362 4.134c-.001.061-.009.121-.009.183v496.98c0 2.68 1.603 5.354 3.974 6.623a7.59 7.59 0 003.536.887h457.907c.335 0 .663-.03.988-.072 2.557-.337 4.63-1.828 5.761-4.163.227-.468.386-.918.498-1.365.245-.977.263-1.942.263-3.054V10.454c0-1.874.163-3.912-.514-5.659zM85.852 72.117h340.279v367.766h-73.372v-11.812c0-4.148-3.362-7.51-7.51-7.51s-7.51 3.362-7.51 7.51v11.812H174.242v-29.146c0-36.651 24.259-67.711 57.554-78.05v.041c0 13.341 10.854 24.194 24.194 24.194 13.341 0 24.194-10.853 24.194-24.194v-.036c28.055 8.725 50.115 32.204 56.012 62.159a7.507 7.507 0 008.818 5.918 7.51 7.51 0 005.918-8.819 95.806 95.806 0 00-11.476-30.169c14.525-.163 24.203-4.524 24.659-4.734a7.511 7.511 0 004.273-8c-5.666-35.617-18.843-55.619-30.827-66.772a93.978 93.978 0 003.429-6.308c9.209-6.402 17.469-13.654 24.594-21.661 27.007-30.352 35.335-66.496 24.083-104.523-12.446-42.065-52.611-69.37-95.521-64.924-19.403 2.01-31.679 9.636-38.158 15.076-6.479-5.44-18.755-13.066-38.157-15.076-42.907-4.446-83.075 22.86-95.521 64.924-11.253 38.027-2.926 74.17 24.083 104.523 7.125 8.008 15.385 15.26 24.593 21.66a94.407 94.407 0 003.429 6.307c-11.983 11.154-25.16 31.159-30.826 66.773a7.512 7.512 0 004.273 8c.456.21 10.149 4.579 24.697 4.735a96.137 96.137 0 00-13.338 48.957v29.146H85.852zm67.197 105.581c1.439 6.501 4.329 12.416 8.271 17.448v39.174c0 5.169.423 10.241 1.224 15.188a114.966 114.966 0 01-4.929-5.188c-23.709-26.646-30.742-57.02-20.901-90.277 10.396-35.133 43.863-57.946 79.571-54.246 17.4 1.803 27.227 8.896 31.537 12.965 4.58 4.321 11.756 4.323 16.336 0 4.31-4.068 14.14-11.161 31.538-12.964 35.709-3.693 69.176 19.114 79.571 54.246 9.84 33.257 2.808 63.631-20.903 90.277a114.25 114.25 0 01-4.924 5.16 94.972 94.972 0 001.219-15.161v-39.172c3.942-5.032 6.833-10.948 8.272-17.45a7.51 7.51 0 00-5.71-8.955 7.509 7.509 0 00-8.956 5.71c-2.916 13.177-14.848 22.742-28.37 22.742-9.459 0-18.358-4.637-23.804-12.404a7.508 7.508 0 00-12.298 0c-5.447 7.767-14.345 12.404-23.804 12.404-9.458 0-18.357-4.638-23.804-12.405a7.509 7.509 0 00-12.298.001c-5.447 7.767-14.345 12.404-23.803 12.404-13.522 0-25.454-9.565-28.372-22.742a7.506 7.506 0 00-8.956-5.709 7.507 7.507 0 00-5.707 8.954zM255.99 313.97c-43.919 0-79.651-35.731-79.651-79.65v-26.84c6 3.034 12.731 4.734 19.745 4.734 11.199 0 21.879-4.281 29.952-11.757 8.074 7.476 18.754 11.757 29.953 11.757 11.2 0 21.88-4.281 29.953-11.757 8.073 7.476 18.753 11.757 29.953 11.757 7.014 0 13.745-1.699 19.744-4.733v26.839c.002 43.919-35.73 79.65-79.649 79.65zm9.175 14.565v4.193c0 5.059-4.116 9.174-9.174 9.174-5.059 0-9.174-4.115-9.174-9.174v-4.193c3.02.292 6.078.455 9.174.455 3.095 0 6.153-.163 9.174-.455zm63.7-33.892c8.705 8.727 18.38 23.996 23.586 50.528-5.292 1.35-14.075 2.638-24.776.634a97.467 97.467 0 00-34.612-24.395c13.979-5.973 26.226-15.224 35.802-26.767zm-145.749 0c9.563 11.528 21.792 20.77 35.747 26.744-13.255 5.528-25.022 13.926-34.533 24.407-10.721 2.018-19.517.729-24.802-.62 5.207-26.532 14.883-41.803 23.588-50.531zM34.548 27.11l36.284 40.395v376.989L34.548 484.89zm9.331 469.87l37.383-41.619h349.457l37.386 41.619zm433.556-12.088l-36.284-40.393V67.501l36.284-40.393z" data-original="#000000" class="active-path" data-old_color="#000000" fill="#AD7733"/></svg>