<?xml version="1.0" encoding="UTF-8"?>
<svg width="630px" height="420px" viewBox="0 0 630 420" version="1.1" xmlns="http://www.w3.org/2000/svg" xmlns:xlink="http://www.w3.org/1999/xlink">
    <title>Group 3</title>
    <g id="Page-1" stroke="none" stroke-width="1" fill="none" fill-rule="evenodd">
        <g id="Group-3" fill="#FFF8EE">
            <rect id="Rectangle" x="0" y="0" width="630" height="420"></rect>
        </g>
        <g id="858716" transform="translate(160.000000, 82.000000)" fill-rule="nonzero">
            <path d="M182.5243,141.6485 C182.5117,160.545 167.1999,175.8575 148.3034,175.8757 L148.3034,210.0966 L114.0825,210.0966 C113.8291,191.1938 98.3003,176.0794 79.3982,176.3328 C60.8538,176.5799 45.8815,191.5522 45.6344,210.0966 L0,210.0966 L0,61.7932 L148.3034,61.7932 L148.3034,107.4276 C167.1936,107.4458 182.5061,122.7583 182.5243,141.6485 Z" id="Path" fill="#63AF7D"></path>
            <path d="M114.0825,277.2532 C114.2799,295.9642 129.5924,310.9799 148.3034,310.8189 L148.3034,358.4 L0,358.4 L0,210.0966 L45.6344,210.0966 C46.0733,191.1938 61.7561,176.2278 80.6526,176.6667 C98.9373,177.093 113.6562,191.8119 114.0825,210.0966 L148.3034,210.0966 L148.3034,243.6749 C129.5861,243.5146 114.2743,258.5359 114.0825,277.2532 L114.0825,277.2532 Z" id="Path" fill="#FFE07D"></path>
            <path d="M249.0264,210.0966 C249.0264,228.641 233.9981,243.6749 215.4544,243.6812 C196.91,243.6812 181.8761,228.6529 181.8698,210.1092 L181.8698,210.1029 L148.3041,210.1029 L148.3041,243.6812 C129.7597,244.0396 115.0226,259.3584 115.3747,277.8958 C115.7205,295.9334 130.2609,310.4794 148.3041,310.8252 L148.3041,358.4 L296.6075,358.4 L296.6075,210.0966 L249.0264,210.0966 Z" id="Path" fill="#45A9DA"></path>
            <path d="M358.4,0 L358.4,148.3034 L310.8196,148.3034 C311.178,166.8478 296.4283,182.1722 277.8839,182.5243 C259.3395,182.8827 244.0151,168.133 243.663,149.5886 C243.6567,149.1623 243.6567,148.7297 243.663,148.2971 L210.0973,148.2971 L210.0973,114.0762 C229.0001,113.6373 243.9661,97.9545 243.5272,79.058 C243.1009,60.7733 228.382,46.0544 210.0973,45.6281 L210.0973,0 L358.4,0 Z" id="Path" fill="#EB586C"></path>
        </g>
    </g>
</svg>