<svg version="1.1" id="Outline" xmlns="http://www.w3.org/2000/svg" x="0" y="0" viewBox="0 0 512 512" xml:space="preserve"><style>.st0{fill:#ad7733}</style><path class="st0" d="M472 56h-48c-12.9 0-23.5 10.2-24 23.1L385.4 152H275.9c13.3-37.5-6.4-78.6-43.8-91.9s-78.6 6.4-91.9 43.8c-5.5 15.5-5.5 32.5 0 48.1H24c-4.4 0-8 3.6-8 8 0 .5.1 1.1.2 1.6l32 160c.7 3.7 4 6.4 7.8 6.4h304c8.8 0 16 7.2 16 16s-7.2 16-16 16H56c-4.4 0-8 3.6-8 8v32c0 4.4 3.6 8 8 8h12.3c-8.9 15.3-3.6 34.9 11.7 43.7 15.3 8.9 34.9 3.6 43.7-11.7 5.7-9.9 5.7-22.1 0-32.1h168.6c-8.9 15.3-3.6 34.9 11.7 43.7 15.3 8.9 34.9 3.6 43.7-11.7 5.7-9.9 5.7-22.1 0-32.1H360c4.4 0 8-3.6 8-8v-25c17.1-4.4 27.4-21.9 23-39-2.8-10.7-10.9-19.3-21.5-22.6l30.4-151.9 12.2-60.8c3.6 2.1 7.8 3.2 12 3.2h48c13.3 0 24-10.7 24-24S485.3 56 472 56zM112 424c0 8.8-7.2 16-16 16s-16-7.2-16-16 7.2-16 16-16 16 7.2 16 16zm224 0c0 8.8-7.2 16-16 16s-16-7.2-16-16 7.2-16 16-16 16 7.2 16 16zm16-32H64v-16h288v16zm-33.3-224l-9.6 64h-56.7l2.5-49.4c5-4.3 9.3-9.2 13-14.6h50.8zm-138.3 80h55.2l-3.2 64h-48.8l-3.2-64zm-12.8 64h-48.7l-9.6-64h55.1l3.2 64zm12-80l-1.9-38.7c19.2 9 41.4 9 60.7 0l-1.9 38.7h-56.9zm72 16h55.1l-9.6 64h-48.7l3.2-64zM208 72c30.9 0 56 25.1 56 56s-25.1 56-56 56-56-25.1-56-56 25.1-56 56-56zm-46.9 110.6l2.5 49.4h-56.7l-9.6-64h50.9c3.6 5.4 8 10.3 12.9 14.6zm-80-14.6l9.6 64H46.6l-12.8-64h47.3zm-31.3 80h43.4l9.6 64H62.6l-12.8-64zm303.6 64h-40.2l9.6-64h43.4l-12.8 64zm16-80h-44.2l9.6-64h47.4l-12.8 64zM472 88h-48c-4.4 0-8-3.6-8-8s3.6-8 8-8h48c4.4 0 8 3.6 8 8s-3.6 8-8 8z"/><path class="st0" d="M187.3 157.7c1.5 1.5 3.5 2.3 5.7 2.3h.4c2.2-.1 4.3-1.1 5.8-2.9l40-48c2.8-3.4 2.3-8.5-1.1-11.3-3.4-2.8-8.4-2.3-11.2 1l-34.4 41.3-9.8-9.8c-3.1-3.1-8.2-3.1-11.3 0-3.1 3.1-3.1 8.2 0 11.3l15.9 16.1z"/></svg>