<svg version="1.1" id="Capa_1" xmlns="http://www.w3.org/2000/svg" x="0" y="0" viewBox="0 0 618 566" xml:space="preserve"><style>.st3{fill:#fff}</style><g id="Capa_4_1_"><circle cx="309.5" cy="270.5" r="221.5" fill="#ad7733"/><path fill="none" d="M123 194.5h380v225.3H123z"/><path class="st3" d="M228.2 201.3c4.1 3.3 6.8 7.8 8 13.4h-12.7c-.9-2.3-2.4-4.1-4.3-5.4-1.9-1.3-4.2-2-6.9-2-3.5 0-6.3 1.3-8.5 3.8-2.1 2.6-3.2 6-3.2 10.3 0 4.3 1.1 7.7 3.2 10.3 2.1 2.5 5 3.8 8.5 3.8 2.7 0 5-.7 6.9-2 1.9-1.3 3.4-3.1 4.3-5.3h12.7c-1.2 5.6-3.9 10.1-8 13.4-4.1 3.3-9.3 5-15.6 5-4.8 0-9-1.1-12.7-3.2-3.6-2.1-6.5-5.1-8.4-8.9-2-3.8-3-8.2-3-13.1s1-9.3 3-13.1c2-3.8 4.8-6.8 8.4-8.9 3.6-2.1 7.9-3.2 12.7-3.2 6.3.2 11.5 1.8 15.6 5.1zm37.3 7.5c2.1 1.4 3.7 3.2 4.8 5.5v-7.1h11.9v39.1h-11.9v-7.1c-1 2.3-2.6 4.2-4.8 5.5-2.1 1.4-4.7 2-7.7 2-3.2 0-6.1-.8-8.6-2.4-2.5-1.6-4.6-3.9-6-7-1.5-3-2.2-6.6-2.2-10.6 0-4.1.7-7.7 2.2-10.7 1.5-3 3.5-5.3 6-6.9 2.5-1.6 5.4-2.4 8.6-2.4 3 .1 5.6.8 7.7 2.1zm-10 11c-1.6 1.7-2.3 4-2.3 7s.8 5.3 2.3 7c1.6 1.7 3.6 2.5 6.2 2.5 2.5 0 4.6-.9 6.2-2.6 1.6-1.7 2.4-4 2.4-6.9 0-2.9-.8-5.3-2.4-7-1.6-1.7-3.7-2.6-6.2-2.6-2.6.1-4.7.9-6.2 2.6zm70.4-8.5c2.6 3 4 7.1 4 12.3v22.7h-12V225c0-2.6-.7-4.7-2.1-6.1-1.4-1.5-3.2-2.2-5.5-2.2-2.4 0-4.4.8-5.8 2.3-1.4 1.5-2.1 3.7-2.1 6.6v20.7h-12v-39.1h12v7.1c1.1-2.3 2.8-4.2 5-5.5 2.2-1.4 4.8-2 7.8-2 4.5.1 8 1.5 10.7 4.5zm42.2-.4c3.4 2.8 5.6 6.6 6.4 11.4h-12.7c-.4-1.7-1.1-3-2.3-3.9-1.2-.9-2.6-1.4-4.4-1.4-2.1 0-3.8.8-5.2 2.5-1.4 1.7-2 4.1-2 7.2 0 3.2.7 5.6 2 7.2 1.4 1.7 3.1 2.5 5.2 2.5 1.8 0 3.2-.5 4.4-1.4 1.2-.9 1.9-2.2 2.3-3.9h12.7c-.9 4.9-3 8.7-6.4 11.4s-7.6 4.2-12.7 4.2c-3.8 0-7.2-.8-10.2-2.4-3-1.6-5.3-3.9-7-7-1.7-3-2.5-6.6-2.5-10.6 0-4.1.8-7.7 2.5-10.7 1.7-3 4-5.3 7-6.9 3-1.6 6.4-2.4 10.2-2.4 5 .1 9.2 1.5 12.7 4.2zm49.4 18.1h-27.1c.1 2.9.9 5.1 2.2 6.3 1.4 1.3 3.1 1.9 5.2 1.9 1.8 0 3.2-.4 4.4-1.3 1.2-.9 1.9-2 2.3-3.4h12.7c-.5 2.8-1.6 5.2-3.4 7.4-1.7 2.2-3.9 3.9-6.6 5.1-2.7 1.2-5.6 1.9-8.9 1.9-3.8 0-7.2-.8-10.2-2.4-3-1.6-5.3-3.9-7-7-1.7-3-2.5-6.6-2.5-10.6 0-4.1.8-7.7 2.5-10.7 1.7-3 4-5.3 7-6.9 3-1.6 6.4-2.4 10.2-2.4 3.9 0 7.3.8 10.2 2.4 2.9 1.6 5.2 3.8 6.8 6.7 1.6 2.9 2.4 6.2 2.4 9.9.1.8 0 1.9-.2 3.1zm-13.8-10.8c-1.4-1.3-3.2-1.9-5.3-1.9-2.2 0-4 .7-5.5 2-1.4 1.3-2.3 3.2-2.4 5.7h15.3c0-2.6-.7-4.6-2.1-5.8zm32.3-23.7v51.8h-12v-51.8h12zM193.2 321.3h-18.5l-3.1 9H159l18.1-49.1h13.8l18.1 49.1h-12.7l-3.1-9zm-3.1-9.1l-6.2-18.2-6.2 18.2h12.4zm59-16.9c2.6 3 4 7.1 4 12.3v22.7h-12V309c0-2.6-.7-4.7-2.1-6.1-1.4-1.5-3.2-2.2-5.5-2.2-2.4 0-4.4.8-5.8 2.3s-2.1 3.7-2.1 6.6v20.7h-12v-39.1h12v7.1c1.1-2.3 2.8-4.2 5-5.5 2.2-1.4 4.8-2 7.8-2 4.5.1 8 1.5 10.7 4.5zm20.9-4l9.4 23.9 8.8-23.9h13.2L277 349h-13.2l9.2-20.1-16.4-37.6H270zm57.4 28.7v10.3H322c-4.6 0-8.1-1.1-10.7-3.4-2.5-2.3-3.8-6-3.8-11.2v-14.4h-5.2v-10.1h5.2v-9.6h12v9.6h7.8v10.1h-7.8v14.6c0 1.5.3 2.6.9 3.2.6.6 1.7.9 3.2.9h3.8zm7.6-44.2c1.3-1.2 3-1.8 5.2-1.8s3.9.6 5.2 1.8c1.3 1.2 2 2.7 2 4.5 0 1.8-.7 3.3-2 4.4-1.3 1.2-3 1.8-5.2 1.8s-3.9-.6-5.2-1.8c-1.3-1.2-2-2.7-2-4.4 0-1.8.7-3.3 2-4.5zm11.1 15.5v39.1h-12v-39.1h12zm70.2 4c2.8 3 4.1 7.1 4.1 12.4v22.7h-11.9v-21.3c0-2.5-.7-4.4-2-5.8-1.3-1.4-3.1-2.1-5.4-2.1-2.4 0-4.3.7-5.6 2.2-1.4 1.5-2.1 3.5-2.1 6.2v20.7h-12V309c0-2.5-.7-4.4-2-5.8-1.3-1.4-3.1-2.1-5.4-2.1-2.4 0-4.3.7-5.7 2.2-1.4 1.4-2.1 3.5-2.1 6.2v20.7h-12v-39.1h12v6.6c1-2.2 2.6-3.9 4.7-5.2 2.1-1.3 4.6-1.9 7.5-1.9 3 0 5.6.7 7.9 2.1 2.3 1.4 4 3.3 5.2 5.9 1.4-2.4 3.2-4.4 5.6-5.8 2.4-1.4 5-2.2 7.8-2.2 4.9.3 8.7 1.7 11.4 4.7zm48.9 17.7h-27.1c.1 2.9.9 5.1 2.2 6.3 1.4 1.3 3.1 1.9 5.2 1.9 1.8 0 3.2-.4 4.4-1.3 1.2-.9 1.9-2 2.3-3.4h12.7c-.5 2.8-1.6 5.2-3.4 7.4-1.7 2.2-3.9 3.9-6.6 5.1-2.7 1.2-5.6 1.9-8.9 1.9-3.8 0-7.2-.8-10.2-2.4-3-1.6-5.3-3.9-7-7-1.7-3-2.5-6.6-2.5-10.6 0-4.1.8-7.7 2.5-10.7 1.7-3 4-5.3 7-6.9 3-1.6 6.4-2.4 10.2-2.4 3.9 0 7.3.8 10.2 2.4 2.9 1.6 5.2 3.8 6.8 6.7 1.6 2.9 2.4 6.2 2.4 9.9.1.8 0 1.9-.2 3.1zm-13.8-10.8c-1.4-1.3-3.2-1.9-5.3-1.9-2.2 0-4 .7-5.5 2-1.4 1.3-2.3 3.2-2.5 5.7h15.3c.1-2.6-.6-4.6-2-5.8z"/></g><path class="st3" d="M309.8 459.2h-4.5c-1 0-1.8-.9-1.8-1.9 0-1 .8-1.8 1.8-1.8 2 0 4 .1 6 0 1 0 1.8.8 1.8 1.8s-.8 1.8-1.8 1.9h-1.5zm15-.5c-1 0-1.8-.7-1.8-1.7-.1-1 .7-1.9 1.7-2l6-.6c1-.1 1.9.6 2 1.6.1 1-.6 1.9-1.6 2-2 .2-4.1.4-6.1.6-.1.1-.2.1-.2.1zm-32.9-.3h-.2c-2-.2-4.1-.4-6.1-.7-1-.1-1.7-1-1.6-2 .1-1 1-1.7 2-1.6 2 .2 4 .5 6 .7 1 .1 1.7 1 1.6 2 0 .9-.7 1.6-1.7 1.6zm52.2-2.3c-.9 0-1.6-.6-1.8-1.5-.2-1 .5-2 1.5-2.1 2-.4 4-.8 5.9-1.2 1-.2 2 .4 2.2 1.4s-.4 2-1.4 2.2c-2 .4-4 .9-6 1.2h-.4zm-71.5-.5h-.4c-2-.4-4-.8-6-1.3-1-.2-1.6-1.2-1.4-2.2s1.2-1.6 2.2-1.4c2 .5 3.9.9 5.9 1.3 1 .2 1.6 1.2 1.4 2.1 0 .9-.8 1.5-1.7 1.5zm90.5-4c-.8 0-1.5-.5-1.8-1.3-.3-1 .3-2 1.2-2.3 1.9-.6 3.9-1.2 5.8-1.8 1-.3 2 .2 2.3 1.2s-.2 2-1.2 2.3c-1.9.6-3.9 1.3-5.9 1.9-.1-.1-.3 0-.4 0zm-109.3-.9c-.2 0-.4 0-.6-.1-1.9-.6-3.9-1.3-5.9-1.9-.9-.3-1.4-1.4-1.1-2.3.3-1 1.4-1.5 2.3-1.1 1.9.7 3.8 1.3 5.8 1.9 1 .3 1.5 1.3 1.2 2.3-.2.7-1 1.2-1.7 1.2zm127.6-5.7c-.7 0-1.4-.4-1.7-1.1-.4-.9.1-2 1-2.4 1.9-.8 3.7-1.6 5.5-2.4.9-.4 2 0 2.4.9s0 2-.9 2.4c-1.9.8-3.7 1.7-5.6 2.4-.2.2-.4.2-.7.2zm-146-1.1c-.2 0-.5 0-.7-.1-1.9-.8-3.8-1.7-5.6-2.5-.9-.4-1.3-1.5-.9-2.4.4-.9 1.5-1.3 2.4-.9 1.8.9 3.7 1.7 5.5 2.5.9.4 1.4 1.5.9 2.4-.2.6-.8 1-1.6 1zm163.6-7.2c-.6 0-1.3-.4-1.6-1-.5-.9-.1-2 .7-2.5 1.8-1 3.5-2 5.2-3 .9-.5 2-.2 2.5.6s.2 2-.6 2.5l-5.4 3c-.2.3-.5.4-.8.4zm-181-1.5c-.3 0-.6-.1-.9-.2-1.8-1-3.6-2.1-5.3-3.1-.9-.5-1.1-1.6-.6-2.5.5-.9 1.6-1.1 2.5-.6 1.7 1 3.5 2.1 5.2 3 .9.5 1.2 1.6.7 2.5-.4.6-1 .9-1.6.9zm197.6-8.7c-.6 0-1.1-.3-1.5-.8-.6-.8-.4-2 .5-2.5 1.6-1.1 3.3-2.3 4.9-3.5.8-.6 2-.4 2.6.4.6.8.4 2-.4 2.6-1.6 1.2-3.3 2.4-5 3.6-.4.1-.7.2-1.1.2zm-214.1-1.7c-.4 0-.7-.1-1.1-.3-1.7-1.2-3.3-2.4-5-3.6-.8-.6-1-1.8-.4-2.6s1.8-1 2.6-.4c1.6 1.2 3.2 2.4 4.9 3.6.8.6 1 1.7.4 2.5-.3.5-.8.8-1.4.8zm229.6-10.2c-.5 0-1-.2-1.4-.6-.6-.8-.6-1.9.2-2.6 1.5-1.3 3.1-2.6 4.5-4 .8-.7 1.9-.6 2.6.1s.6 1.9-.1 2.6c-1.5 1.4-3 2.7-4.6 4.1-.4.3-.8.4-1.2.4zm-244.9-1.9c-.4 0-.9-.1-1.2-.5-1.5-1.4-3.1-2.8-4.6-4.1-.7-.7-.8-1.9-.1-2.6s1.9-.8 2.6-.1c1.4 1.4 2.9 2.7 4.5 4.1.8.7.8 1.8.2 2.6-.4.4-.9.6-1.4.6zm259-11.4c-.5 0-.9-.2-1.3-.5-.7-.7-.8-1.9-.1-2.6 1.4-1.4 2.8-2.9 4.1-4.4.7-.8 1.8-.8 2.6-.1.8.7.8 1.8.1 2.6l-4.2 4.5c-.2.3-.7.5-1.2.5zm-273-2.2c-.5 0-1-.2-1.3-.6-1.4-1.5-2.8-3-4.1-4.6-.7-.8-.6-1.9.2-2.6.8-.7 1.9-.6 2.6.2 1.3 1.5 2.7 3 4 4.5.7.7.6 1.9-.1 2.6-.4.3-.8.5-1.3.5zM458 386.5c-.4 0-.8-.1-1.1-.4-.8-.6-1-1.8-.3-2.6l3.6-4.8c.6-.8 1.7-1 2.6-.4s1 1.7.4 2.5c-1.2 1.6-2.4 3.3-3.7 4.9-.5.5-1 .8-1.5.8zm-298.2-2.4c-.6 0-1.1-.2-1.5-.7-1.2-1.6-2.4-3.3-3.6-5-.6-.8-.4-2 .4-2.5.8-.6 2-.4 2.6.5 1.1 1.6 2.3 3.3 3.5 4.9.6.8.4 2-.4 2.6-.3.1-.6.2-1 .2zm309.3-13.6c-.3 0-.7-.1-1-.3-.9-.5-1.1-1.7-.6-2.5 1-1.7 2.1-3.5 3.1-5.2.5-.9 1.6-1.2 2.5-.7.9.5 1.2 1.6.7 2.5-1 1.8-2.1 3.5-3.2 5.3-.3.5-.9.9-1.5.9zm-320.2-2.6c-.6 0-1.2-.3-1.6-.9-1.1-1.8-2.1-3.5-3.1-5.3-.5-.9-.2-2 .7-2.5.9-.5 2-.2 2.5.7 1 1.7 2 3.5 3 5.2.5.9.2 2-.6 2.5-.2.2-.6.3-.9.3zm329.6-14.5c-.3 0-.5-.1-.8-.2-.9-.4-1.3-1.5-.9-2.4.9-1.8 1.7-3.7 2.5-5.5.4-.9 1.5-1.3 2.4-.9s1.3 1.5.9 2.4c-.8 1.9-1.7 3.8-2.6 5.6-.2.6-.9 1-1.5 1zm-338.7-2.7c-.7 0-1.4-.4-1.7-1.1-.9-1.9-1.7-3.7-2.5-5.6-.4-.9 0-2 1-2.4.9-.4 2 0 2.4 1 .8 1.8 1.6 3.7 2.4 5.5.4.9 0 2-.9 2.4-.1.2-.4.2-.7.2zM486 335.4c-.2 0-.4 0-.6-.1-1-.3-1.4-1.4-1.1-2.3.7-1.9 1.3-3.8 2-5.7.3-1 1.3-1.5 2.3-1.2s1.5 1.3 1.2 2.3c-.6 1.9-1.3 3.9-2 5.8-.3.7-1 1.2-1.8 1.2zm-353.4-2.7c-.8 0-1.5-.5-1.7-1.2-.7-1.9-1.3-3.9-1.9-5.9-.3-1 .2-2 1.2-2.3 1-.3 2 .2 2.3 1.2.6 1.9 1.2 3.9 1.9 5.7.3 1-.2 2-1.1 2.3-.3.1-.5.2-.7.2zm359.1-16h-.4c-1-.2-1.6-1.2-1.3-2.2.5-2 .9-3.9 1.3-5.9.2-1 1.2-1.6 2.2-1.4 1 .2 1.6 1.2 1.4 2.2-.4 2-.9 4-1.4 6-.3.7-1 1.3-1.8 1.3zm-364.5-2.8c-.8 0-1.6-.6-1.8-1.4-.4-2-.9-4-1.3-6-.2-1 .4-2 1.4-2.1 1-.2 1.9.5 2.1 1.5.4 2 .8 4 1.2 5.9.2 1-.4 2-1.4 2.2.1-.1 0-.1-.2-.1zm368.1-16.4h-.2c-1-.1-1.7-1.1-1.6-2.1.3-2 .5-4 .7-6 .1-1 1-1.7 2-1.6 1 .1 1.7 1 1.6 2-.2 2-.5 4.1-.7 6.1-.1 1-.9 1.6-1.8 1.6zm-371.4-2.8c-.9 0-1.7-.7-1.8-1.6-.2-2-.5-4.1-.6-6.1-.1-1 .7-1.9 1.7-2 1-.1 1.9.6 2 1.7l.6 6c.1 1-.6 1.9-1.6 2h-.3zm373-16.6c-1.1 0-1.9-.9-1.8-1.9.1-2 .1-4 .1-6v-.4c0-2 0-4-.1-6 0-1 .8-1.9 1.8-1.9h.1c1 0 1.8.8 1.8 1.8.1 2 .1 4.1.1 6.1v.4c0 2.1 0 4.1-.1 6.1-.1 1-.9 1.8-1.9 1.8zm-374.3-2.8c-1 0-1.8-.8-1.8-1.8V267.3c0-1 .8-1.8 1.8-1.8s1.8.9 1.8 1.9v6c0 1-.8 1.9-1.8 1.9zm.6-19.5h-.2c-1-.1-1.8-1-1.7-2 .2-2 .4-4.1.6-6.1.1-1 1.1-1.7 2-1.6 1 .1 1.7 1 1.6 2l-.6 6c.1 1-.7 1.7-1.7 1.7zm372.8-3.7c-.9 0-1.7-.7-1.8-1.6-.2-2-.5-4-.7-6-.1-1 .6-1.9 1.6-2.1 1-.1 1.9.6 2.1 1.6.3 2 .5 4.1.7 6.1.1 1-.6 1.9-1.6 2h-.3zm-370.1-15.6h-.3c-1-.2-1.6-1.1-1.4-2.1.4-2 .8-4.1 1.3-6 .2-1 1.2-1.6 2.2-1.4 1 .2 1.6 1.2 1.4 2.2-.4 1.9-.9 3.9-1.2 5.9-.4.8-1.1 1.4-2 1.4zm367-3.6c-.8 0-1.6-.6-1.8-1.4-.4-2-.9-4-1.4-5.9-.2-1 .4-2 1.3-2.2s2 .4 2.2 1.3c.5 2 1 4 1.4 6 .2 1-.4 2-1.4 2.2h-.3zm-362.3-15.3c-.2 0-.4 0-.5-.1-1-.3-1.5-1.3-1.2-2.3.6-2 1.2-3.9 1.9-5.9.3-1 1.4-1.5 2.3-1.1s1.5 1.4 1.1 2.3c-.6 1.9-1.3 3.8-1.9 5.8-.2.8-.9 1.3-1.7 1.3zm357.3-3.5c-.8 0-1.5-.5-1.7-1.3-.6-1.9-1.3-3.8-2-5.7-.3-.9.1-2 1.1-2.3s2 .1 2.3 1.1c.7 1.9 1.4 3.9 2 5.8.3 1-.2 2-1.2 2.3-.2 0-.3.1-.5.1zm-350.7-14.9c-.2 0-.5-.1-.7-.1-.9-.4-1.4-1.5-1-2.4.8-1.9 1.6-3.8 2.5-5.6.4-.9 1.5-1.3 2.4-.9.9.4 1.3 1.5.9 2.4-.8 1.8-1.7 3.7-2.4 5.5-.3.7-1 1.1-1.7 1.1zm343.7-3.3c-.7 0-1.4-.4-1.7-1.1-.8-1.8-1.7-3.7-2.5-5.5-.4-.9-.1-2 .9-2.4s2-.1 2.4.9c.9 1.8 1.8 3.7 2.6 5.6.4.9 0 2-.9 2.4-.3 0-.6.1-.8.1zm-335.1-14.3c-.3 0-.6-.1-.9-.2-.9-.5-1.2-1.6-.7-2.5 1-1.8 2-3.6 3.1-5.3.5-.9 1.6-1.1 2.5-.6.9.5 1.1 1.6.6 2.5-1 1.8-2.1 3.5-3 5.2-.4.6-1 .9-1.6.9zm326.2-3.1c-.6 0-1.2-.3-1.6-.9-1-1.7-2-3.4-3.1-5.2-.5-.9-.3-2 .6-2.5s2-.3 2.5.6c1.1 1.8 2.1 3.5 3.2 5.3.5.9.2 2-.7 2.5-.2.1-.5.2-.9.2zm-315.9-13.4c-.4 0-.7-.1-1-.3-.8-.6-1-1.7-.4-2.6 1.2-1.7 2.4-3.4 3.6-5 .6-.8 1.8-1 2.6-.4s1 1.8.4 2.6c-1.2 1.6-2.4 3.2-3.5 4.9-.6.5-1.2.8-1.7.8zm305.4-2.9c-.6 0-1.1-.3-1.5-.8l-3.6-4.8c-.6-.8-.5-1.9.3-2.6.8-.6 2-.5 2.6.3 1.2 1.6 2.5 3.3 3.7 4.9.6.8.4 2-.4 2.6-.4.3-.8.4-1.1.4zM168 149.7c-.4 0-.9-.1-1.2-.4-.8-.7-.9-1.8-.2-2.6 1.3-1.5 2.7-3.1 4.1-4.6.7-.7 1.8-.8 2.6-.1s.8 1.8.1 2.6c-1.4 1.5-2.7 3-4 4.5-.3.4-.9.6-1.4.6zm281.2-2.7c-.5 0-1-.2-1.4-.6-1.3-1.5-2.7-3-4.1-4.4-.7-.7-.7-1.9.1-2.6.7-.7 1.9-.7 2.6.1l4.2 4.5c.7.8.6 1.9-.1 2.6-.4.3-.9.4-1.3.4zm-267.7-11.4c-.5 0-1-.2-1.3-.6-.7-.7-.7-1.9.1-2.6 1.5-1.4 3-2.8 4.6-4.1.8-.7 1.9-.6 2.6.2.7.8.6 1.9-.2 2.6-1.5 1.3-3 2.7-4.5 4.1-.4.2-.8.4-1.3.4zm254-2.4c-.4 0-.9-.2-1.2-.5-1.5-1.4-3-2.7-4.5-4-.8-.6-.9-1.8-.2-2.6.6-.8 1.8-.9 2.6-.2 1.5 1.3 3.1 2.7 4.6 4.1.8.7.8 1.8.1 2.6-.5.4-.9.6-1.4.6zM196.4 123c-.6 0-1.1-.2-1.5-.7-.6-.8-.5-1.9.3-2.6 1.6-1.2 3.3-2.5 4.9-3.6.8-.6 2-.4 2.6.4.6.8.4 2-.4 2.6-1.6 1.2-3.3 2.4-4.9 3.6-.2.2-.6.3-1 .3zm223.9-2.1c-.4 0-.8-.1-1.1-.3-1.6-1.2-3.3-2.3-4.9-3.5-.8-.6-1-1.7-.5-2.5.6-.8 1.7-1.1 2.5-.5 1.7 1.2 3.4 2.4 5 3.6.8.6 1 1.7.4 2.6-.2.3-.8.6-1.4.6zM212.5 112c-.6 0-1.2-.3-1.6-.9-.5-.9-.2-2 .6-2.5 1.7-1.1 3.5-2.1 5.3-3.1.9-.5 2-.2 2.5.7.5.9.2 2-.7 2.5-1.8 1-3.5 2-5.2 3.1-.3.1-.6.2-.9.2zm191.5-1.8c-.3 0-.6-.1-.9-.2-1.7-1-3.5-2-5.3-3-.9-.5-1.2-1.6-.7-2.5.5-.9 1.6-1.2 2.5-.7l5.4 3c.9.5 1.2 1.6.7 2.5-.4.6-1 .9-1.7.9zm-174.4-7.4c-.7 0-1.3-.4-1.6-1-.4-.9-.1-2 .9-2.4 1.9-.9 3.7-1.7 5.6-2.5.9-.4 2 0 2.4.9s0 2-.9 2.4c-1.8.8-3.7 1.6-5.5 2.5-.4 0-.6.1-.9.1zm157.1-1.6c-.2 0-.5-.1-.8-.2-1.8-.8-3.7-1.6-5.5-2.4-.9-.4-1.4-1.4-1-2.4.4-.9 1.5-1.4 2.4-1l5.7 2.4c.9.4 1.3 1.5.9 2.4-.4.8-1 1.2-1.7 1.2zm-139.1-5.9c-.8 0-1.5-.5-1.7-1.2-.3-.9.2-2 1.1-2.3 1.9-.7 3.9-1.3 5.8-1.9 1-.3 2 .2 2.3 1.2.3 1-.2 2-1.2 2.3-1.9.6-3.8 1.2-5.7 1.9h-.6zm120.9-1.1c-.2 0-.4 0-.6-.1-1.9-.6-3.8-1.2-5.8-1.8-1-.3-1.5-1.3-1.2-2.3.3-1 1.3-1.5 2.3-1.2 2 .6 3.9 1.2 5.9 1.8 1 .3 1.5 1.3 1.2 2.3-.3.8-1 1.3-1.8 1.3zm-102.2-4.4c-.8 0-1.6-.6-1.8-1.4-.2-1 .4-2 1.4-2.2 2-.5 4-.9 6-1.3 1-.2 2 .4 2.2 1.4.2 1-.4 1.9-1.4 2.2-2 .4-4 .8-5.9 1.3h-.5zm83.4-.8h-.4c-2-.4-4-.8-5.9-1.2-1-.2-1.6-1.1-1.5-2.1.2-1 1.1-1.7 2.1-1.5l6 1.2c1 .2 1.6 1.2 1.4 2.2-.1.8-.9 1.4-1.7 1.4zm-64.2-2.7c-.9 0-1.7-.7-1.8-1.6-.1-1 .6-1.9 1.6-2.1 2-.3 4.1-.5 6.1-.7 1-.1 1.9.6 2 1.7s-.6 1.9-1.6 2c-2 .2-4 .4-6 .7h-.3zm45-.4h-.2l-6-.6c-1-.1-1.8-1-1.7-2 .1-1 1-1.8 2-1.7 2 .2 4.1.3 6.1.6 1 .1 1.7 1 1.6 2-.1 1-.9 1.7-1.8 1.7zm-25.6-1.1c-1 0-1.8-.8-1.8-1.8s.8-1.8 1.8-1.9c1.6 0 3.3-.1 4.9-.1h1.2c1 0 1.8.8 1.8 1.8s-.8 1.8-1.8 1.8h-1.2c-1.6.2-3.3.2-4.9.2z" id="Capa_5"/></svg>