<?xml version="1.0" encoding="UTF-8"?>
<svg width="107px" height="146px" viewBox="0 0 107 146" version="1.1" xmlns="http://www.w3.org/2000/svg" xmlns:xlink="http://www.w3.org/1999/xlink">
    <title>Group</title>
    <g id="Page-1" stroke="none" stroke-width="1" fill="none" fill-rule="evenodd">
        <g id="Group" fill-rule="nonzero">
            <g id="Shape-2">
                <path d="M35.1580577,0.0699315674 C42.1744224,0.157514483 47.6337575,2.30816164 52.0323662,6.79435321 C53.5310072,8.31245708 54.4165677,8.46816004 55.9249402,6.84301038 C64.1771971,-1.91528119 79.3874302,-1.91528119 88.5933677,5.97691266 C97.5170937,13.6550149 99.9888782,27.6974758 93.4590853,38.6356088 C89.0215509,46.1093509 82.5988037,51.5784174 76.0690108,56.9793639 C70.2301498,61.7866928 64.3912887,66.5161703 58.5524277,71.3137678 C56.255809,73.2016662 52.2853835,73.6687751 50.0763477,71.8392653 C40.3254498,63.7621742 29.8544256,56.4538664 20.9988197,47.2381974 C16.1331022,42.129194 12.2405281,36.3973787 11.0143673,29.1377281 C9.06808028,16.8858514 16.3958509,3.42727667 30.0879801,0.721937718 C32.0148042,0.34241175 33.912434,-0.19281718 35.1580577,0.0699315674 Z M35.1580577,7.85507963 C24.1615361,7.16414774 17.1062457,19.0851557 18.9454869,27.8434473 C20.06844,32.9965393 22.6374046,37.7226227 26.351109,41.4674564 C34.3406172,49.8072963 43.7801092,56.4733293 52.6259837,63.8497571 C53.7937559,64.8229006 54.757168,64.5212261 55.7984315,63.5967398 C57.374924,62.1856817 59.0389994,60.8719379 60.6641491,59.5192685 C67.6513195,53.6804074 75.1250616,48.3670439 81.4018372,41.7302051 C86.2675548,36.5725445 89.89738,30.7531464 89.0994024,23.0166555 C88.679597,17.9359545 85.940778,13.3325628 81.6760058,10.5394506 C77.4112336,7.74633835 72.0968833,7.07549709 67.2717935,8.72117735 C62.6882876,10.2295498 59.4185254,13.2949518 56.3823176,16.8566571 C54.0370418,19.6203846 53.9883846,19.4452188 51.7793488,16.6814912 C47.6824147,11.5919507 42.7972343,7.93293111 35.1775206,7.8453482 L35.1580577,7.85507963 Z" id="Shape" fill="#AB4747"></path>
                <path d="M9.72008643,126.237987 C9.72008643,122.724939 9.64223495,119.211891 9.72008643,115.708575 C9.77847504,113.956916 9.12646889,113.421687 7.47212493,113.538465 C6.0894622,113.632681 4.70087789,113.590307 3.32653359,113.411956 C0.679583247,113.042161 -0.566040443,111.008291 0.49468598,108.604627 C3.58928234,101.792622 6.82985022,95.0682008 10.0217609,88.3048534 C10.7065756,86.9563215 12.0904781,86.1064246 13.602929,86.1055491 C26.4484233,84.6361024 39.2841862,83.0693414 52.1394119,81.7166719 C56.5672149,81.2592944 60.9560921,82.4465295 65.3547008,82.903907 C74.4438611,83.8770505 83.5038272,85.0448227 92.602719,86.0374291 C94.5736227,86.1109909 96.3181342,87.3336725 97.0597163,89.1612197 C99.8915639,95.3796067 102.898577,101.529874 105.740156,107.719066 C107.345843,111.183457 106.119682,113.246522 102.334154,113.557927 C96.7872361,113.976379 96.7872361,113.976379 96.7872361,119.630343 C96.7872361,125.284307 96.7872361,130.899345 96.7872361,136.543577 C96.7872361,139.628442 95.8140926,140.6989 92.7876163,141.058963 C80.1367507,142.538141 67.4858851,144.085439 54.8350195,145.418646 C50.4072165,145.885755 46.0183393,144.679057 41.6197306,144.231411 C32.5208388,143.258267 23.4608728,142.148884 14.3717124,141.097889 C10.7224242,140.679437 9.7395493,139.638173 9.72981787,135.969422 C9.710355,132.709392 9.72008643,129.478555 9.72008643,126.237987 Z M57.6765985,97.8221969 L57.0051295,98.0654828 L57.0051295,136.232171 C57.0051295,137.205315 56.8202322,138.285504 58.5329648,138.081144 C68.2643999,136.926347 77.9958349,135.816963 87.72727,134.752993 C89.2453739,134.587559 89.673557,133.906358 89.673557,132.42718 C89.5859741,126.889994 89.5665113,121.343076 89.673557,115.805889 C89.673557,114.015305 89.2356425,113.392493 87.3769384,113.431419 C82.112232,113.548196 76.8377942,113.382762 71.5730878,113.50927 C69.4220738,113.668894 67.3758274,112.558292 66.3375757,110.667691 C63.4862652,106.327471 60.5473718,102.094297 57.6765985,97.8221969 Z M49.589776,96.9755621 C46.1740422,102.026177 43.1572974,106.31774 40.3546441,110.735811 C39.3030185,112.619498 37.237609,113.703742 35.0899377,113.499539 C29.8349627,113.392493 24.5702564,113.499539 19.30555,113.431419 C17.4955031,113.431419 16.9018855,113.976379 16.9408113,115.796158 C17.047857,120.96355 17.1257085,126.140673 16.9408113,131.308065 C16.8434969,133.770118 17.6317432,134.655679 20.0256762,134.898965 C29.2964903,135.833182 38.5543286,136.871202 47.7991919,138.013024 C49.4243416,138.207653 49.6384331,137.701618 49.6384331,136.319754 C49.5800445,123.503454 49.589776,110.667691 49.589776,96.9755621 Z M60.5668347,89.3169227 C64.5177974,95.1557837 68.1573541,100.595656 71.7871794,106.006334 C72.109866,106.467766 72.6577458,106.717481 73.2177003,106.65834 L97.2835393,106.65834 C95.3372523,102.415434 93.3909652,98.5325917 91.6782327,94.6010919 C91.2453638,93.3732773 90.1082515,92.5329705 88.8074593,92.4796391 C85.4111885,92.1487703 81.9954548,91.7011243 78.6478411,91.3215983 L60.5668347,89.3169227 Z M46.1351165,89.2585341 L17.1062457,92.6548049 C16.5710167,92.7229249 15.9871306,92.6548049 15.6951876,93.3262739 L9.37948621,106.668071 C17.6317432,106.668071 25.300114,106.668071 32.9684848,106.668071 C33.8036308,106.776626 34.6274337,106.398734 35.0899377,105.694928 C38.6029857,100.449684 42.1549596,95.184978 46.1351165,89.2585341 L46.1351165,89.2585341 Z" id="Shape" fill="#A77942"></path>
            </g>
        </g>
    </g>
</svg>