<?xml version="1.0" encoding="UTF-8"?>
<svg width="630px" height="420px" viewBox="0 0 630 420" version="1.1" xmlns="http://www.w3.org/2000/svg" xmlns:xlink="http://www.w3.org/1999/xlink">
    <title>Group 3</title>
    <g id="Page-1" stroke="none" stroke-width="1" fill="none" fill-rule="evenodd">
        <g id="Group-3" fill="#FFF8EE">
            <rect id="Rectangle" x="0" y="0" width="630" height="420"></rect>
        </g>
        <g id="3035166" transform="translate(165.000000, 105.000000)" fill-rule="nonzero">
            <g id="Group" transform="translate(16.800000, 0.000000)">
                <g transform="translate(93.100000, 0.000000)" fill="#DCF9FE" id="Path">
                    <g transform="translate(2.100000, 39.200000)">
                        <polygon points="22.4 0 33.6 0 33.6 11.2 22.4 11.2"></polygon>
                        <polygon points="0 0 11.2 0 11.2 11.2 0 11.2"></polygon>
                        <polygon points="44.8 0 56 0 56 11.2 44.8 11.2"></polygon>
                        <polygon points="67.2 0 78.4 0 78.4 11.2 67.2 11.2"></polygon>
                        <polygon points="89.6 0 100.8 0 100.8 11.2 89.6 11.2"></polygon>
                        <polygon points="112 0 123.2 0 123.2 11.2 112 11.2"></polygon>
                    </g>
                    <g>
                        <polygon transform="translate(6.972534, 18.194374) rotate(-10.017934) translate(-6.972534, -18.194374) " points="1.37113148 12.5926217 12.5739367 12.5926217 12.5739367 23.7961272 1.37113148 23.7961272"></polygon>
                        <polygon transform="translate(29.034694, 14.296018) rotate(-10.017934) translate(-29.034694, -14.296018) " points="23.4332919 8.69426504 34.6360971 8.69426504 34.6360971 19.8977705 23.4332919 19.8977705"></polygon>
                        <polygon transform="translate(51.097555, 10.396961) rotate(-10.017934) translate(-51.097555, -10.396961) " points="45.4961523 4.79520834 56.6989575 4.79520834 56.6989575 15.9987138 45.4961523 15.9987138"></polygon>
                        <polygon transform="translate(73.160537, 6.499294) rotate(-10.017934) translate(-73.160537, -6.499294) " points="67.5591345 0.897541138 78.7619397 0.897541138 78.7619397 12.1010466 67.5591345 12.1010466"></polygon>
                    </g>
                    <g transform="translate(0.000000, 64.400000)">
                        <polygon transform="translate(7.001831, 6.959982) rotate(-79.982066) translate(-7.001831, -6.959982) " points="1.40007849 1.35857943 12.6035839 1.35857943 12.6035839 12.5613847 1.40007849 12.5613847"></polygon>
                        <polygon transform="translate(29.070088, 10.846822) rotate(-79.982066) translate(-29.070088, -10.846822) " points="23.4683352 5.24541903 34.6718406 5.24541903 34.6718406 16.4482243 23.4683352 16.4482243"></polygon>
                        <polygon transform="translate(51.138933, 14.734229) rotate(-79.982066) translate(-51.138933, -14.734229) " points="45.5371806 9.13282633 56.740686 9.13282633 56.740686 20.3356316 45.5371806 20.3356316"></polygon>
                        <polygon transform="translate(73.206490, 18.620369) rotate(-79.982066) translate(-73.206490, -18.620369) " points="67.6047373 13.0189659 78.8082427 13.0189659 78.8082427 24.2217712 67.6047373 24.2217712"></polygon>
                    </g>
                </g>
                <g transform="translate(0.000000, 28.000000)" id="Path">
                    <polygon fill="#DCF9FE" points="5.6 145.6 72.8 145.6 72.8 201.6 5.6 201.6"></polygon>
                    <g transform="translate(22.400000, 156.800000)" fill="#000000">
                        <polygon points="11.2 0 22.4 0 22.4 33.6 11.2 33.6"></polygon>
                        <polygon points="0 11.2 33.6 11.2 33.6 22.4 0 22.4"></polygon>
                    </g>
                    <polygon fill="#000000" points="0 229.6 44.8 229.6 44.8 240.8 0 240.8"></polygon>
                    <polygon fill="#000000" points="56 229.6 78.4 229.6 78.4 240.8 56 240.8"></polygon>
                    <polygon fill="#000000" points="33.6 0 44.8 0 44.8 33.6 33.6 33.6"></polygon>
                </g>
            </g>
            <g id="Group">
                <g transform="translate(109.900000, 0.000000)" fill="#DCF9FE" id="Path">
                    <g transform="translate(2.100000, 39.200000)">
                        <polygon points="22.4 0 33.6 0 33.6 11.2 22.4 11.2"></polygon>
                        <polygon points="0 0 11.2 0 11.2 11.2 0 11.2"></polygon>
                        <polygon points="44.8 0 56 0 56 11.2 44.8 11.2"></polygon>
                        <polygon points="67.2 0 78.4 0 78.4 11.2 67.2 11.2"></polygon>
                        <polygon points="89.6 0 100.8 0 100.8 11.2 89.6 11.2"></polygon>
                        <polygon points="112 0 123.2 0 123.2 11.2 112 11.2"></polygon>
                    </g>
                    <g>
                        <polygon transform="translate(6.972534, 18.194374) rotate(-10.017934) translate(-6.972534, -18.194374) " points="1.37113148 12.5926217 12.5739367 12.5926217 12.5739367 23.7961272 1.37113148 23.7961272"></polygon>
                        <polygon transform="translate(29.034694, 14.296018) rotate(-10.017934) translate(-29.034694, -14.296018) " points="23.4332919 8.69426504 34.6360971 8.69426504 34.6360971 19.8977705 23.4332919 19.8977705"></polygon>
                        <polygon transform="translate(51.097555, 10.396961) rotate(-10.017934) translate(-51.097555, -10.396961) " points="45.4961523 4.79520834 56.6989575 4.79520834 56.6989575 15.9987138 45.4961523 15.9987138"></polygon>
                        <polygon transform="translate(73.160537, 6.499294) rotate(-10.017934) translate(-73.160537, -6.499294) " points="67.5591345 0.897541138 78.7619397 0.897541138 78.7619397 12.1010466 67.5591345 12.1010466"></polygon>
                    </g>
                    <g transform="translate(0.000000, 64.400000)">
                        <polygon transform="translate(7.001831, 6.959982) rotate(-79.982066) translate(-7.001831, -6.959982) " points="1.40007849 1.35857943 12.6035839 1.35857943 12.6035839 12.5613847 1.40007849 12.5613847"></polygon>
                        <polygon transform="translate(29.070088, 10.846822) rotate(-79.982066) translate(-29.070088, -10.846822) " points="23.4683352 5.24541903 34.6718406 5.24541903 34.6718406 16.4482243 23.4683352 16.4482243"></polygon>
                        <polygon transform="translate(51.138933, 14.734229) rotate(-79.982066) translate(-51.138933, -14.734229) " points="45.5371806 9.13282633 56.740686 9.13282633 56.740686 20.3356316 45.5371806 20.3356316"></polygon>
                        <polygon transform="translate(73.206490, 18.620369) rotate(-79.982066) translate(-73.206490, -18.620369) " points="67.6047373 13.0189659 78.8082427 13.0189659 78.8082427 24.2217712 67.6047373 24.2217712"></polygon>
                    </g>
                </g>
                <g transform="translate(0.000000, 11.200000)" id="Path">
                    <path d="M22.4,100.8 L1.176,132.63656 C0.409294111,133.786393 -4.97379915e-15,135.137449 -4.97379915e-15,136.51946 L-4.97379915e-15,299.6 C-4.97379915e-15,307.331986 6.2680135,313.6 14,313.6 L98,313.6 C105.731986,313.6 112,307.331986 112,299.6 L112,136.51946 C112,135.137485 111.590932,133.786432 110.82435,132.63656 L89.6,100.8 L84,95.2 L28,95.2 L22.4,100.8 Z" fill="#73BBE9"></path>
                    <polygon fill="#DCF9FE" points="22.4 162.4 89.6 162.4 89.6 218.4 22.4 218.4"></polygon>
                    <path d="M84,67.2 L78.4,72.8 L33.6,72.8 L28,67.2 L28,7 C28,3.13400675 31.1340068,0 35,0 L77,0 C80.8659932,0 84,3.13400675 84,7 L84,67.2 Z" fill="#DCF9FE"></path>
                    <polygon fill="#95D6A4" points="72.8 184.8 61.6 184.8 61.6 173.6 50.4 173.6 50.4 184.8 39.2 184.8 39.2 196 50.4 196 50.4 207.2 61.6 207.2 61.6 196 72.8 196"></polygon>
                    <polygon fill="#DCF9FE" points="16.8 246.4 61.6 246.4 61.6 257.6 16.8 257.6"></polygon>
                    <polygon fill="#DCF9FE" points="72.8 246.4 95.2 246.4 95.2 257.6 72.8 257.6"></polygon>
                    <polygon fill="#79D8EB" points="50.4 16.8 61.6 16.8 61.6 50.4 50.4 50.4"></polygon>
                </g>
                <rect id="Rectangle" fill="#B3E59F" x="22.4" y="78.4" width="67.2" height="33.6" rx="7"></rect>
            </g>
            <path d="M300.80351,116.91197 L291.2,0.46669 L285.98885,0.391536138 C278.496179,0.290175491 271.274436,3.19373889 265.939105,8.45541137 C260.603774,13.7170838 257.600102,20.8977661 257.6,28.39116 L257.6,123.2 L257.35262,123.07218 L234.28797,166.22718 C231.349474,171.725432 224.567158,173.88402 218.99129,171.09561 L247.37405,117.99046 C236.199405,113.148585 223.176551,116.084859 215.16089,125.25359 L182.82691,162.2397 C173.566353,172.832748 170.225305,187.35917 173.92739,200.9336 L184.8,240.8 L184.8,336 L246.4,336 L246.4,220.73653 L291.66704,152.45853 C298.619125,141.972422 301.837552,129.450738 300.80351,116.91197 Z" id="Path" fill="#FFD4CF"></path>
        </g>
    </g>
</svg>