<svg data-name="Capa 1" xmlns="http://www.w3.org/2000/svg" viewBox="0 0 385.88 385.88"><path d="M182 21.46V61a44.58 44.58 0 001.86 78.29l-24.35 9.13a16.71 16.71 0 00-16.6-15.29H42.42a16.78 16.78 0 00-16.76 16.77v95c0 .5.16 4.65 2.59 7 2.75 2.69 7.83 3.61 8 4h106.7a16.77 16.77 0 0016.75-16.76v-43.05l10.09-3.79-10.83 86h11.91v61.43a27.92 27.92 0 0042.79 23.63 22.15 22.15 0 0013.05 4.29h122.83V21.46zm111.7 309.26v-92.5a16.61 16.61 0 0022.3-15.73v-55.84a16.61 16.61 0 00-22.34-15.73v-92.5l44.68-22.34v317zm0-164.07a5.59 5.59 0 0111.17 0v55.84a5.59 5.59 0 11-11.17 0zm-100.51-134h127.12l-37.78 18.87v286.1l37.78 18.89h-74.38a22.11 22.11 0 003.1-11.17v-67h11.67l-8.69-101a48 48 0 00-25.75-38.75 44.78 44.78 0 008.6-6.35 22.29 22.29 0 1019.75-32.54 21.55 21.55 0 00-5.62.8v-.8A44.72 44.72 0 00204.36 55a44.25 44.25 0 00-11.17 1.47zm61.42 78.18A11.17 11.17 0 11243.45 122a7.15 7.15 0 01.1-.93 44.39 44.39 0 002.84-6.46 11.09 11.09 0 018.22-3.8zm-50.25-44.69a33.44 33.44 0 0126.71 53.64l-10.13-17.73a38.07 38.07 0 00-33-19.17h-12.55a33.49 33.49 0 0129-16.74zm-33.51 33.5a34.25 34.25 0 01.5-5.58h16.57a26.86 26.86 0 0123.32 13.53l11.46 20a33.47 33.47 0 01-51.85-28zm-22.33 50.26v2.66L115 165.13v-20.82h27.92a5.6 5.6 0 015.6 5.59zm-67-5.59h22.33v22.34H81.51zm67 94.93a5.59 5.59 0 01-5.59 5.59H42.42a5.59 5.59 0 01-5.59-5.59V149.9a5.6 5.6 0 015.59-5.59h27.92v33.51H95.8a22.16 22.16 0 00-1.7 19 22.36 22.36 0 0028.72 13.09l25.7-9.64zm-29.6-39.79a11.4 11.4 0 01-14.37-6.54 11.18 11.18 0 016.54-14.38l1.89-.71h2v-.76L200.46 145a11.2 11.2 0 013.89-.7 36.82 36.82 0 0136.53 33.88l7.65 89H171.6l10-79.29 30.61-11.48-3.92-10.46zM182 339.76v-61.43h22.34v67a22.05 22.05 0 002.06 9.25 16.64 16.64 0 01-24.4-14.82zm33.51 5.58v-67h22.33v67a11.17 11.17 0 11-22.33 0z" fill="#ad7736"/><path data-name="Shape" d="M92 113.6a6.64 6.64 0 01-4.26-1.51C83.27 108.44 79 105 75.17 102h0C64 93.07 54.44 85.39 47.77 77.82c-7.46-8.45-10.94-16.47-10.94-25.23a31.27 31.27 0 018.75-22.11 30.58 30.58 0 0122.06-9A28.88 28.88 0 0185 27.08 34.76 34.76 0 0192 34a34.46 34.46 0 017-6.87 29 29 0 0117.33-5.62 30.58 30.58 0 0122.07 9 31.31 31.31 0 018.74 22.11c0 8.75-3.48 16.77-10.94 25.22-6.67 7.56-16.27 15.25-27.38 24.14-3.8 3-8.09 6.48-12.56 10.14A6.66 6.66 0 0192 113.6zM67.65 27.53a24 24 0 00-17.31 7.06 25.44 25.44 0 00-7 18c0 7.37 2.92 14 9.45 21.35 6.32 7.16 15.72 14.68 26.6 23.39h0c3.8 3 8.11 6.49 12.6 10.18 4.51-3.69 8.83-7.15 12.64-10.19 10.89-8.71 20.28-16.23 26.59-23.39 6.54-7.4 9.45-14 9.45-21.35a25.44 25.44 0 00-7-18 23 23 0 00-6.26-4.54 24.8 24.8 0 00-11-2.52 28.88 28.88 0 00-6.08.8C100.6 30.77 93.44 40.15 92.1 42c-1.77-2.6-7.52-10.41-16.93-13.26a25.32 25.32 0 00-7.52-1.21z" fill="#f57373" stroke="#f57373" stroke-width="6"/></svg>