<svg xmlns="http://www.w3.org/2000/svg" viewBox="0 0 473.94 473.94"><circle cx="236.97" cy="236.97" r="236.97" fill="#f3f2f2"/><circle cx="252.34" cy="222.26" r="31.18" fill="#f26e21"/><g fill="#0b161f"><path d="M84.407 237.19c-3.674 3.289-8.415 4.715-15.944 4.715h-3.124v-39.146h3.124c7.528 0 12.082 1.332 15.944 4.789 4.026 3.551 6.428 9.048 6.428 14.728 0 5.683-2.402 11.374-6.428 14.914zm-13.609-44.456H53.691v59.187h17.021c9.033 0 15.562-2.118 21.291-6.832 6.795-5.59 10.829-14.02 10.829-22.735-.001-17.474-13.164-29.62-32.034-29.62M108.2 251.921h11.63v-59.187H108.2v59.187M148.301 215.439c-6.99-2.571-9.048-4.262-9.048-7.442 0-3.731 3.663-6.571 8.681-6.571 3.491 0 6.35 1.418 9.407 4.782l6.073-7.888c-5.006-4.355-11.001-6.571-17.541-6.571-10.552 0-18.612 7.278-18.612 16.939 0 8.176 3.753 12.344 14.679 16.258 4.565 1.59 6.885 2.649 8.052 3.371 2.324 1.512 3.495 3.633 3.495 6.118 0 4.801-3.85 8.344-9.048 8.344-5.549 0-10.02-2.746-12.707-7.895l-7.506 7.195c5.358 7.798 11.802 11.274 20.669 11.274 12.078 0 20.576-8 20.576-19.442.005-9.413-3.924-13.675-17.17-18.472M169.143 222.354c0 17.414 13.785 30.903 31.506 30.903 5.014 0 9.302-.984 14.589-3.454V236.21c-4.658 4.621-8.778 6.481-14.058 6.481-11.723 0-20.048-8.434-20.048-20.419 0-11.356 8.591-20.325 19.517-20.325 5.538 0 9.751 1.949 14.589 6.657v-13.583c-5.096-2.567-9.313-3.626-14.327-3.626-17.625.004-31.768 13.762-31.768 30.959M309.556 232.491l-15.933-39.757h-12.707l25.336 60.703h6.256l25.781-60.703h-12.621l-16.112 39.757M343.576 251.921h33.017v-10.016h-21.384v-15.992h20.565v-10.017h-20.565v-13.138h21.384v-10.024h-33.017v59.187M399.313 219.978h-3.39V202.04h3.573c7.263 0 11.203 3.031 11.203 8.789 0 5.942-3.94 9.149-11.386 9.149zm23.356-9.777c0-11.087-7.689-17.467-21.122-17.467h-17.268v59.187h11.641v-23.786h1.527l16.097 23.786h14.32l-18.802-24.935c8.784-1.773 13.607-7.726 13.607-16.785"/></g><path d="M138.61 306.933v-33.298l22.735 23.786v-21.669h4.707v33.077l-22.735-23.73v21.829h-4.707v.005zM190.729 280.176h-12.501v7.491h12.138v4.426h-12.138v10.417h12.501v4.423h-17.205v-31.176h17.205v4.419zM205.509 280.176v26.754h-4.707v-26.754h-7.165v-4.423h19.023v4.423h-7.151zM220.251 275.757l8.12 20.838 8.486-22.353 8.116 22.353 8.621-20.838h5.111l-13.934 33.156-8.019-22.091-8.359 22.114-13.25-33.178 5.108-.001zM259.607 291.206c0-4.393 1.613-8.161 4.827-11.308 3.203-3.151 7.057-4.726 11.555-4.726 4.441 0 8.251 1.587 11.427 4.763 3.192 3.181 4.782 6.993 4.782 11.454 0 4.479-1.601 8.284-4.801 11.409-3.218 3.136-7.102 4.707-11.652 4.707-4.022 0-7.641-1.396-10.844-4.18-3.528-3.086-5.294-7.127-5.294-12.119zm4.748.049c0 3.442 1.16 6.271 3.472 8.494 2.301 2.223 4.962 3.33 7.981 3.33 3.267 0 6.028-1.13 8.277-3.386 2.249-2.286 3.371-5.07 3.371-8.352 0-3.326-1.111-6.11-3.334-8.352-2.208-2.26-4.939-3.39-8.198-3.39-3.244 0-5.983 1.13-8.213 3.39-2.237 2.223-3.356 4.984-3.356 8.266zM308.677 293.646l9.654 13.287h-5.755l-8.905-12.759h-.849v12.759h-4.707v-31.176h5.512c4.123 0 7.094.775 8.928 2.324 2.021 1.721 3.031 3.996 3.031 6.825 0 2.208-.632 4.105-1.901 5.691-1.267 1.586-2.932 2.607-5.008 3.049zm-5.853-3.574h1.489c4.456 0 6.687-1.703 6.687-5.108 0-3.192-2.167-4.786-6.503-4.786h-1.673v9.894zM327.722 288.194l12.135-12.438h6.282l-14.095 14.118 14.178 17.059h-6.301l-11.229-13.871-.969.973v12.898h-4.707v-31.176h4.707v12.437h-.001z"/><path d="M473.194 254.743c-44.568 56.448-148.017 153.97-331.984 198.987 29.283 12.954 61.657 20.202 95.737 20.202 124.889-.001 227.143-96.632 236.247-219.189z" fill="#f26e21"/></svg>