<svg xmlns="http://www.w3.org/2000/svg" xmlns:xlink="http://www.w3.org/1999/xlink" viewBox="0 0 618 566"><style>.st6{fill:#fff}.st9{fill:#f7cecc}.st11{fill:#f9ddb6}.st12{fill:#333}.st13{stroke:#333;stroke-width:2.2818;stroke-linecap:round;stroke-linejoin:round;stroke-miterlimit:10}.st13,.st14{fill:none}</style><g id="Capa_4_1_"><path d="M556.28 274.86c0 21.01-20.89 38.98-26.06 58.36-5.36 20.04 3.58 46.03-6.57 63.58-10.3 17.8-37.37 22.99-51.82 37.44-14.45 14.45-19.64 41.52-37.44 51.82-17.55 10.15-43.54 1.21-63.58 6.57-19.37 5.18-37.35 26.07-58.36 26.07-21 0-38.98-20.89-58.35-26.07-20.05-5.36-46.03 3.58-63.58-6.57-17.81-10.3-22.99-37.37-37.44-51.82-14.45-14.45-41.52-19.64-51.82-37.44-10.16-17.55-1.21-43.54-6.57-63.58-5.18-19.37-26.07-37.35-26.07-58.36 0-21.01 20.89-38.98 26.07-58.36 5.36-20.04-3.58-46.03 6.57-63.58 10.3-17.8 37.37-22.99 51.82-37.44 14.45-14.45 19.64-41.52 37.44-51.82 17.55-10.15 43.54-1.21 63.58-6.57 19.37-5.18 37.35-26.07 58.35-26.07 21.01 0 38.99 20.89 58.36 26.07 20.05 5.36 46.03-3.58 63.58 6.57 17.8 10.3 22.99 37.37 37.44 51.82 14.45 14.45 41.52 19.64 51.82 37.44 10.16 17.55 1.21 43.54 6.57 63.58 5.17 19.37 26.06 37.35 26.06 58.36z" fill="#ad7733"/><path class="st6" d="M312.44 478.66c-112.38 0-203.8-91.43-203.8-203.8s91.42-203.8 203.8-203.8c112.38 0 203.8 91.42 203.8 203.8s-91.42 203.8-203.8 203.8zm0-399.07c-107.67 0-195.26 87.6-195.26 195.27 0 107.67 87.6 195.27 195.26 195.27 107.67 0 195.27-87.6 195.27-195.27 0-107.67-87.6-195.27-195.27-195.27z"/><path class="st9" d="M433.46 274.86c0 66.83-54.18 121.02-121.02 121.02-66.83 0-121.01-54.18-121.01-121.02 0-66.83 54.18-121.02 121.01-121.02 66.84 0 121.02 54.18 121.02 121.02z"/><path class="st6" d="M312.44 463.93c-1.51 0-3.01-.02-4.52-.05a1.838 1.838 0 01-1.79-1.87c.02-.99.84-1.78 1.83-1.78h.04c2 .04 4.02.06 6.03.04h.02a1.831 1.831 0 01.02 3.66h-1.63zm15.01-.6c-.95 0-1.75-.72-1.82-1.68-.08-1.01.67-1.89 1.68-1.97 2-.16 4.02-.35 6.01-.57 1.01-.11 1.91.61 2.02 1.62.11 1-.61 1.91-1.62 2.02-2.03.23-4.09.43-6.12.59-.05-.01-.1-.01-.15-.01zm-32.86-.24c-.06 0-.12 0-.17-.01-2.03-.19-4.09-.42-6.12-.68-1-.13-1.71-1.04-1.58-2.05.13-1 1.05-1.71 2.05-1.58 1.99.25 4.01.48 6 .67 1.01.09 1.74.99 1.65 1.99-.1.95-.89 1.66-1.83 1.66zm52.18-2.31c-.86 0-1.63-.62-1.8-1.49-.18-.99.47-1.95 1.46-2.13 1.96-.36 3.95-.77 5.92-1.2 1-.21 1.96.41 2.18 1.4.22.99-.41 1.96-1.39 2.18-2.01.44-4.04.85-6.03 1.22-.11.02-.23.02-.34.02zm-71.46-.53c-.12 0-.24-.01-.36-.04-2-.4-4.02-.84-6.01-1.31a1.833 1.833 0 01-1.36-2.2c.23-.98 1.22-1.59 2.2-1.36 1.95.46 3.93.89 5.9 1.29.99.2 1.63 1.16 1.43 2.15-.19.87-.95 1.47-1.8 1.47zm90.42-4.01a1.827 1.827 0 01-.52-3.58c1.93-.57 3.86-1.18 5.76-1.81.96-.32 1.99.2 2.31 1.16.32.96-.2 1.99-1.16 2.31-1.93.64-3.91 1.26-5.87 1.85-.17.04-.35.07-.52.07zm-109.3-.83c-.18 0-.36-.03-.55-.09-1.95-.61-3.92-1.27-5.86-1.94a1.833 1.833 0 01-1.12-2.33 1.83 1.83 0 012.33-1.12c1.9.67 3.83 1.31 5.75 1.9.96.3 1.5 1.33 1.2 2.29-.25.78-.97 1.29-1.75 1.29zm127.67-5.68c-.72 0-1.4-.43-1.69-1.13-.39-.93.06-2 .99-2.39 1.85-.77 3.71-1.57 5.52-2.39.92-.42 2-.01 2.42.91.42.92.01 2-.91 2.42-1.85.84-3.74 1.66-5.63 2.44a1.9 1.9 0 01-.7.14zm-145.98-1.13c-.24 0-.49-.05-.73-.15-1.88-.81-3.77-1.67-5.62-2.54-.91-.43-1.3-1.52-.87-2.43.43-.91 1.52-1.3 2.44-.88 1.81.86 3.67 1.7 5.51 2.5.93.4 1.36 1.48.95 2.4-.3.69-.97 1.1-1.68 1.1zm163.55-7.26c-.65 0-1.28-.35-1.61-.95-.48-.89-.15-2 .73-2.48 1.75-.95 3.52-1.95 5.24-2.96a1.827 1.827 0 011.85 3.15c-1.76 1.03-3.56 2.05-5.35 3.02-.27.15-.57.22-.86.22zm-181.03-1.42c-.31 0-.61-.08-.9-.24-1.78-1-3.57-2.06-5.32-3.11a1.825 1.825 0 01-.61-2.51c.53-.86 1.65-1.13 2.51-.61 1.71 1.04 3.47 2.07 5.22 3.05.88.5 1.19 1.61.7 2.49-.34.59-.96.93-1.6.93zm197.64-8.75a1.825 1.825 0 01-1.04-3.33c1.64-1.13 3.3-2.3 4.91-3.49.81-.6 1.96-.42 2.56.39.6.81.42 1.96-.39 2.56a208.15 208.15 0 01-5.01 3.56c-.32.2-.68.31-1.03.31zm-214.11-1.71c-.37 0-.74-.11-1.06-.33-1.67-1.19-3.34-2.41-4.96-3.65a1.83 1.83 0 01-.35-2.56c.61-.8 1.76-.96 2.56-.35 1.59 1.21 3.23 2.41 4.87 3.58.82.58 1.02 1.72.43 2.55-.36.5-.92.76-1.49.76zm229.58-10.13c-.52 0-1.03-.22-1.39-.64-.65-.77-.56-1.92.21-2.58 1.53-1.31 3.06-2.65 4.53-3.99.75-.68 1.9-.63 2.58.12.68.75.63 1.91-.12 2.58-1.5 1.36-3.05 2.73-4.62 4.06-.35.3-.77.45-1.19.45zm-244.87-1.96c-.43 0-.86-.15-1.21-.46-1.54-1.36-3.08-2.75-4.56-4.14-.73-.69-.77-1.85-.08-2.59.69-.74 1.85-.77 2.59-.08 1.45 1.36 2.95 2.73 4.47 4.06.76.67.83 1.82.17 2.58-.37.41-.88.63-1.38.63zm259.03-11.43c-.45 0-.91-.17-1.26-.51-.73-.7-.76-1.86-.06-2.59 1.38-1.44 2.76-2.94 4.09-4.43.68-.75 1.83-.82 2.58-.14.75.67.82 1.83.15 2.58a163.15 163.15 0 01-4.18 4.52c-.35.38-.83.57-1.32.57zm-272.99-2.19c-.49 0-.98-.2-1.34-.59-1.38-1.49-2.76-3.03-4.1-4.58a1.824 1.824 0 112.76-2.39c1.31 1.52 2.67 3.03 4.02 4.49.69.74.64 1.9-.1 2.58-.35.33-.8.49-1.24.49zm285.71-12.59c-.39 0-.78-.13-1.12-.38-.8-.62-.95-1.77-.33-2.57 1.23-1.59 2.44-3.22 3.61-4.84.59-.82 1.74-1 2.56-.41.82.59 1 1.74.41 2.55-1.19 1.65-2.44 3.31-3.69 4.93-.36.48-.9.72-1.44.72zm-298.18-2.38c-.55 0-1.1-.25-1.46-.73-1.22-1.63-2.43-3.3-3.61-4.98-.58-.83-.37-1.97.45-2.55.83-.57 1.97-.38 2.55.45a216.5 216.5 0 003.53 4.88c.6.81.44 1.95-.37 2.56-.33.25-.71.37-1.09.37zm309.29-13.65c-.33 0-.66-.09-.96-.27a1.83 1.83 0 01-.59-2.52 245 245 0 003.1-5.19c.5-.88 1.63-1.18 2.5-.67.87.5 1.18 1.62.67 2.5-1.02 1.77-2.08 3.55-3.16 5.29-.35.56-.94.86-1.56.86zM151.6 372.6c-.62 0-1.23-.32-1.57-.89-1.05-1.75-2.08-3.55-3.07-5.32-.49-.88-.17-2 .72-2.49.88-.49 1.99-.17 2.49.71.97 1.74 1.98 3.5 3.01 5.22.52.87.23 1.99-.63 2.51-.31.17-.63.26-.95.26zm329.54-14.57c-.27 0-.54-.06-.8-.18a1.828 1.828 0 01-.85-2.44c.88-1.81 1.73-3.66 2.54-5.49.41-.92 1.49-1.34 2.41-.93.92.41 1.34 1.49.93 2.41a201.9 201.9 0 01-2.59 5.6c-.31.65-.96 1.03-1.64 1.03zm-338.64-2.64c-.69 0-1.35-.39-1.66-1.06-.86-1.85-1.7-3.74-2.49-5.61-.4-.93.04-2 .97-2.4.93-.4 2 .04 2.39.97.78 1.83 1.6 3.68 2.44 5.5a1.829 1.829 0 01-1.65 2.6zm346.2-15.36a1.83 1.83 0 01-1.72-2.45c.68-1.9 1.34-3.83 1.95-5.73a1.829 1.829 0 013.48 1.12c-.63 1.94-1.3 3.91-1.99 5.84-.27.76-.98 1.22-1.72 1.22zm-353.46-2.7c-.76 0-1.47-.48-1.73-1.24-.66-1.92-1.3-3.89-1.9-5.85-.29-.97.25-1.99 1.22-2.28.96-.29 1.99.25 2.28 1.21.59 1.92 1.21 3.85 1.86 5.74.33.96-.18 1.99-1.14 2.32-.19.07-.39.1-.59.1zm359.08-15.98c-.14 0-.29-.02-.44-.05a1.828 1.828 0 01-1.34-2.21c.48-1.95.93-3.93 1.34-5.88.21-.99 1.18-1.62 2.17-1.41.99.21 1.62 1.18 1.41 2.17-.42 1.99-.88 4.01-1.37 6-.2.82-.94 1.38-1.77 1.38zm-364.41-2.76c-.83 0-1.59-.57-1.78-1.42-.45-1.98-.88-4.01-1.27-6.02-.19-.99.45-1.95 1.45-2.15.98-.2 1.95.45 2.14 1.45.38 1.97.8 3.96 1.25 5.9.23.98-.39 1.96-1.37 2.19-.15.03-.29.05-.42.05zm368.05-16.39c-.08 0-.17 0-.25-.02-1-.13-1.7-1.06-1.57-2.06.27-1.99.51-4.01.72-5.99.1-1.01 1-1.73 2.01-1.63 1 .1 1.73 1 1.63 2.01-.21 2.02-.45 4.08-.73 6.11-.12.92-.9 1.58-1.81 1.58zm-371.4-2.82c-.91 0-1.7-.68-1.81-1.61-.24-2.01-.46-4.07-.64-6.12a1.82 1.82 0 011.66-1.98c1.02-.09 1.89.65 1.98 1.66.18 2.02.39 4.03.63 6 .12 1-.59 1.91-1.6 2.04-.07.01-.14.01-.22.01zm373.03-16.6h-.06c-1.01-.03-1.8-.88-1.77-1.89.06-1.98.09-4.01.09-6.03 0-.07 0-.14.01-.21-.01-.07-.01-.14-.01-.21 0-2.01-.04-4.04-.11-6.03-.03-1.01.76-1.85 1.77-1.89h.06c.98 0 1.79.78 1.83 1.77.07 2.03.11 4.1.11 6.15 0 .07 0 .14-.01.22 0 .07.01.14.01.21 0 2.06-.03 4.13-.1 6.15-.03.98-.84 1.76-1.82 1.76zm-374.36-2.84c-1 0-1.81-.8-1.83-1.8-.02-1.09-.03-2.19-.03-3.28 0-.96 0-1.92.02-2.87.01-1 .83-1.8 1.83-1.8h.03c1.01.02 1.82.85 1.8 1.86-.02.94-.02 1.88-.02 2.82 0 1.08.01 2.15.03 3.22.02 1.01-.79 1.84-1.8 1.86-.01-.01-.02-.01-.03-.01zm.67-19.48c-.05 0-.11 0-.16-.01a1.835 1.835 0 01-1.67-1.98c.17-2.03.38-4.09.63-6.12.12-1 1.05-1.71 2.03-1.6 1 .12 1.72 1.03 1.6 2.03-.24 1.99-.45 4.01-.62 6-.07.96-.87 1.68-1.81 1.68zm372.74-3.66c-.93 0-1.72-.7-1.82-1.64-.21-1.98-.46-4-.73-5.99a1.826 1.826 0 113.62-.5c.28 2.03.53 4.08.74 6.11a1.836 1.836 0 01-1.81 2.02zm-370.07-15.65c-.11 0-.23-.01-.35-.03a1.83 1.83 0 01-1.45-2.14c.39-2.02.81-4.05 1.26-6.02.22-.99 1.2-1.61 2.19-1.38.98.22 1.6 1.2 1.38 2.19-.44 1.94-.85 3.93-1.24 5.91-.16.86-.93 1.47-1.79 1.47zm367.02-3.59c-.84 0-1.6-.59-1.79-1.45-.42-1.98-.88-3.96-1.35-5.88a1.828 1.828 0 013.55-.87c.49 1.96.95 3.98 1.38 6 .21.99-.42 1.96-1.41 2.17-.13.01-.26.03-.38.03zm-362.34-15.33c-.18 0-.36-.03-.53-.08a1.825 1.825 0 01-1.22-2.28c.6-1.97 1.23-3.95 1.89-5.88.32-.96 1.36-1.47 2.32-1.14a1.82 1.82 0 011.14 2.32c-.65 1.89-1.27 3.83-1.85 5.76-.24.79-.97 1.3-1.75 1.3zm357.29-3.5c-.77 0-1.49-.49-1.74-1.26-.63-1.92-1.28-3.84-1.96-5.71a1.83 1.83 0 013.44-1.24c.69 1.9 1.36 3.86 2 5.82.31.96-.21 1.99-1.18 2.31-.18.05-.37.08-.56.08zm-350.65-14.86c-.23 0-.48-.05-.71-.15a1.826 1.826 0 01-.97-2.39c.79-1.88 1.63-3.78 2.49-5.64a1.82 1.82 0 012.43-.89c.92.42 1.32 1.51.9 2.43-.84 1.83-1.67 3.69-2.45 5.53-.3.69-.98 1.11-1.69 1.11zm343.67-3.32c-.7 0-1.37-.41-1.67-1.09-.82-1.83-1.67-3.66-2.54-5.46-.44-.91-.06-2 .85-2.44.91-.44 2-.06 2.44.85.89 1.83 1.76 3.7 2.59 5.56a1.835 1.835 0 01-1.67 2.58zm-335.14-14.24c-.3 0-.6-.07-.88-.23-.88-.49-1.21-1.6-.72-2.49.98-1.77 2.01-3.56 3.07-5.34.52-.87 1.64-1.15 2.51-.64.87.52 1.15 1.64.64 2.51a204.9 204.9 0 00-3.01 5.24c-.34.61-.97.95-1.61.95zm326.29-3.11c-.63 0-1.25-.33-1.59-.92-.99-1.72-2.03-3.45-3.1-5.17a1.83 1.83 0 013.11-1.93c1.09 1.75 2.15 3.52 3.16 5.27.51.88.21 1.99-.67 2.5-.28.18-.6.25-.91.25zm-315.98-13.46a1.83 1.83 0 01-1.49-2.88c1.17-1.68 2.38-3.36 3.6-4.99.61-.81 1.75-.98 2.56-.37.81.6.97 1.75.37 2.56-1.2 1.6-2.39 3.25-3.53 4.9-.37.51-.93.78-1.51.78zm305.38-2.87c-.57 0-1.13-.26-1.48-.76-1.17-1.62-2.39-3.24-3.62-4.82-.62-.8-.47-1.95.32-2.57.8-.62 1.95-.47 2.57.32 1.25 1.61 2.49 3.27 3.69 4.92.59.82.41 1.96-.41 2.55-.32.24-.69.36-1.07.36zm-293.42-12.53a1.825 1.825 0 01-1.38-3.02c1.33-1.54 2.7-3.08 4.1-4.59a1.83 1.83 0 012.58-.11c.74.68.79 1.84.1 2.58-1.37 1.48-2.72 3-4.02 4.5-.35.43-.86.64-1.38.64zm281.18-2.63c-.5 0-1-.2-1.36-.61-1.34-1.5-2.72-2.98-4.1-4.43-.7-.73-.68-1.89.06-2.59.73-.7 1.89-.68 2.59.06 1.4 1.47 2.81 2.99 4.18 4.51.67.75.61 1.91-.14 2.58-.36.32-.8.48-1.23.48zm-267.68-11.44c-.49 0-.97-.19-1.33-.57-.69-.74-.66-1.89.08-2.59 1.49-1.4 3.02-2.8 4.55-4.14.76-.67 1.92-.59 2.58.16.67.76.6 1.91-.16 2.58-1.5 1.32-3 2.69-4.46 4.06-.36.34-.81.5-1.26.5zm253.93-2.38c-.44 0-.88-.16-1.23-.47-1.49-1.35-3.01-2.69-4.53-3.98-.77-.65-.87-1.81-.21-2.58.65-.77 1.81-.86 2.58-.21 1.55 1.32 3.11 2.69 4.63 4.06.75.68.81 1.83.13 2.58-.38.4-.87.6-1.37.6zm-239.06-10.22a1.83 1.83 0 01-1.12-3.28c1.63-1.24 3.29-2.46 4.95-3.64.82-.59 1.96-.4 2.55.43.59.82.39 1.96-.43 2.55-1.63 1.16-3.26 2.36-4.85 3.58-.33.24-.72.36-1.1.36zm223.95-2.11c-.38 0-.76-.11-1.08-.35-1.6-1.18-3.26-2.35-4.93-3.49a1.831 1.831 0 01-.48-2.54c.57-.83 1.71-1.05 2.54-.48 1.7 1.16 3.39 2.36 5.02 3.56.82.6.99 1.74.39 2.56-.34.48-.9.74-1.46.74zm-207.87-8.88c-.62 0-1.22-.31-1.56-.88-.52-.86-.25-1.99.61-2.51 1.72-1.05 3.5-2.1 5.29-3.11.88-.5 2-.19 2.49.69.5.88.19 1.99-.69 2.49-1.76 1-3.5 2.02-5.19 3.05-.3.19-.63.27-.95.27zm191.56-1.81c-.32 0-.63-.08-.92-.25-1.73-1.01-3.5-2.01-5.27-2.96a1.83 1.83 0 111.74-3.22c1.8.97 3.61 1.99 5.37 3.02a1.83 1.83 0 01-.92 3.41zm-174.43-7.44c-.68 0-1.34-.38-1.65-1.04-.43-.91-.05-2 .87-2.44 1.85-.88 3.73-1.73 5.59-2.54.93-.4 2 .02 2.4.95.4.93-.02 2-.95 2.41-1.82.79-3.66 1.63-5.48 2.49-.25.11-.52.17-.78.17zm157.09-1.51c-.25 0-.51-.05-.75-.16-1.83-.83-3.7-1.63-5.55-2.4a1.838 1.838 0 01-1-2.39c.38-.93 1.45-1.38 2.39-1 1.89.78 3.8 1.6 5.67 2.44.92.41 1.33 1.5.91 2.42-.31.69-.98 1.09-1.67 1.09zm-139.1-5.9a1.825 1.825 0 01-.6-3.55c1.92-.68 3.89-1.33 5.84-1.95.96-.31 1.99.23 2.3 1.19.3.96-.23 1.99-1.19 2.29-1.92.61-3.84 1.25-5.73 1.91-.21.07-.42.11-.62.11zm120.9-1.18c-.19 0-.38-.03-.57-.09-1.9-.63-3.84-1.23-5.76-1.8-.97-.28-1.53-1.3-1.24-2.27.28-.97 1.31-1.52 2.27-1.24 1.96.58 3.94 1.19 5.87 1.83.96.32 1.48 1.35 1.16 2.31-.25.77-.96 1.26-1.73 1.26zm-102.2-4.32a1.825 1.825 0 01-.43-3.6c1.99-.47 4.01-.92 6.01-1.33.98-.2 1.95.44 2.16 1.43.2.99-.44 1.95-1.43 2.16-1.97.4-3.95.84-5.89 1.3-.14.02-.28.04-.42.04zm83.4-.81c-.13 0-.26-.01-.39-.04-1.97-.43-3.96-.83-5.92-1.18a1.83 1.83 0 01.66-3.6c2 .36 4.03.77 6.04 1.21.99.21 1.61 1.19 1.4 2.17-.19.85-.95 1.44-1.79 1.44zm-64.23-2.7c-.9 0-1.69-.67-1.81-1.59-.13-1 .58-1.92 1.58-2.05 2.03-.26 4.08-.5 6.11-.69.99-.09 1.9.64 2 1.65.1 1.01-.64 1.9-1.64 2-1.99.19-4.01.42-6 .68-.08-.01-.16 0-.24 0zm44.99-.44c-.07 0-.14 0-.2-.01-2-.22-4.02-.41-6.01-.56a1.825 1.825 0 11.28-3.64c2.03.16 4.09.35 6.13.57 1 .11 1.73 1.01 1.62 2.02-.11.93-.9 1.62-1.82 1.62zm-25.55-1.06c-.99 0-1.8-.79-1.83-1.78-.03-1.01.77-1.85 1.78-1.88 1.64-.04 3.28-.06 4.92-.06h1.23c1.01.01 1.82.83 1.81 1.84-.01 1-.82 1.81-1.83 1.81h-1.22c-1.61 0-3.22.02-4.83.06 0 .01-.02.01-.03.01z"/><path d="M558.13 275.84L585 212.69H421.18c-20.98-38.5-61.81-64.62-108.74-64.62-46.93 0-87.75 26.12-108.73 64.62H39.89l27.87 63.16-27.87 63.16H208.5c22.05 34.04 60.36 56.57 103.94 56.57s81.89-22.53 103.94-56.57H585l-26.87-63.17z" fill="#78a55b"/><path class="st11" d="M311.32 381.8c-.49 0-.98 0-1.46-.01a1.816 1.816 0 01-1.8-1.85c.01-1.01.82-1.77 1.85-1.8 1.99.03 4.01 0 5.99-.09.98-.04 1.86.74 1.91 1.75.05 1.01-.74 1.86-1.75 1.91-1.57.06-3.16.09-4.74.09zm-14.79-1.04c-.08 0-.17-.01-.26-.02a116.3 116.3 0 01-6.11-1.04c-.99-.2-1.63-1.16-1.43-2.15.2-.99 1.17-1.63 2.15-1.43 1.95.39 3.93.73 5.9 1 1 .14 1.7 1.07 1.56 2.07-.13.91-.92 1.57-1.81 1.57zm32.77-.49c-.87 0-1.65-.63-1.8-1.52-.17-1 .5-1.94 1.49-2.11 1.95-.33 3.93-.73 5.87-1.18.99-.23 1.97.39 2.19 1.37.23.98-.38 1.96-1.37 2.19-2.01.46-4.06.88-6.08 1.22-.1.02-.2.03-.3.03zm-51.73-3.97c-.19 0-.39-.03-.58-.09-1.95-.65-3.91-1.37-5.81-2.13-.94-.38-1.4-1.44-1.02-2.38.37-.94 1.45-1.4 2.37-1.02 1.85.73 3.74 1.43 5.63 2.06.95.32 1.47 1.36 1.15 2.31a1.83 1.83 0 01-1.74 1.25zm70.55-1.07a1.83 1.83 0 01-.63-3.55c1.87-.69 3.74-1.44 5.56-2.23.93-.4 2 .03 2.4.95.4.93-.02 2-.95 2.41-1.89.82-3.83 1.59-5.76 2.3-.2.08-.41.12-.62.12zm-88.39-6.73c-.3 0-.6-.07-.88-.23-1.8-.98-3.6-2.03-5.35-3.12a1.83 1.83 0 011.93-3.11c1.69 1.05 3.44 2.07 5.18 3.02.89.49 1.21 1.6.73 2.48-.34.61-.97.96-1.61.96zm106-1.6a1.827 1.827 0 01-.93-3.4c1.71-1 3.43-2.07 5.09-3.17.84-.56 1.98-.33 2.53.52.56.84.33 1.98-.52 2.53-1.72 1.14-3.49 2.24-5.26 3.27-.28.17-.59.25-.91.25zm-122.22-9.2c-.4 0-.8-.13-1.14-.4-1.6-1.28-3.2-2.62-4.74-3.99-.76-.67-.82-1.83-.15-2.58.67-.75 1.83-.83 2.58-.15 1.49 1.33 3.04 2.62 4.59 3.86.79.63.92 1.78.29 2.57-.36.46-.89.69-1.43.69zm138.12-2.06c-.52 0-1.04-.22-1.4-.65-.65-.77-.55-1.93.22-2.58 1.52-1.29 3.03-2.63 4.48-3.99a1.82 1.82 0 012.58.08c.69.74.66 1.89-.08 2.59-1.5 1.41-3.05 2.79-4.62 4.12-.34.29-.76.43-1.18.43zm-152.27-11.33c-.5 0-1-.21-1.37-.61-1.37-1.53-2.71-3.12-4-4.73a1.827 1.827 0 112.85-2.29c1.24 1.55 2.55 3.09 3.88 4.58.67.75.61 1.91-.15 2.58-.34.32-.77.47-1.21.47zm166.04-2.45a1.829 1.829 0 01-1.4-3.01c1.29-1.52 2.55-3.1 3.75-4.69a1.83 1.83 0 012.92 2.21c-1.24 1.64-2.54 3.27-3.87 4.84-.36.43-.88.65-1.4.65zm174.96-11.65h-5.27a1.83 1.83 0 010-3.66h5.27a1.83 1.83 0 010 3.66zm-18.68 0h-6.1a1.83 1.83 0 010-3.66h6.1a1.83 1.83 0 010 3.66zm-19.51 0h-6.1a1.83 1.83 0 010-3.66h6.1a1.83 1.83 0 010 3.66zm-19.51 0h-6.1a1.83 1.83 0 010-3.66h6.1c1.01 0 1.83.82 1.83 1.83 0 1.02-.81 1.83-1.83 1.83zm-19.5 0h-6.1a1.83 1.83 0 010-3.66h6.1a1.83 1.83 0 010 3.66zm-19.51 0h-6.1a1.83 1.83 0 010-3.66h6.1a1.83 1.83 0 010 3.66zm-19.51 0h-6.1a1.83 1.83 0 010-3.66h6.1a1.83 1.83 0 010 3.66zm-19.5 0h-6.1a1.83 1.83 0 010-3.66h6.1a1.83 1.83 0 010 3.66zm-19.51 0h-6.1a1.83 1.83 0 010-3.66h6.1a1.83 1.83 0 010 3.66zm-198.28 0h-6.1a1.83 1.83 0 010-3.66h6.1a1.83 1.83 0 010 3.66zm-19.51 0h-6.1a1.83 1.83 0 010-3.66h6.1a1.83 1.83 0 010 3.66zm-19.51 0h-6.1a1.83 1.83 0 010-3.66h6.1a1.83 1.83 0 010 3.66zm-19.5 0h-6.1a1.83 1.83 0 010-3.66h6.1a1.83 1.83 0 010 3.66zm-19.51 0h-6.1a1.83 1.83 0 010-3.66h6.1a1.83 1.83 0 010 3.66zm-19.51 0h-6.1a1.83 1.83 0 010-3.66h6.1a1.83 1.83 0 010 3.66zm-19.5 0h-6.1a1.83 1.83 0 010-3.66h6.1a1.83 1.83 0 010 3.66zm-19.51 0h-6.1a1.83 1.83 0 010-3.66h6.1a1.83 1.83 0 010 3.66zm-19.51 0h-6.1a1.83 1.83 0 010-3.66h6.1a1.83 1.83 0 010 3.66zm143.18-104.82h-6.1a1.83 1.83 0 010-3.66h6.1c1.01 0 1.83.82 1.83 1.83a1.844 1.844 0 01-1.83 1.83zm-19.51 0h-6.1a1.83 1.83 0 010-3.66h6.1a1.83 1.83 0 010 3.66zm-19.51 0h-6.1a1.83 1.83 0 010-3.66h6.1a1.83 1.83 0 010 3.66zm-19.5 0h-6.1a1.83 1.83 0 010-3.66h6.1c1.01 0 1.83.82 1.83 1.83a1.844 1.844 0 01-1.83 1.83zm-19.51 0h-6.1a1.83 1.83 0 010-3.66h6.1a1.83 1.83 0 010 3.66zm-19.51 0h-6.1a1.83 1.83 0 010-3.66h6.1a1.83 1.83 0 010 3.66zm-19.51 0h-6.1a1.83 1.83 0 010-3.66h6.1a1.83 1.83 0 010 3.66zm-19.5 0h-6.1a1.83 1.83 0 010-3.66h6.1a1.83 1.83 0 010 3.66zm502.94-1.12h-6.1a1.83 1.83 0 010-3.66h6.1a1.83 1.83 0 010 3.66zm-19.51 0h-6.1a1.83 1.83 0 010-3.66h6.1a1.83 1.83 0 010 3.66zm-19.5 0h-6.1a1.83 1.83 0 010-3.66h6.1a1.83 1.83 0 010 3.66zm-19.51 0h-6.1a1.83 1.83 0 010-3.66h6.1a1.83 1.83 0 010 3.66zm-19.51 0h-6.1a1.83 1.83 0 010-3.66h6.1a1.83 1.83 0 010 3.66zm-19.5 0h-6.1a1.83 1.83 0 010-3.66h6.1a1.83 1.83 0 010 3.66zm-19.51 0h-6.1a1.83 1.83 0 010-3.66h6.1a1.83 1.83 0 010 3.66zm-19.51 0h-6.1a1.83 1.83 0 010-3.66h6.1a1.83 1.83 0 010 3.66zm-19.5 0h-5.99c-.65 0-1.26-.35-1.58-.92-.01-.02-.08-.13-.09-.15-.47-.89-.13-2 .76-2.47.46-.24.97-.27 1.43-.12h5.46c1.01 0 1.83.82 1.83 1.83.01 1.01-.81 1.83-1.82 1.83zm-198.49-1.54a1.83 1.83 0 01-1.58-2.75c1.04-1.78 2.13-3.56 3.25-5.27.55-.85 1.69-1.08 2.53-.53.85.55 1.08 1.69.53 2.53-1.09 1.66-2.15 3.38-3.15 5.1-.34.6-.95.92-1.58.92zm185.17-9.81c-.56 0-1.12-.26-1.48-.75-1.17-1.6-2.41-3.19-3.67-4.74-.64-.78-.53-1.93.25-2.57.78-.64 1.94-.52 2.57.26 1.31 1.59 2.58 3.24 3.8 4.89.6.81.42 1.96-.39 2.56-.33.24-.71.35-1.08.35zM227 206.78c-.41 0-.83-.14-1.17-.43-.77-.65-.88-1.8-.23-2.57 1.32-1.58 2.7-3.15 4.1-4.65.69-.74 1.85-.78 2.58-.09.74.69.78 1.85.09 2.59-1.35 1.45-2.69 2.96-3.97 4.5-.36.43-.88.65-1.4.65zm161.17-8.52c-.46 0-.92-.17-1.27-.51-1.44-1.39-2.92-2.75-4.42-4.05-.76-.66-.84-1.82-.18-2.58.66-.76 1.82-.84 2.58-.18 1.55 1.34 3.08 2.75 4.56 4.18.73.7.75 1.86.05 2.58-.37.37-.85.56-1.32.56zm-147.45-5.31a1.835 1.835 0 01-1.19-3.23c1.57-1.33 3.19-2.64 4.82-3.88.8-.61 1.95-.46 2.56.35.61.8.46 1.95-.35 2.56-1.58 1.21-3.16 2.47-4.67 3.76-.33.29-.75.44-1.17.44zm132.34-7c-.36 0-.71-.1-1.03-.32-1.65-1.13-3.35-2.22-5.04-3.25a1.823 1.823 0 01-.61-2.51c.52-.87 1.65-1.14 2.51-.61 1.75 1.06 3.5 2.19 5.2 3.35.84.57 1.05 1.71.48 2.54-.35.52-.92.8-1.51.8zm-116.47-4.3c-.63 0-1.24-.32-1.58-.9a1.84 1.84 0 01.65-2.51c1.77-1.04 3.6-2.05 5.42-2.99a1.828 1.828 0 011.67 3.25c-1.77.91-3.53 1.89-5.25 2.9-.27.17-.59.25-.91.25zm99.51-5.26c-.25 0-.51-.05-.76-.16-1.81-.82-3.67-1.61-5.52-2.33a1.83 1.83 0 011.33-3.41c1.91.74 3.83 1.55 5.7 2.41.92.42 1.32 1.5.91 2.42-.3.67-.97 1.07-1.66 1.07zm-81.91-3.1a1.826 1.826 0 01-.63-3.54c1.92-.71 3.9-1.38 5.87-1.99.96-.29 1.99.25 2.28 1.21.3.97-.24 1.99-1.21 2.29-1.91.58-3.82 1.23-5.68 1.92-.2.07-.42.11-.63.11zm63.54-3.36c-.15 0-.3-.02-.45-.06-1.93-.49-3.89-.93-5.84-1.31a1.835 1.835 0 01-1.45-2.15 1.85 1.85 0 012.15-1.45c2.02.39 4.05.85 6.04 1.36.98.25 1.57 1.24 1.32 2.22-.21.84-.95 1.39-1.77 1.39zM293 168.21c-.87 0-1.65-.63-1.8-1.52-.18-1 .49-1.94 1.49-2.12 2.03-.35 4.09-.65 6.14-.89.99-.12 1.91.6 2.03 1.61.11 1-.6 1.91-1.61 2.03-1.98.23-3.97.52-5.93.86-.11.02-.22.03-.32.03zm25.5-1.34h-.13c-1.99-.13-4-.21-5.98-.23a1.831 1.831 0 01.02-3.66h.02c2.05.02 4.13.1 6.19.24 1.01.07 1.77.94 1.7 1.95-.06.96-.86 1.7-1.82 1.7z"/><circle transform="rotate(-3.371 301.089 337.48)" class="st9" cx="300.94" cy="337.32" r="46.01"/><path class="st12" d="M289.18 328.17a3.924 3.924 0 01-3.93 3.9 3.924 3.924 0 01-3.9-3.93c.01-2.16 1.77-3.9 3.93-3.9 2.16.01 3.91 1.77 3.9 3.93zm32.51.13a3.924 3.924 0 01-3.93 3.9 3.924 3.924 0 01-3.9-3.93c.01-2.16 1.77-3.9 3.93-3.9 2.16.01 3.91 1.77 3.9 3.93z"/><path class="st13" d="M284.91 349.88c3.22 6.35 9.77 10.32 16.83 10.21 6.8-.11 13.03-3.99 16.17-10.08"/><path class="st9" d="M278.09 218.74c17.26 18.65 16.14 47.76-2.5 65.02-18.65 17.26-47.76 16.14-65.02-2.5-17.26-18.65-16.14-47.76 2.5-65.02 18.64-17.27 47.75-16.15 65.02 2.5z"/><path class="st12" d="M229.48 251.33a3.917 3.917 0 01-.21 5.53c-1.58 1.47-4.06 1.37-5.53-.21a3.917 3.917 0 01.21-5.53c1.59-1.47 4.07-1.38 5.53.21zm23.86-22.09c1.47 1.58 1.37 4.06-.21 5.53-1.58 1.47-4.06 1.37-5.53-.21-1.47-1.58-1.37-4.06.21-5.53a3.917 3.917 0 015.53.21z"/><path class="st13" d="M241.17 270.11c6.68 2.45 14.18.88 19.27-4.01 4.9-4.72 6.8-11.81 4.95-18.4"/><circle transform="rotate(-23.484 358.2 250.425)" class="st9" cx="358.23" cy="250.44" r="46.01"/><path class="st12" d="M373.06 251.89a3.916 3.916 0 00.17 5.53 3.916 3.916 0 005.53-.17 3.916 3.916 0 00-.17-5.53c-1.58-1.48-4.06-1.41-5.53.17zm-23.69-22.27a3.916 3.916 0 00.17 5.53 3.916 3.916 0 005.53-.17 3.916 3.916 0 00-.17-5.53 3.907 3.907 0 00-5.53.17z"/><path class="st13" d="M361.22 270.58c-6.7 2.39-14.19.77-19.24-4.16-4.86-4.76-6.71-11.86-4.8-18.44"/><path class="st11" d="M301.17 170.21c-1.59-4.77-3.5-9.5-6.53-13.51-3.03-4.01-7.32-7.25-12.27-8.15-8.3-1.5-16.83 4.26-20.05 12.05-3.23 7.79-1.83 16.93 2.06 24.41s10.03 13.54 16.46 18.99c6.43 5.45 13.28 10.46 19.15 16.51 11.39-7.02 22.27-17.37 31.32-27.23 5.15-5.6 9.98-11.87 11.75-19.27 1.77-7.4-.24-16.16-6.54-20.43-6.01-4.08-14.37-3.08-20.67.55-6.28 3.63-10.13 10.41-14.68 16.08zm96.46 176.78c4.5 2.24 9.2 4.25 14.17 4.94 4.98.69 10.31-.05 14.44-2.91 6.93-4.8 8.89-14.91 5.66-22.7-3.23-7.79-10.68-13.26-18.72-15.8-8.04-2.54-16.67-2.48-25.07-1.79-8.4.69-16.78 1.99-25.21 1.87-3.09 13.02-3.47 28.03-2.9 41.4.32 7.6 1.34 15.45 5.31 21.94 3.98 6.48 11.6 11.25 19.07 9.82 7.14-1.37 12.34-7.98 14.23-15 1.89-7.03-.19-14.55-.98-21.77zM203 346.24c-4.51 2.21-9.23 4.18-14.21 4.83-4.98.65-10.31-.13-14.42-3.02-6.89-4.86-8.77-14.98-5.48-22.74 3.29-7.77 10.78-13.18 18.84-15.66 8.06-2.48 16.69-2.35 25.08-1.6 8.4.76 16.77 2.12 25.2 2.06 2.99 13.04 3.25 28.06 2.58 41.42-.38 7.6-1.46 15.44-5.48 21.89-4.03 6.45-11.68 11.16-19.14 9.67-7.13-1.42-12.27-8.08-14.11-15.11-1.84-7.03.29-14.53 1.14-21.74z"/><g><path d="M136.84 252.45l5.65 17.39h18.28l-14.79 10.74 5.65 17.39-14.79-10.75-14.79 10.75 5.65-17.39-14.79-10.74h18.28zm352.06 0l5.65 17.39h18.28l-14.79 10.74 5.65 17.39-14.79-10.75-14.79 10.75 5.65-17.39-14.79-10.74h18.28z" fill="#313332"/></g><g id="Family_1_"><path id="SVGID_x5F_1_x5F_" class="st14" d="M427.79 358.68c-46.1 63.7-135.11 77.97-198.81 31.87-63.7-46.1-77.97-135.11-31.88-198.81 46.09-63.7 135.11-77.97 198.81-31.87 63.7 46.09 77.98 135.1 31.88 198.81z"/><text><textPath xlink:href="#SVGID_x5F_1_x5F_" startOffset="64.193%"><tspan class="st6" font-family="Cinzel-Bold" font-size="31.698"> Family business</tspan></textPath></text></g><g><path id="SVGID_x5F_2_x5F_" class="st14" d="M191.83 384.95c55.22 66.61 153.99 75.85 220.6 20.63 66.61-55.22 75.85-153.99 20.63-220.62-55.23-66.61-153.99-75.85-220.6-20.63-66.62 55.23-75.86 154.01-20.63 220.62z"/><text><textPath xlink:href="#SVGID_x5F_2_x5F_" startOffset="108.667%"><tspan class="st6" font-family="Cinzel-Bold" font-size="31.698"> best choice</tspan></textPath></text></g></g></svg>