<svg version="1.0" xmlns="http://www.w3.org/2000/svg" xmlns:xlink="http://www.w3.org/1999/xlink" viewBox="0 0 243.1 250.8"><path fill="#808285" d="M5.2 10h237.9v237.9H5.2z"/><path fill="#E6E7E8" d="M0 3h237.9v237.9H0z"/><path fill="#C49A6C" d="M8.7 11.7h220.4v220.4H8.7z"/><image overflow="visible" opacity=".28" width="804" height="806" xlink:href="D25AD8811B1D2F0C.png" transform="matrix(.2741 0 0 .2726 8.734 12.432)"/><path fill="#895A37" d="M95.5 12.3V55l5.2 7.1 5.2-7.1 5.2 7.1 5.2-7.1 5.3 7.1 5.2-7.1 5.2 7.1 5.2-7.1 5.2 7.1V12.3zM94.8 108.8l-8.8 1.8 1 5 8.1-1.7 1 5-8.1 1.7 2.1 10.1-5.7 1.2-5.1-25.1 14.5-3 1 5zm10.7-7.4c4.6-1 8.7.9 9.7 5.8.8 3.8-.8 6.7-3.6 8.3l10.7 8.6-7.3 1.5-9.7-8.3 2 9.9-5.7 1.2-5.1-25.1 9-1.9zm-.3 11.7c2.2-.4 4.7-1.1 4.1-4.3-.6-3.1-3.3-2.8-5.4-2.3l-.7.1 1.3 6.6.7-.1zm28.5-12.2l-8.6 1.8 1 5 8.3-1.7 1 5-8.3 1.7 1 5 8.6-1.8 1 5-14.3 2.9-5.1-25.1 14.3-2.9 1.1 5.1zm17.6-3.6l-8.6 1.8 1 5 8.3-1.7 1 5-8.3 1.7 1 5 8.6-1.8 1 5-14.3 2.9-5.1-25.1 14.3-2.9 1.1 5.1zm-87.7 46.3l-1.4 5s-2.8-1.2-5.4-.7c-1.9.4-2.8 1.5-2.5 2.9.3 1.4 2.9 1.9 6 2.5 3 .6 6.6 2.3 7.3 5.6 1.2 6-2.9 9-7.8 10-5.9 1.2-10.1-1.4-10.1-1.4l1.9-5.4s3.9 2.1 6.7 1.6c1.2-.3 3.6-.9 3.1-3.2-.4-1.8-3.2-2.1-6.5-3-3.3-.9-5.6-2.8-6.1-5.5-1-4.7 2.6-8.5 6.6-9.3 4.4-.8 8.2.9 8.2.9zm13.8 21.3l-5.7 1.2-5.1-25.1 5.7-1.2 2 10 8.1-1.7-2-10L86 137l5.1 25.1-5.7 1.2-2.1-10.1-8.1 1.7 2.2 10zm23.1-4.8l-5.7 1.2-5.1-25.1 5.7-1.2 5.1 25.1zm7.7-27.7c4.9-1 9.1.8 10.1 6 1.1 5.2-2 8.8-6.9 9.8l-3.4.7 1.9 9.3-5.7 1.2-5.2-25.1 9.2-1.9zm.5 11.6c2.3-.5 4.2-1.7 3.7-4.2-.5-2.6-2.8-2.9-5.1-2.4l-1.6.3 1.4 6.6 1.6-.3zm19.7-15.7c4.9-1 9.1.8 10.1 6 1.1 5.2-2 8.8-6.9 9.8l-3.4.7 1.9 9.3-5.7 1.2-5.1-25.1 9.1-1.9zm.5 11.6c2.3-.5 4.2-1.7 3.7-4.2-.5-2.6-2.8-2.9-5.1-2.5l-1.6.3 1.4 6.6 1.6-.2zm21.4 10l-5.7 1.2-5.1-25.1 5.7-1.2 5.1 25.1zm9.4-1.9l-5.7 1.2-5.1-25.1 5.7-1.2 13.1 13.5h.1l-3.2-15.5 5.7-1.2 5.1 25.1-5.7 1.2-13.1-13.5h-.1l3.2 15.5zm40.3-17.2c-.1 6.6-4.8 10.4-9.7 11.4-6.8 1.4-13.4-3.3-14.9-10.5s2.5-14.1 9.5-15.5c4.4-.9 7.8.1 10.5 2.3l-2.9 4.9c-1.9-2-4-2.5-6.2-2.1-3.5.7-5.7 4.8-4.8 9.1.9 4.3 4.4 7.1 8 6.4 2.7-.6 5.1-2.9 4.4-5.9l-5.8 1.2-.9-4.4 11.6-2.4 1.2 5.5z"/><g fill="#895A37"><path d="M177.3 70.2l.5.3zm-.4.1l.8.3zm29.2 1.3c-.8-3.8-4.6-6.3-8.4-5.6l-20 4.1.8.5h.2l-.2-.1h-1.8c.1-.1.2-.2.3-.4h.1L28.8 100.6c.1.2.2.4.2.6v.2c0 1.1-1 1.7-1.7 2l-.1.1-1.4-1.2s.1-.1.2-.4c0-.2-.1-.4-.2-.5-3 1.3-4.8 4.6-4.1 7.9l1.7 8.4 1 .6v.2c0 .4-.2.8-.6 1.1l9.5 46.2 3.3 16.2c.8 3.9 4.6 6.3 8.4 5.6l84.7-17.3-.8-4.1 2.6 3.7 31.5-6.5v-.3c-.1 0-.1-.1-.2-.2l-.1-.1 1.7-.9c.1.1.3.2.3.2l.1.1.2.1v.2c0 .2-.1.3-.2.5l28.7-5.9.1-.5 1.4.1h.3l20.1-4.1c3.9-.8 6.3-4.6 5.6-8.4l-3-14.6-11.9-58zm-55.6 5.8c.1-.1.2-.4.6-.7.1-.1.3-.2.5-.3l.9.7-.3.2.5-.1h.1l-.1.2h-.5l-1.2.8c-.3-.1-.5-.3-.5-.6v-.2zM78.6 91.8l2 .1c-.2.3-.5.6-.7.8 0 0-.1 0-.1.1l-1.7-.4c.2-.1.3-.3.5-.6zm26 80.5l-1.2-.1h-.2v.7h-.1l.1-.7-1.5.3-.2-.8 4.2-.7-1.1 1.3zm46.8-7.9c.1.7-.7 1.2-1.5 1.5-.1 0-.2.1-.3.1l-.4-.7-.3-.5 2.5-.4zm51-10.5v.1l.1.5-.9.4c-.1.1-.3.2-.5.3l-.7-.6-.1-.1-1 .2v-.2.1l.8-.2-.3-.3s-.1 0-.1.1h.1c.1-.1.2-.1.3-.2l.5.3.3-.1 1.5-.4v.1zm11.6-4.6l-1.3-.1-.1-.2c-.1-.2-.1-.3 0-.5 0-.1.1-.1.1-.2l1.1.2.3-.3.8.1-.9 1zm.4-1.3l-60.5 12.4.7.2s-.1 0-.1.1c-.1.1-.3.2-.4.2-.1 0-.1.1-.2.1l-.9-.4-38.7 7.9c0 .3-.2.7-.5 1.1h-2c0-.1.1-.1.1-.2.1-.2.2-.3.2-.5L44 182.8c-1.1.2-2.2-.5-2.5-1.6l-1.6-7.7-.2.2c-.1.1-.3.2-.4.2l-.1.1-1.5-1.1h-.1v-.1c-.1-.1-.2-.1-.2-.1l.2-.2.8-1.4c.3 0 .6 0 .9.1l-.8.7.9-.7c.1 0 .2.1.3.1l-1-4.8-11.9-58.3c-.2-1.1.5-2.2 1.6-2.5L61.9 99l-.5-.3.9.2 104.5-21.4 1-.9.1-.1s.1 0 .1-.1l.3.1h.3l-.1-.2h.1l.1.2.8-.1.3-.1.1.1h.1v.1l.1.2-.5.4 29.3-6c1.1-.2 2.2.5 2.5 1.6l11.6 56.6 3.3 16.2c0 1.1-.7 2.2-1.9 2.5zm2.5 1.5c0-.1 0-.1-.3-.1v-1.1h.2c1.2-.1 2 .1 2.3.6l-2.2.6zm.7-12c.1.6-.6 1.2-1.7 1.5-.1 0-.2.1-.4.1l-.3-1h.1c.1 0 .1-.1.1-.2l1.4-1c.4.1.6.3.8.5v.1z"/><path d="M198.9 72.2l-53.8 11h.3-.3.3v.1h-.5.5c-.3.4-.7.6-1.1.9-.9.4-1.9.6-2.4.7-.2 0-.3.1-.5.1h-.2c-.7.1-1.5.3-2.2.3h-.4l.7-.9-74.7 15.3 3.6 1.1.2.1c.1 0 .2.1.2.2l1.4-.3-1-.8c.7-.3 1.3-.7 1.8-1.1.1 0 .1-.1.1-.1l.9.2.9.2-.2.2c-.4.3-.8.6-1.3.9-.3.1-.6.3-.8.4l104-21.3v-.3l.1.3-.1-.3s0-.1.1-.1c0-.2-.2-.3-.4-.3h-.1l1.5-1.6c.8.1 1.5.3 1.8.7l.9-.3 1-.4.1.1c.3-.1 1.2-.6 2.6-1.4l.7.3.7.3c-2.7 1.7-3.5 1.9-3.8 1.9h-.1c-.6.1-1.2.1-1.6 0-.1 0-.2-.1-.3-.1.1.1.1.3.1.5v.1s0 .1-.1.1l20.8-4.3 11.3 55.4 3.1 15-168 34.4-2.9-13.4-11.7-57.1 36.2-7.4-2.8-1.6-35 7.2c-.5.1-.8.6-.7 1.1l11.6 56.6 3.3 16.2c.1.5.6.8 1.1.7l10.1-2.1h-.6l.1-.4.2-.1h-.2l.1-.3.2-.8H56l.2.4c.1.2.1.4 0 .7h-1.7l-.2.4 52-10.7-1.7-.8s.1-.1.2-.1c.2-.1.5-.2.7-.3.1 0 .2-.1.2-.1l1.7 1 4.3-.9c-.3-.3-.8-.6-1.4-.6h-.1l.9-1.1c1.3.1 2.3.6 2.8 1.3l100.2-20.5c.5-.1.8-.6.7-1.1l-3.1-15.2L200 72.9c-.1-.5-.6-.8-1.1-.7zM138.7 161c-.1.5-.5.9-1 1.2l-2-.8c-.1 0-.1.1-.1.1v-.1l3.1-.6v.2zm60.6-12.9l-.1-.1 2-.7.1.1h.1l-.8 1.1c-.6 0-1-.1-1.3-.4zm3.5.8l-.1.1-1.3-.7s-.1 0-.1.1v-.1l1.1-.3 1.1-.3c.1.5-.1.9-.7 1.2z"/></g><path fill="#895A37" d="M183.9 193.8h3.7v21.6h-3.7zm13.2 0h3.6v21.6h-3.6zm-8.1 0h2.4v21.6H189zm3.7 0h2.7v21.6h-2.7zm9.6 0h2.3v21.6h-2.3zm11.5 0h3.6v21.6h-3.6zm-8.1 0h2.4v21.6h-2.4zm3.7 0h2.7v21.6h-2.7zM185.9 221.1c0 .3-.1.6-.4.9-.2.2-.5.4-.9.4-.3 0-.6-.1-.9-.4-.2-.2-.4-.5-.4-.9v-2.8c0-.3.1-.6.4-.9s.5-.4.9-.4c.3 0 .6.1.9.4.2.2.4.5.4.9v2.8zm-.8-2.8c0-.1 0-.2-.1-.3-.1-.1-.2-.1-.3-.1-.1 0-.2 0-.3.1-.1.1-.1.2-.1.3v2.8c0 .1 0 .2.1.3.1.1.2.1.3.1s.2 0 .3-.1c.1-.1.1-.2.1-.3v-2.8zm2.1 4v-4h-.7v-.5c.2 0 .4-.1.5-.2.2-.1.3-.3.4-.4h.5v5.2l-.7-.1zm1.4-3.8c0-.5.1-.9.4-1.1.2-.2.5-.3.9-.3.3 0 .6.1.9.4.2.3.4.6.4.9 0 .4-.1.8-.2 1.1-.1.2-.3.5-.6.9-.1.1-.2.3-.4.6l-.1.2c-.1.1-.2.2-.2.3v.1h1.5v.8h-2.5v-.7s.1-.1.2-.3c0-.1.1-.2.2-.3l.2-.3c.1-.2.3-.4.6-.8.2-.3.4-.6.5-.9.1-.2.1-.4.1-.7 0-.2 0-.3-.1-.4-.1-.1-.2-.2-.4-.2s-.4.1-.5.4v.5h-.8l-.1-.2zm4.3 3c.4 0 .5-.2.5-.5v-.3c0-.5-.3-.8-.8-.8v-.7c.3 0 .5-.1.7-.3.1-.1.2-.4.2-.6v-.1c0-.3-.1-.5-.4-.5-.2 0-.3.1-.4.2-.1.1-.1.2-.1.4v.1h-.8v-.1c0-.4.1-.7.3-.9.2-.3.5-.4.9-.4s.7.1.9.4c.2.2.3.5.3.8v.2c0 .3-.1.6-.3.8l-.3.3c.2.1.4.3.5.6.1.1.1.3.1.5v.4c0 .4-.1.7-.4.9-.2.2-.6.4-.9.4-.3 0-.6-.1-.9-.4-.2-.2-.4-.5-.4-.9l.7-.1v.2c0 .1.1.2.1.3.3.1.4.1.5.1zm1.8-1.1l1.4-3.3h.8v3.3h.5v.8h-.5v1.1h-.8v-1.1h-1.4v-.8zm1.4 0v-1.6l-.6 1.6h.6zm2.8-2.5v1.1l.3-.3h.3c.3 0 .6.1.8.4.1.2.2.5.2.9v1.1c0 .4-.1.7-.4.9-.2.2-.5.4-.9.4-.3 0-.6-.1-.9-.4-.2-.2-.3-.5-.3-.9v-.1l.7-.1v.2c0 .2.1.3.2.4h.1c.3 0 .5-.2.5-.5v-1.3c0-.2-.1-.3-.2-.4-.1 0-.1-.1-.2-.1s-.2.1-.3.2c-.1.1-.1.2-.1.3v.1h-.8V217h2.3v.8l-1.3.1zm3.7.5v-.1c0-.1 0-.2-.1-.3-.1-.1-.2-.1-.3-.1-.1 0-.2 0-.3.1-.1.1-.1.2-.1.3v1c.2-.2.4-.2.6-.2.3 0 .6.1.8.4.2.2.2.5.2.9v.9c0 .3-.1.6-.4.8-.2.2-.5.3-.8.3-.3 0-.6-.1-.9-.4-.2-.2-.3-.5-.3-.9v-2.8c0-.3.1-.5.2-.7.1-.2.3-.4.5-.4.1-.1.3-.1.5-.1.3 0 .6.1.8.4.2.2.3.5.3.9v.1l-.7-.1zm-.8 2.7c0 .1 0 .2.1.3.1.1.2.1.3.1.1 0 .2 0 .3-.1.1-.1.1-.2.1-.3v-1c0-.1-.1-.3-.2-.4-.1 0-.1-.1-.2-.1s-.2.1-.3.2c-.1.1-.1.2-.1.3v1zm4.5-4v.8l-1.1 4.4h-.8l1.1-4.4h-1.6v-.8h2.4zm3 4c0 .3-.1.6-.4.9-.2.2-.5.4-.9.4-.3 0-.6-.1-.9-.4-.2-.2-.4-.5-.4-.9v-.5c0-.3.1-.6.3-.8l.3-.3c-.2-.1-.4-.3-.5-.5-.1-.1-.1-.3-.1-.5v-.3c0-.3.1-.6.3-.8.2-.2.5-.4.9-.4h.1c.4 0 .7.1.9.4.2.2.3.5.3.8v.3c0 .3-.1.6-.3.8-.1.1-.2.2-.3.2.2.1.4.3.5.6.1.1.1.3.1.5l.1.5zm-.7-2.6c0-.4-.1-.6-.3-.7h-.2c-.1 0-.2 0-.3.1-.1.1-.1.1-.1.2v.4c0 .2 0 .4.1.5.1.1.2.2.4.2s.3-.1.4-.2c-.1-.2 0-.3 0-.5zm-.1 2.2c0-.3-.1-.5-.2-.6-.1 0-.2-.1-.3-.1-.2 0-.3.1-.4.3 0 .1-.1.3-.1.4v.3c0 .2.1.3.2.4.1.1.2.1.3.1.2 0 .4-.1.4-.3v-.2l.1-.3zm2.6-3.6c.3 0 .6.1.9.4.2.2.3.5.3.9v2.8c0 .3-.1.6-.3.9-.2.2-.5.4-.8.4-.3 0-.6-.1-.8-.4-.2-.2-.3-.5-.3-.9v-.2h.8v.1c0 .1 0 .2.1.3.1.1.2.1.3.1.1 0 .2 0 .3-.1.1-.1.1-.2.1-.3v-1c-.2.2-.4.2-.6.2-.3 0-.6-.1-.8-.4-.2-.2-.2-.5-.2-.9v-.9c0-.2.1-.5.2-.6.1-.2.3-.3.5-.4h.3zm.4 1.2c0-.1 0-.2-.1-.3-.1-.1-.2-.1-.3-.1s-.2 0-.3.1c-.1.1-.1.2-.1.3v1c0 .2.1.3.2.4.1 0 .1.1.2.1.2 0 .3-.1.4-.3v-1.2zm2.1 4v-4h-.7v-.5c.2 0 .4-.1.5-.2.2-.1.3-.3.4-.4h.5v5.2l-.7-.1zm3.9-1.2c0 .3-.1.6-.4.9-.2.2-.5.4-.9.4-.3 0-.6-.1-.9-.4-.2-.2-.4-.5-.4-.9v-2.8c0-.3.1-.6.4-.9.2-.2.5-.4.9-.4s.6.1.9.4c.2.2.4.5.4.9v2.8zm-.8-2.8c0-.1 0-.2-.1-.3-.1-.1-.2-.1-.3-.1-.1 0-.2 0-.3.1-.1.1-.1.2-.1.3v2.8c0 .1 0 .2.1.3.1.1.2.1.3.1s.2 0 .3-.1c.1-.1.1-.2.1-.3v-2.8z"/><g fill="#895A37"><path d="M43.5 80.1h-.2L25.2 78c-.8-.1-1.5-.8-1.5-1.6V64c0-.9.7-1.6 1.7-1.6.9 0 1.7.7 1.7 1.6v11.1L42 76.8v-24c-.1-.5.1-1 .5-1.4.5-.4 1.2-.5 1.8-.3.6.2 1 .8 1 1.4v26c0 .4-.2.9-.6 1.2-.4.3-.8.4-1.2.4z"/><path d="M43.6 80.1c-.4 0-.8-.1-1.1-.4-.4-.3-.6-.7-.6-1.2V53.1c0-.9.7-1.6 1.7-1.6s1.7.7 1.7 1.6v23.7l14.9-1.7V64c0-.9.7-1.6 1.7-1.6s1.7.7 1.7 1.6v12.5c0 .8-.6 1.5-1.5 1.6l-18.2 2.1c-.2-.1-.3-.1-.3-.1z"/><path d="M66.1 65.5H51.3c-.6 0-1.1-.3-1.4-.7l-7.7-11.4c-.3-.5-.3-1.2 0-1.7s1-.8 1.6-.7L62 53.1c.6.1 1.1.4 1.3.9l4.4 9.4c.2.5.2 1-.1 1.5-.4.4-.9.6-1.5.6zm-13.9-3.1h11.4l-3-6.3-13.8-1.6 5.4 7.9z"/><path d="M35.9 65.5H21c-.6 0-1.1-.3-1.4-.7-.3-.4-.4-1-.1-1.5l4.4-9.4c.2-.5.7-.9 1.3-.9l18.2-2c.6-.1 1.3.2 1.6.7.3.5.3 1.2 0 1.7l-7.7 11.4c-.3.5-.9.7-1.4.7zm-12.4-3.1H35l5.3-7.9-13.8 1.6-3 6.3z"/><path stroke="#895A37" stroke-miterlimit="10" d="M43.5 46.8c-.5 0-.9-.2-1.3-.4-1.3-1.1-2.6-2.1-3.7-3h0c-3.3-2.6-6.1-4.9-8.1-7.2-2.2-2.5-3.2-4.9-3.2-7.5 0-2.5.9-4.9 2.6-6.6 1.7-1.7 4-2.7 6.5-2.7 1.9 0 3.6.6 5.1 1.7.8.6 1.5 1.2 2.1 2 .6-.8 1.3-1.5 2.1-2 1.5-1.1 3.2-1.7 5.1-1.7 2.5 0 4.8 1 6.5 2.7 1.7 1.7 2.6 4 2.6 6.6 0 2.6-1 5-3.2 7.5-2 2.3-4.8 4.5-8.1 7.2-1.1.9-2.4 1.9-3.7 3-.4.2-.8.4-1.3.4zm-7.2-25.6c-2 0-3.8.7-5.1 2.1-1.3 1.4-2.1 3.3-2.1 5.4 0 2.2.9 4.1 2.8 6.3 1.9 2.1 4.6 4.4 7.9 6.9h0c1.1.9 2.4 1.9 3.7 3 1.3-1.1 2.6-2.1 3.7-3 3.2-2.6 6-4.8 7.9-6.9 1.9-2.2 2.8-4.2 2.8-6.3 0-2.1-.7-4-2.1-5.4-.5-.6-1.2-1-1.9-1.4-1.4-.7-2.7-.8-3.3-.8 0 0-.9 0-1.8.2-2.8.7-5 3.5-5.4 4.1-.5-.8-2.2-3.1-5-3.9-.2-.1-1-.3-2.1-.3z"/></g></svg>