<svg id="Capa_1" data-name="Capa 1" xmlns="http://www.w3.org/2000/svg" viewBox="0 0 385.88 385.88"><defs><style>.cls-1{fill:#ad7736;}.cls-2{fill:#f6cecb;}</style></defs><title>GB</title><path class="cls-1" d="M82.59,327.12q0-14.44,0-28.9c0-.59,0-1.19-.08-1.78-.27-2.93-1.38-4.16-4.29-4.27-3.47-.13-7,.31-10.42-.26-1.31-.22-2.65-.34-3.94-.65a7.72,7.72,0,0,1-5.87-10c1.84-6.57,4.87-12.69,7.53-18.95,4.69-11,9.51-22,14.24-33,3.79-8.83,10.51-13.66,20-14.76l48.74-5.69c14.19-1.64,28.38-3.3,42.58-4.87,6.15-.68,12.26.14,18.37.88,13.6,1.64,27.21,3.15,40.8,4.79S277.41,213,291,214.72c3.08.39,6.17.7,9.26,1.1a12.29,12.29,0,0,1,10.21,7.57q11.64,26.15,23.17,52.35a16.13,16.13,0,0,1,1.56,6.43c.08,6.28-3.4,10-9.73,10.15-3.11.08-6.23,0-9.34.07-3.43.08-4.55,1.2-5,4.63a103.77,103.77,0,0,0-.46,13.31c-.05,15,0,29.94,0,44.91a22.41,22.41,0,0,1-.21,3.76c-1,5.49-3.71,8.21-9.25,8.93-10.64,1.4-21.3,2.68-31.94,4q-19.06,2.37-38.12,4.75c-10.72,1.34-21.43,2.74-32.16,4-4.23.51-8.41-.39-12.59-.91q-22.81-2.83-45.61-5.74-20.49-2.56-41-5.09c-2.57-.32-5.16-.57-7.71-1-6.45-1.11-9.46-4.53-9.52-11.07-.1-9.93,0-19.86,0-29.79Zm124-22.83v50.89c0,3.44,1.27,4.45,4.69,4,11.66-1.42,23.33-2.78,35-4.18q20-2.42,40.06-4.87c3.72-.45,4.68-1.58,4.68-5.35q0-24.12,0-48.23c0-3.53-1.09-4.73-4.63-4.72-12.67,0-25.34-.48-38,.38a25.62,25.62,0,0,1-6.83-.56c-6.38-1.26-10.49-5.38-13.62-10.8-6-10.41-12.68-20.41-19.13-30.54-.28-.43-.5-1-1.15-.85-.48.11-.58.59-.67,1.05a17.91,17.91,0,0,0-.42,3.51Q206.65,279.17,206.63,304.29Zm-20-.85v-48.9c0-1.11,0-2.22,0-3.33,0-1.41-.68-1.54-1.66-.72a13,13,0,0,0-2.74,3.17c-6.4,10.13-12.93,20.19-19.17,30.42-3.53,5.79-8.46,8.44-15.11,8.19-2.22-.08-4.44-.24-6.66-.25-11.18-.09-22.37-.12-33.56-.2-4.62,0-5.59.86-5.6,5.55q0,15.35,0,30.68c0,5.63,0,11.26,0,16.89,0,3.19,1.19,4.8,4,5.16,9.6,1.25,19.21,2.42,28.82,3.59q12.21,1.49,24.44,2.91c6.89.82,13.79,1.56,20.68,2.46s6.53-1.67,6.54-6.28Q186.7,328.11,186.66,303.44Zm29.51-77.84c.53,1.06.86,1.86,1.32,2.58q13.32,21,26.63,41.95a5.31,5.31,0,0,0,4.77,2.69q29.12,0,58.22-.05c2.64,0,3.36-1.12,2.31-3.52-4.24-9.69-8.56-19.34-12.77-29a10.59,10.59,0,0,0-8.61-6.5c-.94-.16-1.91-.17-2.87-.28-9.16-1.1-18.33-2.23-27.5-3.33-9.61-1.15-19.21-2.35-28.84-3.38A106.58,106.58,0,0,0,216.17,225.6ZM114.64,272.8h0c9,0,17.93-.11,26.89.05a9.7,9.7,0,0,0,9-5q4.9-7.8,9.84-15.57,7.11-11.25,14.21-22.52c.62-1,1.47-2.3.74-3.27s-2.07-.81-3.3-.66c-7.11.87-14.24,1.66-21.36,2.5q-22.46,2.64-44.9,5.32c-3.93.46-7.11,2.13-8.79,5.88Q90.44,254.15,84,268.78c-1.32,3-.6,4,2.83,4C96.12,272.82,105.38,272.8,114.64,272.8Z"/><path class="cls-2" d="M98.05,69.5c0-17,4.93-29.72,13.47-41.18A51.24,51.24,0,0,1,138.36,9.78a58.79,58.79,0,0,1,22.06-2.2A53.32,53.32,0,0,1,180,13.47a45.15,45.15,0,0,1,10.94,8.17c4.66,4.5,5.27,4.53,10.22.29,5.56-4.76,11.56-8.89,18.44-11.47A53.19,53.19,0,0,1,232.7,7.63,53.94,53.94,0,0,1,254.3,10a52.2,52.2,0,0,1,23,14,64.57,64.57,0,0,1,15.21,27.2,53.56,53.56,0,0,1,1.37,23,86.77,86.77,0,0,1-6.59,23.3,81.68,81.68,0,0,1-9,14.94,159.31,159.31,0,0,1-21.11,22.78c-7.73,7-15.74,13.78-23.64,20.65-8.07,7-16.08,14.09-24.23,21-3.77,3.2-7.64,6.39-13.08,6.17a17.33,17.33,0,0,1-11-4.65c-5.64-5-11.17-10.11-16.89-15-10.13-8.68-20.07-17.57-30-26.43-5.85-5.2-11.77-10.33-17.16-16-5.82-6.11-11-12.74-14.64-20.4C101.54,89.84,98,78.81,98.05,69.5Zm176.19-3.44a35.77,35.77,0,0,0-2.65-14.31A38.81,38.81,0,0,0,263.86,39a37.58,37.58,0,0,0-14.26-9.51,31.5,31.5,0,0,0-15-2.05c-8.26,1-15.2,5-21.56,10.08-5.87,4.72-10.4,10.62-14.63,16.77-1.39,2-2.15,2-3.63.18-2.57-3.23-5-6.57-7.74-9.67-4.1-4.64-8.15-9.41-13.66-12.52a34.26,34.26,0,0,0-24-4.21c-10.06,1.89-18,6.75-23.81,15-4,5.69-5.72,12.19-6.62,19a45.73,45.73,0,0,0,4.65,27.46c4.67,9.22,11.46,16.69,18.86,23.75,7.7,7.34,15.64,14.4,23.67,21.38,8.9,7.75,17.71,15.61,26.56,23.42,2.18,1.93,4.23,2.28,6,.91s3.69-2.89,5.39-4.48c4.36-4.09,9-7.83,13.54-11.76,9.32-8.15,18.55-16.4,27.87-24.56,8.43-7.4,15.9-15.6,21.39-25.47C271.25,84.84,274.4,76.58,274.24,66.06Z"/></svg>