<?xml version="1.0" encoding="UTF-8"?>
<svg width="340px" height="340px" viewBox="0 0 340 340" version="1.1" xmlns="http://www.w3.org/2000/svg" xmlns:xlink="http://www.w3.org/1999/xlink">
    <title>Group 5</title>
    <g id="Page-1" stroke="none" stroke-width="1" fill="none" fill-rule="evenodd">
        <g id="Group-7" transform="translate(-586.000000, 0.000000)" fill-rule="nonzero">
            <g id="Group-5" transform="translate(662.000000, 14.000000)">
                <g id="xmasbox" transform="translate(0.000000, 91.000000)">
                    <g id="Capa_1">
                        <g id="Capa_17">
                            <polygon id="Path" fill="#D38240" points="46.79 0.17 46.79 220.04 0.69 215.49 0.69 12.63"></polygon>
                            <polygon id="Path" fill="#F7A466" points="58.5 218.41 170.45 202.72 170.45 202.72"></polygon>
                            <path d="M170.45,33 L90,11.64 L170.45,33 Z" id="Path" fill="#F7A466"></path>
                            <polygon id="Path" fill="#F7A466" points="89.96 11.65 58.5 3.28 58.5 218.41 170.45 202.72 170.45 33.03"></polygon>
                            <polygon id="Path" fill="#F7A466" points="55.8 218.78 55.8 218.78 46.79 220.04"></polygon>
                            <polygon id="Path" fill="#BC7031" points="55.8 4.15 55.8 218.1 58.5 218.41 58.5 3.28"></polygon>
                            <polygon id="Path" fill="#F7A466" points="46.79 0.17 46.79 220.04 55.8 218.78 55.8 2.56"></polygon>
                            <polygon id="Path" fill="#F7A466" points="171.66 33.36 171.66 33.36 175.59 34.39"></polygon>
                            <polygon id="Path" fill="#BC7031" points="170.45 33.72 170.45 202.38 171.66 202.54 171.66 33.36"></polygon>
                            <polygon id="Path" fill="#F7A466" points="171.66 33.36 171.66 202.54 175.59 202 175.59 34.39"></polygon>
                            <path d="M171.66,202.54 L175.59,201.99 L171.66,202.54 Z" id="Path" fill="#F7A466"></path>
                            <g id="Group" opacity="0.19" fill="#BC7031">
                                <path d="M2.65,215.67 L0.65,215.48 C1.27748455,215.762109 1.98061897,215.828907 2.65,215.67 L2.65,215.67 Z" id="Path"></path>
                                <path d="M46.79,0.17 L30.79,4.49 C29.39,195.49 9.09,214.49 2.64,215.67 L46.79,220 L46.79,0.17 Z" id="Path"></path>
                            </g>
                        </g>
                        <g id="Capa_2" transform="translate(62.000000, 179.000000)" fill="#333333">
                            <path d="M10,24.06 C10,24.3 10,24.51 10,24.68 C10,24.85 10,24.83 10,25.3 C10,25.5 10,25.71 10,25.92 C10,26.13 10,26.28 10,26.4 C10.0796212,27.8122629 9.85099965,29.2249391 9.33,30.54 C8.61068762,31.9148545 7.12247185,32.7085695 5.58,32.54 C4.27562773,32.5340046 3.01248168,32.0823769 2,31.26 L2,31.26 C0.995888514,30.5299263 0.404211098,29.3614564 0.409957912,28.12 C0.409957912,26.46 2.30666667,25.0233333 6.1,23.81 L6.88,23.61 L8.36,23.25 C8.33301702,23.0912433 8.31631559,22.9309096 8.31,22.77 C8.31,22.56 8.31,22.3 8.23,21.99 L8.17,21.4 C7.68,22.17 7.17,22.55 6.64,22.55 C5.88022893,22.5823961 5.17650745,22.1514656 4.86,21.46 C4.5305619,20.8457457 4.36523035,20.1568642 4.38,19.46 C4.44984803,17.7632206 4.73891366,16.0826064 5.24,14.46 C5.90666667,12.18 6.60666667,11.04 7.34,11.04 C7.85,11.04 8.49,11.45 9.25,12.27 L9.25,12.27 C9.80683071,12.9288816 10.5329148,13.4233103 11.35,13.7 C10.1770898,15.7191554 9.59174605,18.0258946 9.66,20.36 C9.67573468,21.2494257 9.7391591,22.1373676 9.85,23.02 C12.08,22.7 13.85,22.81 14.15,23.25 C14.2829599,23.4151254 14.3600011,23.6182342 14.37,23.83 C14.3610173,24.0396995 14.2756564,24.2388749 14.13,24.39 C13.5405602,24.2265446 12.93845,24.1128127 12.33,24.05 C11.5549978,23.9744414 10.7743251,23.9777919 10,24.06 Z M8.64,26.59 C8.64,26.54 8.64,26.23 8.64,25.83 C8.64,25.2 8.57,24.68 8.55,24.33 C7.689104,24.4344641 6.84336692,24.6391862 6.03,24.94 C4.1,25.66 2.03,27.09 2.03,28.41 C2.03854187,29.2138758 2.44250638,29.9619582 3.11,30.41 C3.76110355,30.953044 4.58216011,31.2503231 5.43,31.2500003 C7.51,31.21 8.61,29.67 8.61,26.59 L8.64,26.59 Z M8.92,14.38 C8.89685982,13.8635765 8.67466049,13.3761716 8.3,13.02 C8.01972211,12.6823123 7.6809974,12.3977835 7.3,12.18 L6.88,13.08 C6.13364416,15.3061674 5.83458186,17.6578845 6,20 C6.1,21.2 6.27,21.48 6.45,21.48 C6.98,21.48 7.54,20.43 8.14,18.34 C8.55834391,17.0575114 8.81040193,15.726645 8.89,14.38 L8.92,14.38 Z" id="Shape"></path>
                            <path d="M13.4,21.84 C13.0124089,21.844146 12.6441437,21.6710614 12.4,21.37 C12.2590781,21.1172828 12.1964269,20.8283908 12.22,20.54 C12.22,20.44 12.22,20.35 12.22,20.26 L12.22,19.77 C12.22,19.66 12.22,19.52 12.22,19.35 L12.22,18.35 C12.22,18.25 12.05,18.11 11.72,17.94 C11.56,18.39 11.4,18.85 11.22,19.31 C10.6329251,20.8636804 9.96535479,22.3857406 9.22,23.87 L8.78,23.87 C9.94,20.95 10.78,18.82 10.89,18.49 C10.89,18.36 10.97,18.22 11.03,17.96 C11.0463694,17.8372098 11.0463694,17.7127902 11.03,17.59 C11.0026304,17.4474869 10.9555094,17.3094897 10.89,17.18 C10.8174788,17.0364571 10.7733385,16.8802684 10.76,16.72 C10.76,16.22 10.95,15.97 11.33,15.97 C11.4721082,15.9460097 11.6171095,15.991536 11.7200016,16.0924494 C11.8228936,16.1933627 11.8712266,16.3374528 11.85,16.48 L11.85,16.57 C11.8613147,16.6562974 11.8613147,16.7437026 11.85,16.83 L11.85,16.83 L11.85,17.22 C12.051344,17.334459 12.2621128,17.4314795 12.48,17.51 C13.01,17.74 13.27,17.99 13.27,18.27 C13.27,18.55 13.27,18.58 13.27,18.79 C13.27,19 13.27,19.24 13.17,19.52 C13.07,19.8 13.09,20.03 13.07,20.23 C13.05,20.43 13.07,20.6 13.07,20.74 C13.07,21.06 13.17,21.21 13.37,21.21 C13.57,21.21 13.74,20.78 14.12,19.91 C14.3,19.49 14.44,19.14 14.55,18.91 C14.6385519,18.6937922 14.7055434,18.4693706 14.75,18.24 C14.75,17.98 14.94,17.85 15.16,17.85 C15.2415226,17.8394268 15.3232433,17.86803 15.3803779,17.9271347 C15.4375124,17.9862395 15.4633298,18.0688825 15.45,18.15 C15.3445287,18.849156 15.1213712,19.525391 14.79,20.15 C14.2,21.27 13.76,21.84 13.4,21.84 Z" id="Path"></path>
                            <path d="M17,21.82 C16.6239722,21.8057551 16.2877752,21.5816238 16.13,21.24 C15.88,21.77 15.55,22.03 15.13,22.03 C14.52,22.03 14.21,21.49 14.21,20.41 L14.21,20.25 C14.2451126,19.7266801 14.3562801,19.2112673 14.54,18.72 C14.83,17.86 15.11,17.43 15.39,17.43 C15.89,17.43 16.2,17.54 16.39,17.77 L16.62,18.15 L17.19,18.3 C16.8883621,18.978913 16.7154301,19.7079401 16.68,20.45 L16.68,20.56 C16.68,21.04 16.77,21.28 16.96,21.28 C17.15,21.28 17.62,20.36 18.16,18.53 C18.24,18.3 18.36,18.18 18.52,18.18 C18.68,18.18 18.78,18.28 18.78,18.47 C18.6799856,19.0847136 18.4983827,19.6833307 18.24,20.25 C17.82,21.29 17.42,21.82 17,21.82 Z M16.13,18.69 L15.98,18.51 C15.98,18.2 15.86,18.05 15.76,18.05 C15.66,18.05 15.58,18.21 15.45,18.52 L15.45,18.59 C15.4141722,18.6711187 15.3840979,18.7546585 15.36,18.84 C15.36,18.97 15.26,19.13 15.19,19.33 C15.0406936,19.873493 14.9765982,20.4368576 15,21 C15,21.28 15.08,21.44 15.25,21.47 C15.4850016,21.2328419 15.6568935,20.9406258 15.75,20.62 C15.83,20.41 15.9,20.22 15.95,20.07 C15.995673,19.9359101 16.03242,19.7989441 16.06,19.66 L16.13,18.69 Z" id="Shape"></path>
                            <path d="M22.89,18.46 C22.7950792,19.0144176 22.6234315,19.5529202 22.38,20.06 C21.89,21.23 21.47,21.81 21.12,21.81 C20.77,21.81 20.39,21.51 20.24,20.9 C20.24,20.8 20.24,20.64 20.16,20.43 C20.08,20.22 20.1,19.96 20.08,19.64 C19.99,19.9 19.9,20.16 19.82,20.41 C19.74,20.66 19.65,20.92 19.57,21.18 C19.49,21.44 19.26,21.76 18.98,21.76 C18.6312656,21.7894304 18.3218341,21.5374647 18.28,21.19 L18.22,20.31 C18.22,20.16 18.22,20.05 18.22,19.96 C18.2231544,19.9100498 18.2231544,19.8599502 18.22,19.81 C18.2154582,19.7400737 18.2154582,19.6699263 18.22,19.6 C18.2158593,19.5200536 18.2158593,19.4399464 18.22,19.36 L18.22,18.97 L18.08,18.75 C18.0820964,18.5827545 18.1125274,18.4170744 18.17,18.26 L18.17,18.26 C18.2597677,18.0704172 18.4622415,17.9610813 18.67,17.99 C18.96,17.99 19.1,18.1 19.1,18.32 C19.0867604,18.4364702 19.0492904,18.5488801 18.99,18.65 C18.99,18.76 18.99,18.83 18.94,18.89 C18.9337733,18.9230425 18.9337733,18.9569575 18.94,18.99 L18.94,19.25 C18.9494057,19.3698157 18.9494057,19.4901843 18.94,19.61 C18.94,19.75 18.94,19.87 18.94,19.97 L18.94,20.23 C18.9105442,20.4729568 18.9379306,20.7194349 19.02,20.95 C19.02,20.95 19.02,20.85 19.02,20.73 L19.02,20.73 C19.1098568,20.4229931 19.2201018,20.122325 19.35,19.83 L19.35,19.83 C19.4838338,19.5039922 19.5973837,19.1700218 19.69,18.83 C19.7653936,18.5653255 19.8156166,18.2941208 19.84,18.02 C19.84,17.66 19.97,17.44 20.15,17.34 C20.77,17.34 21.08,17.54 21.08,17.83 L21,17.83 C21.0390616,18.0516253 21.0390616,18.2783747 21,18.5 L20.88,19.5 C20.871186,19.6598786 20.871186,19.8201214 20.88,19.98 C20.88,20.73 20.97,21.11 21.14,21.11 C21.31,21.11 21.55,20.73 21.84,19.97 L22.13,19.17 C22.21,18.94 22.28,18.74 22.33,18.57 C22.38,18.4 22.53,18.12 22.7,18.12 C22.87,18.12 22.89,18.28 22.89,18.46 Z" id="Path"></path>
                            <path d="M24.52,20.53 C24.5150275,20.5999117 24.5150275,20.6700883 24.52,20.74 C24.52,20.81 24.52,20.88 24.52,20.94 C24.52,21.15 24.61,21.27 24.69,21.29 C25.0009599,20.8927995 25.2288155,20.4370883 25.36,19.95 C25.47,19.63 25.58,19.35 25.67,19.1 C25.76,18.85 25.84,18.63 25.89,18.44 C25.94,18.25 26.08,18.08 26.23,18.08 C26.38,18.08 26.49,18.18 26.49,18.37 C26.397828,19.0094659 26.2054691,19.6304142 25.92,20.21 C25.46,21.28 25.08,21.81 24.77,21.81 C24.46,21.81 24.02,21.53 23.87,20.98 C23.847532,21.0417794 23.820801,21.1019241 23.79,21.16 L23.66,21.37 C23.39,21.75 23.12,21.94 22.84,21.94 C22.500894,21.9569642 22.1835489,21.7728257 22.03,21.47 C21.8913243,21.2085886 21.8224376,20.9158204 21.83,20.62 C21.8409733,19.8710681 21.9831239,19.1298547 22.25,18.43 C22.6,17.43 23.01,17.01 23.46,17.01 C23.6567793,17.025178 23.8446671,17.0982455 24,17.22 L24,17.22 L24.08,17.27 C24.08,17.13 24.08,16.96 24.17,16.74 C24.26,16.52 24.25,16.26 24.3,15.96 L24.42,15.21 C24.42,14.89 24.54,14.49 24.62,14.01 L24.62,14.01 C24.6127247,13.9941273 24.6127247,13.9758727 24.62,13.96 C24.62,13.76 24.7,13.64 24.87,13.61 C24.9664271,13.6003758 25.0635729,13.6003758 25.16,13.61 C25.46,13.61 25.61,13.73 25.61,13.97 L25.61,14 C25.6056639,14.019765 25.6056639,14.040235 25.61,14.06 C25.5610371,14.3430578 25.4976208,14.6234244 25.42,14.9 L25.06,16.36 C25.06,16.36 24.98,16.79 24.87,17.53 L24.72,18.53 C24.64,19.09 24.58,19.53 24.53,19.86 C24.48,20.19 24.52,20.44 24.52,20.53 Z M23.69,17.81 C23.4433333,17.81 23.1933333,18.17 22.94,18.89 C22.7537148,19.3631736 22.6423765,19.8625089 22.61,20.37 C22.61,21.06 22.67,21.37 22.78,21.37 C22.89,21.37 23.12,21.1 23.39,20.57 C23.5777174,20.1828674 23.7348634,19.7816435 23.86,19.37 L23.86,19.22 C23.9,18.9066667 23.93,18.6666667 23.95,18.5 C23.95,18.33 23.95,18.22 23.95,18.19 C24,17.94 23.89,17.81 23.69,17.81 Z" id="Shape"></path>
                            <path d="M37.61,14.07 C37.5493353,14.5665307 37.2802523,15.0137903 36.87,15.3 C36.4534717,15.6588179 35.9847754,15.9521746 35.48,16.17 C35.3,16.25 34.71,16.47 33.71,16.84 C35.4,17.2 36.25,18.01 36.25,19.28 C36.143961,20.2544123 35.6038214,21.1289239 34.78,21.66 C33.9541704,22.4034652 32.8907492,22.8288337 31.78,22.86 C31.1520443,22.8270594 30.5306158,22.71621 29.93,22.53 C29.6462322,22.470597 29.3708364,22.3765594 29.11,22.25 C29.11,22.51 28.96,22.64 28.79,22.64 C28.17,22.64 27.85,22.11 27.85,21.07 L27.85,20.21 C27.8434426,20.1468364 27.8434426,20.0831636 27.85,20.02 L27.85,19.8 C27.85,17.63 27.93,15.8 28.08,14.21 L28.16,13.43 L27.49,13.43 C27.1682167,13.4396107 26.8648167,13.2803257 26.69,13.01 L26.69,13 C26.69,12.85 27.18,12.72 28.16,12.6 C28.16,12.18 28.33,11.97 28.67,11.97 C29.09,11.97 29.34,12.11 29.41,12.4 C30.11,12.32 30.8,12.26 31.47,12.21 C32.14,12.16 32.81,12.14 33.47,12.14 C34.3347668,12.1296828 35.1945848,12.2718574 36.01,12.56 C37.09,12.88 37.61,13.4 37.61,14.07 Z M35.11,18.91 C35.11,17.98 34.17,17.52 32.29,17.52 C30.66,17.52 29.64,17.71 29.24,18.09 C29.051832,18.3871565 28.9772617,18.7422532 29.03,19.09 L29.03,19.55 C29.03,19.71 29.03,19.88 29.03,20.06 L29.03,21 C29.0412786,21.1731499 29.0412786,21.3468501 29.03,21.52 C29.12,21.52 29.48,21.67 30.12,21.92 C30.4412699,22.0565169 30.776637,22.157127 31.12,22.22 C32.1615042,22.1744217 33.1488354,21.7431326 33.89,21.01 C34.5744974,20.513262 35.0175244,19.7506745 35.11,18.91 Z M36.39,13.81 C36.39,13.2 35.47,12.9 33.64,12.9 C33.5,12.9 33.25,12.9 32.89,12.9 L31.49,13.02 L30.73,13.1 C30.4,13.1 29.99,13.19 29.49,13.26 C29.4,13.86 29.33,14.47 29.29,15.1 C29.25,15.73 29.22,16.37 29.22,17.03 C30.7505939,16.8159067 32.2619382,16.4815385 33.74,16.03 C34.3488899,15.8316834 34.9128987,15.5157026 35.4,15.1 C36.06,14.63 36.39,14.18 36.39,13.81 Z" id="Shape"></path>
                            <path d="M40.73,18.83 C40.7280346,19.2503541 40.6104051,19.6620573 40.39,20.02 C40.2017544,20.4489849 39.7878166,20.7352597 39.32,20.76 C39.1868706,20.751913 39.055562,20.7249779 38.93,20.68 C38.8900738,20.7904705 38.8599573,20.9042436 38.84,21.02 C38.8423751,21.0466138 38.8423751,21.0733862 38.84,21.1 C38.721276,21.3773063 38.5808395,21.6448044 38.42,21.9 L38.42,21.9 C38.2250321,22.1671701 37.9105735,22.3206558 37.58,22.31 C36.77,22.31 36.37,21.7 36.37,20.49 C36.3423579,19.9860124 36.4207107,19.4818293 36.6,19.01 C36.5906336,18.9135602 36.5906336,18.8164398 36.6,18.72 C36.6196626,18.6423315 36.6573473,18.570388 36.71,18.51 C36.7124022,18.4700361 36.7124022,18.4299639 36.71,18.39 C36.71,18.34 36.71,18.28 36.71,18.2 L36.71,18.07 C36.7772664,17.7737086 37.0464204,17.5676375 37.35,17.58 C37.659678,17.5860384 37.9613152,17.6796499 38.22,17.85 C38.4735997,17.9781583 38.6750067,18.1901656 38.79,18.45 C38.9153487,18.9870804 38.9625017,19.5394445 38.93,20.09 C38.99366,20.1368526 39.0709705,20.1614514 39.15,20.16 C39.4187703,20.1758367 39.6678999,20.0191262 39.77,19.77 C39.9011652,19.4857054 39.9984982,19.1869939 40.06,18.88 C40.06,18.68 40.2,18.58 40.37,18.58 C40.54,18.58 40.73,18.68 40.73,18.83 Z M38.25,20.54 C38.257949,20.440158 38.257949,20.339842 38.25,20.24 C38.25,20.12 38.22,19.98 38.16,19.82 C38.16,19.66 38.09,19.51 38.07,19.39 C38.0609538,19.2835251 38.0609538,19.1764749 38.07,19.07 C38.053524,18.9841164 38.053524,18.8958836 38.07,18.81 C38.07,18.72 38.07,18.66 38.07,18.62 C38.07,18.58 38.07,18.56 38.07,18.57 C38.07,18.38 37.97,18.28 37.76,18.28 C37.55,18.28 37.5,18.62 37.34,19.28 C37.2666667,19.5933333 37.2166667,19.8633333 37.19,20.09 C37.1785171,20.2798265 37.1785171,20.4701735 37.19,20.66 C37.19,21.41 37.36,21.79 37.69,21.79 C37.69,21.79 37.84,21.66 37.98,21.4 C38.1273442,21.1345901 38.2192037,20.8420005 38.25,20.54 L38.25,20.54 Z" id="Shape"></path>
                            <path d="M44,18.87 C43.9110255,19.4674837 43.7216916,20.0456284 43.44,20.58 C42.95,21.67 42.44,22.21 41.76,22.21 C41.4776152,22.1899229 41.206913,22.0892772 40.98,21.92 L40.98,22 L40.89,22.35 C40.89,22.5 40.8,22.69 40.75,22.92 C40.33,22.92 40.11,22.78 40.11,22.63 C40.2271272,22.1968471 40.3984826,21.7802182 40.62,21.39 C40.5232881,21.0115108 40.4498176,20.6274603 40.4,20.24 C40.3521313,19.908839 40.3287346,19.5746004 40.33,19.24 L40.33,19.09 L40.14,18.9 C40.14,18.85 40.14,18.78 40.14,18.68 C40.14,18.58 40.14,18.46 40.14,18.32 C40.14,18.18 40.33,17.88 40.57,17.88 C40.81,17.88 41.08,18.11 41.08,18.56 C41.084412,18.6366032 41.084412,18.7133968 41.08,18.79 C41.08,18.88 41.08,18.98 41.08,19.11 C41.08,19.24 41.08,19.34 41.08,19.43 L41.08,19.66 C41.08,19.8 41.08,19.92 41.08,20.03 C41.08,20.14 41.08,20.23 41.08,20.3 C41.17,20.11 41.3,19.88 41.45,19.6 C41.6,19.32 41.79,18.99 42.01,18.6 C42.0357881,18.5595801 42.0559722,18.5158478 42.07,18.47 L42.07,18.47 C42.1369494,18.3526612 42.210397,18.2391513 42.29,18.13 L42.62,17.64 C42.92,17.79 43.07,17.91 43.07,18.02 C42.9151654,18.4053166 42.7100539,18.7684647 42.46,19.1 C42.2,19.51 41.98,19.89 41.78,20.24 C41.6022545,20.5630133 41.4452699,20.8970232 41.31,21.24 C41.3409368,21.3435491 41.4039678,21.4345939 41.49,21.5 C41.5696102,21.5727595 41.6722549,21.6152332 41.78,21.62 C42.22,21.62 42.71,20.84 43.22,19.29 L43.22,19.29 C43.2356633,19.1668641 43.2658742,19.0460203 43.31,18.93 L43.31,18.93 C43.39,18.67 43.5,18.54 43.64,18.54 C43.94,18.59 44,18.69 44,18.87 Z" id="Path"></path>
                            <path d="M18.79,16.05 L18.74,16.05 L14.18,15.53 C13.9764048,15.5142932 13.819395,15.3441993 13.8199983,15.14 L13.8199983,12 C13.8226193,11.8939024 13.8672954,11.7931949 13.9441927,11.7200487 C14.0210899,11.6469025 14.1239041,11.6073144 14.23,11.61 C14.4488508,11.6097395 14.6293245,11.7814096 14.64,12 L14.64,14.79 L18.37,15.22 L18.37,9.22 C18.3486239,9.09149321 18.3983409,8.96146393 18.5,8.88 C18.6271159,8.77884246 18.7981628,8.75223516 18.95,8.81 C19.0992588,8.86739665 19.1983543,9.0100942 19.2,9.17 L19.2,15.7 C19.2,15.8129704 19.1484917,15.9197752 19.06,15.99 C18.9800223,16.0430609 18.8859741,16.070927 18.79,16.0700224 L18.79,16.05 Z" id="Path"></path>
                            <path d="M18.8,16.05 C18.7003671,16.0533733 18.6033987,16.0174591 18.53,15.95 C18.4415083,15.8797752 18.39,15.7729704 18.39,15.66 L18.39,9.26 C18.39,9.03356325 18.5735633,8.85 18.8,8.85 C19.0264367,8.85 19.21,9.03356325 19.21,9.26 L19.21,15.26 L22.94,14.83 L22.94,12 C22.94,11.7735633 23.1235633,11.59 23.35,11.59 C23.5764367,11.59 23.76,11.7735633 23.76,12 L23.76,15.13 C23.7516832,15.3306122 23.5993069,15.4956864 23.4,15.52 L18.84,16.04 C18.84,16.04 18.84,16.04 18.84,16.04 L18.8,16.05 Z" id="Path"></path>
                            <path d="M24.47,12.4 L20.73,12.4 C20.5915057,12.3984307 20.4618339,12.3317423 20.38,12.22 L18.45,9.35 C18.3598718,9.22450553 18.3598718,9.05549447 18.45,8.93 C18.5389233,8.79961106 18.6934375,8.7300797 18.85,8.75 L23.41,9.27 C23.5526342,9.28373204 23.6777501,9.37093398 23.74,9.5 L24.85,11.85 C24.9140984,11.9650051 24.9140984,12.1049949 24.85,12.22 C24.7681661,12.3317423 24.6384943,12.3984307 24.5,12.4 L24.47,12.4 Z M20.96,11.61 L23.83,11.61 L23.08,10.01 L19.62,9.61 L20.96,11.61 Z" id="Shape"></path>
                            <path d="M16.86,12.4 L13.12,12.4 C12.9815057,12.3984307 12.8518339,12.3317423 12.77,12.22 C12.6994815,12.1067468 12.6994815,11.9632532 12.77,11.85 L13.88,9.5 C13.9422499,9.37093398 14.0673658,9.28373204 14.21,9.27 L18.77,8.75 C18.9265625,8.7300797 19.0810767,8.79961106 19.17,8.93 C19.2494121,9.05873877 19.2494121,9.22126123 19.17,9.35 L17.24,12.22 C17.1616401,12.3357345 17.029721,12.4035786 16.89,12.4 L16.86,12.4 Z M13.77,11.61 L16.64,11.61 L17.98,9.61 L14.52,10.01 L13.77,11.61 Z" id="Shape"></path>
                            <path d="M18.79,7.68 C18.6740528,7.68003484 18.5614199,7.64131731 18.47,7.57 L17.54,6.81 L17.54,6.81 C16.8245133,6.26656997 16.155534,5.66448861 15.54,5.01 C15.0432229,4.50746942 14.7540147,3.83622078 14.73,3.13 C14.7207055,2.51582277 14.9543124,1.92282061 15.38,1.48 C15.8140044,1.04473182 16.4053691,0.803137706 17.02,0.81 C17.4841708,0.806388687 17.9369309,0.953798971 18.31,1.23 C18.507208,1.37381299 18.6823852,1.54562143 18.83,1.74 C18.9776148,1.54562143 19.152792,1.37381299 19.35,1.23 C19.7223879,0.952480381 20.1756035,0.804921828 20.64,0.81 C21.2546309,0.803137706 21.8459956,1.04473182 22.28,1.48 C22.7038432,1.9240018 22.93714,2.51621693 22.93,3.13 C22.9059853,3.83622078 22.6167771,4.50746942 22.12,5.01 C21.4998361,5.65973861 20.831249,6.26146704 20.12,6.81 C19.84,7.04 19.52,7.29 19.19,7.57 C19.0722608,7.64937321 18.9317691,7.68800842 18.79,7.68 L18.79,7.68 Z M17,1.25 C16.5162499,1.24613938 16.051308,1.437162 15.71,1.78 C15.3669561,2.14075292 15.1800943,2.62228156 15.19,3.12 C15.2126746,3.71972628 15.4629838,4.28828573 15.89,4.71 C16.5102046,5.34439122 17.1788948,5.92949518 17.89,6.46 L17.89,6.46 L18.83,7.22 L19.77,6.46 C20.4834972,5.93246038 21.1524168,5.34715572 21.77,4.71 C22.1995829,4.29005858 22.4503662,3.72042218 22.47,3.12 C22.476704,2.6228534 22.2902945,2.14249049 21.95,1.78 C21.8130973,1.64159081 21.6542985,1.52671508 21.48,1.44 C21.2243095,1.31615664 20.9441009,1.25123025 20.66,1.25 C20.5082089,1.25285566 20.3572365,1.27298531 20.21,1.31 C19.665752,1.49252733 19.1932038,1.84256303 18.86,2.31 C18.5622033,1.84644539 18.119069,1.49475152 17.6,1.31 C17.4049408,1.25563287 17.2019624,1.23533503 17,1.25 L17,1.25 Z" id="Shape"></path>
                        </g>
                    </g>
                    <g id="Capa_8" transform="translate(67.000000, 24.000000)" fill="#000000">
                        <path d="M11.1,17.13 C11.250051,16.5408997 11.1639246,15.9164829 10.86,15.39 C10.5237653,14.848643 10.1092766,14.360018 9.63,13.94 C9.12,13.46 8.56,12.94 7.95,12.46 C7.33615075,11.9428128 6.78865758,11.3516545 6.32,10.7 C5.84367101,10.0074279 5.50423669,9.23012331 5.32,8.41 C5.1013482,7.37571432 5.12187028,6.30514609 5.38,5.28 C5.55420264,4.3476791 5.89280688,3.4537639 6.38,2.64 C6.78941751,1.97816311 7.34323627,1.41750708 8,1 C8.63528563,0.599943732 9.35354783,0.350262111 10.1,0.27 C10.9232121,0.187281623 11.7544382,0.241345112 12.56,0.43 C13.5248588,0.656635013 14.4608569,0.992118172 15.35,1.43 C16.0996188,1.78280394 16.7776514,2.27098746 17.35,2.87 L15.53,6.19 C15.0902315,5.71045992 14.5730357,5.30819657 14,5 C13.2875032,4.58846476 12.5147352,4.2915059 11.71,4.12 C11.0454209,3.91639115 10.3275443,3.98100005 9.71,4.3 C9.18266408,4.6112484 8.8174465,5.13716172 8.71,5.74 C8.57471738,6.31249606 8.66798992,6.91518019 8.97,7.42 C9.30956924,7.96201311 9.71984618,8.4563632 10.19,8.89 C10.7,9.37 11.26,9.89 11.87,10.4 C12.4808868,10.9209766 13.0250146,11.5154866 13.49,12.17 C13.9661785,12.8553361 14.3057123,13.6260777 14.49,14.44 C14.7217282,15.4265755 14.7217282,16.4534245 14.49,17.44 C14.2965856,18.4606517 13.9241838,19.439053 13.39,20.33 C12.948724,21.0501123 12.3547445,21.6645739 11.65,22.13 C10.9650018,22.5644804 10.1873796,22.831681 9.38,22.91 C8.48346929,23.0047432 7.57737335,22.947267 6.7,22.74 C5.58528146,22.5077155 4.51055952,22.1135385 3.51,21.57 C2.82106686,21.2119316 2.18224947,20.7647594 1.61,20.24 L3.48,16.87 C3.67402766,17.0702007 3.8811511,17.2572799 4.1,17.43 C4.38498128,17.6529548 4.68210385,17.8599391 4.99,18.05 C5.33,18.25 5.69,18.44 6.08,18.62 C6.47693674,18.7905828 6.88865431,18.9244747 7.31,19.02 C8.12012406,19.2581004 8.98689639,19.2158188 9.77,18.9 C10.4808995,18.5688803 10.9797766,17.9049611 11.1,17.13 L11.1,17.13 Z" id="Path"></path>
                        <polygon id="Path" points="31.4 16 32.69 11.79 32.54 11.79 30.73 15 25.31 22.25 24.21 22.01 22.05 13.01 21.69 9.34 21.56 9.34 21.15 13.72 18.74 24.98 15.52 24.26 20.14 2.61 23.24 3.3 25.77 14.23 26.06 16.89 26.16 16.89 27.45 14.52 33.94 5.66 37.02 6.35 32.4 28 29 27.24"></polygon>
                        <polygon id="Path" points="40.35 7.06 43.75 7.82 39.13 29.47 35.73 28.71"></polygon>
                        <polygon id="Path" points="53.46 32.66 42.46 30.21 47.08 8.56 50.48 9.32 46.66 27.2 54.26 28.89"></polygon>
                        <polygon id="Path" points="59.84 11.41 70.15 13.7 69.34 17.48 62.44 15.94 61.36 20.94 67.64 22.34 66.84 26.11 60.56 24.71 59.43 30 66.43 31.57 65.63 35.34 55.2 33.02"></polygon>
                        <path d="M69.26,34.05 C69.3598374,33.4241597 69.6831376,32.8557198 70.17,32.45 C70.6223346,32.1122527 71.2035792,31.9982111 71.75,32.14 C72.3309326,32.2454694 72.8298196,32.6150153 73.1,33.14 C73.3880527,33.7092237 73.4522775,34.365744 73.28,34.98 C73.1781484,35.6079369 72.8554437,36.178876 72.37,36.59 C71.9041218,36.9404757 71.3020093,37.0549879 70.74,36.9 C70.1725185,36.7918754 69.6900692,36.4207606 69.44,35.9 C69.1629381,35.3240721 69.0991561,34.6685349 69.26,34.05 Z M73.8,14.52 L77.12,15.26 L75,25.44 L73.28,30.33 L71.28,29.88 L71.71,24.69 L73.8,14.52 Z" id="Shape"></path>
                        <path d="M5.1,30.22 C5.1,30.49 4.8,30.65 4.36,30.7 C4.00247051,30.739348 3.6408891,30.7190724 3.29,30.64 C2.3539163,30.4794094 1.45756422,30.1398821 0.65,29.64 C0.48,29.54 0.41,29.42 0.44,29.29 C0.47,29.16 0.55,29.14 0.72,29.14 L0.99,29.44 C1.19091088,29.5397991 1.39800044,29.6266431 1.61,29.7 C2.13715609,29.9179408 2.68263416,30.0886119 3.24,30.21 C3.92,30.35 4.29,30.29 4.34,30.02 C4.37805644,29.8746596 4.30641607,29.7229506 4.17,29.66 L1.93,28.4 C1.47420904,28.2117089 1.22373461,27.7192507 1.34,27.24 C1.59248969,26.5166056 2.03453893,25.8742528 2.62,25.38 C2.91069741,25.0261317 3.36830087,24.8545304 3.82,24.93 C4.2528754,25.0177609 4.64776297,25.2379195 4.95,25.56 C5.23735258,25.8110314 5.39547308,26.1787535 5.38,26.56 C5.38,26.76 5.38,26.95 5.31,27.12 C5.24,27.29 5.31,27.44 5.23,27.57 C5.16,27.94 5.01,28.09 4.79,28.05 C4.69403853,28.0419493 4.6068049,27.9911114 4.5524962,27.911588 C4.49818749,27.8320645 4.48257891,27.732312 4.51,27.64 C4.59815339,27.2288026 4.64836417,26.8103795 4.66,26.39 C4.64970511,26.193635 4.59499905,26.0021638 4.5,25.83 C4.40388696,25.6227622 4.22071713,25.4688996 4,25.41 C3.69,25.35 3.31,25.6 2.84,26.17 C2.50190477,26.5252884 2.24887957,26.9526959 2.1,27.42 C2.0710219,27.5837085 2.10688577,27.7522686 2.2,27.89 C2.28705605,28.0568255 2.42317448,28.192944 2.59,28.28 L4.35,29.28 C4.92,29.54 5.17,29.87 5.1,30.22 Z" id="Path"></path>
                        <path d="M8.62,29.18 C8.55551719,29.4581033 8.41734824,29.7137159 8.22,29.92 C8.01881103,30.177807 7.69244324,30.3045145 7.37,30.25 C7.27510953,30.2267203 7.18414299,30.1896599 7.1,30.14 C7.05788661,30.2070091 7.02110662,30.2772254 6.99,30.35 C6.8713679,30.5186063 6.73746986,30.6759365 6.59,30.82 L6.59,30.82 C6.41180045,30.9672081 6.17505208,31.022696 5.95,30.97 C5.38,30.85 5.17,30.39 5.33,29.59 C5.37879914,29.2538449 5.50176944,28.9327558 5.69,28.65 C5.6839697,28.5868102 5.6839697,28.5231898 5.69,28.46 C5.7066632,28.4086296 5.74247661,28.3656535 5.79,28.34 C5.79180999,28.313364 5.79180999,28.286636 5.79,28.26 L5.85,28.14 L5.9,28.06 C5.99006746,27.8681039 6.20654696,27.7704759 6.41,27.83 C6.6258625,27.878603 6.82559483,27.9819128 6.99,28.13 C7.14519485,28.2537079 7.26006925,28.420798 7.32,28.61 C7.33660702,28.9806496 7.29613431,29.3516494 7.2,29.71 C7.23957673,29.7475068 7.28759363,29.774945 7.34,29.79 C7.52284793,29.8426232 7.71903174,29.7745594 7.83,29.62 C7.96591521,29.4571779 8.07710836,29.2752254 8.16,29.08 C8.19380156,28.9694595 8.30738499,28.9039306 8.42,28.93 C8.58,29 8.64,29.09 8.62,29.18 Z M6.62,29.95 C6.62551908,29.8834476 6.62551908,29.8165524 6.62,29.75 C6.62949356,29.6535664 6.62949356,29.5564336 6.62,29.46 C6.61499687,29.3600626 6.61499687,29.2599374 6.62,29.16 C6.61375881,29.0901391 6.61375881,29.0198609 6.62,28.95 C6.6151746,28.8934361 6.6151746,28.8365639 6.62,28.78 C6.62,28.72 6.62,28.68 6.62,28.66 C6.62,28.64 6.62,28.66 6.62,28.66 C6.62,28.66 6.62,28.45 6.44,28.42 C6.26,28.39 6.21,28.6 6.01,29.03 C5.92994928,29.1956856 5.85982543,29.3659864 5.8,29.54 C5.75653398,29.6578162 5.71980794,29.7780105 5.69,29.9 C5.59,30.4 5.69,30.67 5.89,30.72 C5.89,30.72 6.02,30.65 6.15,30.51 C6.35319009,30.3833771 6.52160274,30.2080905 6.64,30 L6.62,29.95 Z" id="Shape"></path>
                        <path d="M13,30.14 C12.7630428,30.6920148 12.4237368,31.1941877 12,31.62 C11.8022305,31.9139781 11.4636662,32.0813582 11.11,32.06 C10.75,31.98 10.58,31.71 10.62,31.24 C10.610643,31.2005472 10.610643,31.1594528 10.62,31.12 L10.62,30.91 L10.45,31.16 C10.39,31.24 10.33,31.33 10.26,31.41 C10.04,31.69 9.81,31.8 9.59,31.75 C9.37,31.7 9.15,31.48 9.22,31.14 C9.22,31.14 9.33,30.73 9.58,29.83 L9.51,29.95 L9.37,30.22 C9.29,30.35 9.22,30.49 9.13,30.64 C9.04,30.79 8.96,30.96 8.86,31.13 C8.63,31.47 8.38,31.61 8.12,31.56 C7.86,31.51 7.73,31.2 7.84,30.68 L7.84,30.48 C7.85371563,30.3920021 7.87376778,30.3051095 7.9,30.22 L7.97,29.95 C7.96639429,29.886718 7.96639429,29.823282 7.97,29.76 L7.91,29.56 L7.91,29.48 C7.89928203,29.4614359 7.89928203,29.4385641 7.91,29.42 C7.97,29.11 8.12,28.98 8.35,29.03 C8.45515378,29.0335267 8.55232336,29.0869836 8.61159366,29.1739134 C8.67086397,29.2608432 8.68513009,29.3708252 8.65,29.47 C8.63561124,29.5447495 8.61555329,29.6182953 8.59,29.69 C8.55552029,29.7986561 8.51546724,29.9054642 8.47,30.01 C8.41754503,30.1092669 8.37403966,30.2130105 8.34,30.32 C8.31444671,30.3917047 8.29438876,30.4652505 8.28,30.54 C8.27604371,30.6166156 8.27604371,30.6933844 8.28,30.77 C8.27560298,30.833257 8.27560298,30.896743 8.28,30.96 C8.41543546,30.8005013 8.52662968,30.6219166 8.61,30.43 C8.68984984,30.2319022 8.78688686,30.0411743 8.9,29.86 C9.17,29.39 9.45,29.18 9.73,29.24 C10.01,29.3 10.11,29.52 10.03,29.92 C9.95658132,30.092887 9.89314372,30.2698446 9.84,30.45 C9.78379623,30.5986426 9.74356975,30.7528442 9.72,30.91 L9.66,31.2 C9.75,31.2 9.97,30.97 10.3,30.45 C10.4859002,30.1803056 10.643405,29.8921053 10.77,29.59 L10.77,29.59 C10.77,29.59 10.77,29.59 10.77,29.59 C10.77,29.59 10.93,29.46 11.13,29.51 C11.3144141,29.5623328 11.4850957,29.6545009 11.63,29.78 C11.3723706,30.2362278 11.1740981,30.7235077 11.04,31.23 C10.98,31.56 11.04,31.73 11.04,31.75 C11.04,31.77 11.4,31.6 11.69,31.21 C11.7723786,31.1098429 11.8459836,31.0027811 11.91,30.89 C12.01,30.74 12.15,30.53 12.3,30.27 L12.3,30.27 C12.324709,30.2034645 12.3620626,30.1423404 12.41,30.09 C12.4577276,29.9997805 12.5612394,29.9542353 12.66,29.98 C13,30 13,30 13,30.14 Z" id="Path"></path>
                        <path d="M14.88,30.51 C14.8135024,30.6813902 14.7297377,30.8455691 14.63,31 C14.4612036,31.357579 14.2496588,31.6933644 14,32 C13.7592764,32.3760675 13.3226256,32.5787982 12.88,32.52 C12.5792596,32.4759047 12.3203915,32.2845674 12.19,32.01 C12.0907362,31.7729864 12.0663111,31.5112892 12.12,31.26 C12.1539145,31.0877371 12.1973139,30.917478 12.25,30.75 C12.3028358,30.5730092 12.366284,30.3993615 12.44,30.23 C12.69,29.66 12.97,29.41 13.27,29.48 C13.4406902,29.5067136 13.5983674,29.5873042 13.72,29.71 C13.8286575,29.8000094 13.8818565,29.9406069 13.86,30.08 C13.7429614,30.5396677 13.4965549,30.9561295 13.15,31.28 C13.0702998,31.379742 12.979742,31.4702998 12.88,31.55 L12.64,31.77 C12.6247977,31.8682754 12.6628612,31.9672404 12.74,32.03 C12.7892968,32.1206232 12.8717005,32.1886959 12.97,32.22 C13.22,32.22 13.67,31.78 14.3,30.75 C14.48,30.45 14.61,30.3 14.68,30.32 C14.75,30.34 14.9,30.4 14.88,30.51 Z M13.37,30.05 C13.37,29.93 13.37,29.87 13.37,29.86 C13.3536022,29.8557661 13.3363978,29.8557661 13.32,29.86 C13.0351119,30.2615647 12.8188406,30.7076244 12.68,31.18 C12.7415622,31.1248201 12.7984251,31.0646123 12.85,31 L13.02,30.75 C13.1754649,30.5381703 13.2938152,30.3014698 13.37,30.05 L13.37,30.05 Z" id="Shape"></path>
                        <path d="M16.26,31 C16.2158627,31.1967874 16.1590781,31.3905229 16.09,31.58 C16.0132645,31.7921934 15.9230817,31.9992799 15.82,32.2 C15.51,32.82 15.18,33.1 14.82,33.03 C14.6213984,32.980004 14.4648837,32.8273068 14.41,32.63 C14.3418675,32.6528669 14.2681325,32.6528669 14.2,32.63 C14.1133876,32.6079875 14.0404881,32.5496679 14,32.47 C13.9434958,32.3998936 13.9214689,32.3081148 13.94,32.22 L13.94,32.16 L13.94,31.98 C14.1075658,31.1568239 14.3382472,30.3477674 14.63,29.56 L15.24,27.94 L15.24,27.82 L15.24,27.71 C15.242491,27.6767132 15.242491,27.6432868 15.24,27.61 C15.3212569,27.5149898 15.4542553,27.4827478 15.57,27.53 L15.62,27.53 C15.84,27.53 15.94,27.7 15.9,27.88 C15.8735588,27.9785788 15.8331494,28.0728675 15.78,28.16 L15.78,28.16 L15.65,28.4 L15.55,28.6 C15.38,28.99 15.23,29.34 15.11,29.6 C14.99,29.86 14.88,30.16 14.8,30.38 C15.02,30.06 15.26,29.93 15.53,29.99 C15.7941066,29.9326465 16.0671084,30.0371402 16.2254236,30.256179 C16.3837388,30.4752178 16.3973124,30.767219 16.26,31 Z M15.71,31 C15.79,30.62 15.79,30.42 15.71,30.41 C15.63,30.4 15.35,30.63 15.05,31.15 C14.8579927,31.4655502 14.7004228,31.8008051 14.58,32.15 C14.6449474,32.2435067 14.7050273,32.3403021 14.76,32.44 C14.76,32.5 14.76,32.54 14.86,32.55 C14.96,32.56 15.08,32.45 15.24,32.19 C15.4595023,31.8211211 15.6181986,31.4193155 15.71,31 L15.71,31 Z" id="Shape"></path>
                        <path d="M19.9,31.52 C19.8453706,31.7966608 19.7096026,32.0507907 19.51,32.25 C19.3098584,32.5151843 18.9761613,32.6432308 18.65,32.58 C18.5572948,32.5596701 18.4691469,32.5223768 18.39,32.47 C18.3483456,32.537272 18.3115841,32.6074531 18.28,32.68 L18.28,32.68 L18.28,32.74 C18.1619512,32.9059828 18.0279827,33.0600466 17.88,33.2 L17.88,33.2 C17.6975546,33.3383381 17.4635412,33.3895285 17.24,33.34 C16.67,33.23 16.46,32.77 16.62,31.97 C16.6667913,31.6333249 16.7899278,31.3118016 16.98,31.03 C16.9696822,30.9637325 16.9696822,30.8962675 16.98,30.83 C17.0029088,30.7823535 17.0372657,30.7411253 17.08,30.71 L17.08,30.64 C17.0958719,30.5980658 17.1159758,30.5578581 17.14,30.52 L17.14,30.43 C17.2334833,30.2419824 17.4490873,30.1489768 17.65,30.21 C17.8664994,30.2568435 18.0666628,30.3603763 18.23,30.51 C18.3880497,30.631022 18.5035994,30.7990943 18.56,30.99 C18.5711539,31.3604553 18.5307675,31.7306634 18.44,32.09 C18.4805843,32.126128 18.52827,32.153377 18.58,32.17 C18.7626462,32.2167394 18.9555461,32.149815 19.07,32 C19.2059152,31.8371779 19.3171084,31.6552254 19.4,31.46 C19.4140471,31.405295 19.4495377,31.3585543 19.4984597,31.3303301 C19.5473816,31.3021059 19.6056103,31.2947777 19.66,31.31 C19.87,31.36 19.92,31.42 19.9,31.52 Z M17.9,32.28 C17.9058081,32.2134598 17.9058081,32.1465402 17.9,32.08 C17.9,32 17.9,31.91 17.9,31.79 C17.8899611,31.693594 17.8899611,31.596406 17.9,31.5 C17.8936363,31.4268047 17.8936363,31.3531953 17.9,31.28 C17.8926084,31.2269228 17.8926084,31.1730772 17.9,31.12 L17.9,30.99 C17.9,30.86 17.9,30.79 17.72,30.76 C17.54,30.73 17.49,30.94 17.29,31.37 C17.2,31.56 17.13,31.73 17.08,31.87 C17.0314894,31.9894982 16.9946512,32.1134085 16.97,32.24 C16.87,32.73 16.97,33.01 17.17,33.05 C17.17,33.05 17.29,32.99 17.43,32.84 C17.645558,32.7035304 17.818727,32.5095812 17.93,32.28 L17.9,32.28 Z" id="Shape"></path>
                        <path d="M20.77,33.17 C20.77,33.17 20.77,33.27 20.77,33.31 C20.7650365,33.3565347 20.7650365,33.4034653 20.77,33.45 C20.77,33.59 20.77,33.68 20.84,33.71 C20.91,33.74 21.15,33.43 21.49,32.92 L21.82,32.41 C21.8879445,32.2769606 21.9480472,32.1400601 22,32 C22.08,31.85 22.18,31.79 22.29,31.81 C22.3424705,31.8166111 22.3893787,31.8459625 22.4182683,31.8902598 C22.4471578,31.9345571 22.4551052,31.9893178 22.44,32.04 C22.288652,32.4476046 22.0688275,32.8263791 21.79,33.16 C21.33,33.8 20.99,34.1 20.79,34.05 C20.4753986,33.9828601 20.2529155,33.7016078 20.26,33.38 L20.18,33.48 L20.06,33.6 C19.894378,33.786624 19.6477002,33.8800626 19.4,33.85 C19.1639896,33.8233988 18.9669392,33.6578764 18.9,33.43 C18.8441644,33.2372964 18.8441644,33.0327036 18.9,32.84 C19.0059501,32.3462935 19.2062879,31.8777068 19.49,31.46 C19.86,30.89 20.21,30.63 20.49,30.7 C20.627725,30.7393417 20.7521629,30.8153871 20.85,30.92 L20.85,30.92 C20.85,30.92 20.85,30.92 20.9,30.92 C20.95,30.92 20.98,30.72 21.03,30.59 C21.08,30.46 21.15,30.28 21.23,30.09 L21.41,29.62 L21.71,28.86 L21.71,28.86 C21.71,28.86 21.71,28.86 21.71,28.86 C21.7150587,28.8042033 21.7422035,28.7527413 21.7853971,28.7170596 C21.8285907,28.681378 21.8842515,28.6644354 21.94,28.67 L22.15,28.67 C22.36,28.67 22.45,28.82 22.42,28.98 L22.42,28.98 C22.42,29.1 22.29,29.28 22.18,29.5 L21.74,30.41 C21.6291338,30.6508636 21.5323052,30.8979436 21.45,31.15 L21.2,31.81 C21.07,32.17 20.97,32.45 20.9,32.66 C20.83,32.87 20.78,33.11 20.77,33.17 Z M20.55,31.26 C20.37,31.26 20.15,31.43 19.88,31.86 C19.6864981,32.1429447 19.5443276,32.4577508 19.46,32.79 C19.37,33.24 19.36,33.48 19.46,33.5 C19.56,33.52 19.73,33.37 19.99,33.06 C20.1748346,32.8318093 20.3388253,32.5874967 20.48,32.33 L20.48,32.24 L20.64,31.78 C20.6669245,31.7156098 20.6870341,31.6485778 20.7,31.58 C20.74,31.4 20.69,31.29 20.55,31.26 Z" id="Shape"></path>
                        <path d="M21.4,33.06 C21.53,32.88 21.65,32.71 21.75,32.54 C21.8413183,32.3963163 21.9215507,32.2458805 21.99,32.09 C22.07,31.69 22.24,31.51 22.51,31.57 C22.78,31.63 22.75,31.68 22.73,31.79 L22.73,31.79 L22.46,32.57 C22.39,32.78 22.33,32.95 22.29,33.11 C22.247549,33.2340902 22.2141285,33.3610881 22.19,33.49 C22.11,33.85 22.14,34.05 22.25,34.07 C22.36,34.09 22.63,33.76 23.05,33.07 L23.05,33.07 L23.26,32.54 C23.34,32.31 23.45,32.03 23.58,31.7 C23.64,31.53 23.78,31.46 24,31.51 L24,31.51 C24.16,31.51 24.23,31.62 24.2,31.73 C24.1112238,31.9956119 23.9867507,32.2479222 23.83,32.48 C23.6698954,32.8506252 23.5589545,33.2405994 23.5,33.64 L23.43,34.02 C23.43,34.02 23.43,34.22 23.32,34.71 L23.32,34.96 C23.4162861,34.9478691 23.5137139,34.9478691 23.61,34.96 C23.7796918,34.9455238 23.9503082,34.9455238 24.12,34.96 C24.5,35.04 24.67,35.16 24.64,35.33 C24.6235664,35.3731158 24.5959549,35.4110816 24.56,35.44 L24.44,35.44 C24.2515072,35.3653893 24.0576153,35.305216 23.86,35.26 C23.6803318,35.244543 23.4996682,35.244543 23.32,35.26 C23.32,35.26 23.32,35.33 23.32,35.38 L23.32,35.53 C23.32,35.59 23.32,35.64 23.32,35.69 C23.3265297,35.7297335 23.3265297,35.7702665 23.32,35.81 C23.08,37.05 22.4,37.56 21.32,37.33 C21.0009618,37.2781964 20.7105129,37.1152617 20.5,36.87 C20.2955696,36.6700449 20.2053832,36.380697 20.26,36.1 C20.34,35.7 20.74,35.39 21.45,35.16 C21.9278271,35.004546 22.4275311,34.9268893 22.93,34.93 C22.93,34.75 22.93,34.57 23,34.41 C23.0092809,34.2601436 23.0092809,34.1098564 23,33.96 C22.9088741,34.0654441 22.8084716,34.1624998 22.7,34.25 C22.5615689,34.3321669 22.3966063,34.3572699 22.24,34.32 C21.8786811,34.278286 21.6117862,33.9632625 21.63,33.6 C21.6260378,33.5367286 21.6260378,33.4732714 21.63,33.41 C21.31,33.8433333 21.05,34.0333333 20.85,33.98 C20.63,33.98 20.52,33.87 20.54,33.78 C20.56,33.69 20.65,33.65 20.82,33.63 C20.99,33.61 21.07,33.51 21.4,33.06 Z M22.8,35.36 C22.3451742,35.3619872 21.8945038,35.4466997 21.47,35.61 C21.0950968,35.7134518 20.7978813,35.9993807 20.68,36.37 C20.653344,36.5224742 20.6933999,36.6790564 20.79,36.8 C20.8828219,36.9434486 21.0315512,37.0413923 21.2,37.07 C21.594175,37.1655591 22.0084955,37.0300337 22.27,36.72 C22.4921592,36.4670403 22.643899,36.1601121 22.71,35.83 L22.8,35.36 Z" id="Shape"></path>
                        <path d="M28.33,33.27 C28.1802835,33.6247357 27.9889419,33.9604228 27.76,34.27 C27.51,34.65 27.35,34.88 27.28,34.97 C27.1383137,35.1780121 26.8878648,35.2836703 26.64,35.24 C26.22,35.15 26.06,34.83 26.18,34.24 C26.2380286,33.9519495 26.3148597,33.6680085 26.41,33.39 C26.53,33.02 26.61,32.73 26.65,32.54 C26.7537865,32.504945 26.8662135,32.504945 26.97,32.54 C27.2,32.54 27.31,32.68 27.28,32.8 L27.05,33.25 C26.95,33.47 26.86,33.68 26.79,33.86 C26.7270913,34.0336332 26.673679,34.2105615 26.63,34.39 C26.57,34.68 26.63,34.84 26.73,34.87 C26.83,34.9 26.92,34.78 27.07,34.56 L27.53,33.86 C27.63,33.7 27.75,33.49 27.89,33.23 C27.98,33.08 28.07,33.01 28.18,33.03 C28.29,33.05 28.36,33.14 28.33,33.27 Z M27.91,31.06 C27.91,31.31 27.73,31.41 27.5,31.36 C27.3744958,31.335775 27.2613479,31.2685934 27.18,31.17 C27.1066368,31.0845142 27.073821,30.9714819 27.09,30.86 C27.09,30.79 27.16,30.73 27.27,30.67 C27.3638892,30.6372286 27.4661108,30.6372286 27.56,30.67 C27.84,30.68 28,30.83 27.91,31.06 Z" id="Shape"></path>
                        <path d="M28.71,35 C28.6,35.53 28.31,35.75 27.84,35.65 C27.7476866,35.6398513 27.6588323,35.609094 27.58,35.56 C27.5019118,35.5182124 27.4310152,35.4641959 27.37,35.4 C27.3199597,35.3415263 27.2763741,35.2778243 27.24,35.21 C27.2211098,35.1446715 27.2211098,35.0753285 27.24,35.01 C27.24,34.87 27.34,34.8 27.44,34.81 C27.54,34.82 27.58,34.91 27.56,35.03 C27.54,35.15 27.68,35.28 27.78,35.3 C27.88,35.32 28.15,35.2 28.22,34.86 C28.2575316,34.587955 28.2575316,34.312045 28.22,34.04 C28.2260819,33.9501027 28.2260819,33.8598973 28.22,33.77 C27.97,34.23 27.76,34.44 27.6,34.41 L27.6,34.41 L27.43,34.36 C27.7535729,33.8406905 28.0026685,33.2785422 28.17,32.69 C28.17,32.5 28.34,32.43 28.57,32.48 C28.8,32.53 28.93,32.63 28.9,32.78 C28.881035,32.847995 28.8505975,32.912252 28.81,32.97 C28.7793751,33.0315929 28.7526557,33.0950516 28.73,33.16 C28.6962992,33.467339 28.7131896,33.7781235 28.78,34.08 C28.7990835,34.3884265 28.7755281,34.6980113 28.71,35 L28.71,35 Z" id="Path"></path>
                        <path d="M35.11,33.13 C34.9085245,33.1688716 34.7014755,33.1688716 34.5,33.13 C34.2884789,33.1233689 34.0778176,33.0999621 33.87,33.06 L33.39,32.96 L32.95,32.86 L32.54,32.77 C32.38,33.16 32.25,33.5 32.15,33.77 C32.0567098,34.0102888 31.9831335,34.2577727 31.93,34.51 C31.93,34.74 31.85,34.92 31.83,35.06 C31.81,35.2 31.83,35.31 31.83,35.38 C31.83,35.65 31.83,35.8 31.95,35.82 C32.07,35.84 32.55,35.41 33.07,34.45 C33.21,34.19 33.34,34.07 33.44,34.09 C33.4968515,34.0939525 33.5489266,34.123215 33.581867,34.1697192 C33.6148075,34.2162233 33.6251343,34.2750576 33.61,34.33 C33.4666582,34.6942109 33.2639076,35.0321286 33.01,35.33 C32.56,35.97 32.16,36.26 31.83,36.19 C31.5,36.12 31.36,35.89 31.3,35.47 C31.2617329,35.2181118 31.2617329,34.9618882 31.3,34.71 C31.3,34.62 31.39,34.4 31.5,34.05 C31.61,33.7 31.78,33.21 31.99,32.58 L31.71,32.52 L31.12,32.39 L30.79,32.39 C30.7386533,32.3148991 30.670076,32.2531795 30.59,32.21 C30.48,32.15 30.43,32.09 30.45,32.01 C30.47,31.93 30.55,31.9 30.7,31.93 L31.35,32.06 L32.12,32.19 L32.12,32.19 C32.12,32.19 32.12,32.19 32.12,32.11 C32.12,32.03 32.12,31.9 32.21,31.71 L32.21,31.55 C32.2708803,31.4707189 32.3731343,31.4353232 32.47,31.46 C32.6463659,31.531056 32.8088456,31.6326058 32.95,31.76 L32.95,31.97 C32.9307767,32.018611 32.9073548,32.0654548 32.88,32.11 C32.88,32.18 32.81,32.25 32.77,32.33 L32.97,32.33 L33.35,32.4 L33.63,32.47 L34.09,32.58 L35.2,32.83 L35.2,32.96 L35.11,33.13 Z" id="Path"></path>
                        <path d="M35.79,35.9 L35.52,36.34 L35.34,36.59 C35.1940322,36.7869949 34.9533189,36.8901578 34.71,36.86 C34.23,36.76 34.04,36.39 34.13,35.76 C34.13,35.69 34.13,35.59 34.19,35.46 C34.25,35.33 34.19,35.16 34.27,34.95 L33.9,35.62 L33.33,36.62 C33.2512369,36.6398947 33.1687631,36.6398947 33.09,36.62 C32.74,36.55 32.66,36.08 32.83,35.2 C32.9859341,34.5687016 33.1898606,33.9502361 33.44,33.35 C33.61,32.95 33.74,32.59 33.84,32.28 C33.9328037,32.0258894 34.0063449,31.7651525 34.06,31.5 C34.06,31.5 34.06,31.44 34.06,31.4 C34.0554444,31.3567864 34.0554444,31.3132136 34.06,31.27 C34.1771105,31.1582763 34.3461042,31.1198686 34.5,31.17 L34.5,31.17 C34.7,31.17 34.79,31.3 34.76,31.45 C34.7271404,31.5718842 34.672972,31.6869922 34.6,31.79 L34.6,31.79 C34.5645651,31.8400885 34.5344047,31.893707 34.51,31.95 C34.4822282,31.9856178 34.4618311,32.0264119 34.45,32.07 C34.13,32.81 33.88,33.45 33.69,33.99 C33.5301409,34.4240262 33.3998431,34.8683751 33.3,35.32 L33.12,35.32 C33.25,35.32 33.3,35.4 33.29,35.49 C33.3041133,35.5660172 33.3041133,35.6439828 33.29,35.72 C33.6990629,35.1193321 34.0601796,34.4873779 34.37,33.83 C34.45,33.65 34.57,33.58 34.73,33.62 C34.9206884,33.7070427 35.0910166,33.8330856 35.23,33.99 C34.9390243,34.5640059 34.7206769,35.1720194 34.58,35.8 C34.5,36.17 34.58,36.37 34.69,36.4 C34.8,36.43 35.08,36.13 35.47,35.52 C35.53,35.4 35.6,35.29 35.66,35.19 C35.72,35.09 35.79,34.97 35.85,34.86 C35.91,34.75 36.02,34.66 36.13,34.68 C36.24,34.7 36.32,34.78 36.3,34.9 C36.1474173,35.2419332 35.9771883,35.5757156 35.79,35.9 L35.79,35.9 Z" id="Path"></path>
                        <path d="M37.62,35.2 C37.4747123,35.5569053 37.2830654,35.893128 37.05,36.2 C36.8,36.57 36.64,36.81 36.57,36.9 C36.4259151,37.0986403 36.1822427,37.1992035 35.94,37.16 C35.51,37.08 35.36,36.75 35.47,36.16 C35.47,35.97 35.59,35.69 35.71,35.31 C35.8060747,35.0356791 35.8829273,34.755 35.94,34.47 C36.0432292,34.4317029 36.1567708,34.4317029 36.26,34.47 C36.49,34.47 36.6,34.61 36.57,34.74 L36.35,35.18 C36.2487155,35.381567 36.1585797,35.5885454 36.08,35.8 C36.0128853,35.9713689 35.9626474,36.1488762 35.93,36.33 C35.87,36.62 35.93,36.78 36.02,36.8 C36.11,36.82 36.21,36.72 36.36,36.5 L36.82,35.79 C36.92,35.63 37.04,35.42 37.18,35.16 C37.27,35.01 37.37,34.94 37.48,34.97 C37.59,35 37.65,35.07 37.62,35.2 Z M37.21,33 C37.2047149,33.1003248 37.1540164,33.1927783 37.0722656,33.2511718 C36.9905147,33.3095652 36.8866159,33.3275384 36.79,33.3 C36.6645994,33.2694844 36.5523806,33.1993476 36.47,33.1 C36.3941295,33.0158907 36.3609664,32.9016621 36.38,32.79 C36.4114619,32.7069964 36.4769964,32.6414619 36.56,32.61 C36.6454305,32.5536349 36.7492171,32.5321618 36.85,32.55 C37.1433333,32.6033333 37.2633333,32.7533333 37.21,33 Z" id="Shape"></path>
                        <path d="M40.54,35.85 C40.4007752,36.2098189 40.2086617,36.5468601 39.97,36.85 C39.47,37.55 39.1,37.85 38.85,37.85 C38.6,37.85 38.38,37.54 38.35,37.12 C38.35,37.05 38.35,36.94 38.35,36.79 C38.35,36.64 38.35,36.47 38.4,36.26 C38.3,36.42 38.21,36.58 38.11,36.73 L37.84,37.2 C37.71,37.44 37.54,37.54 37.34,37.5 C37.0952068,37.4787687 36.9127002,37.2651025 36.93,37.02 L37,36.44 C37,36.34 37,36.26 37,36.21 C36.9971211,36.1767288 36.9971211,36.1432712 37,36.11 L37,35.97 C37,35.97 37,35.87 37.05,35.82 L37.14,35.57 L37.07,35.4 C37.0886223,35.2927204 37.1294992,35.1905282 37.19,35.1 L37.19,35.1 C37.287467,34.9902929 37.4417692,34.9507283 37.58,35 C37.78,35 37.87,35.14 37.84,35.28 C37.8166809,35.3553536 37.7755148,35.4239638 37.72,35.48 C37.7003651,35.5316441 37.676969,35.5817785 37.65,35.63 C37.6537836,35.6498211 37.6537836,35.6701789 37.65,35.69 L37.65,35.86 C37.6371212,35.9416138 37.6170428,36.0219272 37.59,36.1 C37.59,36.1933333 37.57,36.2733333 37.53,36.34 L37.53,36.5 C37.47,36.79 37.46,36.95 37.53,36.99 C37.6,37.03 37.53,36.92 37.59,36.85 L37.59,36.85 C37.6945778,36.659248 37.811493,36.4755243 37.94,36.3 L37.94,36.3 C38.0697196,36.1163155 38.1898792,35.9260628 38.3,35.73 C38.3925057,35.5654182 38.4662985,35.390999 38.52,35.21 C38.59,34.98 38.69,34.85 38.83,34.81 C39.26,34.93 39.46,35.08 39.42,35.27 L39.32,35.27 C39.3163461,35.4186539 39.2823149,35.5649882 39.22,35.7 L39.01,36.32 C39.01,36.48 38.93,36.58 38.92,36.63 C38.82,37.13 38.84,37.39 38.92,37.41 C39,37.43 39.26,37.22 39.56,36.76 L39.88,36.28 L40.1,35.92 C40.19,35.73 40.3,35.65 40.42,35.68 C40.4940599,35.7027085 40.5434033,35.7726116 40.54,35.85 L40.54,35.85 Z" id="Path"></path>
                        <path d="M42.76,37.18 C42.7173046,37.2557862 42.6705706,37.3292253 42.62,37.4 C42.55,37.49 42.48,37.6 42.39,37.74 C42.05,38.2 41.73,38.39 41.39,38.33 C41.0838794,38.2858101 40.8286675,38.0731335 40.73,37.78 C40.6828322,37.5897236 40.6527131,37.3956228 40.64,37.2 L40.49,37.2 L40.24,37.26 L40.19,37.4 L40.1,37.68 C40.1138273,37.7661151 40.1138273,37.8538849 40.1,37.94 C40.1,38.06 39.97,38.1 39.8,38.07 C39.63,38.04 39.51,37.72 39.62,37.17 C39.62,36.93 39.74,36.65 39.84,36.31 C39.94,35.97 40.07,35.58 40.22,35.14 C40.4673605,34.4847046 40.680974,33.8171624 40.86,33.14 L40.86,33.1 C40.86,33.1 40.86,33.04 40.86,33.01 C40.86,32.77 41.04,32.68 41.25,32.72 C41.3643187,32.7389777 41.4675965,32.7995199 41.54,32.89 C41.6013629,32.9694859 41.6267386,33.0709887 41.61,33.17 C41.5105539,33.4712424 41.3763137,33.7598588 41.21,34.03 L40.89,34.84 C40.8,35.07 40.72,35.28 40.65,35.48 C40.58,35.68 40.51,35.87 40.46,36.04 L40.9,35.56 C41.18,35.27 41.43,35.15 41.66,35.2 C41.8182892,35.22936 41.9624334,35.3102215 42.07,35.43 C42.1681423,35.5262622 42.2129633,35.6644603 42.19,35.8 C42.1263439,36.0654426 41.9748041,36.3015628 41.76,36.47 L41.57,36.63 L41.21,36.92 C41.21,36.92 41.21,37.01 41.21,37.04 C41.2063378,37.0698882 41.2063378,37.1001118 41.21,37.13 C41.1848025,37.2755844 41.1848025,37.4244156 41.21,37.57 C41.21,37.8 41.33,37.92 41.46,37.95 C41.59,37.98 42.08,37.52 42.69,36.51 L42.69,36.51 L42.75,36.38 L42.82,36.24 C42.8769137,36.1423215 42.9886549,36.0904417 43.1,36.11 C43.1486168,36.1114896 43.1939163,36.1350132 43.2231001,36.173925 C43.2522838,36.2128367 43.2621827,36.2629108 43.25,36.31 C43.1381956,36.626149 42.9724053,36.9205113 42.76,37.18 Z M41.76,35.66 C41.76,35.6 41.76,35.57 41.76,35.56 C41.76,35.55 41.42,35.74 41.08,36.18 C40.8817777,36.3997844 40.7043522,36.6374676 40.55,36.89 C40.8209903,36.8149392 41.0620517,36.6577252 41.24,36.44 C41.4645217,36.223869 41.632747,35.9560818 41.73,35.66 L41.76,35.66 Z" id="Shape"></path>
                        <path d="M44.51,36.62 C44.3602835,36.9747357 44.1689419,37.3104228 43.94,37.62 C43.7888976,37.8616605 43.6253439,38.0953086 43.45,38.32 C43.3133603,38.5284498 43.0651807,38.6348125 42.82,38.59 C42.4,38.5 42.24,38.18 42.35,37.59 C42.35,37.4 42.47,37.11 42.59,36.74 C42.71,36.37 42.79,36.08 42.83,35.89 C42.9295528,35.8504699 43.0404472,35.8504699 43.14,35.89 C43.38,35.89 43.48,36.02 43.46,36.15 L43.23,36.6 C43.12,36.82 43.04,37.02 42.96,37.21 C42.8941688,37.3817981 42.8439655,37.5591833 42.81,37.74 C42.75,38.03 42.81,38.19 42.91,38.22 C43.01,38.25 43.09,38.13 43.24,37.91 L43.7,37.21 C43.8,37.05 43.92,36.84 44.07,36.58 C44.22,36.32 44.25,36.36 44.36,36.38 C44.4148998,36.3859311 44.4640397,36.416733 44.4933058,36.4635589 C44.522572,36.5103847 44.5287259,36.5680528 44.51,36.62 L44.51,36.62 Z M44.09,34.41 C44.04,34.66 43.9,34.76 43.68,34.71 C43.5520532,34.685754 43.4378607,34.6143837 43.36,34.51 C43.2793612,34.4325291 43.2419715,34.32036 43.26,34.21 C43.2940376,34.1263268 43.3582875,34.0585075 43.44,34.02 C43.5295312,33.9743394 43.6297006,33.9536147 43.73,33.96 C44.0233333,34.02 44.1433333,34.17 44.09,34.41 L44.09,34.41 Z" id="Shape"></path>
                        <path d="M47.42,37.27 C47.2831809,37.6309571 47.0908669,37.9683502 46.85,38.27 C46.35,38.97 45.98,39.27 45.73,39.27 C45.48,39.27 45.26,38.96 45.23,38.54 L45.23,38.22 C45.23,38.08 45.23,37.9 45.28,37.69 L45,38.16 C44.9,38.31 44.81,38.47 44.72,38.63 C44.63,38.79 44.42,38.97 44.23,38.93 C43.9885701,38.8995903 43.8080924,38.69333 43.809985,38.45 L43.88,37.86 C43.88,37.77 43.88,37.69 43.88,37.63 C43.8832759,37.5967472 43.8832759,37.5632528 43.88,37.53 C43.8756558,37.4867755 43.8756558,37.4432245 43.88,37.4 C43.8765556,37.3467223 43.8765556,37.2932777 43.88,37.24 L43.97,36.99 L43.9,36.83 C43.9214606,36.718798 43.9657239,36.6132471 44.03,36.52 L44.03,36.52 C44.1,36.41 44.23,36.38 44.41,36.42 C44.59,36.46 44.7,36.55 44.68,36.7 C44.648458,36.7713899 44.6081478,36.8385736 44.56,36.9 C44.56,36.96 44.5,37.01 44.49,37.04 L44.49,37.11 L44.49,37.28 C44.4758035,37.3580645 44.4557467,37.4349486 44.43,37.51 C44.43,37.6033333 44.41,37.6833333 44.37,37.75 L44.37,37.92 C44.31,38.21 44.3,38.37 44.37,38.4 C44.44,38.43 44.37,38.33 44.43,38.26 L44.43,38.26 C44.5370526,38.0739479 44.6538829,37.8936955 44.78,37.72 L44.78,37.72 C44.9132384,37.538691 45.0335363,37.3482193 45.14,37.15 C45.2306069,36.9879835 45.3043274,36.8170862 45.36,36.64 C45.43,36.41 45.53,36.27 45.67,36.24 C46.1,36.35 46.3,36.5 46.26,36.69 L46.16,36.69 C46.1557884,36.8417984 46.1218124,36.9912927 46.06,37.13 C45.97,37.39 45.91,37.59 45.86,37.75 C45.8232997,37.8512692 45.793236,37.9548218 45.77,38.06 C45.67,38.5466667 45.67,38.8066667 45.77,38.84 C45.9,38.84 46.11,38.65 46.42,38.19 L46.73,37.7 L46.95,37.34 C47.04,37.16 47.15,37.08 47.27,37.1 C47.39,37.12 47.45,37.15 47.42,37.27 Z" id="Path"></path>
                        <path d="M49.16,40.71 C49.0222006,40.6732398 48.8907254,40.61593 48.77,40.54 C48.5051229,40.4986975 48.244199,40.4351391 47.99,40.35 C47.9935175,40.3966004 47.9935175,40.4433996 47.99,40.49 L47.99,40.67 L47.99,40.84 C47.997143,40.8863933 47.997143,40.9336067 47.99,40.98 C47.9364732,41.3930312 47.7781141,41.7854865 47.53,42.12 C47.1536256,42.476382 46.6111475,42.5956502 46.12,42.43 C45.6769148,42.3385721 45.2702299,42.1195879 44.95,41.8 L44.95,41.8 C44.6592483,41.5550287 44.5187202,41.175223 44.58,40.8 C44.68,40.33 45.41,40.05 46.79,39.98 L47.6,39.98 C47.5956926,39.9334327 47.5956926,39.8865673 47.6,39.84 C47.6,39.78 47.6,39.7 47.6,39.61 C47.5946954,39.5534575 47.5946954,39.4965425 47.6,39.44 C47.4482548,39.6003579 47.2289374,39.6784201 47.01,39.65 C46.7614645,39.6189002 46.5501477,39.4536889 46.46,39.22 C46.3778482,39.0239034 46.3603339,38.8067271 46.41,38.6 C46.527719,38.1211466 46.7236874,37.6650132 46.99,37.25 C47.35,36.64 47.65,36.37 47.9,36.42 C48.1461343,36.5124054 48.3539727,36.6850169 48.49,36.91 L48.49,36.91 C48.6555428,37.1451054 48.8750005,37.3371309 49.13,37.47 C48.6070843,37.9348849 48.2550119,38.5615737 48.13,39.25 C48.0743127,39.4977008 48.0309262,39.7480073 48,40 C48.36,40 48.69,40.1 49,40.16 C49.31,40.22 49.56,40.37 49.52,40.56 C49.48,40.75 49.38,40.76 49.16,40.71 Z M47.4,40.94 C47.4,40.94 47.4,40.82 47.4,40.72 C47.4,40.62 47.4,40.5 47.4,40.36 C47.1088698,40.2897836 46.8089854,40.2628277 46.51,40.28 C45.51,40.38 45,40.61 44.92,40.98 C44.891986,41.2236949 44.9899698,41.4648856 45.18,41.62 C45.3867495,41.8275339 45.6518775,41.967075 45.94,42.02 C46.76,42.18 47.22,41.82 47.4,40.94 Z M48.19,37.47 C48.2272916,37.3520392 48.2079016,37.223461 48.1374817,37.1217434 C48.0670619,37.0200258 47.953538,36.9566173 47.83,36.95 L47.43,37.57 C47.1657164,37.9619717 46.9758834,38.3992655 46.87,38.86 C46.81,39.14 46.87,39.29 46.94,39.31 C47.01,39.33 47.37,39.09 47.69,38.54 C47.9145952,38.2133827 48.0835477,37.8518243 48.19,37.47 Z" id="Shape"></path>
                        <path d="M52.68,40.66 C52.4205027,40.6011233 52.2135969,40.4057123 52.14,40.15 C51.973313,40.4244594 51.6570809,40.5707167 51.34,40.52 C50.91,40.43 50.76,40.03 50.9,39.33 L50.9,39.22 C50.9916359,38.8650699 51.1402318,38.5273519 51.34,38.22 C51.65,37.7 51.91,37.46 52.11,37.5 C52.46,37.57 52.67,37.69 52.73,37.86 L52.85,38.14 L53.23,38.32 C52.9328128,38.7215541 52.7155415,39.1764658 52.59,39.66 L52.59,39.74 C52.53,40.05 52.59,40.22 52.7,40.25 C52.81,40.28 53.28,39.74 53.9,38.62 C53.9933333,38.4733333 54.0933333,38.4133333 54.2,38.44 C54.32,38.44 54.37,38.54 54.35,38.67 C54.1947381,39.0571655 53.9860467,39.4206924 53.73,39.75 C53.3,40.43 53,40.71 52.68,40.66 Z M52.48,38.48 L52.39,38.34 C52.39,38.13 52.39,38.01 52.3,38 C52.21,37.99 52.15,38.08 52.02,38.27 L52.02,38.27 C51.9794214,38.3147712 51.9457202,38.3653232 51.92,38.42 L51.73,38.72 C51.5380728,39.0545296 51.4060872,39.4200281 51.34,39.8 C51.34,39.99 51.34,40.11 51.46,40.15 C51.6545535,40.0309385 51.8134511,39.8616781 51.92,39.66 C51.9996161,39.5564231 52.0698913,39.4459907 52.13,39.33 C52.1829217,39.2520139 52.2265508,39.1681118 52.26,39.08 L52.48,38.48 Z" id="Shape"></path>
                        <path d="M55.71,39.15 C55.6704498,39.3446907 55.6135563,39.5354515 55.54,39.72 C55.47,39.92 55.38,40.13 55.28,40.35 C54.96,40.97 54.63,41.25 54.28,41.17 C54.0813984,41.120004 53.9248837,40.9673068 53.87,40.77 C53.8037145,40.8022501 53.7262855,40.8022501 53.66,40.77 C53.575752,40.7491874 53.5035695,40.6950505 53.46,40.62 C53.4130341,40.5455398 53.3919442,40.4576654 53.4,40.37 L53.4,40.3 L53.4,40.13 C53.5661095,39.3064693 53.7968229,38.4973007 54.09,37.71 L54.7,36.08 C54.7042981,36.0401155 54.7042981,35.9998845 54.7,35.96 L54.7,35.86 C54.7,35.79 54.7,35.76 54.7,35.75 C54.7899272,35.6627081 54.9205842,35.6319652 55.04,35.67 L55.04,35.67 C55.27,35.67 55.36,35.83 55.32,36.01 C55.2971877,36.1097981 55.2565349,36.2046545 55.2,36.29 L55.2,36.29 C55.15,36.37 55.11,36.45 55.07,36.53 L54.98,36.72 C54.8,37.12 54.65,37.4533333 54.53,37.72 L54.22,38.5 C54.35901,38.2312916 54.6493612,38.0761725 54.95,38.11 C55.63,38.32 55.81,38.63 55.71,39.15 Z M55.17,39.15 C55.24,38.78 55.24,38.58 55.17,38.56 C55.1,38.54 54.81,38.78 54.52,39.31 C54.3200767,39.6226555 54.1588949,39.9584509 54.04,40.31 C54.1102171,40.4035035 54.1705403,40.5040421 54.22,40.61 C54.2307008,40.6601345 54.2698655,40.6992992 54.32,40.71 C54.42,40.71 54.55,40.61 54.7,40.35 C54.9202275,39.9886433 55.0790459,39.593287 55.17,39.18 L55.17,39.15 Z" id="Shape"></path>
                        <path d="M59.36,39.69 C59.2952466,39.9650714 59.1569911,40.2173877 58.96,40.42 C58.758811,40.677807 58.4324432,40.8045145 58.11,40.75 C58.0154802,40.7255894 57.9246681,40.6885919 57.84,40.64 C57.7978866,40.7070091 57.7611066,40.7772254 57.73,40.85 C57.6144583,41.0209772 57.4803043,41.178608 57.33,41.32 L57.33,41.32 C57.1518005,41.4672081 56.9150521,41.522696 56.69,41.47 C56.12,41.35 55.91,40.89 56.07,40.09 C56.1187991,39.7538449 56.2417694,39.4327558 56.43,39.15 C56.4245696,39.0867831 56.4245696,39.0232169 56.43,38.96 C56.4466632,38.9086296 56.4824766,38.8656535 56.53,38.84 C56.53181,38.813364 56.53181,38.786636 56.53,38.76 C56.5458719,38.7180658 56.5659758,38.6778581 56.59,38.64 L56.59,38.56 C56.6830986,38.3712112 56.8968694,38.2748048 57.1,38.33 C57.3163906,38.3827462 57.5159163,38.4893892 57.68,38.64 C57.8335871,38.7610321 57.948319,38.9244382 58.01,39.11 C58.0269266,39.4806598 57.9864486,39.8517084 57.89,40.21 C57.9315685,40.2501232 57.9835222,40.2778318 58.04,40.29 C58.2176727,40.3401823 58.4079712,40.2767495 58.52,40.13 C58.6510185,39.9637188 58.7617965,39.7824458 58.85,39.59 C58.879541,39.4754283 58.9944089,39.4047403 59.11,39.43 C59.32,39.53 59.38,39.59 59.36,39.69 Z M57.36,40.45 C57.36,40.45 57.36,40.33 57.36,40.25 C57.36,40.17 57.36,40.07 57.36,39.96 L57.36,39.66 C57.36,39.58 57.36,39.51 57.36,39.45 C57.3551746,39.3934361 57.3551746,39.3365639 57.36,39.28 C57.36,39.28 57.36,39.18 57.36,39.16 C57.36,39.14 57.36,39.16 57.36,39.16 C57.36,39.16 57.36,38.95 57.17,38.92 C56.98,38.89 56.94,39.11 56.74,39.53 C56.6599493,39.6956856 56.5898254,39.8659864 56.53,40.04 C56.48,40.19 56.44,40.31 56.42,40.4 C56.32,40.9 56.42,41.17 56.62,41.22 C56.62,41.22 56.75,41.16 56.88,41.01 C57.0932495,40.8708263 57.2657796,40.6775926 57.38,40.45 L57.36,40.45 Z" id="Shape"></path>
                        <path d="M60.4,39.54 C60.4,39.37 60.56,39.3 60.76,39.34 C60.96,39.38 61.15,39.49 61.13,39.63 C61.0725342,39.7208058 61.0090592,39.8076663 60.94,39.89 C60.8765456,40.0771322 60.803107,40.2607289 60.72,40.44 L60.72,40.44 C60.66,40.59 60.62,40.72 60.58,40.84 C60.5446614,40.9306348 60.517878,41.0243765 60.5,41.12 C60.41,41.55 60.44,41.77 60.57,41.8 C60.7,41.83 60.91,41.6 61.23,41.12 L61.51,40.68 L61.78,40.23 C61.8363192,40.1377795 61.943808,40.0900067 62.05,40.11 C62.17,40.11 62.22,40.18 62.2,40.32 C62.0655025,40.6820459 61.8729866,41.0197929 61.63,41.32 C61.18,41.97 60.79,42.25 60.46,42.18 C60.2582017,42.1343837 60.0950406,41.9864004 60.03,41.79 L60.03,41.79 L59.96,41.56 L59.79,41.75 L59.62,41.93 C59.4554286,42.0399242 59.2524456,42.0761712 59.06,42.03 C58.8583365,41.9963169 58.6862442,41.8653771 58.6,41.68 C58.5494119,41.5205837 58.5494119,41.3494163 58.6,41.19 C58.6633224,40.5699182 58.8395571,39.9666534 59.12,39.41 C59.2035839,39.3493253 59.309202,39.3274733 59.41,39.35 C59.5035663,39.3680871 59.5881999,39.4174567 59.65,39.49 C59.7116888,39.5496055 59.7413836,39.634978 59.73,39.72 C59.719618,39.7859887 59.6920243,39.8480746 59.65,39.9 L59.65,39.9 L59.65,39.97 L59.59,40.07 L59.59,40.07 C59.4963639,40.2779682 59.4161985,40.4917427 59.35,40.71 C59.2771128,40.9499735 59.2170281,41.1936503 59.17,41.44 C59.17,41.61 59.17,41.71 59.17,41.72 C59.17,41.73 59.29,41.72 59.4,41.61 L59.4,41.61 C59.5901564,41.4234096 59.7488735,41.2072842 59.87,40.97 L60.21,40.29 C60.3214369,40.0816972 60.4054671,39.8598574 60.46,39.63 L60.4,39.54 Z" id="Path"></path>
                        <path d="M65.31,39.38 C65.1046697,39.4132376 64.8953303,39.4132376 64.69,39.38 C64.4788693,39.368309 64.2685475,39.3449399 64.06,39.31 L63.58,39.21 L63.15,39.11 L62.73,39.02 C62.57,39.4066667 62.44,39.74 62.34,40.02 C62.2550487,40.2655705 62.1849225,40.5160214 62.13,40.77 C62.13,40.99 62.05,41.18 62.02,41.32 C62.0143071,41.4265907 62.0143071,41.5334093 62.02,41.64 C62.02,41.91 62.02,42.06 62.13,42.08 C62.24,42.1 62.73,41.67 63.25,40.7 C63.39,40.45 63.52,40.33 63.62,40.35 C63.6768515,40.3539525 63.7289266,40.383215 63.761867,40.4297192 C63.7948075,40.4762233 63.8051343,40.5350576 63.79,40.59 C63.6489052,40.9553133 63.4459377,41.2935924 63.19,41.59 C62.7366667,42.2566667 62.3466667,42.5466667 62.02,42.46 C61.72,42.4 61.54,42.16 61.49,41.74 C61.4512683,41.4881471 61.4512683,41.2318529 61.49,40.98 C61.49,40.8866667 61.56,40.6666667 61.7,40.32 C61.81,39.96 61.97,39.48 62.18,38.85 L61.9,38.79 L61.31,38.66 L61,38.66 C60.9420757,38.5898572 60.8706664,38.5320496 60.79,38.49 C60.68,38.43 60.63,38.37 60.65,38.29 C60.67,38.21 60.75,38.18 60.9,38.21 L61.55,38.34 L62.32,38.47 L62.32,38.47 C62.32,38.47 62.32,38.47 62.32,38.39 C62.32,38.31 62.32,38.18 62.41,37.99 L62.41,37.83 C62.4708803,37.7507189 62.5731343,37.7153232 62.67,37.74 C62.8479909,37.8094304 63.0134895,37.9073786 63.16,38.03 L63.16,38.25 C63.1449366,38.2986312 63.1248271,38.3455532 63.1,38.39 C63.0558146,38.4609717 63.0157484,38.5344264 62.98,38.61 L63.19,38.61 L63.56,38.69 L63.84,38.76 L64.3,38.87 L65.41,39.12 L65.41,39.24 L65.31,39.38 Z" id="Path"></path>
                        <path d="M64.74,42 C64.8680122,41.834579 64.9849345,41.6608659 65.09,41.48 C65.19,41.32 65.27,41.17 65.34,41.03 C65.42,40.63 65.59,40.45 65.85,40.51 C66.11,40.57 66.09,40.62 66.07,40.73 L66.07,40.73 L65.81,41.51 C65.73,41.72 65.68,41.9 65.63,42.05 C65.587549,42.1740902 65.5541285,42.3010881 65.53,42.43 C65.46,42.79 65.48,42.99 65.6,43.01 C65.72,43.03 65.98,42.7 66.39,42.01 L66.39,42.01 C66.39,41.88 66.5,41.7 66.59,41.48 C66.68,41.26 66.78,40.97 66.91,40.64 C66.9412919,40.5573645 67.0044169,40.4907301 67.0852403,40.4550174 C67.1660636,40.4193048 67.2578331,40.4174974 67.34,40.45 L67.34,40.45 C67.5,40.45 67.57,40.56 67.55,40.67 C67.4512407,40.9331877 67.3238064,41.1847028 67.17,41.42 C67.0148947,41.791643 66.9073763,42.1813973 66.85,42.58 L66.77,42.96 C66.77,42.96 66.77,43.16 66.67,43.65 L66.67,43.9 C66.7662861,43.8878691 66.8637139,43.8878691 66.96,43.9 C67.1296918,43.8855238 67.3003082,43.8855238 67.47,43.9 C67.85,43.98 68.02,44.1 67.99,44.27 C67.9778209,44.3152823 67.9493269,44.3544615 67.91,44.38 L67.8,44.38 C67.6105996,44.3079924 67.4168897,44.2478755 67.22,44.2 C67.0367916,44.1904267 66.8532084,44.1904267 66.67,44.2 C66.6732486,44.239934 66.6732486,44.280066 66.67,44.32 L66.67,44.47 C66.6754845,44.5231923 66.6754845,44.5768077 66.67,44.63 C66.67,44.68 66.67,44.72 66.67,44.75 C66.42,45.99 65.75,46.5 64.67,46.27 C64.3518119,46.2157782 64.0621335,46.0532757 63.85,45.81 C63.6475678,45.6090337 63.5609552,45.3190698 63.62,45.04 C63.7,44.64 64.09,44.33 64.81,44.1 C65.2842303,43.9438964 65.7807523,43.8662092 66.28,43.87 C66.28,43.69 66.28,43.51 66.35,43.35 C66.3639395,43.2036645 66.3639395,43.0563355 66.35,42.91 C66.2593351,43.012859 66.15886,43.1066358 66.05,43.19 C65.9115689,43.2721669 65.7466063,43.2972699 65.59,43.26 C65.2301321,43.2181557 64.9662641,42.9015141 64.99,42.54 C64.9783313,42.4772041 64.9783313,42.4127959 64.99,42.35 C64.67,42.78 64.41,42.97 64.22,42.93 C64.03,42.89 63.88,42.81 63.9,42.72 C63.92,42.63 64.01,42.59 64.18,42.57 C64.35,42.55 64.41,42.48 64.74,42 Z M66.14,44.3 C65.6852585,44.3028672 65.2347447,44.3875502 64.81,44.55 C64.35,44.74 64.09,44.99 64.03,45.31 C63.9992097,45.4610555 64.0357158,45.6180316 64.13,45.74 C64.2241256,45.8867439 64.3774227,45.985292 64.55,46.01 C64.9412204,46.1063731 65.3530849,45.9703801 65.61,45.66 C65.8358769,45.4095468 65.9881478,45.1015441 66.05,44.77 L66.14,44.3 Z" id="Shape"></path>
                        <path d="M70.84,42.06 C70.7838731,42.3411912 70.6445088,42.5990152 70.44,42.8 C70.238811,43.057807 69.9124432,43.1845145 69.59,43.13 C69.4986341,43.1010872 69.4112784,43.0607692 69.33,43.01 C69.2883456,43.077272 69.2515841,43.1474531 69.22,43.22 C69.22,43.22 69.22,43.22 69.22,43.22 C69.0955851,43.3840431 68.9620408,43.5409577 68.82,43.69 L68.82,43.69 C68.6373622,43.8361299 68.3982033,43.8913205 68.17,43.84 C67.6,43.72 67.4,43.26 67.56,42.46 C67.6087991,42.1238449 67.7317694,41.8027558 67.92,41.52 C67.9147425,41.453437 67.9147425,41.386563 67.92,41.32 C67.9460706,41.2714419 67.9838879,41.2301867 68.03,41.2 L68.03,41.13 C68.0539646,41.0921082 68.0740654,41.0519067 68.09,41.01 L68.14,40.93 C68.2368076,40.7396665 68.4540507,40.6435783 68.66,40.7 C68.8757087,40.7490246 69.0753397,40.852282 69.24,41 C69.3948494,41.1220356 69.5069092,41.2901253 69.56,41.48 C69.5820074,41.8501821 69.544875,42.2215061 69.45,42.58 C69.4881657,42.6193651 69.536709,42.6471041 69.59,42.66 C69.7726462,42.7067394 69.9655461,42.639815 70.08,42.49 C70.2113738,42.3258359 70.3190884,42.1440676 70.4,41.95 C70.46,41.83 70.55,41.77 70.66,41.8 C70.77,41.83 70.86,42 70.84,42.06 Z M68.84,42.83 C68.8459643,42.7634667 68.8459643,42.6965333 68.84,42.63 C68.84,42.55 68.84,42.45 68.84,42.34 C68.8299749,42.2402513 68.8299749,42.1397487 68.84,42.04 C68.8335953,41.9701465 68.8335953,41.8998535 68.84,41.83 C68.8477027,41.7710733 68.8645732,41.7137137 68.89,41.66 L68.89,41.54 C68.89,41.42 68.89,41.34 68.71,41.31 C68.53,41.28 68.48,41.49 68.28,41.92 C68.19,42.11 68.12,42.28 68.06,42.43 C68.017874,42.5473823 67.9844502,42.6677078 67.96,42.79 C67.86,43.29 67.96,43.56 68.16,43.61 C68.16,43.61 68.28,43.54 68.42,43.39 C68.6134688,43.2453854 68.7652645,43.0521908 68.86,42.83 L68.84,42.83 Z" id="Shape"></path>
                        <path d="M71.89,41.91 C71.89,41.74 72.04,41.68 72.25,41.72 C72.46,41.76 72.64,41.87 72.61,42 C72.5620938,42.0969506 72.4978175,42.1849077 72.42,42.26 C72.3631749,42.4513455 72.2930028,42.6384711 72.21,42.82 L72.21,42.82 C72.15,42.97 72.1,43.1 72.06,43.22 C72.0280215,43.3117333 72.0013113,43.405219 71.98,43.5 C71.9,43.92 71.92,44.15 72.05,44.18 C72.18,44.21 72.4,43.98 72.71,43.5 L72.99,43.06 L73.27,42.61 C73.3229049,42.5194105 73.42674,42.4714867 73.53,42.49 C73.66,42.49 73.71,42.58 73.68,42.69 C73.5442725,43.0494067 73.3555148,43.3864741 73.12,43.69 C72.67,44.33 72.28,44.62 71.94,44.55 C71.7447076,44.4963958 71.5879036,44.3507921 71.52,44.16 L71.52,44.16 L71.45,43.94 L71.27,44.12 L71.1,44.3 C70.939865,44.4205085 70.7319467,44.4576367 70.54,44.4 C70.3412852,44.3721386 70.1710874,44.2435447 70.09,44.06 C70.0186466,43.9069528 70.0010295,43.7343047 70.04,43.57 C70.1057114,42.9484278 70.2782454,42.3428672 70.55,41.78 C70.6386791,41.7222969 70.7473999,41.7041768 70.85,41.73 C70.9418323,41.7525325 71.0251838,41.8011542 71.09,41.87 C71.1478243,41.9275237 71.1739517,42.0096385 71.16,42.09 C71.1543078,42.1602515 71.1262726,42.226835 71.08,42.28 L71.08,42.28 L71.08,42.35 C71.0520301,42.379835 71.0284593,42.4135076 71.01,42.45 L71.01,42.45 C70.9146984,42.6538471 70.834483,42.8644125 70.77,43.08 C70.6971477,43.323362 70.6370657,43.5703656 70.59,43.82 C70.59,43.99 70.59,44.08 70.64,44.1 C70.69,44.12 70.76,44.1 70.87,43.99 L70.87,43.99 C71.0607815,43.8077489 71.2196511,43.5947961 71.34,43.36 L71.68,42.68 C71.7926075,42.4722312 71.8766978,42.2502329 71.93,42.02 L71.93,41.92 L71.89,41.91 Z" id="Path"></path>
                    </g>
                    <g id="Capa_10" transform="translate(0.000000, 63.000000)">
                        <polygon id="Path" fill="#E53935" points="175.59 25.55 175.59 105.27 46.92 93.49 1.5 95.66 1.5 21.9 46.5 0.2"></polygon>
                        <polygon id="Path" fill="#892C3C" points="46.45 0.2 46.92 93.49 0.82 95.66 0.82 5.51"></polygon>
                        <line x1="56.81" y1="2.24" x2="56.81" y2="94.39" id="Path" stroke="#871F1F" fill="#7C4657"></line>
                    </g>
                </g>
                <g id="1347498" transform="translate(111.000000, 77.000000) rotate(150.000000) translate(-111.000000, -77.000000) translate(55.000000, 21.000000)">
                    <path d="M39.1002012,0.0735702698 C38.1359094,0.295154787 37.3521468,0.998062953 37.0263132,1.93282787 L0.157192221,108.184941 C-0.614828574,110.408125 1.59262198,112.613701 3.81621755,111.843291 L110.087936,74.9795045 C112.060552,74.2942057 112.649107,71.7012232 111.178452,70.2308395 L41.7773221,0.842513171 C41.0757518,0.142540091 40.064493,-0.149481979 39.1002012,0.0735702698 Z" id="Path" fill="#FFE45C"></path>
                    <path d="M39.1002012,0.0735702698 C38.1359094,0.295154787 37.3521468,0.998062953 37.0263132,1.93282787 L0.157192221,108.184941 C-0.614828574,110.408125 1.59262198,112.613701 3.81621755,111.843291 L110.087936,74.9795045 C112.060552,74.2942057 112.649107,71.7012232 111.178452,70.2308395 L41.7773221,0.842513171 C41.0757518,0.142540091 40.064493,-0.149481979 39.1002012,0.0735702698 Z" id="Path" fill="#FFEB85"></path>
                    <path d="M111.178452,70.2489836 L103.924981,63 C103.605018,63.5984592 103.078107,64.0913079 102.370666,64.3377323 L3.47570656,98.6259225 L0.157192221,108.185135 C-0.614828574,110.408821 1.59262198,112.613439 3.81621755,111.843363 L110.087936,74.9955862 C112.060552,74.3105851 112.649107,71.7187287 111.178452,70.2489836 L111.178452,70.2489836 Z" id="Path" fill="#FFDD33"></path>
                    <g id="Group" transform="translate(5.000000, 21.000000)" fill="#EB6C8E">
                        <polygon id="Path" points="59.8960991 2.05664062 25.2915244 0.254883 20.0433677 15.3090821 76.1438984 18.2285156"></polygon>
                        <path d="M10.0577408,43.9570312 L106.958792,49.0004884 C106.852828,48.833496 106.730675,48.6723634 106.583503,48.525879 L90.8169564,32.833008 L15.3058979,28.9028321 L10.0577408,43.9570312 Z" id="Path"></path>
                        <polygon id="Path" points="0.0721142324 72.6035156 43.0169316 74.838867 81.5892663 61.520508 5.32027133 57.5507812"></polygon>
                    </g>
                    <path d="M102.812385,64.3842356 L88,69.7008547 L112,71 C111.89426,70.8267804 111.772366,70.6596391 111.625505,70.5076923 L104.367642,63 C104.047485,63.6169043 103.520255,64.1289649 102.812385,64.3842356 L102.812385,64.3842356 Z" id="Path" fill="#E54771"></path>
                    <polygon id="Path" fill="#E54771" points="15 94.2641254 48.473091 96 87 82.7373336 53.526909 81"></polygon>
                </g>
                <g id="Group-4" transform="translate(67.000000, 168.000000)">
                    <path d="M7.8905245,49.800002 C6.93387693,49.800002 6.1220143,49.0728819 6.04295991,48.1118878 C5.85731526,45.854035 6.27568187,43.5777186 7.25275953,41.5282423 C7.93849,40.0907075 8.7841061,39.0584961 9.83579671,38.3718203 C11.6522726,37.1875029 13.8062842,37.2279472 15.5374877,37.2613579 L15.8084048,37.265754 C18.2919577,37.3070776 24.2530183,36.9861599 25.9904396,33.0806375 C26.7356833,31.4048325 26.5757979,29.295569 26.4079183,27.0614551 C26.1787491,24.023729 25.9193794,20.5798002 28.1995229,17.8682665 C29.83746,15.9216599 32.1842222,15.152337 34.2556265,14.4735744 C35.6102111,14.0295652 36.8884059,13.6101744 37.8868016,12.9261364 C38.7297528,12.349364 39.8862571,12.5577405 40.4698387,13.3921263 C41.0534206,14.2265119 40.8429049,15.3712642 39.9999534,15.9480366 C38.5627614,16.9318907 36.966572,17.4559095 35.4227898,17.9623437 C33.5921021,18.5619761 32.0110132,19.0807194 31.0534772,20.2201965 C29.7335345,21.788736 29.9085201,24.1054969 30.1101535,26.7888951 C30.2966863,29.2533661 30.5063138,32.0466675 29.3888927,34.5612543 C27.5333339,38.7331824 22.5582331,41.0508225 15.7435622,40.9400401 L15.4664275,40.935644 C14.0612126,40.908388 12.7332755,40.8828902 11.8796652,41.4394406 C11.4186623,41.741015 10.991413,42.2984445 10.6103526,43.097661 C9.91041012,44.5659688 9.61018076,46.1960539 9.74341848,47.81383 C9.82602611,48.8249402 9.06568222,49.7120794 8.04419207,49.7938473 C7.99178536,49.7982436 7.94115481,49.800002 7.8905245,49.800002 Z" id="Path" fill="#9A92D2"></path>
                    <path d="M38.4555805,80.4000032 C38.384652,80.4000032 38.3128369,80.3956177 38.2410218,80.3877235 C37.2249704,80.2710679 36.4952933,79.3623817 36.6123251,78.3563364 C36.9377099,75.5723883 37.2728473,72.6919582 38.4156833,69.929061 C39.768645,66.6565625 42.1474108,64.1778488 44.9402221,63.1305793 C46.8774577,62.4034547 48.8927146,62.3517054 50.8414763,62.3017101 C53.1431073,62.2420664 55.1299929,62.1911941 56.4856145,61.0711244 C58.0894859,59.7475651 58.2818798,57.3969096 58.5035313,54.6752364 C58.703018,52.2342384 58.9095973,49.709915 60.1854244,47.466267 C61.6864495,44.8287964 64.4774874,42.9359926 68.7190139,41.6790936 C69.5089803,41.4457822 70.3078131,41.2370301 71.0818207,41.0352946 C73.224749,40.4765754 75.2497587,39.9485549 76.9821883,38.9346155 C78.9407025,37.7882323 80.6784516,35.5287963 80.2112098,33.4281173 C79.9904448,32.439614 80.6225954,31.461636 81.6218012,31.2432356 C82.6201204,31.0257123 83.6095733,31.6502148 83.8294517,32.6395952 C84.7204917,36.6409723 81.9799903,40.2695774 78.8688874,42.089581 C76.6922679,43.3640224 74.3197084,43.9823851 72.0260568,44.5805742 C71.2476162,44.7831867 70.5126193,44.9743968 69.7820554,45.1910429 C66.5042702,46.162004 64.4216311,47.4943346 63.4153325,49.2643432 C62.5375919,50.8063029 62.372683,52.8289193 62.197135,54.9699454 C61.9444521,58.0661445 61.6580781,61.5754626 58.8599473,63.8857712 C56.5148724,65.8224306 53.5518329,65.8987393 50.9381164,65.9662767 C49.2234189,66.0101321 47.6035886,66.0522334 46.2532865,66.5583262 C44.4180108,67.2468577 42.8105927,68.9809046 41.845078,71.3166493 C40.8955222,73.6129241 40.5896429,76.2381151 40.2935162,78.776472 C40.1844637,79.7105946 39.3838578,80.4000032 38.4555805,80.4000032 L38.4555805,80.4000032 Z" id="Path" fill="#9A92D2"></path>
                    <path d="M50.0594053,35.4000014 C49.2004791,35.4000014 48.4323837,34.7961556 48.255131,33.9212858 C46.9879058,27.661243 50.5576531,20.71437 56.3823026,18.1074165 C57.2623933,17.713681 58.1601214,17.4179379 59.0278663,17.1319057 C60.5552381,16.6287011 61.9979524,16.1537464 62.9909205,15.2435641 C64.0782471,14.2459828 64.6964271,12.6666264 65.3507633,10.995457 C66.1744156,8.88994275 67.1082994,6.50369313 69.2229867,4.94552431 C71.3412012,3.38382422 74.0387944,3.16488605 76.0079756,3.0059793 C77.0221084,2.9247603 77.9118996,3.68045014 77.993912,4.69568754 C78.0759247,5.71092516 77.3201751,6.60080291 76.3051607,6.68290467 C74.2530851,6.8497567 72.5890255,7.04574179 71.4082222,7.91619749 C70.1515795,8.84315359 69.4866611,10.5425729 68.7820594,12.3408676 C68.0404196,14.2389203 67.1991305,16.3894582 65.480396,17.9644005 C63.90364,19.410452 62.0102983,20.0337194 60.18045,20.6366823 C59.3647346,20.9059409 58.5939936,21.1593089 57.8867464,21.4762394 C53.5727139,23.4069564 50.928914,28.5520035 51.8672073,33.1885491 C52.0700337,34.1870132 51.425398,35.1607584 50.4271386,35.3629231 C50.303679,35.3876419 50.1811014,35.4000014 50.0594053,35.4000014 Z" id="Path" fill="#9A92D2"></path>
                    <path d="M51.7432472,0.521124995 C51.5157473,0.0624206717 50.9397762,-0.132618962 50.4793604,0.0958301808 L43.7211774,3.45484609 C43.2616644,3.68239257 43.0675674,4.25938464 43.2959698,4.719895 L46.6542974,11.47856 C46.8826999,11.9390704 47.4577683,12.132304 47.9181841,11.9038548 L54.6763671,8.54483893 C55.1431023,8.31368085 55.3326855,7.74752407 55.1015748,7.28069316 L51.7432472,0.521124995 Z" id="Path" fill="#FFE45C"></path>
                    <path d="M80.6981789,78.2053892 L75.280369,73.4257762 C74.9061008,73.0956112 74.3356231,73.1319121 74.0054376,73.5061567 L69.2255253,78.9236277 C68.8962041,79.2978722 68.9316428,79.8683145 69.3050464,80.1984793 L74.7237208,84.9780926 C75.0919384,85.3030717 75.6727884,85.2667707 75.9977879,84.8977119 L80.7777002,79.4802409 C81.1026997,79.1120466 81.0672607,78.5312328 80.6981789,78.2053892 L80.6981789,78.2053892 Z" id="Path" fill="#FFE45C"></path>
                    <path d="M11.5801336,13.7408001 L5.40982467,9.74734654 C4.98428611,9.47208765 4.41543596,9.59344794 4.1402427,10.0199673 L0.147741566,16.1917479 C-0.12833108,16.6173881 -0.00612057105,17.1863737 0.419417983,17.4625122 L6.58972713,21.4559655 C7.00999031,21.7277068 7.58851184,21.602829 7.86018826,21.183345 L11.8526894,15.0115642 C12.1278827,14.5850448 12.0065515,14.0169384 11.5801336,13.7408001 Z" id="Path" fill="#EB6C8E"></path>
                    <path d="M44.1196869,39.9585703 L36.7274476,39.600883 C36.2245381,39.5787489 35.7827216,39.9762775 35.7588156,40.4800502 L35.4011124,47.8728443 C35.3763211,48.3828143 35.7694405,48.8166431 36.2803186,48.8405478 L43.6725579,49.1991206 C44.1754674,49.2212546 44.6163986,48.823726 44.6411899,48.3190681 L44.9988931,40.9271592 C45.0236845,40.4171892 44.6296797,39.9833605 44.1196869,39.9585703 L44.1196869,39.9585703 Z" id="Path" fill="#EB6C8E"></path>
                    <path d="M88.1343194,52.3458283 L85.4899418,45.5674098 C85.3071701,45.1000234 84.8003932,44.8764145 84.356756,45.0693319 L77.9356454,47.860497 C77.4994852,48.0499069 77.283482,48.5944602 77.4637615,49.0565853 L80.1073085,55.8341268 C80.2867573,56.295375 80.8035033,56.5224913 81.2404944,56.3330814 L87.6624355,53.5419166 C88.1052422,53.3489991 88.3170914,52.8132146 88.1343194,52.3458283 L88.1343194,52.3458283 Z" id="Path" fill="#EB6C8E"></path>
                </g>
            </g>
        </g>
    </g>
</svg>