<?xml version="1.0" encoding="UTF-8"?>
<svg width="340px" height="340px" viewBox="0 0 340 340" version="1.1" xmlns="http://www.w3.org/2000/svg" xmlns:xlink="http://www.w3.org/1999/xlink">
    <title>Group 5</title>
    <g id="Page-1" stroke="none" stroke-width="1" fill="none" fill-rule="evenodd">
        <g id="Group-7" transform="translate(11.000000, 13.000000)" fill-rule="nonzero">
            <g id="167745" transform="translate(112.000000, 72.000000)">
                <path d="M54.5522898,122.5 L42.2898154,122.5 C41.160135,122.5 40.2460697,123.431771 40.2460697,124.583333 L40.2460697,126.666667 C40.2460697,131.2625 43.9125496,135 48.4210526,135 C52.9295557,135 56.5960355,131.2625 56.5960355,126.666667 L56.5960355,124.583333 C56.5960355,123.431771 55.6819703,122.5 54.5522898,122.5 Z" id="Path" fill="#868491"></path>
                <path d="M49.0498975,122.5 L42.447577,122.5 C41.2306939,122.5 40.2460697,123.43179 40.2460697,124.583377 L40.2460697,126.666753 C40.2460697,131.262162 44.1941979,134.998958 49.0498975,135 L49.0498975,122.5 L49.0498975,122.5 Z" id="Path" fill="#5C546A"></path>
                <path d="M81.5730783,13.1233109 C71.7334598,3.88065841 58.8451937,-0.748689816 45.3277247,0.0987483976 C20.6938104,1.63081779 0.792733884,22.1687012 0.0237957611,46.8561913 C-0.543565838,65.1481793 9.06973962,81.98937 25.1140204,90.8106705 C29.1023935,93.0052777 31.5797321,97.2195863 31.5797321,101.812112 L31.5797321,117.833481 C31.5797321,122.475191 35.3565288,126.25 40.0006835,126.25 L56.8425862,126.25 C61.4867409,126.25 65.2635376,122.475191 65.2635376,117.833481 L65.2635376,101.812112 C65.2635376,97.2237946 67.7592971,92.9989653 71.7808277,90.7838428 C87.2390628,82.2605397 96.8421053,66.019289 96.8421053,48.3972032 C96.8421053,35.0943696 91.276909,22.2373484 81.5730783,13.1233109 Z" id="Path" fill="#FFCD00"></path>
                <ellipse id="Oval" fill="#FFE671" opacity="0.544549851" cx="49.0498975" cy="48.75" rx="33.9576213" ry="33.75"></ellipse>
                <path d="M55.8431805,61.25 C53.0223103,61.25 51.5799073,59.5538672 50.5290781,58.3168359 C49.6026717,57.2274609 49.2336479,56.875 48.4067268,56.875 C47.583785,56.875 47.2171488,57.2274609 46.2947219,58.3149219 C45.3041144,59.4833203 43.8054691,61.25 40.9845989,61.25 C38.165851,61.25 36.667471,59.4833203 35.6765982,58.3149219 C34.7541712,57.2274609 34.387535,56.875 33.5645933,56.875 C32.3914636,56.875 31.442242,55.8966406 31.442242,54.6875 C31.442242,53.4783594 32.3914636,52.5 33.5645933,52.5 C36.3833412,52.5 37.8817212,54.2666797 38.872594,55.4350781 C39.7950209,56.5225391 40.1616571,56.875 40.9845989,56.875 C41.8075406,56.875 42.1762991,56.5225391 43.0987261,55.4350781 C44.0893336,54.2666797 45.5879789,52.5 48.4067268,52.5 C51.227597,52.5 52.67,54.1961328 53.7208292,55.4331641 C54.6472356,56.5225391 55.0162594,56.875 55.8431805,56.875 C56.6679793,56.875 57.0370032,56.5225391 57.9634095,55.4350781 C58.9561394,54.2666797 60.4547847,52.5 63.277512,52.5 C64.4506417,52.5 65.3998633,53.4783594 65.3998633,54.6875 C65.3998633,55.8966406 64.4506417,56.875 63.277512,56.875 C62.4505908,56.875 62.081567,57.2274609 61.1551606,58.3168359 C60.1624308,59.4855078 58.6640508,61.25 55.8431805,61.25 Z" id="Path" fill="#FFFFFF"></path>
                <path d="M41.8604635,101.25 C40.8688232,101.25 39.976347,100.579341 39.7551143,99.5971069 L28.9764161,51.2991338 C28.7236557,50.1651814 29.4628049,49.0475033 30.6247486,48.7994512 C31.7953152,48.5492992 32.9362404,49.2732438 33.1908871,50.4050963 L43.9695852,98.7030694 C44.2223457,99.8370218 43.4831965,100.9547 42.3212528,101.202752 C42.1657701,101.235826 42.0119042,101.25 41.8604635,101.25 Z" id="Path" fill="#5C546A"></path>
                <path d="M54.98192,101.25 C54.8302101,101.25 54.6766139,101.235563 54.520862,101.202751 C53.3586508,100.954697 52.6197722,99.8370073 52.8725323,98.7030432 L63.6512128,50.4045734 C63.9058591,49.2724468 65.0427405,48.5505947 66.2173472,48.7989118 C67.3795584,49.0469665 68.118437,50.164656 67.8656769,51.2986201 L57.0869964,99.5970899 C56.8663029,100.579596 55.9735587,101.25 54.98192,101.25 Z" id="Path" fill="#5C546A"></path>
                <path d="M31.442242,98.75 C31.6632452,99.7000721 31.7990673,100.678437 31.7990673,101.681394 L31.7990673,117.788462 C31.7990673,122.455 35.5262564,126.25 40.1094107,126.25 L56.7300975,126.25 C61.3132519,126.25 65.0404409,122.455 65.0404409,117.788462 L65.0404409,101.681394 C65.0404409,100.679231 65.1773019,99.700601 65.3998633,98.75 L31.442242,98.75 Z" id="Path" fill="#B4B6BC"></path>
                <path d="M49.0498975,98.75 L31.442242,98.75 C31.6714655,99.7000721 31.8123397,100.678437 31.8123397,101.681394 L31.8123397,117.788462 C31.8123397,122.455 35.678164,126.25 40.431792,126.25 L49.0498975,126.25 L49.0498975,98.75 Z" id="Path" fill="#868491"></path>
                <rect id="Rectangle" fill="#868491" x="49.0498975" y="105" width="16.3499658" height="3.75"></rect>
                <rect id="Rectangle" fill="#868491" x="49.0498975" y="113.75" width="16.3499658" height="3.75"></rect>
                <rect id="Rectangle" fill="#5C546A" x="31.442242" y="105" width="16.3499658" height="3.75"></rect>
                <rect id="Rectangle" fill="#5C546A" x="31.442242" y="113.75" width="16.3499658" height="3.75"></rect>
            </g>
            <g id="1347498" transform="translate(158.902057, 159.182121) rotate(134.000000) translate(-158.902057, -159.182121) translate(43.902057, 49.682121)">
                <path d="M30.541788,130.791372 C29.7885644,130.964456 29.176355,131.513508 28.9218412,132.243668 L0.12278534,215.238881 C-0.480252362,216.975446 1.24402232,218.698256 2.98090813,218.096476 L85.9914354,189.301587 C87.5322766,188.766289 87.9920067,186.74087 86.8432544,185.59233 L32.6329297,131.392006 C32.084922,130.845246 31.2950117,130.617143 30.541788,130.791372 Z" id="Path" fill="#FFE45C"></path>
                <g id="Path-2" transform="translate(-0.000000, 130.733906)" fill="#FFEB85">
                    <path d="M30.541788,0.057466906 C29.7885644,0.230550091 29.176355,0.779602822 28.9218412,1.50976255 L0.12278534,84.504975 C-0.480252362,86.2415401 1.24402232,87.9643505 2.98090813,87.3625705 L85.9914354,58.5676816 C87.5322766,58.0323839 87.9920067,56.0069641 86.8432544,54.858424 L32.6329297,0.658100417 C32.084922,0.111340329 31.2950117,-0.116762747 30.541788,0.057466906 Z" id="Path"></path>
                </g>
                <path d="M86.8432544,185.606502 L81.177453,179.944206 C80.9275247,180.411672 80.5159461,180.796644 79.9633526,180.98913 L2.71492959,207.77218 L0.12278534,215.239032 C-0.480252362,216.975989 1.24402232,218.698051 2.98090813,218.096532 L85.9914354,189.314149 C87.5322766,188.779084 87.9920067,186.754543 86.8432544,185.606502 L86.8432544,185.606502 Z" id="Path" fill="#FFDD33"></path>
                <g id="Group" transform="translate(3.905579, 147.137339)" fill="#EB6C8E">
                    <polygon id="Path" points="46.7857941 1.60647465 19.7556114 0.199093159 15.6561928 11.9581672 59.4772082 14.238583"></polygon>
                    <path d="M7.85626105,34.3355351 L83.5472108,38.2750596 C83.4644407,38.1446192 83.3690251,38.0187559 83.2540666,37.9043347 L70.9385668,25.6463839 L11.9556799,22.5764611 L7.85626105,34.3355351 Z" id="Path"></path>
                    <polygon id="Path" points="0.0563295721 56.711759 33.6012084 58.4578274 63.7306715 48.0546457 4.15574842 44.9538291"></polygon>
                </g>
                <path d="M80.3083867,181.025454 L68.7381974,185.17835 L87.4849785,186.193133 C87.4023835,186.057828 87.3071697,185.927272 87.1924543,185.808584 L81.5232223,179.944206 C81.2731427,180.42608 80.8613148,180.826058 80.3083867,181.025454 L80.3083867,181.025454 Z" id="Path" fill="#E54771"></path>
                <polygon id="Path" fill="#E54771" points="11.7167382 204.365111 37.8631011 205.72103 67.9570815 195.361351 41.8107186 194.004292"></polygon>
                <g id="Group-6" transform="translate(144.849351, 0.327210)">
                    <path d="M7.43562289,47.552069 C6.53376634,47.552069 5.76840231,46.8650145 5.69387568,45.9569729 C5.51886363,43.8235319 5.91326873,41.6726445 6.83438526,39.7360982 C7.48084122,38.3777741 8.27802553,37.4024394 9.26948164,36.7536007 C10.9819208,35.6345412 13.0125635,35.672757 14.6446141,35.7043267 L14.9000147,35.7084805 C17.2413247,35.7475272 22.8609716,35.4442926 24.4988839,31.7539715 C25.2014445,30.1705064 25.0507164,28.177467 24.8924519,26.0664569 C24.6764081,23.1961149 24.4318936,19.9419528 26.5814442,17.3798295 C28.1255701,15.5404844 30.3379239,14.8135525 32.2906907,14.172191 C33.5676928,13.7526475 34.7726803,13.3563659 35.7138939,12.7100196 C36.508566,12.1650284 37.5988327,12.361923 38.1489903,13.1503327 C38.6991481,13.9387421 38.5006895,15.0204165 37.7060171,15.5654077 C36.3511389,16.4950497 34.8463696,16.9901941 33.3910059,17.4687229 C31.665169,18.0353144 30.1746353,18.525474 29.2719412,19.6021639 C28.0275969,21.084274 28.1925604,23.2733773 28.3826454,25.8089154 C28.5584947,28.1375896 28.7561161,30.7769751 27.702694,33.1530037 C25.9534105,37.095051 21.2632535,39.284985 14.8388859,39.1803069 L14.5776238,39.1761531 C13.2528912,39.1503989 12.0010103,39.1263061 11.1962897,39.6521895 C10.7616902,39.9371466 10.3589112,40.4638607 9.99967566,41.219039 C9.33982164,42.6064404 9.05678761,44.1467049 9.18239427,45.6753387 C9.26027063,46.6307349 8.54347466,47.4689911 7.58048932,47.5462535 C7.53108415,47.5504075 7.48335341,47.552069 7.43562289,47.552069 Z" id="Path" fill="#9A92D2"></path>
                    <path d="M36.1170295,76.8312349 C36.0492363,76.8312349 35.9805957,76.827127 35.9119552,76.8197325 C34.9408176,76.7104607 34.2433952,75.8592907 34.3552538,74.9169241 C34.6662551,72.3091889 34.9865781,69.6110786 36.0788959,67.0230618 C37.3720509,63.9576995 39.6456653,61.6358786 42.3150224,60.654897 C44.166624,59.9737966 46.0927981,59.9253227 47.9554162,59.878492 C50.1553053,59.8226235 52.0543622,59.7749712 53.3500595,58.7257975 C54.8830331,57.4860142 55.0669223,55.2841459 55.2787759,52.7347438 C55.4694444,50.4482514 55.6668921,48.0837076 56.8863222,45.9820736 C58.3209956,43.5115445 60.9886578,41.7385476 65.0426909,40.5612054 C65.7977374,40.3426616 66.5612584,40.1471227 67.3010516,39.9581563 C69.3492534,39.4348018 71.2847492,38.9402029 72.940598,37.9904418 C74.8125376,36.9166201 76.4734708,34.8001974 76.0268831,32.8324832 C75.8158768,31.9065482 76.4200836,30.9904723 77.3751203,30.7858958 C78.3293096,30.5821408 79.2750245,31.1671148 79.4851834,32.0938713 C80.3368356,35.8419771 77.717476,39.2409059 74.743897,40.9457105 C72.6634933,42.1394848 70.3958109,42.7187076 68.2035485,43.2790337 C67.4595183,43.4688216 66.7570113,43.6479289 66.0587414,43.8508622 C62.9258483,44.7603653 60.9352706,46.0083646 59.9734546,47.6663387 C59.134514,49.1106985 58.9768947,51.0052913 58.8091066,53.0107989 C58.5675934,55.9110209 58.2938784,59.1982131 55.6194368,61.3622883 C53.3780242,63.1763649 50.5459636,63.2478435 48.0477844,63.3111061 C46.4088838,63.3521856 44.8606569,63.391622 43.5700439,63.8656812 C41.8158951,64.5106313 40.2795316,66.13492 39.3566968,68.3228213 C38.4491154,70.473751 38.1567573,72.9327778 37.8737206,75.3104668 C37.7694887,76.1854632 37.004273,76.8312349 36.1170295,76.8312349 L36.1170295,76.8312349 Z" id="Path" fill="#9A92D2"></path>
                    <path d="M47.6920314,33.7147486 C46.8869263,33.7147486 46.1669605,33.1469934 46.0008147,32.3244128 C44.8129951,26.43852 48.1590584,19.9068474 53.6187297,17.4557062 C54.4436731,17.0855035 55.2851486,16.8074363 56.0985197,16.5384997 C57.530185,16.0653707 58.8824974,15.618803 59.8132451,14.7630204 C60.8324388,13.8250625 61.411883,12.340101 62.0252179,10.768814 C62.7972593,8.78914205 63.672625,6.5455137 65.654804,5.08047345 C67.6402891,3.612113 70.1688484,3.40626031 72.0146387,3.2568511 C72.965225,3.18048639 73.799261,3.89101019 73.8761345,4.84556892 C73.9530081,5.80012786 73.2446146,6.63681943 72.293202,6.71401414 C70.3697114,6.87089376 68.8099234,7.05516522 67.7031104,7.87359556 C66.5252102,8.74514939 65.9019562,10.3429978 65.2415056,12.0338122 C64.5463376,13.8184221 63.7577645,15.8404267 62.1467276,17.321238 C60.6687728,18.6808619 58.8940696,19.2668779 57.1788815,19.8338029 C56.4142796,20.0869685 55.691834,20.3251932 55.0289035,20.6231814 C50.9851926,22.4385034 48.5070558,27.2760416 49.3865547,31.6354703 C49.5766718,32.5742582 48.9724296,33.4898047 48.0367221,33.6798863 C47.9209986,33.7031278 47.8061018,33.7147486 47.6920314,33.7147486 Z" id="Path" fill="#9A92D2"></path>
                    <path d="M49.5343863,1.03357809 C49.3122567,0.585701564 48.7498814,0.395265878 48.3003339,0.618322435 L41.7016791,3.89804814 C41.2530129,4.12022334 41.0634977,4.68359541 41.2865085,5.13323533 L44.5655621,11.7323608 C44.7885732,12.1820007 45.350067,12.370673 45.7996146,12.1476164 L52.3982694,8.86789074 C52.8539873,8.64218918 53.0390953,8.08939665 52.81344,7.63358536 L49.5343863,1.03357809 Z" id="Path" fill="#FFE45C"></path>
                    <path d="M76.8229605,74.3341842 L71.5330391,69.6673949 C71.1676056,69.3450235 70.6105941,69.3804675 70.2882027,69.7458779 L65.6211211,75.0354686 C65.2995736,75.400879 65.3341757,75.9578559 65.6987651,76.2802271 L70.9895307,80.9470166 C71.3490564,81.2643246 71.9161954,81.2288805 72.2335232,80.8685334 L76.9006048,75.5789428 C77.2179325,75.2194398 77.1833302,74.6523362 76.8229605,74.3341842 L76.8229605,74.3341842 Z" id="Path" fill="#FFE45C"></path>
                    <path d="M11.4597089,13.7949524 L5.43505129,9.8957651 C5.01955765,9.62700374 4.46413532,9.7454993 4.19543804,10.1619506 L0.297180655,16.1880451 C0.0276247567,16.6036381 0.146950463,17.1591926 0.5624441,17.4288128 L6.58710194,21.3279999 C6.99744472,21.5933266 7.56231014,21.4713966 7.82757359,21.0618146 L11.725831,15.0357199 C11.9945283,14.6192686 11.8760612,14.0645724 11.4597089,13.7949524 Z" id="Path" fill="#EB6C8E"></path>
                    <path d="M34.7406592,38.0010779 C34.2496209,37.9794663 33.8182336,38.3676112 33.7948919,38.8594921 L33.4456323,46.077778 C33.4214262,46.5757101 33.805266,46.9992982 34.3040847,47.0226386 L41.5218288,47.3727473 C42.012867,47.3943588 42.4433899,47.0062139 42.467596,46.5134686 L42.8168556,39.2960471 C42.8410617,38.7981151 42.4563575,38.3745269 41.9584032,38.3503219 L34.7406592,38.0010779 Z" id="Path" fill="#EB6C8E"></path>
                    <path d="M83.6454059,50.2205595 L81.1590773,43.7182594 C80.9872295,43.269912 80.5107416,43.0554117 80.0936197,43.2404707 L74.0562858,45.9179379 C73.646194,46.0996322 73.4431009,46.6220032 73.6126055,47.0653037 L76.098153,53.5667625 C76.2668765,54.0092218 76.7527376,54.2270866 77.1636108,54.0453923 L83.2017255,51.3679253 C83.6180666,51.1828663 83.8172539,50.668907 83.6454059,50.2205595 L83.6454059,50.2205595 Z" id="Path" fill="#EB6C8E"></path>
                </g>
            </g>
        </g>
        <g id="Group-7"></g>
    </g>
</svg>