<svg id="Capa_1" data-name="Capa 1" xmlns="http://www.w3.org/2000/svg" viewBox="0 0 1080 1080"><defs><style>.cls-1{fill:#ff889e}.cls-2{fill:#d8d8d8}.cls-3{fill:#ffbd86}.cls-4{fill:#5c586f}.cls-8{fill:#ff9db0}.cls-9{fill:#333}</style></defs><path class="cls-1" d="M660.6 710.88c34.87 25 80.82 73.72 80.82 157H351.9c0-83.23 46-132 80.81-157z"/><path class="cls-2" d="M660.6 710.88l-47.08 83.93a76.66 76.66 0 01-133.72 0l-47.08-83.93c21.32-15.29 38.52-21.71 38.52-21.71h150.85s17.19 6.42 38.51 21.71z"/><path class="cls-3" d="M471.23 674.49l53.39 95.18a25.27 25.27 0 0044.07 0l53.4-95.18z"/><path class="cls-4" d="M844 581.08c-10.73-18.48-23.15-48-22.16-84.51H271.47c1 36.52-11.43 66-22.16 84.51a29.78 29.78 0 009.75 40.08c28 17.76 79.8 41.69 156.11 41.69h263c76.31 0 128.14-23.93 156.11-41.69a29.78 29.78 0 009.72-40.08z"/><circle class="cls-2" cx="318.19" cy="239.66" r="96.97"/><path d="M349.27 292.56a100.28 100.28 0 01-97.59-123.43A97 97 0 10409.45 272.5a99.86 99.86 0 01-60.18 20.06z" fill="#cacac8"/><path class="cls-1" d="M246.77 455.45c0-165.35 134.53-299.88 299.89-299.88s299.89 134.52 299.89 299.88z"/><circle class="cls-3" cx="301.11" cy="484.82" r="66.73"/><circle class="cls-3" cx="792.21" cy="484.82" r="66.73"/><path class="cls-4" d="M301.81 437c9.41-127 115.44-227.11 244.85-227.11S782.1 310 791.51 437l-244.85 75.83z"/><path d="M499.41 214.45C392.27 235.34 310 325.88 301.81 437L355 453.49c5-98.97 60-190.1 144.41-239.04z" fill="#4f4c5f"/><path d="M792.2 455.45C792.2 591.06 682.27 701 546.66 701S301.12 591.06 301.12 455.45c0-6.19.23-12.35.69-18.43 1.29-.19 70.75-25 140.52-127 0 0 101 127 349.18 127 .46 6.08.69 12.24.69 18.43z" fill="#fed2a4"/><path class="cls-3" d="M354.59 468.46A294.69 294.69 0 01363 398.8c-35.13 29.12-60.39 38.11-61.16 38.22q-.69 9.12-.69 18.43c0 110.84 73.44 204.51 174.32 235C402.08 640 354.59 559.34 354.59 468.46z"/><ellipse class="cls-8" cx="404.39" cy="522.46" rx="52.49" ry="41.8"/><ellipse class="cls-8" cx="688.93" cy="522.46" rx="52.49" ry="41.8"/><path class="cls-9" d="M435 493.16a10.94 10.94 0 0010.95-10.94v-21.46a10.95 10.95 0 00-21.89 0v21.46A10.94 10.94 0 00435 493.16zM658.33 493.16a10.94 10.94 0 0010.95-10.94v-21.46a10.95 10.95 0 00-21.89 0v21.46a10.94 10.94 0 0010.94 10.94zM546.66 505.93a50 50 0 0037.69-17.16 10.94 10.94 0 10-16.5-14.38 28.07 28.07 0 01-42.38 0A10.94 10.94 0 00509 488.77a50 50 0 0037.66 17.16z"/><path class="cls-9" d="M261.56 331.54a309.37 309.37 0 00-25.42 110.79 77.49 77.49 0 0017 103.54 156.18 156.18 0 01-13.34 29.71 40.6 40.6 0 0013.35 54.81c30.77 19.54 83.2 42.77 159 43.37a255 255 0 0031.88 16.74c-5.37 3.13-11.38 6.94-17.72 11.49C387.38 729.91 341 781.35 341 867.82a11 11 0 0010.95 10.95h389.47a10.94 10.94 0 0010.94-10.95c0-86.47-46.43-137.91-85.38-165.83-6.34-4.55-12.36-8.36-17.73-11.49a254.41 254.41 0 0031.89-16.74c75.77-.6 128.22-23.83 159-43.37a40.59 40.59 0 0013.35-54.81 156.18 156.18 0 01-13.34-29.71 77.52 77.52 0 0017-103.55A311.84 311.84 0 00750.6 221.1a10.94 10.94 0 10-14.38 16.5 290.26 290.26 0 0197 181.33 77.36 77.36 0 00-34.63-11.51 255.4 255.4 0 00-72.17-134.86c-100.18-98.49-262.25-98.76-362.41 2.79a11 11 0 00.11 15.48 11 11 0 0015.48-.1c92.69-94 244.83-92.91 335.88 1.89A234.09 234.09 0 01779.39 426c-85.85-1.51-174.72-19.73-249-61.37-54.21-30.37-79.24-61.15-79.47-61.44a11 11 0 00-17.6.63c-30.65 44.82-70.65 88.22-118.36 115a233.83 233.83 0 0138.27-96.07 11 11 0 00-2.82-15.22c-4.59-3.15-11.41-2.75-15.61 3.41a253.54 253.54 0 00-39.14 91.76c-.26 1.25-.72 3.49-1 4.74-1 .09-3.53.37-4.67.54a77.12 77.12 0 00-30 11c17.82-141.2 139-252.44 286.65-252.44a287.43 287.43 0 01156 45.85A10.95 10.95 0 00714.49 194a310.45 310.45 0 00-307.8-16 107.92 107.92 0 10-145.13 153.54zM265 442.39a56.12 56.12 0 0126.49-12.49 257.45 257.45 0 0013.18 110.58c-53.81 3.42-80.08-63.71-39.67-98.09zm178.51-115c82.61 83.19 220 118.82 337.67 120.51 3.58 110.79-70.75 207-174.55 234.4a235.1 235.1 0 01-119.83 0C383 654.85 307.18 557.93 312.32 444.68c48.87-21.11 100.5-74.46 131.14-117.3zM604 789.45c-25.08 44.7-89.55 44.72-114.64 0l-42.18-75.17a182.62 182.62 0 0124.61-13.47c.67.21 1.34.4 2 .6L515.08 775c11 19.61 31.72 18.53 31.58 18.49A35.78 35.78 0 00578.24 775l41.29-73.61 2-.6a181.68 181.68 0 0124.6 13.46zm-13.33-81.28l-31.5 56.14a14.32 14.32 0 01-25 0l-31.5-56.14a258.33 258.33 0 0087.98 0zm-325.74-96.25a18.76 18.76 0 01-6.16-25.34A179 179 0 00272.51 557a78.12 78.12 0 0040.59 4.52 255 255 0 0066.45 88.5c-53.09-5.58-90.9-23.02-114.62-38.1zm465.26 245h-54.53v-46.47a10.94 10.94 0 10-21.88 0v46.43H439.54v-46.43a10.95 10.95 0 00-21.89 0v46.43h-54.53c3.35-63.77 35.61-104.82 66.21-129.66l40.92 72.94c33.43 59.57 119.38 59.6 152.82 0L664 727.22c30.6 24.84 62.86 65.89 66.2 129.66zM820.81 557a179 179 0 0013.74 29.54 18.76 18.76 0 01-6.16 25.34c-23.72 15.07-61.53 32.52-114.62 38.14a255.14 255.14 0 0066.45-88.5 77.94 77.94 0 0040.59-4.52zm-32.11-16.51c10.18-28.93 14.24-56.52 14.45-85 0-13.84-1.18-24.41-1.27-25.55a55.77 55.77 0 01-13.18 110.55zM318.19 153.63a86.16 86.16 0 0169.2 34.94 314.21 314.21 0 00-116.31 123.1 86 86 0 0147.11-158z"/><circle cx="540.08" cy="505.26" r="463" fill="none" stroke="#333" stroke-miterlimit="10" stroke-width="20"/></svg>