<?xml version="1.0" encoding="UTF-8"?>
<svg width="526px" height="387px" viewBox="0 0 526 387" version="1.1" xmlns="http://www.w3.org/2000/svg" xmlns:xlink="http://www.w3.org/1999/xlink">
    <!-- Generator: Sketch 59.1 (86144) - https://sketch.com -->
    <title>grandbox_logo</title>
    <desc>Created with Sketch.</desc>
    <g id="Page-2" stroke="none" stroke-width="1" fill="none" fill-rule="evenodd">
        <g id="grandbox_logo" transform="translate(1.000000, 4.000000)" fill="#333333" fill-rule="nonzero">
            <g id="Group" transform="translate(0.000000, 123.000000)" stroke="#333333">
                <path d="M114.87,156.7 C114.75,159.6 114.73,162.13 114.75,164.18 C114.76,165.86 114.94,165.95 114.94,171.58 C114.94,174.04 115,176.51 115.13,178.98 C115.26,181.44 115.32,183.35 115.32,184.7 C115.32,206.89 112.65,223.48 107.3,234.46 C99.41,250.81 84.39,259 62.24,259 C46.97,259 32.59,253.73 19.09,243.2 L19.09,243.54 C6.37,233.45 0,220.89 0,205.88 C0,185.92 22.79,168.67 68.35,154.1 C70.13,153.65 73.25,152.87 77.7,151.75 C82.15,150.63 88.07,149.17 95.46,147.38 C95.2,146.04 95.01,144.13 94.89,141.66 C94.76,139.19 94.44,136.05 93.94,132.25 C93.68,129.79 93.43,127.43 93.18,125.19 C87.32,134.38 81.21,138.98 74.85,138.98 C65.17,138.98 58.05,134.61 53.47,125.87 C49.65,119.14 47.74,110.96 47.74,101.32 C47.74,86.3 51.18,66.47 58.05,41.81 C66.19,14.46 74.6,0.79 83.25,0.79 C89.36,0.79 97,5.72 106.16,15.58 L106.16,15.24 C114.81,24.43 123.21,30.15 131.36,32.39 C117.86,54.36 111.12,81.03 111.12,112.41 C111.12,120.03 111.88,130.68 113.41,144.35 C140.13,140.55 160.93,141.86 165,147.09 C167.73,150.6 167.630466,154.1 167.630466,154.1 C167.54,157.3 165.77,159.69 164.79,160.81 C159.02,159.2 151.76,157.61 143.23,156.71 C131.93,155.51 122.17,155.94 114.87,156.7 Z M98.52,187.05 C98.52,186.49 98.37,182.74 98.14,177.97 C97.77,170.35 97.34,164.11 97.02,159.93 C83.64,161.62 73.48,164.74 66.82,167.21 C43.61,175.81 18.32,192.99 18.32,208.9 C18.32,217.86 22.65,225.71 31.3,232.44 C39.7,239.16 49,242.53 59.17,242.53 C85.4,242.53 98.52,224.03 98.52,187.05 Z M101.96,40.45 C101.96,31.48 96.27,26.17 94.57,24.07 C90.62,19.19 86.02,15.95 82.83,14.03 C81.15,17.61 79.47,21.2 77.8,24.78 C66.07,62.13 65.4,89.63 66.83,107.35 C67.99,121.74 70.12,125.17 72.18,125.17 C78.54,125.17 85.29,112.62 92.42,87.51 C98.77,66 101.96,50.31 101.96,40.45 Z" id="Shape"></path>
                <path d="M156.14,130.12 C151.11,130.12 147.01,128.22 143.85,124.43 C142.56,122.85 141.84,119.53 141.69,114.48 C141.55,113.32 141.47,112.22 141.47,111.16 C141.47,110.11 141.47,109.16 141.47,108.32 C141.47,107.58 141.47,106.58 141.47,105.32 C141.47,103.95 141.54,102.27 141.69,100.27 L142.12,88.26 C142.12,87 140.11,85.37 136.08,83.36 C134.19,88.78 132.18,94.25 130.04,99.79 C122.57,119.15 114.28,137.41 105.5,154.55 C103.74,154.55 101.97,154.55 100.21,154.55 C114.18,119.5 124.17,93.89 125.52,90 C126.05,88.48 126.5,86.77 127.24,83.68 C127.67,81.89 127.89,80.42 127.89,79.26 C127.89,78.52 127.31,76.89 126.17,74.36 C125.16,72.15 124.66,70.31 124.66,68.83 C124.66,62.83 126.96,59.83 131.56,59.83 C135.73,59.83 137.81,61.88 137.81,65.99 L137.81,67.1 C137.81,68.89 137.74,69.94 137.59,70.26 L137.59,70.73 L137.16,75.47 C137.16,75.68 139.67,76.84 144.7,78.95 C151.02,81.69 154.19,84.74 154.19,88.11 C154.19,89.8 154.08,91.88 153.87,94.35 C153.65,96.82 153.26,99.75 152.68,103.12 C152.1,106.39 151.71,109.23 151.49,111.65 C151.27,114.07 151.17,116.13 151.17,117.81 C151.17,121.6 152.39,123.5 154.83,123.5 C156.26,123.5 159.28,118.29 163.88,107.86 C166.04,102.81 167.76,98.59 169.05,95.22 C170.34,91.85 171.13,89.17 171.42,87.16 C171.99,84 173.65,82.42 176.38,82.42 C178.68,82.42 179.83,83.63 179.83,86.05 C179.83,90.05 177.17,97.9 171.85,109.59 C165.7,123.28 160.45,130.12 156.14,130.12 Z" id="Path"></path>
                <path d="M199.74,129.82 C195.51,129.82 192.03,127.48 189.3,122.81 C186.32,129.14 182.34,132.3 177.37,132.3 C170.04,132.3 166.37,125.83 166.37,112.88 L166.37,110.98 C166.37,106.8 167.68,100.66 170.28,92.58 C173.76,82.26 177.18,77.1 180.53,77.1 C186.49,77.1 190.28,78.46 191.9,81.19 L194.7,85.72 L201.6,87.47 C197.5,97.69 195.45,106.3 195.45,113.31 L195.45,114.62 C195.45,120.36 196.57,123.23 198.81,123.23 C201.91,123.23 206.7,112.23 213.16,90.23 C214.15,87.41 215.58,86 217.45,86 C219.56,86 220.62,87.17 220.62,89.5 C220.62,92.62 218.44,99.72 214.1,110.82 C209.12,123.49 204.33,129.82 199.74,129.82 Z M189.3,92.3 L187.44,90.11 C186.82,86.41 185.95,84.56 184.83,84.56 C183.96,84.56 182.72,86.46 181.1,90.25 L180.73,91.13 C180.48,91.62 180.11,92.62 179.61,94.12 C179.11,95.63 178.43,97.6 177.56,100.03 C175.7,105.48 174.76,112.29 174.76,120.47 C174.76,123.88 175.75,125.78 177.74,126.16 C179.48,125.09 181.47,121.68 183.7,115.94 C184.69,113.41 185.5,111.19 186.12,109.3 C186.74,107.4 187.17,105.77 187.43,104.41 L189.3,92.3 Z" id="Shape"></path>
                <path d="M270,89.52 C270,92.34 267.95,98.77 263.85,108.79 C258.01,122.81 252.97,129.81 248.75,129.81 C243.53,129.81 239.99,126.16 238.13,118.86 C237.88,117.6 237.57,115.7 237.2,113.17 C236.83,110.64 236.52,107.48 236.27,103.68 C235.15,106.8 234.09,109.88 233.1,112.95 C232.1,116.02 231.11,119.11 230.12,122.22 C228.75,126.89 226.39,129.23 223.04,129.23 C218.44,129.23 215.65,126.94 214.65,122.37 L213.9,111.86 C213.78,110.11 213.68,108.72 213.62,107.7 C213.56,106.68 213.53,106.07 213.53,105.87 C213.53,105.09 213.56,104.26 213.62,103.39 C213.68,102.51 213.77,101.54 213.9,100.47 L214.46,95.8 L212.78,93.17 C212.9,90.64 213.28,88.69 213.9,87.33 L213.9,87.48 C214.77,85.34 216.76,84.27 219.86,84.27 C223.34,84.27 225.08,85.58 225.08,88.21 C225.08,89.18 224.64,90.5 223.77,92.15 C223.52,93.42 223.3,94.37 223.12,95 C222.93,95.63 222.84,96.05 222.84,96.24 C222.84,97.02 222.84,98.04 222.84,99.31 C222.84,100.58 222.78,102.04 222.65,103.69 C222.53,105.35 222.46,106.81 222.46,108.07 C222.46,109.34 222.46,110.36 222.46,111.14 C222.46,116.4 222.77,119.27 223.39,119.75 C223.14,119.36 223.33,118.49 223.95,117.12 L223.95,117.27 C224.94,113.86 226.25,110.26 227.86,106.47 L227.67,106.62 C229.41,102.53 230.77,98.74 231.77,95.23 C232.76,91.73 233.38,88.47 233.63,85.45 C234,81.17 235.24,78.44 237.36,77.27 C244.82,77.76 248.54,79.7 248.54,83.11 L246.86,83.11 C247.23,84.38 247.17,87.05 246.67,91.14 C246.05,96.01 245.58,99.88 245.27,102.75 C244.96,105.62 244.8,107.54 244.8,108.52 C244.8,117.57 245.85,122.1 247.97,122.1 C250.08,122.1 252.88,117.53 256.36,108.38 C257.73,104.78 258.91,101.57 259.9,98.74 C260.89,95.92 261.7,93.53 262.32,91.59 C263.19,87.99 264.68,86.19 266.79,86.19 C268.95,86.17 270,87.29 270,89.52 Z" id="Path"></path>
                <path d="M289.57,114.34 C289.57,115.22 289.6,116.07 289.66,116.9 C289.72,117.73 289.81,118.53 289.94,119.31 C290.31,121.84 290.99,123.25 291.99,123.54 C293.48,122.86 296.15,117.51 300.01,107.48 C301.38,103.68 302.62,100.28 303.74,97.26 C304.86,94.24 305.73,91.62 306.35,89.38 C307.22,86.46 308.59,85 310.45,85 C312.56,85 313.62,86.17 313.62,88.5 C313.62,92.3 311.32,99.65 306.72,110.55 C301.25,123.4 296.65,129.82 292.93,129.82 C287.59,129.82 283.98,126.51 282.12,119.89 C281.87,120.57 281.53,121.28 281.1,122.01 C280.66,122.74 280.14,123.59 279.52,124.56 C276.29,129.14 273,131.42 269.64,131.42 C265.17,131.42 261.93,129.52 259.95,125.73 C258.34,122.91 257.53,119.5 257.53,115.51 C257.53,107.24 259.21,98.48 262.56,89.23 C266.78,77.84 271.63,72.15 277.1,72.15 C278.96,72.15 281.14,72.98 283.62,74.63 C283.74,74.73 283.93,74.85 284.18,75 C284.43,75.15 284.74,75.37 285.11,75.66 C285.36,74.01 285.7,71.89 286.14,69.31 C286.57,66.73 287.1,63.59 287.72,59.89 C288.09,57.75 288.59,54.76 289.21,50.91 C289.83,47.07 290.64,42.27 291.63,36.53 L291.63,35.95 C291.5,35.85 291.44,35.66 291.44,35.37 C291.44,32.94 292.43,31.53 294.42,31.14 C295.66,30.95 296.84,30.85 297.96,30.85 C301.56,30.85 303.37,32.31 303.37,35.23 L303.37,35.96 C303.25,36.16 303.18,36.4 303.18,36.69 C302.81,39.03 302.06,42.38 300.94,46.76 L296.65,64.28 C296.4,64.77 295.65,69.44 294.41,78.3 L292.55,90.86 C291.55,97.58 290.81,102.9 290.31,106.85 C289.82,110.77 289.57,113.27 289.57,114.34 Z M279.7,81.64 C276.72,81.64 273.74,85.97 270.75,94.63 C268.14,102.22 266.84,108.16 266.84,112.44 C266.84,120.71 267.52,124.85 268.89,124.85 C270.5,124.85 272.93,121.64 276.16,115.21 C278.52,110.25 280.38,105.43 281.75,100.76 L281.75,99.01 C282.25,95.31 282.62,92.42 282.87,90.32 C283.12,88.23 283.24,86.99 283.24,86.6 C283.24,83.3 282.06,81.64 279.7,81.64 Z" id="Shape"></path>
                <path d="M446.81,36.72 C446.81,41.4 443.83,46.32 437.88,51.48 C432.84,55.8 427.26,59.28 421.16,61.92 C419.02,62.88 411.92,65.58 399.86,70.02 C420.17,74.34 430.33,84.12 430.33,99.36 C430.33,108.84 424.45,118.38 412.69,127.97 C400.93,137.57 389.09,142.37 377.18,142.37 C371.99,142.37 364.58,141.05 354.96,138.41 C350.22,137.21 346.94,136.07 345.11,134.99 C344.65,138.11 343.35,139.67 341.22,139.67 C333.74,139.55 329.99,133.25 329.99,120.77 L329.99,113.39 C329.99,112.19 329.99,111.17 329.99,110.33 C329.99,109.37 330.07,108.59 330.22,107.99 L330.22,105.29 C330.22,79.26 331.14,56.88 332.97,38.16 L333.89,28.8 L330.68,28.8 C329.91,28.92 328.54,28.98 326.56,28.98 L325.87,28.98 C321.75,28.98 318.54,27.3 316.25,23.94 L316.25,23.22 C316.25,21.42 322.13,19.8 333.89,18.36 C334.04,13.32 336.1,10.8 340.07,10.8 C345.11,10.8 348.09,12.54 349,16.02 C357.4,15.06 365.64,14.31 373.74,13.77 C381.83,13.23 389.78,12.96 397.56,12.96 C408.71,12.96 418.86,14.64 428.03,18 C440.54,22.45 446.81,28.69 446.81,36.72 Z M416.8,94.85 C416.8,83.69 405.5,78.11 382.9,78.11 C363.35,78.11 351.13,80.39 346.25,84.95 C344.57,86.63 343.73,90.47 343.73,96.47 C343.73,98.15 343.73,100.01 343.73,102.05 C343.73,103.97 343.81,106.01 343.96,108.17 L344.42,119.51 C344.42,123.11 344.34,125.21 344.19,125.81 C345.26,126.05 349.61,127.67 357.25,130.67 C363.66,133.07 367.48,134.27 368.7,134.27 C379.85,134.27 390.92,129.41 401.92,119.69 C411.83,110.81 416.8,102.53 416.8,94.85 Z M432.14,33.66 C432.14,26.34 421.14,22.68 399.15,22.68 C397.47,22.68 394.45,22.86 390.1,23.22 C385.75,23.58 380.14,24.06 373.26,24.66 C371.12,24.9 368.07,25.23 364.1,25.65 C360.13,26.07 355.17,26.7 349.21,27.54 C348.14,34.74 347.34,42.12 346.8,49.68 C346.26,57.24 346,64.98 346,72.9 C356.69,71.94 374.79,67.92 400.29,60.84 C406.09,59.28 412.74,55.56 420.22,49.68 C428.17,43.44 432.14,38.1 432.14,33.66 Z" id="Shape"></path>
                <path d="M484.3,93.88 C484.3,98.75 482.93,103.52 480.2,108.19 C476.85,114.13 472.56,117.1 467.34,117.1 C466.1,117.1 464.54,116.76 462.68,116.08 C462.43,116.57 462.06,117.93 461.56,120.17 C461.56,120.27 461.53,120.41 461.47,120.61 C461.41,120.81 461.31,121.15 461.19,121.63 C459.08,126.3 457.4,129.51 456.16,131.27 L456.35,131.27 C453.62,134.58 450.26,136.23 446.28,136.23 C436.59,136.23 431.74,128.93 431.74,114.33 C431.74,106.25 432.67,100.31 434.54,96.52 C434.29,95.26 434.17,94.09 434.17,93.02 C434.54,91.76 434.98,90.93 435.48,90.54 C435.6,90.15 435.73,89.66 435.85,89.08 C435.97,88.5 436.16,87.72 436.41,86.74 L436.97,85.13 C438.21,81.24 440.76,79.29 444.61,79.29 C448.09,79.29 451.57,80.36 455.05,82.5 C458.78,84.84 461.08,87.22 461.95,89.65 C463.07,92.28 463.63,98.85 463.63,109.36 C464.5,109.94 465.37,110.24 466.24,110.24 C469.72,110.24 472.2,108.68 473.7,105.57 C474.57,104.21 475.75,100.66 477.24,94.91 C477.74,92.48 478.98,91.26 480.97,91.26 C483.18,91.25 484.3,92.13 484.3,93.88 Z M454.48,114.47 C454.48,113.5 454.35,112.3 454.11,110.89 C453.86,109.48 453.49,107.8 452.99,105.85 C452.49,103.9 452.15,102.18 451.96,100.67 C451.77,99.16 451.68,97.87 451.68,96.8 C451.68,95.05 451.74,94.03 451.87,93.73 C451.99,92.66 452.09,91.88 452.15,91.39 C452.21,90.9 452.24,90.71 452.24,90.81 C452.24,88.47 451,87.31 448.51,87.31 C447.02,87.31 445.34,91.4 443.48,99.57 C442.61,103.27 441.99,106.5 441.62,109.28 C441.25,112.06 441.06,114.32 441.06,116.07 C441.06,125.12 443.05,129.65 447.02,129.65 C447.64,129.65 448.82,128.09 450.56,124.98 C453.17,120.21 454.48,116.71 454.48,114.47 Z" id="Shape"></path>
                <path d="M524,94.46 C524,98.16 521.76,105.02 517.29,115.05 C511.45,128.09 504.74,134.61 497.16,134.61 C494.43,134.61 491.32,133.44 487.84,131.11 L487.65,132.13 C487.4,133.1 487.03,134.52 486.53,136.36 C486.03,138.21 485.47,140.5 484.85,143.22 C479.75,142.73 477.21,141.56 477.21,139.72 C477.21,138.16 479.26,133.2 483.36,124.83 C482.12,119.87 481.22,115.27 480.66,111.03 C480.1,106.8 479.82,102.93 479.82,99.42 L479.82,97.67 L477.58,95.33 C477.7,94.75 477.83,93.87 477.95,92.7 C478.07,91.53 478.26,90.07 478.51,88.32 C479,84.82 480.75,83.06 483.73,83.06 C487.83,83.06 489.88,85.79 489.88,91.24 C489.88,92.02 489.85,92.94 489.79,94.01 C489.73,95.08 489.63,96.35 489.51,97.81 C489.38,99.27 489.32,100.54 489.32,101.61 C489.32,102.68 489.32,103.61 489.32,104.38 C489.32,106.04 489.35,107.52 489.41,108.83 C489.47,110.14 489.56,111.24 489.69,112.11 C490.81,109.87 492.3,107.07 494.16,103.72 C496.02,100.36 498.26,96.35 500.87,91.68 C500.99,91.58 501.24,91.05 501.62,90.07 L501.62,90.22 C502.24,89.15 503.11,87.79 504.23,86.13 C505.35,84.48 506.65,82.53 508.14,80.29 C511.74,82.04 513.55,83.55 513.55,84.82 C513.55,85.89 511.13,90.22 506.28,97.81 C503.17,102.77 500.47,107.35 498.17,111.53 C495.87,115.72 493.98,119.66 492.49,123.36 C492.74,124.43 493.45,125.45 494.63,126.43 C495.81,127.4 496.96,127.89 498.08,127.89 C503.42,127.89 509.2,118.55 515.41,99.86 L515.41,100.01 C515.53,98.84 515.91,97.38 516.53,95.63 L516.53,95.78 C517.52,92.67 518.83,91.11 520.44,91.11 C522.82,91.1 524,92.22 524,94.46 Z" id="Path"></path>
            </g>
            <g id="Group" transform="translate(147.000000, 0.000000)">
                <path d="M73.83,183.58 C73.63,183.58 73.42,183.57 73.23,183.54 L18.47,177.27 C15.97,176.99 14.09,174.98 14.09,172.6 L14.09,134.97 C14.09,132.37 16.32,130.27 19.07,130.27 C21.82,130.27 24.05,132.38 24.05,134.97 L24.05,168.44 L68.85,173.56 L68.85,101.17 C68.62,99.69 69.14,98.15 70.4,97.06 C71.87,95.8092919 74.01,95.44 75.8,96.21 C77.6,96.96 78.8,98.62 78.8,100.48 L78.8,178.88 C78.8,180.23 78.19,181.51 77.12,182.4 C76.22,183.16 75.04,183.58 73.83,183.58 L73.83,183.58 Z" id="Path" stroke="#333333"></path>
                <path d="M73.96,183.58 C72.74,183.58 71.57,183.17 70.66,182.4 C69.59,181.5 68.98,180.22 68.98,178.88 L68.98,102.05 C68.98,99.45 71.21,97.35 73.96,97.35 C76.71,97.35 78.94,99.46 78.94,102.05 L78.94,173.57 L123.73,168.45 L123.73,134.98 C123.73,132.38 125.96,130.28 128.71,130.28 C131.46,130.28 133.69,132.39 133.69,134.98 L133.69,172.61 C133.69,174.99 131.81,176.99 129.31,177.28 L74.55,183.55 C74.36,183.56 74.16,183.58 73.96,183.58 L73.96,183.58 Z" id="Path" stroke="#333333"></path>
                <path d="M142.01,139.67 L97.14,139.67 C95.43,139.67 93.85,138.85 92.93,137.49 L69.73,103 C68.7,101.46 68.69,99.5 69.72,97.96 C70.75,96.43 72.64,95.58 74.54,95.8 L129.32,102.07 C131.07,102.26 132.56,103.31 133.28,104.82 L146.57,133.04 C147.25,134.5 147.11,136.18 146.19,137.51 C145.27,138.86 143.7,139.67 142.01,139.67 L142.01,139.67 Z M99.88,130.27 L134.34,130.27 L125.31,111.1 L83.78,106.35 L99.88,130.27 Z" id="Shape" stroke="#333333"></path>
                <path d="M50.68,139.67 L5.81,139.67 C4.12,139.67 2.55,138.86 1.63,137.53 C0.71,136.19 0.57,134.52 1.25,133.06 L14.54,104.84 C15.25,103.33 16.75,102.28 18.5,102.09 L73.28,95.82 C75.18,95.59 77.06,96.45 78.1,97.98 C79.12,99.52 79.12,101.48 78.09,103.02 L54.88,137.51 C53.97,138.85 52.39,139.67 50.68,139.67 L50.68,139.67 Z M13.48,130.27 L47.94,130.27 L64.04,106.35 L22.51,111.1 L13.48,130.27 Z" id="Shape" stroke="#333333"></path>
                <path d="M73.76,82.99 C72.36,82.99 71.01,82.51 69.96,81.64 C65.99,78.36 62.15,75.28 58.77,72.56 L58.75,72.55 C48.84,64.58 40.28,57.69 34.33,50.91 C27.67,43.33 24.57,36.14 24.57,28.28 C24.57,20.65 27.34,13.61 32.37,8.46 C37.46,3.25 44.45,0.37 52.05,0.37 C57.73,0.37 62.93,2.06 67.51,5.41 C69.82,7.1 71.91,9.16 73.76,11.57 C75.61,9.16 77.7,7.1 80.01,5.41 C84.59,2.07 89.79,0.37 95.47,0.37 C103.07,0.37 110.06,3.24 115.15,8.46 C120.18,13.61 122.95,20.65 122.95,28.28 C122.95,36.13 119.85,43.32 113.19,50.9 C107.24,57.68 98.68,64.57 88.77,72.54 C85.38,75.26 81.55,78.35 77.56,81.64 C76.51,82.51 75.16,82.99 73.76,82.99 Z M52.06,5.80964793 C46.09,5.80964793 40.61,8.06 36.62,12.14 C32.57,16.29 30.34,22.02 30.34,28.28 C30.34,34.89 32.94,40.79 38.77,47.43 C44.41,53.85 52.79,60.59 62.5,68.4 L62.52,68.41 C65.91,71.14 69.76,74.23 73.76,77.54 C77.79,74.23 81.64,71.13 85.04,68.4 C94.75,60.59 103.13,53.85 108.76,47.43 C114.59,40.79 117.19,34.88 117.19,28.28 C117.19,22.02 114.96,16.29 110.91,12.14 C109.27,10.46 107.39,9.1 105.32,8.07 C101.14,5.99 97.26,5.8 95.47,5.80964793 C95.47,5.80964793 92.8,5.83 90.04,6.53 C81.45,8.72 75.07,17.13 73.87,18.75 C72.29,16.42 67.16,9.42 58.77,6.86 C57.66,6.53 55.27,5.80964793 52.06,5.80964793 Z" id="Shape" stroke="#B12E00" stroke-width="7"></path>
            </g>
        </g>
    </g>
</svg>