<svg width="209" height="194" xmlns="http://www.w3.org/2000/svg"><g fill="#A77942" fill-rule="nonzero"><path d="M84.16 93.16c.59-.31 1.39 14.96 5.31 14.56 9-.92 18-1.81 27-.52 3.71.53 7.73.91 9.4 5.22a9.18 9.18 0 01.71 3c.1 3.6-1.72 5-5.15 4.25A108.91 108.91 0 0089 117.35c-1.62.13-2.12.66-2.08 2.2.14 5.61.21 11.21.29 16.82.15 11.62-.21 23.19-4 34.34-4.91 14.52-16.11 22.48-31.44 23.22-16.63.79-30.54-4.95-42-16.72-6.79-7-9.42-15.72-8.69-25.36.4-5.26 3.34-9.39 6.84-13.14 7.38-7.91 16.83-12.5 26.56-16.7 11.28-4.88 23.07-8.1 35-10.75 2.39-.53 2.94-1.38 2.55-3.78-.65-4.1-.84-8.29-1.28-13.1-1.39 1.65-2.4 2.8-3.35 4-8.34 10.53-21.69 5.32-26.4-3.6-4.71-8.92-5-18.22-3.87-27.78A196.8 196.8 0 0149 18.2c2-5.13 4.22-10.2 8.19-14.21C60.44.71 63.55.04 67.78 1.92c4.42 2 7.91 5.2 11.3 8.55 4.58 4.56 9.19 9.08 15.06 12 1.59.8 4.27.79 4.59 2.32.28 1.35-1.46 3.12-2.3 4.71-9.13 17.21-12.31 35.74-12.25 55-.01 2.84-.02 5.63-.02 8.66zm-9.47 46.57c-.28-5.08-.72-10.86-.85-16.64-.07-2.88-1.36-3.09-3.7-2.73A103.22 103.22 0 0034 133.51a54.89 54.89 0 00-14.27 11.65c-6.73 7.82-6.81 16.72 0 24.48a33.56 33.56 0 0023.44 11.91c12.25 1 21.72-4.13 27-15.27 3.83-8.18 4.34-16.98 4.52-26.55zM50.55 67.55c.08 9.38.17 16.4 2.05 23.24.93 3.38 3 4 5.63 1.62a19.31 19.31 0 004.65-6.74c6.94-15.4 11-31.64 13.81-48.21.78-4.62 1.4-9.46-1.18-13.9a35.4 35.4 0 00-11-11.73c-1.11-.75-1.8-.83-2.37.52-1 2.44-2.39 4.78-3.18 7.29C53.78 36 50.7 52.7 50.55 67.55zM174.257 53.366a45.55 45.55 0 0112.23 4.73c9.15 5.54 12.29 16.14 7.55 25.72-6.69 13.51-25.36 24.4-40.35 23.33a75.2 75.2 0 01-19.1-4.35c-1.25-.43-2.17-.95-2.75.88-.46 1.46-1.79 1.85-3.26 1.6a7 7 0 01-5.68-4.21 21.83 21.83 0 01-1.8-8.85c0-19.67.22-39.33 1.86-58.94.24-2.84.35-5.71.86-8.5.41-2.25-.43-2.66-2.35-2.41-2.76.35-5.53.46-8-1.09-1.1-.69-2.58-1.41-2.46-2.88.12-1.47 1.87-1.75 3.09-2 2.67-.63 5.39-1.09 8.1-1.52 1-.16 1.74-.23 1.93-1.54.29-1.93 1-3.82 3.28-4.15 2.59-.38 5.34-.38 7 2 1 1.48 2.16 1.55 3.62 1.38 9.83-1.1 19.68-1.71 29.56-1.93 10.16-.23 20.11.66 29.53 4.81a34.28 34.28 0 015.52 2.93c6.9 4.66 7.75 11.79 2.24 18a43.44 43.44 0 01-16.1 11c-3.93 1.65-8 3.06-11.93 4.63-.85.31-1.87.37-2.59 1.36zm-42.82 28.37h.06c0 .85.07 1.7.12 2.56.19 3.57-.88 8.11.92 10.46 1.91 2.51 6.5 3 10 4.25 3 1 5.95 2.32 9.31 2.14 8.69-.47 15.72-4.59 22.15-9.95 4.91-4.1 9.3-8.68 11.26-15 2.1-6.79-.26-11.72-6.87-14.34a25.78 25.78 0 00-2.71-.85c-7.34-2-14.83-1.83-22.32-1.47a58.4 58.4 0 00-14.87 2.16c-5.38 1.71-6.87 3.64-7 9.25-.13 3.63-.06 7.18-.06 10.79h.01zm1.69-33.33a38 38 0 010 4.27c-.3 2.44.62 2.66 2.86 2.35 12.25-1.71 24.11-5 36-8.2 8.93-2.36 16.13-7.49 22.28-14.14 5.49-5.94 4.07-10.67-3.62-13-.18 0-.36-.13-.54-.17a63.87 63.87 0 00-18.1-1.56c-11.38.48-22.7 1.72-34 3.14-1.79.23-2.6.79-2.85 2.67-1.12 8.15-1.68 16.38-2.04 24.64h.01z"/></g></svg>