<svg id="Capa_1" data-name="Capa 1" xmlns="http://www.w3.org/2000/svg" viewBox="0 0 576 436"><defs><style>.cls-1{fill:#fff;}.cls-2{fill:#f6cecb;stroke:#f6cecb;stroke-miterlimit:10;stroke-width:3px;}</style></defs><title>blancoologos-grandbox-01</title><g id="Capa_2" data-name="Capa 2"><path class="cls-1" d="M146.87,309.56c-.12,2.9-.14,5.43-.12,7.48,0,1.68.19,1.77.19,7.4q0,3.69.19,7.4c.13,2.46.19,4.37.19,5.72q0,33.29-8,49.76-11.84,24.53-45.06,24.54-22.9,0-43.15-15.8v.34Q32,381.27,32,358.74,32,328.8,100.35,307l9.35-2.35q6.67-1.68,17.76-4.37a43,43,0,0,1-.57-5.72q-.19-3.7-1-9.41c-.26-2.46-.51-4.82-.76-7.06q-8.79,13.79-18.33,13.79-14.52,0-21.38-13.11-5.73-10.1-5.73-24.55,0-22.53,10.31-59.51,12.21-41,25.2-41,9.16,0,22.91,14.79v-.34q13,13.78,25.2,17.15-20.25,33-20.24,80a306.34,306.34,0,0,0,2.29,31.94c26.72-3.8,47.52-2.49,51.59,2.74a11.92,11.92,0,0,1,2.63,7,10.89,10.89,0,0,1-2.84,6.71,131.55,131.55,0,0,0-21.56-4.1A135.73,135.73,0,0,0,146.87,309.56Zm-16.35,30.35c0-.56-.15-4.31-.38-9.08-.37-7.62-.8-13.86-1.12-18a135.09,135.09,0,0,0-30.2,7.28c-23.21,8.6-48.5,25.78-48.5,41.69q0,13.44,13,23.54a43.6,43.6,0,0,0,27.87,10.09Q130.52,395.39,130.52,339.91ZM134,193.31c0-9-5.69-14.28-7.39-16.38a45,45,0,0,0-11.74-10q-2.52,5.37-5,10.75c-11.73,37.35-12.4,64.85-11,82.57C100,274.6,102.12,278,104.18,278q9.54,0,20.24-37.66Q133.95,208.11,134,193.31Z"/><path class="cls-1" d="M188.14,283a15.26,15.26,0,0,1-12.29-5.69q-1.93-2.37-2.16-10a27.74,27.74,0,0,1-.22-3.32v-5.84c0-1.37.07-3.05.22-5.05l.43-12q0-1.89-6-4.9-2.84,8.13-6,16.43a570.86,570.86,0,0,1-24.54,54.76h-5.29c14-35.05,24-60.66,25.31-64.55.53-1.52,1-3.23,1.72-6.32a19.73,19.73,0,0,0,.65-4.42c0-.74-.58-2.37-1.72-4.9a13.93,13.93,0,0,1-1.51-5.53q0-9,6.9-9,6.25,0,6.25,6.16V220a11.77,11.77,0,0,1-.22,3.16v.47l-.43,4.74q0,.31,7.54,3.48,9.48,4.11,9.49,9.16,0,2.53-.32,6.24c-.22,2.47-.61,5.4-1.19,8.77s-1,6.11-1.19,8.53-.32,4.48-.32,6.16q0,5.68,3.66,5.69,2.14,0,9-15.64,3.24-7.58,5.17-12.64a40.16,40.16,0,0,0,2.37-8.06c.57-3.16,2.23-4.74,5-4.74q3.45,0,3.45,3.63,0,6-8,23.54Q194.63,283,188.14,283Z"/><path class="cls-1" d="M231.74,282.68q-6.35,0-10.44-7-4.47,9.49-11.93,9.49-11,0-11-19.42v-1.9q0-6.27,3.91-18.4Q207.5,230,212.53,230q8.94,0,11.37,4.09l2.8,4.53,6.9,1.75q-6.15,15.33-6.15,25.84v1.31q0,8.61,3.36,8.61,4.65,0,14.35-33,1.49-4.23,4.29-4.23,3.17,0,3.17,3.5,0,4.68-6.52,21.32Q238.63,282.69,231.74,282.68ZM221.3,245.16,219.44,243q-.93-5.55-2.61-5.55-1.31,0-3.73,5.69l-.37.88a26.64,26.64,0,0,0-1.12,3q-.75,2.27-2.05,5.91-2.79,8.17-2.8,20.44,0,5.12,3,5.69,2.61-1.61,6-10.22c1-2.53,1.8-4.75,2.42-6.64a40.77,40.77,0,0,0,1.31-4.89Z"/><path class="cls-1" d="M302,242.38q0,4.23-6.15,19.27-8.76,21-15.1,21-7.83,0-10.62-10.95-.37-1.89-.93-5.69t-.93-9.49c-1.12,3.12-2.18,6.2-3.17,9.27s-2,6.16-3,9.27q-2.06,7-7.08,7-6.9,0-8.39-6.86l-.75-10.51c-.12-1.75-.22-3.14-.28-4.16s-.09-1.63-.09-1.83c0-.78,0-1.61.09-2.48s.15-1.85.28-2.92l.56-4.67L244.78,246a16.41,16.41,0,0,1,1.12-5.84v.15q1.31-3.21,6-3.21,5.22,0,5.22,3.94a9.27,9.27,0,0,1-1.31,3.94c-.25,1.27-.47,2.22-.65,2.85a5.64,5.64,0,0,0-.28,1.24v3.07c0,1.27-.06,2.73-.19,4.38s-.19,3.12-.19,4.38V264q0,7.89.93,8.61c-.25-.39-.06-1.26.56-2.63v.15a96.9,96.9,0,0,1,3.91-10.8l-.19.15a97.59,97.59,0,0,0,4.1-11.39,51.85,51.85,0,0,0,1.86-9.78q.56-6.42,3.73-8.18,11.19.74,11.18,5.84h-1.68c.37,1.27.31,3.94-.19,8q-.93,7.31-1.4,11.61t-.47,5.77Q276.8,275,280,275t8.39-13.72q2.06-5.4,3.54-9.64c1-2.82,1.8-5.21,2.42-7.15q1.31-5.4,4.47-5.4C301,239,302,240.15,302,242.38Z"/><path class="cls-1" d="M321.57,267.2c0,.88,0,1.73.09,2.56s.15,1.63.28,2.41q.56,3.79,2.05,4.23,2.24-1,8-16.06,2.06-5.7,3.73-10.22c1.12-3,2-5.64,2.61-7.88q1.31-4.38,4.1-4.38,3.17,0,3.17,3.5,0,5.7-6.9,22.05-8.21,19.27-13.79,19.27-8,0-10.81-9.93a13.14,13.14,0,0,1-1,2.12c-.44.73-1,1.58-1.58,2.55q-4.84,6.87-9.88,6.86c-4.47,0-7.71-1.9-9.69-5.69a20.31,20.31,0,0,1-2.42-10.22,77.26,77.26,0,0,1,5-26.28Q300.89,225,309.1,225c1.86,0,4,.83,6.52,2.48a4.9,4.9,0,0,0,.56.37,9.57,9.57,0,0,1,.93.66q.38-2.47,1-6.35t1.58-9.42q.55-3.21,1.49-9t2.42-14.38v-.58a.7.7,0,0,1-.19-.58q0-3.64,3-4.23a23.43,23.43,0,0,1,3.54-.29c3.6,0,5.41,1.46,5.41,4.38v.73a1.39,1.39,0,0,0-.19.73q-.56,3.51-2.24,10.07l-4.29,17.52q-.37.74-2.24,14l-1.86,12.56q-1.5,10.08-2.24,16T321.57,267.2Zm-9.87-32.7q-4.47,0-8.95,13-3.92,11.38-3.91,17.81,0,12.4,2.05,12.41,2.42,0,7.27-9.64a97.8,97.8,0,0,0,5.59-14.45v-1.75c.5-3.7.87-6.59,1.12-8.69s.37-3.33.37-3.72C315.24,236.16,314.06,234.5,311.7,234.5Z"/><path class="cls-1" d="M478.81,189.58q0,7-8.93,14.76a65.57,65.57,0,0,1-16.72,10.44q-3.21,1.44-21.3,8.1,30.47,6.48,30.47,29.34,0,14.22-17.64,28.61t-35.51,14.4q-7.79,0-22.22-4-7.11-1.8-9.85-3.42-.69,4.68-3.89,4.68Q362,292.35,362,273.63V263.19a9.9,9.9,0,0,1,.23-2.34v-2.7q0-39,2.75-67.13l.92-9.36h-3.21a31.29,31.29,0,0,1-4.12.18h-.69a11,11,0,0,1-9.62-5v-.72q0-2.7,17.64-4.86.23-7.56,6.18-7.56,7.56,0,8.93,5.22,12.6-1.44,24.74-2.25t23.82-.81a88,88,0,0,1,30.47,5Q478.8,177.54,478.81,189.58Zm-30,58.13q0-16.74-33.9-16.74-29.32,0-36.65,6.84-2.52,2.52-2.52,11.52v5.58q0,2.88.23,6.12l.46,11.34a44.67,44.67,0,0,1-.23,6.3q1.6.36,13.06,4.86,9.62,3.6,11.45,3.6,16.73,0,33.22-14.58Q448.79,259.23,448.8,247.71Zm15.34-61.19q0-11-33-11-2.52,0-9,.54t-16.84,1.44l-9.16,1q-6,.63-14.89,1.89-1.6,10.8-2.41,22.14t-.8,23.22q16-1.44,54.29-12.06,8.7-2.34,19.93-11.16Q464.15,193.18,464.14,186.52Z"/><path class="cls-1" d="M516.3,246.74a28,28,0,0,1-4.1,14.31q-5,8.91-12.86,8.91a14.17,14.17,0,0,1-4.66-1,24.55,24.55,0,0,0-1.12,4.09,1.68,1.68,0,0,1-.09.44c-.06.2-.16.54-.28,1a65.77,65.77,0,0,1-5,9.64h.19a12.58,12.58,0,0,1-10.07,5q-14.53,0-14.54-21.9,0-12.12,2.8-17.81a18.06,18.06,0,0,1-.37-3.5,5,5,0,0,1,1.31-2.48c.12-.39.25-.88.37-1.46s.31-1.36.56-2.34L469,238q1.86-5.84,7.64-5.84a19.79,19.79,0,0,1,10.44,3.21q5.59,3.51,6.9,7.15,1.68,3.94,1.68,19.71a4.69,4.69,0,0,0,2.61.88,7.69,7.69,0,0,0,7.46-4.67q1.31-2,3.54-10.66.75-3.65,3.73-3.65C515.18,244.11,516.3,245,516.3,246.74Zm-29.82,20.59a22.14,22.14,0,0,0-.37-3.58q-.37-2.12-1.12-5a42.44,42.44,0,0,1-1-5.18,31.6,31.6,0,0,1-.28-3.87,12.66,12.66,0,0,1,.19-3.07c.12-1.07.22-1.85.28-2.34s.09-.68.09-.58c0-2.34-1.24-3.5-3.73-3.5q-2.24,0-5,12.26c-.87,3.7-1.49,6.93-1.86,9.71a53.78,53.78,0,0,0-.56,6.79q0,13.57,6,13.58.93,0,3.54-4.67Q486.48,270.69,486.48,267.33Z"/><path class="cls-1" d="M556,247.32q0,5.55-6.71,20.59-8.76,19.56-20.13,19.56-4.1,0-9.32-3.5l-.19,1c-.25,1-.62,2.39-1.12,4.23s-1.06,4.14-1.68,6.86c-5.1-.49-7.64-1.66-7.64-3.5q0-2.34,6.15-14.89a124.42,124.42,0,0,1-2.7-13.8,89,89,0,0,1-.84-11.61v-1.75l-2.24-2.34c.12-.58.25-1.46.37-2.63s.31-2.63.56-4.38c.49-3.5,2.24-5.26,5.22-5.26q6.15,0,6.15,8.18c0,.78,0,1.7-.09,2.77s-.16,2.34-.28,3.8-.19,2.73-.19,3.8v2.77c0,1.66,0,3.14.09,4.45s.15,2.41.28,3.28q1.68-3.36,4.47-8.39t6.71-12a6.63,6.63,0,0,0,.75-1.61v.15q.93-1.61,2.61-4.09t3.91-5.84c3.6,1.75,5.41,3.26,5.41,4.53q0,1.6-7.27,13-4.66,7.44-8.11,13.72a110.67,110.67,0,0,0-5.68,11.83,5.84,5.84,0,0,0,2.14,3.07,5.5,5.5,0,0,0,3.45,1.46q8,0,17.33-28v.15a19.8,19.8,0,0,1,1.12-4.38v.15c1-3.11,2.3-4.67,3.91-4.67C554.82,244,556,245.08,556,247.32Z"/><path class="cls-1" d="M252.83,213.44a3.94,3.94,0,0,1-.6,0l-54.76-6.27a4.8,4.8,0,0,1-4.38-4.67V164.83a5,5,0,0,1,10,0V198.3l44.8,5.12V131a4.48,4.48,0,0,1,1.55-4.11,5.25,5.25,0,0,1,5.4-.85,4.69,4.69,0,0,1,3,4.27v78.4a4.58,4.58,0,0,1-1.68,3.52,5.12,5.12,0,0,1-3.29,1.18Z"/><path class="cls-1" d="M253,213.44a5.09,5.09,0,0,1-3.3-1.18,4.61,4.61,0,0,1-1.68-3.52V131.91a5,5,0,0,1,10,0v71.52l44.79-5.12V164.84a5,5,0,0,1,10,0v37.63a4.81,4.81,0,0,1-4.38,4.67l-54.76,6.27c-.19,0-.39,0-.59,0Z"/><path class="cls-1" d="M321,169.53H276.14a5.06,5.06,0,0,1-4.21-2.18l-23.2-34.49a4.5,4.5,0,0,1,0-5,5.13,5.13,0,0,1,4.82-2.16l54.78,6.27a5,5,0,0,1,4,2.75l13.29,28.22a4.48,4.48,0,0,1-.38,4.47,5,5,0,0,1-4.18,2.16Zm-42.13-9.4h34.46l-9-19.17-41.53-4.75Z"/><path class="cls-1" d="M229.68,169.53H184.81a5.08,5.08,0,0,1-4.18-2.14,4.48,4.48,0,0,1-.38-4.47l13.29-28.22a4.93,4.93,0,0,1,4-2.75l54.78-6.27a5.12,5.12,0,0,1,4.82,2.16,4.51,4.51,0,0,1,0,5l-23.21,34.49a5.06,5.06,0,0,1-4.2,2.16Zm-37.2-9.4h34.46L243,136.21,201.51,141Z"/><path class="cls-2" d="M252.76,112.85a6,6,0,0,1-3.8-1.35c-4-3.28-7.81-6.36-11.19-9.08h0c-9.91-8-18.47-14.86-24.42-21.64-6.66-7.58-9.76-14.77-9.76-22.63a28.1,28.1,0,0,1,7.8-19.82,27.22,27.22,0,0,1,19.68-8.09,25.66,25.66,0,0,1,15.46,5,30.87,30.87,0,0,1,6.25,6.16A30.87,30.87,0,0,1,259,35.27a25.72,25.72,0,0,1,15.46-5,27.18,27.18,0,0,1,19.68,8.09A28.1,28.1,0,0,1,302,58.14c0,7.85-3.1,15-9.76,22.62-5.95,6.78-14.51,13.67-24.42,21.64-3.39,2.72-7.22,5.81-11.21,9.1A6,6,0,0,1,252.76,112.85Zm-21.7-77.18A21.35,21.35,0,0,0,215.62,42a22.87,22.87,0,0,0-6.28,16.14c0,6.61,2.6,12.51,8.43,19.15,5.64,6.42,14,13.16,23.73,21h0c3.39,2.73,7.24,5.82,11.24,9.13,4-3.31,7.88-6.41,11.28-9.14,9.71-7.81,18.09-14.55,23.72-21,5.83-6.64,8.43-12.55,8.43-19.15A22.87,22.87,0,0,0,289.91,42a20.62,20.62,0,0,0-5.59-4.07,22,22,0,0,0-9.85-2.26,25.76,25.76,0,0,0-5.43.72c-8.59,2.19-15,10.6-16.17,12.22-1.58-2.33-6.71-9.33-15.1-11.89A22.58,22.58,0,0,0,231.06,35.67Z"/></g></svg>