<?xml version="1.0" encoding="UTF-8"?>
<svg width="394px" height="194px" viewBox="0 0 394 194" version="1.1" xmlns="http://www.w3.org/2000/svg" xmlns:xlink="http://www.w3.org/1999/xlink">
    <title>grandbox</title>
    <g id="Page-1" stroke="none" stroke-width="1" fill="none" fill-rule="evenodd">
        <g id="grandbox" fill="#A77942" fill-rule="nonzero">
            <path d="M84.16,93.16 C84.75,92.85 84.99,92.81 85.04,92.69 C88.85,82.88 93.16,73.27 96.1,63.14 C96.8214192,60.745864 96.5624355,58.16322 95.38,55.96 C94.1415705,53.781739 93.8419654,51.193584 94.55,48.79 C94.8400415,47.520301 95.6255924,46.419223 96.7318197,45.731822 C97.8380469,45.044421 99.1731548,44.827739 100.44,45.13 C103.26,45.57 104.12,47.5 104.12,50.05 C104.12,50.81 104.12,51.57 104.03,52.33 C103.58,56.95 103.57,56.95 108.03,58.8 L108.29,58.91 C117.69,63.29 116.67,64.09 115.93,72.65 C115.53,77.28 114.74,81.87 114.15,86.48 C113.905594,87.894785 114.015536,89.348085 114.47,90.71 C115.3,92.83 116.98,93.19 118.25,91.31 C119.567131,89.339122 120.717777,87.261938 121.69,85.1 C124.743894,78.680263 127.333859,72.049952 129.44,65.26 C130.34,62.18 132.44,59.11 135.78,58.18 C139.67,57.11 143.38,59 145.57,62.7 C146.315957,64.036277 147.683714,64.908034 149.21,65.02 C151.21,65.27 151.84,66.02 150.95,68.14 C148.440413,74.010987 147.199974,80.346082 147.31,86.73 C147.31,88.73 146.89,91.6 149.31,92.14 C151.73,92.68 152.46,89.78 153.31,88.01 C156.219354,81.726395 158.513393,75.175825 160.16,68.45 C161.16,64.45 162.91,62.92 166.38,63.37 C168.73,63.66 170,65.14 169.18,67.31 C166.55,74.23 167.93,81.38 167.5,88.5 C167.88,88.4 168.17,88.41 168.21,88.32 C171.04,80.32 175.1,72.67 175.77,63.98 C175.784534,63.791174 175.814636,63.603871 175.86,63.42 C176.28,61.47 176.37,58.96 178.49,58.42 C181.039555,57.824275 183.720652,58.469518 185.72,60.16 C186.53,60.79 187.72,61.67 186.09,62.8 C185.948336,62.919837 185.864641,63.094506 185.86,63.28 C186,71.53 183.03,79.61 184.6,87.94 C184.85,89.23 184.74,90.88 186.23,91.29 C187.99,91.78 188.65,90.09 189.32,88.9 C192.008779,83.989118 194.074717,78.762129 195.47,73.34 C196.5077,68.998948 198.111433,64.813105 200.24,60.89 C204.34,53.89 206.92,53.09 214.31,56.49 C215.31,50.84 216.31,45.28 217.14,39.69 C217.8,35.19 218.92,30.77 219.14,26.19 C219.23,23.89 221.76,22.86 225.08,23.47 C227.56,23.93 228.42,25.53 227.89,27.85 C226.59,33.59 225.16,39.3 223.89,45.03 C220.96,57.92 219.63,71.03 217.89,84.12 C217.552809,86.29015 217.689265,88.507569 218.29,90.62 C218.51,91.32 218.52,92.25 219.49,92.32 C220.25,92.38 220.59,91.63 220.92,91.08 C222.627659,88.015633 224.0696,84.810576 225.23,81.5 C226.94,76.87 228.53,72.2 230.23,67.56 C230.511577,66.660891 230.911769,65.803337 231.42,65.01 C232.009712,64.093015 233.139776,63.683572 234.18,64.01 C235.255592,64.285952 235.933241,65.348331 235.73,66.44 C235.648777,67.955272 235.404023,69.457327 235,70.92 C232.898092,78.420829 229.832539,85.617483 225.88,92.33 C224.46,94.66 223.09,97.33 219.88,97.33 C216.18,97.33 214.13,94.82 212.75,91.67 C212.575995,91.325825 212.382342,90.99194 212.17,90.67 C209.74,94.08 207.85,98.18 203.17,98.51 C198.17,98.87 195.76,95.51 194.28,91.02 C193.15,92.51 192.28,93.86 191.21,95.02 C188.21,98.3 184.52,98.02 181.77,94.53 C179.61,91.77 179.15,88.48 178.67,85.19 C178.464709,83.134442 178.083309,81.100305 177.53,79.11 C176.15,83.303333 174.776667,87.493333 173.41,91.68 C172.24,95.31 170.58,96.88 167.85,96.89 C164.54,96.89 162.21,94.89 161.74,91.34 C161.597459,89.312841 161.262621,87.303812 160.74,85.34 C159.59,87.43 158.51,89.56 157.27,91.6 C152.78,98.98 148.4,99.27 142.83,92.46 C140.41,96.46 137.6,100.01 132.29,99 C127.71,98.13 127.02,94.05 125.87,90.11 C124.87,91.51 124.04,92.74 123.18,93.96 C121.27,96.68 118.75,98.2 115.37,97.31 C111.76,96.31 108.51,94.71 107.72,90.57 C106.998641,86.256589 106.760503,81.876191 107.01,77.51 C107.13,74.29 107.17,71.05 107.42,67.84 C107.559676,66.20355 106.725768,64.637526 105.29,63.84 C103.65,62.67 102.84,62.84 102.13,64.9 C98.79,74.59 94.96,84.09 90.78,93.45 C89.35,96.65 87.87,99.84 86.41,103.03 C84.7,106.78 85.55,108.12 89.47,107.72 C98.47,106.8 107.47,105.91 116.47,107.2 C120.18,107.73 124.2,108.11 125.87,112.42 C126.274088,113.372827 126.514138,114.387126 126.58,115.42 C126.68,119.02 124.86,120.42 121.43,119.67 C110.796974,117.27838 99.8651898,116.496335 89,117.35 C87.38,117.48 86.88,118.01 86.92,119.55 C87.06,125.16 87.13,130.76 87.21,136.37 C87.36,147.99 87,159.56 83.21,170.71 C78.3,185.23 67.1,193.19 51.77,193.93 C35.14,194.72 21.23,188.98 9.77,177.21 C2.98,170.21 0.35,161.49 1.08,151.85 C1.48,146.59 4.42,142.46 7.92,138.71 C15.3,130.8 24.75,126.21 34.48,122.01 C45.76,117.13 57.55,113.91 69.48,111.26 C71.87,110.73 72.42,109.88 72.03,107.48 C71.38,103.38 71.19,99.19 70.75,94.38 C69.36,96.03 68.35,97.18 67.4,98.38 C59.06,108.91 45.71,103.7 41,94.78 C36.29,85.86 36,76.56 37.13,67 C38.9863047,50.293151 42.9754464,33.892973 49,18.2 C51,13.07 53.22,8 57.19,3.99 C60.44,0.71 63.55,0.04 67.78,1.92 C72.2,3.92 75.69,7.12 79.08,10.47 C83.66,15.03 88.27,19.55 94.14,22.47 C95.73,23.27 98.41,23.26 98.73,24.79 C99.01,26.14 97.27,27.91 96.43,29.5 C87.3,46.71 84.12,65.24 84.18,84.5 C84.17,87.34 84.16,90.13 84.16,93.16 Z M74.69,139.73 C74.41,134.65 73.97,128.87 73.84,123.09 C73.77,120.21 72.48,120 70.14,120.36 C57.375917,122.440618 45.116505,126.901361 34,133.51 C28.6210036,136.561714 23.796407,140.500505 19.73,145.16 C13,152.98 12.92,161.88 19.73,169.64 C25.5982826,176.632789 34.0620104,180.933259 43.17,181.55 C55.42,182.55 64.89,177.42 70.17,166.28 C74,158.1 74.51,149.3 74.69,139.73 Z M50.55,67.55 C50.63,76.93 50.72,83.95 52.6,90.79 C53.53,94.17 55.6,94.79 58.23,92.41 C60.2440044,90.521585 61.8296501,88.223251 62.88,85.67 C69.82,70.27 73.88,54.03 76.69,37.46 C77.47,32.84 78.09,28 75.51,23.56 C72.7917214,18.857934 69.0279552,14.84439 64.51,11.83 C63.4,11.08 62.71,11 62.14,12.35 C61.14,14.79 59.75,17.13 58.96,19.64 C53.78,36 50.7,52.7 50.55,67.55 Z M200.55,86.35 C200.69,87.72 200.83,89.43 201.06,91.11 C201.19,92 201.06,93.22 202.25,93.43 C203.44,93.64 203.89,92.6 204.42,91.84 C207.842411,86.920684 210.308648,81.401332 211.69,75.57 C212.363711,72.120452 212.761636,68.622728 212.88,65.11 C212.99,63.71 212.81,62.11 211.11,61.6 C209.41,61.09 208.36,61.94 207.43,63.13 C207.018655,63.650273 206.653913,64.205751 206.34,64.79 C202.754335,71.42918 200.755417,78.808749 200.5,86.35 L200.55,86.35 Z M131.76,88.35 C131.689832,89.385479 131.689832,90.424521 131.76,91.46 C131.92,92.68 132.16,94.13 133.56,94.46 C134.96,94.79 135.42,93.33 135.93,92.4 C138.190294,88.455936 139.835878,84.190231 140.81,79.75 C141.7,75.26 143.67,70.68 140.81,66.11 C140.34,65.35 140.47,64.11 139.33,63.93 C138.19,63.75 137.83,64.93 137.45,65.78 C133.961385,72.794703 132.004756,80.471231 131.71,88.3 L131.76,88.35 Z" id="Shape"></path>
            <path d="M301,52.79 C305.283461,53.768553 309.402801,55.361724 313.23,57.52 C322.38,63.06 325.52,73.66 320.78,83.24 C314.09,96.75 295.42,107.64 280.43,106.57 C273.900901,105.958986 267.479768,104.496582 261.33,102.22 C260.08,101.79 259.16,101.27 258.58,103.1 C258.12,104.56 256.79,104.95 255.32,104.7 C252.805009,104.426169 250.633464,102.816627 249.64,100.49 C248.429672,97.697718 247.816554,94.683219 247.84,91.64 C247.84,71.97 248.06,52.31 249.7,32.7 C249.94,29.86 250.05,26.99 250.56,24.2 C250.97,21.95 250.13,21.54 248.21,21.79 C245.45,22.14 242.68,22.25 240.21,20.7 C239.11,20.01 237.63,19.29 237.75,17.82 C237.87,16.35 239.62,16.07 240.84,15.82 C243.51,15.19 246.23,14.73 248.94,14.3 C249.94,14.14 250.68,14.07 250.87,12.76 C251.16,10.83 251.87,8.94 254.15,8.61 C256.74,8.23 259.49,8.23 261.15,10.61 C262.15,12.09 263.31,12.16 264.77,11.99 C274.6,10.89 284.45,10.28 294.33,10.06 C304.49,9.83 314.44,10.72 323.86,14.87 C325.785373,15.676559 327.633049,16.6573 329.38,17.8 C336.28,22.46 337.13,29.59 331.62,35.8 C327.156236,40.639326 321.650891,44.400742 315.52,46.8 C311.59,48.45 307.52,49.86 303.59,51.43 C302.74,51.74 301.72,51.8 301,52.79 Z M258.18,81.16 L258.24,81.16 C258.24,82.01 258.31,82.86 258.36,83.72 C258.55,87.29 257.48,91.83 259.28,94.18 C261.19,96.69 265.78,97.18 269.28,98.43 C272.28,99.43 275.23,100.75 278.59,100.57 C287.28,100.1 294.31,95.98 300.74,90.62 C305.65,86.52 310.04,81.94 312,75.62 C314.1,68.83 311.74,63.9 305.13,61.28 C304.242972,60.947084 303.338266,60.66332 302.42,60.43 C295.08,58.43 287.59,58.6 280.1,58.96 C275.071,59.036671 270.072974,59.762679 265.23,61.12 C259.85,62.83 258.36,64.76 258.23,70.37 C258.1,74 258.17,77.55 258.17,81.16 L258.18,81.16 Z M259.87,47.83 C259.950032,49.252208 259.950032,50.677792 259.87,52.1 C259.57,54.54 260.49,54.76 262.73,54.45 C274.98,52.74 286.84,49.45 298.73,46.25 C307.66,43.89 314.86,38.76 321.01,32.11 C326.5,26.17 325.08,21.44 317.39,19.11 C317.21,19.11 317.03,18.98 316.85,18.94 C310.921819,17.560216 304.826845,17.034904 298.75,17.38 C287.37,17.86 276.05,19.1 264.75,20.52 C262.96,20.75 262.15,21.31 261.9,23.19 C260.78,31.34 260.22,39.57 259.86,47.83 L259.87,47.83 Z" id="Shape"></path>
            <path d="M367.76,83.06 C370.15,78.76 372.5,74.45 374.95,70.19 C376.51,67.48 378.2,64.84 379.89,62.19 C380.44,61.32 380.83,59.86 382.39,60.97 C383.73,61.92 385.74,62.54 384.75,64.8 C383.991558,66.431875 383.126348,68.011968 382.16,69.53 C378.01,76.33 373.67,83.02 370.36,90.3 C369.49,92.22 369.36,93.68 371.22,94.97 C372.765676,96.224511 375.006204,96.1213 376.43,94.73 C377.895629,93.514202 379.108529,92.022709 380,90.34 C382.947416,85.136468 385.228652,79.582884 386.79,73.81 C387.081748,72.315453 387.655287,70.890092 388.48,69.61 C389.09946,68.58608 390.37008,68.162541 391.48,68.61 C392.581355,68.886018 393.257869,69.994255 393,71.1 C390.84,81.45 387.48,91.28 379.37,98.62 C375.99,101.62 371.87,101.7 367.96,99.48 C366.18,98.48 365.75,99.07 365.43,100.68 C365.021575,101.942648 364.687667,103.228195 364.43,104.53 C364.22,107.17 362.98,107.61 360.64,106.91 C358.3,106.21 357.47,105.03 358.51,102.73 C358.729599,102.007587 359.017568,101.307754 359.37,100.64 C363.79,94.64 361.59,88.44 360.13,82.04 C359.08,83.15 358.13,84.21 357.13,85.18 C355.067664,87.387521 351.975788,88.312408 349.04,87.6 C347.44,87.22 346.78,87.52 346.5,89.12 C345.94,92.37 344.24,95.12 342.57,97.9 C339.07,103.69 330.1,103.65 326.57,97.9 C324.5,94.53 324.04,90.76 323.95,86.96 C323.860005,82.31183 324.41872,77.673822 325.61,73.18 C326.25,70.7 326.67,68.1 327.35,65.59 C328.77,60.31 331.69,58.41 336.92,60.08 C344.69,62.57 347.34,66.03 347.61,72.99 C347.7,75.36 347.86,77.74 347.75,80.11 C347.64,82.48 348.95,82.87 350.75,82.65 C352.881647,82.412212 354.696654,80.991939 355.44,78.98 C357.115359,75.154532 358.256069,71.116621 358.83,66.98 C359.17,64.5 360.01,62.51 362.93,62.46 C365.51,62.46 367.16,64.14 367.44,67.34 C367.528263,68.951841 367.471367,70.568353 367.27,72.17 C366.897989,75.804376 367.063093,79.473721 367.76,83.06 L367.76,83.06 Z M331,86.73 C330.757932,89.576381 331.200238,92.439375 332.29,95.08 C333.29,97.14 335.29,97.85 336.29,96.41 C339.21,92.28 341.88,87.97 340.56,82.51 C339.51,78.17 338.51,73.83 339.15,69.31 C339.37,67.73 339.35,66.08 337.35,65.73 C335.35,65.38 335.05,67.11 334.6,68.4 C332.525601,74.305313 331.313137,80.478776 331,86.73 Z" id="Shape"></path>
        </g>
    </g>
</svg>