<svg id="Capa_1" data-name="Capa 1" xmlns="http://www.w3.org/2000/svg" viewBox="0 0 375.33 375.33"><defs><style>.cls-1{fill:#78a55b}</style></defs><path class="cls-1" d="M219.44 186.32a35.59 35.59 0 11-35.59-35.58 35.59 35.59 0 0135.59 35.58z"/><path class="cls-1" d="M267.07 123.36a35.34 35.34 0 00-20.26-20.26c-3.76-1.46-9.41-3.2-19.82-3.67-11.26-.51-14.63-.63-43.14-.63s-31.88.11-43.14.63c-10.4.47-16.06 2.21-19.82 3.67a35.42 35.42 0 00-20.26 20.26c-1.46 3.76-3.2 9.42-3.67 19.83-.52 11.25-.63 14.63-.63 43.13s.11 31.88.63 43.14c.47 10.41 2.21 16.06 3.67 19.82a35.34 35.34 0 0020.26 20.26c3.76 1.47 9.42 3.21 19.82 3.68 11.26.51 14.63.62 43.14.62s31.88-.11 43.14-.62c10.41-.47 16.06-2.21 19.82-3.68a35.34 35.34 0 0020.26-20.26c1.46-3.76 3.2-9.41 3.68-19.82.51-11.26.62-14.63.62-43.14s-.11-31.88-.62-43.13c-.48-10.41-2.21-16.07-3.68-19.83zm-83.22 117.78a54.82 54.82 0 1154.82-54.82 54.82 54.82 0 01-54.82 54.82zm57-99a12.81 12.81 0 1112.81-12.81 12.81 12.81 0 01-12.82 12.82z"/><path class="cls-1" d="M183.85.41C81.19.41-2.06 83.66-2.06 186.32s83.25 185.91 185.91 185.91S369.76 289 369.76 186.32 286.51.41 183.85.41zM290 230.33c-.51 11.37-2.32 19.13-5 25.92a54.6 54.6 0 01-31.22 31.22c-6.79 2.64-14.55 4.44-25.91 5s-15 .64-44 .64-32.63-.12-44-.64-19.12-2.32-25.91-5a54.62 54.62 0 01-31.22-31.22c-2.64-6.79-4.45-14.55-5-25.91s-.65-15-.65-44 .12-32.63.64-44 2.32-19.12 5-25.91a54.66 54.66 0 0131.23-31.23c6.79-2.63 14.55-4.44 25.91-5s15-.64 44-.64 32.63.12 44 .65 19.13 2.32 25.92 5A54.6 54.6 0 01285 116.4c2.64 6.79 4.45 14.54 5 25.91s.65 15 .65 44-.17 32.69-.65 44.02z"/></svg>