<svg data-name="Capa 1" xmlns="http://www.w3.org/2000/svg" viewBox="0 0 375.33 375.33"><path d="M190.36-5C86.35-5 2 79.31 2 183.32s84.35 188.33 188.36 188.33 188.33-84.32 188.33-188.33S294.37-5 190.36-5zM212 245.88c-17.42 0-33.81-9.42-39.42-20.11 0 0-9.37 37.16-11.34 44.33-7 25.36-27.53 50.72-29.13 52.8a2.14 2.14 0 01-3.83-.93c-.44-3.23-5.69-35.21.49-61.3 3.08-13.1 20.74-87.91 20.74-87.91s-5.14-10.3-5.14-25.53c0-23.91 13.86-41.76 31.11-41.76 14.67 0 21.75 11 21.75 24.22 0 14.75-9.38 36.81-14.23 57.25-4 17.11 8.61 31.06 25.48 31.06 30.57 0 51.15-39.25 51.15-85.78 0-35.35-23.8-61.82-67.12-61.82-48.93 0-79.44 36.5-79.44 77.27 0 14 4.16 24 10.65 31.63 3 3.53 3.41 4.95 2.32 9-.78 3-2.54 10.12-3.29 12.94-1.07 4.1-4.38 5.55-8.08 4-22.53-9.2-33-33.89-33-61.64 0-45.82 38.64-100.78 115.3-100.78 61.59 0 102.13 44.57 102.13 92.42-.02 63.36-35.22 110.64-87.1 110.64z" fill="#78a55b"/></svg>