<svg id="Capa_1" data-name="Capa 1" xmlns="http://www.w3.org/2000/svg" viewBox="0 0 375.33 375.33"><defs><style>.cls-1{fill:#78a55b}</style></defs><path class="cls-1" d="M216.1 368.94zM219.82 368.3l-2.22.39zM207.28 370.16zM210.85 369.72l-2.62.33zM224.89 367.3l-2 .41zM237.46 364.18l-1.59.44zM233.66 365.22l-1.73.44zM228.68 366.46l-1.83.41zM201.75 370.7c-1 .08-2 .16-2.94.22.98-.06 1.96-.14 2.94-.22zM372.15 185.32c0-102.73-83.31-186-186-186s-186 83.31-186 186 83.31 186 186.05 186h3.27V226.49h-40v-46.58h40v-34.27c0-39.76 24.26-61.4 59.73-61.4a326.83 326.83 0 0135.83 1.84v41.54h-24.54c-19.3 0-23 9.17-23 22.63v29.66h46.13l-6 46.58h-40.16v137.68a186.14 186.14 0 00134.69-178.85zM198.4 371q-2.91.18-5.83.29 2.93-.15 5.83-.29z"/><path class="cls-1" d="M192.47 371.24c-1 0-2.06.06-3.09.08 1.03-.02 2.06-.04 3.09-.08z"/></svg>