<svg id="Capa_1" data-name="Capa 1" xmlns="http://www.w3.org/2000/svg" viewBox="0 0 375.33 375.33"><defs><style>.cls-1{fill:#ad7736}</style></defs><path class="cls-1" d="M223.59 187.67a35.92 35.92 0 11-35.92-35.92 35.92 35.92 0 0135.92 35.92z"/><path class="cls-1" d="M271.67 124.11a35.68 35.68 0 00-20.45-20.45c-3.8-1.47-9.5-3.23-20-3.71-11.36-.52-14.77-.63-43.54-.63s-32.19.11-43.55.63c-10.51.48-16.21 2.24-20 3.71a35.68 35.68 0 00-20.45 20.45c-1.48 3.8-3.23 9.51-3.71 20-.52 11.37-.63 14.77-.63 43.55s.11 32.18.63 43.55c.48 10.5 2.23 16.21 3.71 20a35.66 35.66 0 0020.45 20.46c3.8 1.47 9.5 3.23 20 3.71 11.36.52 14.77.62 43.54.62s32.19-.1 43.55-.62c10.51-.48 16.21-2.24 20-3.71a35.69 35.69 0 0020.45-20.46c1.48-3.79 3.23-9.5 3.71-20 .52-11.37.63-14.78.63-43.55s-.11-32.18-.63-43.55c-.47-10.49-2.23-16.2-3.71-20zm-84 118.89A55.34 55.34 0 11243 187.67 55.33 55.33 0 01187.67 243zm57.52-99.92a12.94 12.94 0 1112.93-12.94 12.93 12.93 0 01-12.93 12.94z"/><path class="cls-1" d="M187.67 0C84 0 0 84 0 187.67s84 187.66 187.67 187.66 187.66-84 187.66-187.66S291.3 0 187.67 0zm107.11 232.1c-.52 11.47-2.35 19.3-5 26.15a55.1 55.1 0 01-31.52 31.52c-6.85 2.66-14.68 4.49-26.15 5s-15.16.65-44.43.65-32.94-.13-44.43-.65-19.3-2.35-26.16-5a55 55 0 01-31.51-31.52c-2.67-6.85-4.49-14.68-5-26.15s-.65-15.17-.65-44.43.12-32.94.65-44.43 2.34-19.3 5-26.16a55.1 55.1 0 0131.52-31.52c6.86-2.66 14.69-4.48 26.16-5s15.16-.65 44.43-.65 32.93.12 44.43.65 19.3 2.34 26.15 5a55.1 55.1 0 0131.52 31.52c2.67 6.86 4.49 14.69 5 26.16s.65 15.16.65 44.43-.13 32.93-.66 44.43z"/></svg>