<svg id="Capa_1" data-name="Capa 1" xmlns="http://www.w3.org/2000/svg" viewBox="0 0 385.88 385.88"><defs><style>.cls-1{fill:#ad7736}</style></defs><path class="cls-1" d="M369.53 174.77H15.25c-8.29 0-15 9.45-15 21.11S7 217 15.25 217h354.28c8.29 0 15-9.45 15-21.11s-6.71-21.12-15-21.12zM369.53 68.88H15.25C7 68.88.24 78.33.24 90S7 111.1 15.25 111.1h354.28c8.29 0 15-9.45 15-21.11s-6.71-21.11-15-21.11zM369.53 279.66H15.25c-8.29 0-15 9.45-15 21.11s6.72 21.11 15 21.11h354.28c8.29 0 15-9.45 15-21.11s-6.71-21.11-15-21.11z"/></svg>