<?xml version="1.0" encoding="UTF-8"?>
<svg width="630px" height="420px" viewBox="0 0 630 420" version="1.1" xmlns="http://www.w3.org/2000/svg" xmlns:xlink="http://www.w3.org/1999/xlink">
    <title>Rectangle</title>
    <g id="Page-1" stroke="none" stroke-width="1" fill="none" fill-rule="evenodd">
        <rect id="Rectangle" fill="#FFF8EE" x="0" y="0" width="630" height="420"></rect>
        <g id="Group" transform="translate(193.000000, 112.000000)">
            <g id="57371+[Convertido]-05">
                <path d="M76.335,189.637 C66.535,182.945 72.051,170.954 76.979,162.554 C76.979,162.554 94.367,130.305 101.899,117.054 C113.421,96.754 129.248,92.554 132.559,94.654 C138.6,98.385 135.8,120.008 124.362,139.3 C124.362,139.3 108.696,173.39 102.935,185.024 C101.241,188.447 88.795,198.1 76.335,189.637 Z" id="Path" fill="#45A9DA" fill-rule="nonzero"></path>
                <path d="M35.2454694,225.649016 C54.1454694,213.049016 112.084469,179.078016 112.084469,179.078016 C117.376469,175.263016 128.058469,163.678016 119.658469,154.137016 C111.454469,144.778016 102.571469,147.333016 97.2584694,151.141016 C97.2584694,151.141016 45.9694694,199.553016 27.4474694,214.344016 C22.3794694,218.418016 31.0244694,228.470016 35.2454694,225.649016 Z" id="Path" fill="#CD9285" fill-rule="nonzero"></path>
                <path d="M28.7,206.889016 C28.5462711,204.397016 94.0522711,151.141016 94.0522711,151.141016 C99.3442711,147.333016 108.227271,144.778016 116.452271,154.137016 C124.852271,163.713016 116.844271,174.948016 111.461271,178.637016 C94.1642711,190.502016 43.5612711,222.779016 40.1872711,222.898016 C34.9652711,223.073016 29.0152711,212.279016 28.7,206.889016 Z" id="Path" fill="#45A9DA" fill-rule="nonzero"></path>
                <path d="M7.24745666,225.519342 L15.8994567,219.499342 L14.4994567,219.674342 C13.5611652,219.82743 12.6144187,219.454157 12.033069,218.701921 C11.4517193,217.949684 11.32922,216.939409 11.7139437,216.070033 C12.0986674,215.200657 12.9287687,214.611935 13.8764567,214.536342 L21.7864567,213.591342 L25.0554567,212.303342 C29.4584567,209.230342 32.9164567,210.798342 35.9334567,215.103342 C38.9504567,219.408342 40.6304567,223.174342 36.2484567,226.247342 L28.9684567,231.847342 L28.9684567,231.847342 L19.7984567,238.259342 C18.8070402,238.928456 17.4625753,238.681997 16.7729627,237.704729 C16.08335,236.72746 16.3017594,235.378155 17.2644567,234.668342 L15.5074567,235.900342 C14.5105872,236.591926 13.1426863,236.35145 12.4414567,235.361342 C11.9568914,234.64086 11.9323417,233.705244 12.3784567,232.960342 L10.4884567,234.199342 C9.7882161,234.68701 8.88099959,234.764059 8.10854681,234.401467 C7.33609403,234.038874 6.81575895,233.291727 6.74354677,232.441467 C6.67133459,231.591207 7.05821606,230.767009 7.75845666,230.279342 L8.94145666,229.446342 C7.92010616,229.660804 6.88924861,229.125108 6.47773461,228.166042 C6.06622061,227.206976 6.38828364,226.090771 7.24745666,225.498342 L7.24745666,225.519342 Z" id="Path" fill="#CD9285" fill-rule="nonzero"></path>
                <path d="M100.226,233.583 C100.226,233.583 96.684,268.45 101.171,278.243 C105.658,288.036 125.825,307.377 163.471,307.377 C194.453,307.377 222.313,302.337 228.375,282.464 C236.453,255.997 226.66,233.583 226.66,233.583 L100.226,233.583 Z" id="Path" fill="#481608" fill-rule="nonzero"></path>
                <path d="M165.088,297.241 L155.197,390.733 C155.008,400.533 158.543,414.673 184.072,414.673 C199.85,414.673 210.112,407.673 210.231,385.476 L230.3,274.596 L165.088,297.241 Z" id="Path" fill="#481608" fill-rule="nonzero"></path>
                <path d="M161.931,296.8 L139.664,400.155 C139.846,409.955 136.311,424.095 110.789,424.095 C95.004,424.095 84.742,417.095 84.637,394.898 L99.043,251.216 L161.931,296.8 Z" id="Path" fill="#481608" fill-rule="nonzero"></path>
                <path d="M104.909,241.36 C113.463,246.092 125.209,249.823 163.478,251.083 C195.356,252.126 208.565,247.149 220.178,242.13 C228.893,238.35 226.667,230.153 228.137,211.33 C229.817,189.77 222.159,145.362 222.292,130.13 C222.502,105.525 215.404,97.601 199.15,93.87 C192.5,92.344 171.388,91.021 171.388,91.021 L155.841,91.021 C155.841,91.021 146.853,91.833 138.754,92.869 C116.69,95.669 109.9,119.28 109.13,128.506 C107.8,143.906 91.469,173.075 92.869,212.254 C93.8,237.846 100.044,238.658 104.909,241.36 Z" id="Path" fill="#73BBE9" fill-rule="nonzero"></path>
                <rect id="Rectangle" stroke="#CACACA" stroke-width="0.7" fill="#FFFFFF" transform="translate(56.700000, 201.950000) rotate(-10.000000) translate(-56.700000, -201.950000) " x="10.15" y="142.45" width="93.1" height="119"></rect>
                <path d="M203.91,44.8 C201.705,73.185 188.51,89.6 163.604,89.6 C136.864,89.6 126.504,71.624 126.41268,43.554 C126.329,12.46 142.786,0 165.935,0 C187.523,0.035 206.066,17.052 203.91,44.8 Z" id="Path" fill="#CD9285" fill-rule="nonzero"></path>
                <path d="M177.716002,92.092 C177.716002,92.092 177.758,102.088 164.185,102.088 C149.177,102.088 148.932,92.218 148.932,92.218 L153.307,75.278 L174.461,75.278 L177.716002,92.092 Z" id="Path" fill="#CD9285" fill-rule="nonzero"></path>
                <path d="M176.631,19.425 C176.631,13.02 182.931,6.181 189.994,8.4 C189.994,8.4 207.389,20.762 203.749,43.96 C203.749,43.96 199.143,47.537 193.326,43.484 C186.963,39.046 176.638,26.999 176.631,19.425 Z" id="Path" fill="#D9BCB5" fill-rule="nonzero"></path>
                <path d="M210.826,50.645 C210.826,58.842 205.121,61.292 201.383,61.292 C197.645,61.292 200.473,54.411 200.473,50.372 C200.473,46.333 199.073,39.543 201.383,38.073 C208.306,33.698 210.826,43.4 210.826,50.645 Z" id="Path" fill="#CD9285" fill-rule="nonzero"></path>
                <path d="M165.9,61.831 C163.303,56.798 154.805,56.455 154.805,56.455 L147.273,56.455 C147.273,56.455 138.775,56.798 136.171,61.831 C133.567,66.864 138.019,61.985 139.881,65.905 C141.981,70.42 146.076,60.795 148.456,66.283 C148.895272,67.3532577 149.893787,68.0899997 151.046,68.194 C152.096362,68.2182079 153.056731,67.6037934 153.475,66.64 C155.82,61.131 160.3,70.84 161.91,66.297 C163.352,62.209 168.525,66.857 165.9,61.831 Z" id="Path" fill="#D9BCB5" fill-rule="nonzero"></path>
                <path d="M224.741469,208.572551 C236.207469,205.387551 234.786469,192.248551 232.826469,182.721551 C232.826469,182.721551 226.694469,146.587551 223.810469,131.621551 C219.414469,108.724551 205.764469,99.6665513 201.963469,100.562551 C195.033469,102.200551 190.721469,123.578551 195.397469,145.516551 C195.397469,145.516551 199.303469,182.826551 201.039469,195.699551 C201.536469,199.465551 210.237469,212.625551 224.741469,208.572551 Z" id="Path" fill="#45A9DA" fill-rule="nonzero" transform="translate(213.799691, 154.920715) rotate(11.000000) translate(-213.799691, -154.920715) "></path>
                <path d="M127.587138,237.658278 C147.390138,226.493278 207.730138,197.058278 207.730138,197.058278 C213.288138,193.642278 224.817138,182.946278 217.159138,172.754278 C209.697138,162.800278 200.639138,164.676278 195.074138,168.078278 C195.074138,168.078278 140.285138,212.479278 120.692138,225.835278 C115.309138,229.468278 123.212138,240.150278 127.587138,237.658278 Z" id="Path" fill="#CD9285" fill-rule="nonzero" transform="translate(169.292738, 201.691142) rotate(24.000000) translate(-169.292738, -201.691142) "></path>
                <path d="M127.40102,220.679113 C127.43602,218.187113 196.77802,170.027113 196.77802,170.027113 C202.34302,166.625113 211.40102,164.749113 218.86302,174.703113 C226.52102,184.895113 217.68002,195.479113 212.05202,198.748113 C193.90102,209.262113 141.01602,237.626113 137.63502,237.479682 C132.43402,237.290113 127.31702,226.069113 127.40102,220.679113 Z" id="Path" fill="#45A9DA" fill-rule="nonzero" transform="translate(174.623991, 202.389841) rotate(24.000000) translate(-174.623991, -202.389841) "></path>
                <path d="M89.0286746,211.901382 L98.1286746,206.525382 L96.7286746,206.588382 C95.7880001,206.656326 94.8847481,206.207568 94.3706705,205.416866 C93.8565929,204.626165 93.8129601,203.618522 94.2567642,202.786342 C94.7005682,201.954162 95.5616479,201.429006 96.5046746,201.415382 L104.449675,201.072382 L107.816675,200.036382 C112.429675,197.292382 115.754675,199.112382 118.442675,203.648382 C121.130675,208.184382 122.530675,212.048382 117.917675,214.792382 L110.217675,219.818382 L110.217675,219.818382 L100.592675,225.516382 C100.09335,225.816624 99.49451,225.904183 98.9301267,225.759469 C98.3657434,225.614755 97.8829206,225.249847 97.5896746,224.746382 C96.9705359,223.7043 97.3118857,222.357691 98.3526746,221.736382 L96.4416746,222.835382 C95.3956463,223.453942 94.0463359,223.10957 93.4246688,222.065382 C92.9965654,221.310251 93.0401278,220.376381 93.5366746,219.664382 L91.5906746,220.826382 C90.8541716,221.261532 89.9414652,221.270707 89.1963632,220.850451 C88.4512612,220.430196 87.9869622,219.644356 87.9783632,218.788951 C87.9697642,217.933546 88.4181716,217.138532 89.1546746,216.703382 L90.3936746,215.968382 C89.3626229,216.096366 88.3827787,215.484936 88.0446071,214.502547 C87.7064354,213.520159 88.1023109,212.435159 88.9936746,211.901382 L89.0286746,211.901382 Z" id="Path" fill="#CD9285" fill-rule="nonzero" transform="translate(104.426213, 212.285657) rotate(20.000000) translate(-104.426213, -212.285657) "></path>
                <line x1="134.337" y1="250.789" x2="124.894" y2="256.501" id="Path" stroke="#BD7C6F" stroke-width="0.5" stroke-linecap="round" stroke-linejoin="round"></line>
                <line x1="120.099" y1="254.289" x2="131.39" y2="247.387" id="Path" stroke="#BD7C6F" stroke-width="0.5" stroke-linecap="round" stroke-linejoin="round"></line>
                <line x1="129.003" y1="243.313" x2="117.173" y2="250.705" id="Path" stroke="#BD7C6F" stroke-width="0.5" stroke-linecap="round" stroke-linejoin="round"></line>
                <path d="M177.541,91.357 L180.033,91.539 C180.033,91.539 185.913,110.873 180.376,113.645 C177.037,115.304 171.409,106.421 163.254,102.025 C163.254,102.025 175.7,100.359 177.541,91.357 Z" id="Path" fill="#FFFFFF" fill-rule="nonzero"></path>
                <path d="M149.1,91.658 L145.32,91.931 C145.32,91.931 140.518,110.278 144.284,112.658 C146.496,114.058 154.084,104.531 163.443012,102.025 C163.457,102.025 151.039,99.932 149.1,91.658 Z" id="Path" fill="#FFFFFF" fill-rule="nonzero"></path>
            </g>
            <path d="M43.7649281,98 C39.4501236,98 36.8170079,102.716163 36.8170079,102.716163 C36.8170079,102.716163 33.7540809,98 29.7480729,98 C19.8582405,98 22.4621457,108.586101 23.4886853,110.607314 C26.3888682,116.245655 31.5132202,119.079563 36.7377223,124.6 C42.1416603,119.003768 47.1241328,116.793066 50.0702179,110.733639 C50.9924343,108.784011 53.6631063,98 43.7649281,98 Z" id="Path" fill="#EB586C" fill-rule="nonzero" transform="translate(36.750000, 111.300000) rotate(-10.000000) translate(-36.750000, -111.300000) "></path>
            <path d="M33.3117784,67.2 C30.2598435,67.2 28.3973958,70.5509577 28.3973958,70.5509577 C28.3973958,70.5509577 26.2309353,67.2 23.3974174,67.2 C16.4021701,67.2 18.2439567,74.7217033 18.9700457,76.1578281 C21.0213946,80.1640177 24.6459362,82.1775843 28.3413158,86.1 C32.1636134,82.1237296 35.6878012,80.5529682 37.7716175,76.2475859 C38.4239169,74.8623239 40.3129289,67.2 33.3117784,67.2 Z" id="Path" fill="#EB586C" fill-rule="nonzero" transform="translate(28.350000, 76.650000) rotate(-10.000000) translate(-28.350000, -76.650000) "></path>
            <path d="M23.7219162,39.9 C21.6171335,39.9 20.3326868,42.2580814 20.3326868,42.2580814 C20.3326868,42.2580814 18.8385761,39.9 16.8844258,39.9 C12.0601173,39.9 13.330315,45.1930505 13.831066,46.2036568 C15.2457894,49.0228273 17.7454732,50.4397815 20.2940109,53.2 C22.9300782,50.4018838 25.3605526,49.2965332 26.7976673,46.2668197 C27.2475289,45.2920057 28.5502958,39.9 23.7219162,39.9 Z" id="Path" fill="#EB586C" fill-rule="nonzero" transform="translate(20.300000, 46.550000) rotate(-10.000000) translate(-20.300000, -46.550000) "></path>
        </g>
    </g>
</svg>