<?xml version="1.0" encoding="UTF-8"?>
<svg width="630px" height="420px" viewBox="0 0 630 420" version="1.1" xmlns="http://www.w3.org/2000/svg" xmlns:xlink="http://www.w3.org/1999/xlink">
    <title>Rectangle</title>
    <g id="Page-1" stroke="none" stroke-width="1" fill="none" fill-rule="evenodd">
        <rect id="Rectangle" fill="#FFF8EE" x="0" y="0" width="630" height="420"></rect>
        <g id="Group-2" transform="translate(151.000000, 112.000000)" fill-rule="nonzero">
            <g id="Group" transform="translate(123.600000, 112.800000)">
                <path d="M10.3494,119.556 L0.6588,182.3064 C0.138,185.6802 2.4504,188.8374 5.8242,189.3582 L197.2878,218.9262 C200.6616,219.447 203.8188,217.1346 204.3396,213.7608 L233.9268,22.176 C234.4476,18.8022 232.1352,15.645 228.7614,15.1242 L133.3674,0.3924" id="Path" fill="#91C4DC"></path>
                <polygon id="Path" fill="#395A6E" points="30.7452 115.8786 21.9768 172.1862 187.0674 197.6814 212.6088 32.2968 129.2304 19.4538"></polygon>
            </g>
            <g id="3507564">
                <g id="Group" transform="translate(73.200000, 88.200000)">
                    <path d="M10.3494,119.556 L0.6588,182.3064 C0.138,185.6802 2.4504,188.8374 5.8242,189.3582 L197.2878,218.9262 C200.6616,219.447 203.8188,217.1346 204.3396,213.7608 L233.9268,22.176 C234.4476,18.8022 232.1352,15.645 228.7614,15.1242 L133.3674,0.3924" id="Path" fill="#91C4DC"></path>
                    <polygon id="Path" fill="#395A6E" points="30.7452 115.8786 21.9768 172.1862 187.0674 197.6814 212.6088 32.2968 129.2304 19.4538"></polygon>
                    <path d="M147.003,79.2 C136.5204,79.2 127.5084,86.2068 123.528,96.2454 C119.5476,86.2068 110.5356,79.2 100.053,79.2 C85.8852,79.2 74.4,91.998 74.4,107.7852 C74.4,143.9214 123.528,163.8774 123.528,163.8774 C123.528,163.8774 172.1718,143.652 172.656,107.7852 C172.869,92.0004 161.1708,79.2 147.003,79.2 Z" id="Path" fill="#EB586C" transform="translate(123.529432, 121.538700) rotate(9.000000) translate(-123.529432, -121.538700) "></path>
                </g>
                <g id="Group">
                    <path d="M199.9146,0 L6.1812,0 C2.7672,0 -2.13162821e-14,2.7672 -2.13162821e-14,6.1812 L-2.13162821e-14,200.0376 C-2.13162821e-14,203.4516 2.7672,206.2188 6.1812,206.2188 L199.9146,206.2188 C203.3286,206.2188 206.0958,203.4516 206.0958,200.0376 L206.0958,6.1812 C206.0958,2.7672 203.328,0 199.9146,0 Z" id="Path" fill="#BBDAED"></path>
                    <path d="M199.9146,0 L175.1904,0 C178.6044,0 181.3716,2.7672 181.3716,6.1812 L181.3716,200.0376 C181.3716,203.4516 178.6044,206.2188 175.1904,206.2188 L199.9146,206.2188 C203.3286,206.2188 206.0958,203.4516 206.0958,200.0376 L206.0958,6.1812 C206.0952,2.7672 203.328,0 199.9146,0 Z" id="Path" fill="#91C4DC"></path>
                    <polygon id="Path" fill="#54768A" points="19.524 19.4364 186.5718 19.4364 186.5718 186.7818 19.524 186.7818"></polygon>
                </g>
                <g id="3557832" transform="translate(52.800000, 49.200000)">
                    <path d="M50.39937,44.31 L40.94937,44.31 L31.49937,44.31 C14.10255,44.31 -0.00063,58.41318 -0.00063,75.81 L6.69816,80.28972 C8.81811,92.05518 19.13289,101.22 31.49937,101.22 L40.94937,101.22 L50.39937,101.22 C62.91936,101.22 73.33641,91.83153 75.27555,79.85019 L81.89937,75.81 C81.89937,58.41318 67.7964,44.31 50.39937,44.31 L50.39937,44.31 Z" id="Path" fill="#82E1D8"></path>
                    <path d="M75.27555,79.85019 L81.89937,75.81 C81.89937,58.41318 67.79619,44.31 50.39937,44.31 L40.94937,44.31 L40.94937,101.22 L50.39937,101.22 C62.91936,101.22 73.33641,91.83153 75.27555,79.85019 L75.27555,79.85019 Z" id="Path" fill="#6DCDD6"></path>
                    <path d="M50.02137,75.117 C51.97437,72.15579 52.91958,68.817 53.29758,63.71358 C53.61258,60.31179 51.15537,56.90979 46.74537,56.90979 C44.00214,56.90979 41.74737,58.8021 40.94958,61.51068 C40.84962,61.85025 40.68393,62.15202 40.63458,62.517 C39.62637,69.69879 36.60258,72.723 30.42858,72.723 L22.04937,72.21879 L12.59937,75.80979 L12.41016,86.83479 C16.25358,93.45 23.37258,98.07 31.49937,98.07 L37.79937,101.22 L40.94937,101.22 L44.09937,101.22 L50.39937,98.07 C58.02258,98.07 64.76358,93.954 68.73216,88.032 C63.81837,82.23579 57.51837,77.7 50.02137,75.117 L50.02137,75.117 Z" id="Path" fill="#F3F5F9"></path>
                    <path d="M50.39937,98.07 C58.02258,98.07 64.76358,93.954 68.73216,88.032 C63.81837,82.23579 57.51837,77.7 50.02137,75.117 C51.97437,72.15579 52.91958,68.817 53.29758,63.71358 C53.61258,60.31179 51.15537,56.90979 46.74537,56.90979 C44.00214,56.90979 41.74737,58.8021 40.94958,61.51068 L40.94958,101.22 L44.09958,101.22 L50.39937,98.07 Z" id="Path" fill="#E1E6F0"></path>
                    <path d="M80.2536,40.78788 L73.35069,40.25868 L72.82149,33.35577 C72.16314,25.56078 71.68644,19.92837 75.7407,15.8739 C79.65615,11.95194 85.61595,11.78016 89.34051,15.49863 C91.22925,17.38422 91.89999,19.59909 91.9275,21.68166 C94.01007,21.70938 96.22494,22.37991 98.11053,24.26865 C101.94303,28.10115 101.55684,34.04982 97.73526,37.8714 C93.4437,42.15876 86.86818,41.3469 80.2536,40.78788 L80.2536,40.78788 Z" id="Path" fill="#E63A49"></path>
                    <path d="M31.49937,94.92 C21.07728,94.92 12.59937,86.23209 12.59937,75.81 L-0.00063,75.81 C-0.00063,93.17805 14.13132,107.52 31.49937,107.52 L34.64937,107.52 C38.12886,107.52 40.94937,104.69949 40.94937,101.22 C40.94937,97.74051 38.12886,94.92 34.64937,94.92 L31.49937,94.92 Z" id="Path" fill="#FFDDCC"></path>
                    <path d="M81.89937,75.81 L69.29937,75.81 C69.29937,86.23209 60.82146,94.92 50.39937,94.92 L47.24937,94.92 C43.76988,94.92 40.94937,97.74051 40.94937,101.22 C40.94937,104.69949 43.76988,107.52 47.24937,107.52 L50.39937,107.52 C67.76742,107.52 81.89937,93.17805 81.89937,75.81 Z" id="Path" fill="#FFCABF"></path>
                    <circle id="Oval" fill="#FFDDCC" cx="22.04937" cy="75.81" r="9.45"></circle>
                    <path d="M53.46978,3.9375 L40.94937,11.63841 L18.89937,25.2 L18.89937,28.35 C18.89937,40.50711 28.79226,50.61 40.94937,50.61 C53.10648,50.61 62.99937,40.50711 62.99937,28.35 L62.99937,22.05 C62.99937,14.54523 59.21496,7.92183 53.46978,3.9375 L53.46978,3.9375 Z" id="Path" fill="#FFDDCC"></path>
                    <path d="M62.99937,28.35 L62.99937,22.05 C62.99937,14.54523 59.21496,7.92183 53.46978,3.9375 L40.94937,11.63841 L40.94937,50.61 C53.10648,50.61 62.99937,40.50711 62.99937,28.35 L62.99937,28.35 Z" id="Path" fill="#FFCABF"></path>
                    <path d="M31.49937,9.45 L25.19937,25.2 L31.49937,25.2 C33.17979,25.2 34.79742,24.96669 36.36885,24.60822 L40.94937,18.9 L37.79937,9.45 L31.49937,9.45 Z" id="Path" fill="#FFBE40"></path>
                    <path d="M40.94937,0 C28.60158,0 18.89937,10.29714 18.89937,22.05 L18.89937,25.2 L22.04937,25.2 L25.19937,25.2 C28.67235,25.2 31.49937,22.37298 31.49937,18.9 L31.49937,15.75 L37.79937,15.75 L37.79937,18.9 C37.79937,20.96535 37.25295,22.88664 36.36885,24.60822 C37.98144,24.2403 39.4926,23.63802 40.94937,22.93788 C48.11499,19.49409 53.16591,12.34779 53.46978,3.9375 C49.88256,1.44921 44.74743,0 40.94937,0 L40.94937,0 Z" id="Path" fill="#FFDF40"></path>
                    <path d="M53.46978,3.9375 C49.88256,1.44921 44.74743,0 40.94937,0 L40.94937,22.93788 C48.11499,19.49409 53.16612,12.34779 53.46978,3.9375 Z" id="Path" fill="#FFBE40"></path>
                </g>
            </g>
        </g>
    </g>
</svg>