<svg xmlns="http://www.w3.org/2000/svg" viewBox="0 0 495 228"><style>.st8{fill:#ad7733}.st16{fill:#4ab401}.st17{fill:#5cc201}.st19{fill:none}.st20{font-family:&apos;Poppins-Medium&apos;}</style><g id="Modo_de_aislamiento"><path d="M98.49 190.53l-1.86.18c-4.77-.66-9.52-1.51-14.36-1.28-.8.22-1.27-.36-1.82-.74 1.2-1.35 2.78-.99 4.13-.61 1.59.44 3.17.42 4.76.63 3.77.5 5.27-.72 5.03-4.77-.34-5.76-.08-11.56-.1-17.34-.01-2.27.34-4.59-.91-6.69 11.28-10.69 22.52-21.41 33.86-32.02 1.98-1.85 2.56-3.1.08-4.96-2.04-1.53-3.97-3.31-5.6-5.27-2.04-2.45-3.37-1.86-5.42.11-7.71 7.38-15.62 14.54-23.46 21.79-.59-2 1.88-2.7 1.83-4.69-.24-10.55-.33-21.11-.31-31.67 0-2.53-.92-3.26-3.33-3.23-7.86.11-15.72.04-23.58.04h-4.66c13.28-.83 26.51-.82 39.73-.84 14.23-.02 28.46-.08 42.69-.12 2.77.66 3.46 2.94 3.44 5.21-.1 13.11 1.21 26.32-.51 39.31-2.75 20.76-14.14 35.44-33.78 43.39-.79.07-1.64.03-2.16.82l-.11.03c-.82.05-1.7-.08-2.29.72-.64.11-1.28.23-1.92.34-2.37.42-4.89.14-7.08 1.43l-1.27.12c-.35.03-.68.07-1.02.11z" fill="#78a55b"/><path d="M145.18 99.05c-14.23.04-28.46.09-42.69.12-13.22.02-26.45 0-39.73.84h4.66c7.86 0 15.72.07 23.58-.04 2.42-.03 3.34.7 3.33 3.23-.02 10.56.07 21.11.31 31.67.05 1.99-2.42 2.69-1.83 4.69-1.69 2.71-3.34 3.33-5.84.59-3-3.28-6.49-6.1-9.62-9.26-1.44-1.45-2.42-1.67-3.93-.08-2.14 2.24-4.45 4.35-6.83 6.33-1.79 1.49-1.8 2.49-.03 4.09 6.61 5.98 13.23 11.95 19.51 18.27 2.66 2.67 4.66 3.45 7.29.42 1.26 2.1.91 4.42.91 6.69.02 5.78-.25 11.58.1 17.34.24 4.04-1.27 5.26-5.03 4.77-1.59-.21-3.17-.19-4.76-.63-1.35-.38-2.93-.74-4.13.61-20.15-5.46-32.4-18.79-38.19-38.46-.51-1.74-1.43-3.55-.84-5.51.72-.56.78-1.36.77-2.18-.06-13.98-.11-27.96-.17-41.94l-.05.05 5.06-.93-.06-.39c-.92-.11-1.83-.23-2.75-.34.73-.95 1.9-.48 2.81-.85 5.19.28 10.39.35 15.58-.04 21.12 0 42.25.01 63.37.01 5.46.3 10.92.37 16.37-.01.95.31 1.89.62 2.83.94z" fill="#96cc72"/><path d="M142.36 98.1c-5.46.38-10.92.31-16.37.01-.15-7 .63-14.02-1.51-20.92-5.01-16.12-21.18-25.72-38.05-20.99-14.88 4.17-23.01 15.88-23.09 31.45-.02 3.49.53 7.04-.72 10.45-5.19.39-10.38.32-15.58.04.29-8.35-.84-16.77 1.65-24.99 5.65-18.65 21.28-32.44 40.93-34.26 14.59-1.36 27.28 2.75 37.85 12.66 9.12 8.55 14.14 19.34 14.81 31.92.25 4.86.06 9.75.08 14.63z" fill="#d7d6db"/><path class="st16" d="M42.03 100.6c.06 13.98.11 27.96.17 41.94 0 .82-.05 1.62-.77 2.18l-.09-1.48c.01-13.88.02-27.77.04-41.65.21-.33.43-.66.65-.99z"/><path class="st17" d="M41.37 101.59c-.01 13.88-.02 27.77-.04 41.65-.26-1.17-.75-2.34-.76-3.51-.07-11.85-.06-23.71-.08-35.56 0-.96.11-1.88.88-2.58zM82.27 189.43c4.85-.23 9.59.62 14.36 1.28-4.88.7-9.62-.29-14.36-1.28zM100.77 190.3c2.2-1.29 4.71-1.02 7.08-1.43-2.18 1.34-4.62 1.4-7.08 1.43z"/><path class="st16" d="M44.23 98.99c.92.11 1.83.23 2.75.34l.06.39c-1.68.31-3.37.62-5.06.93.45-.96 1.15-1.57 2.25-1.66z"/><path class="st17" d="M112.17 187.77c.52-.79 1.36-.74 2.16-.82-.72.27-1.44.55-2.16.82zM109.78 188.52c.59-.8 1.47-.67 2.29-.72-.77.24-1.53.48-2.29.72zM98.49 190.53l1.02-.12-1.02.12z"/><path d="M93.36 159.92c-2.63 3.03-4.63 2.25-7.29-.42-6.28-6.31-12.91-12.29-19.51-18.27-1.77-1.6-1.76-2.61.03-4.09a80.22 80.22 0 006.83-6.33c1.51-1.58 2.49-1.37 3.93.08 3.14 3.16 6.63 5.98 9.62 9.26 2.5 2.74 4.15 2.12 5.84-.59 7.84-7.24 15.75-14.41 23.46-21.79 2.06-1.97 3.39-2.56 5.42-.11 1.63 1.96 3.56 3.74 5.6 5.27 2.49 1.86 1.9 3.11-.08 4.96-11.33 10.62-22.57 21.34-33.85 32.03z" fill="#fafcf6"/><path class="st19" d="M184.37 67.63H514V135H184.37z"/><text transform="translate(184.37 119.434)" class="st8 st20" font-size="70">SECURE</text><path class="st19" d="M183.07 137.51h389.08V228H183.07z"/><text transform="translate(183.071 161.927)" class="st8 st20" font-size="33">SSL ENCRYPTION</text></g></svg>