<svg xmlns="http://www.w3.org/2000/svg" viewBox="0 0 604 228"><style>.st8{fill:#ad7733}.st15{font-family:&apos;Poppins-Medium&apos;}.st16{font-size:70px}</style><g id="Layer_1"><path class="st8" d="M121.16 135.99l-1.82 16.39a2.9 2.9 0 00.72 2.25c.55.61 1.33.96 2.15.96h11.56a2.888 2.888 0 002.87-3.21l-1.82-16.39c2.96-2.15 4.73-5.56 4.73-9.3 0-6.37-5.18-11.56-11.56-11.56s-11.56 5.18-11.56 11.56c0 3.75 1.77 7.15 4.73 9.3zm6.83-15.07c3.19 0 5.78 2.59 5.78 5.78 0 2.22-1.26 4.2-3.28 5.18-1.1.54-1.75 1.7-1.61 2.92l1.67 15.01h-5.1l1.67-15.01c.14-1.22-.51-2.38-1.61-2.92-2.03-.98-3.28-2.97-3.28-5.18-.02-3.19 2.57-5.78 5.76-5.78z"/><path class="st8" d="M177.11 92.02h-8.67V80.47c0-22.31-18.15-40.45-40.45-40.45S87.54 58.16 87.54 80.47v11.56h-8.67c-1.6 0-2.89 1.29-2.89 2.89v72.24c0 6.37 5.18 11.56 11.56 11.56h80.91c6.37 0 11.56-5.18 11.56-11.56V94.91a2.906 2.906 0 00-2.9-2.89zm-83.8-11.55c0-19.12 15.55-34.67 34.67-34.67s34.67 15.55 34.67 34.67v11.56h-5.78V80.47c0-15.93-12.96-28.9-28.9-28.9s-28.9 12.96-28.9 28.9v11.56h-5.78V80.47zm57.79 0v11.56h-46.23V80.47c0-12.75 10.37-23.12 23.12-23.12s23.11 10.37 23.11 23.12zm23.12 86.68c0 3.19-2.59 5.78-5.78 5.78h-80.9c-3.19 0-5.78-2.59-5.78-5.78V97.8h92.46v69.35z"/><path fill="none" d="M199.55 66.25h367.31V195H199.55z"/><text transform="translate(199.555 118.047)"><tspan x="0" y="0" class="st8 st15 st16">Secure</tspan><tspan x="0" y="60" class="st8 st15 st16">Checkout</tspan></text></g></svg>