<svg id="Capa_1" data-name="Capa 1" xmlns="http://www.w3.org/2000/svg" viewBox="0 0 376.38 376.38"><defs><style>.cls-1{fill:#ad7736}</style></defs><g id="Page-2"><g id="_2890385" data-name="2890385"><path id="Shape" class="cls-1" d="M349.78 205.87V25.9c0-10.62-8.4-19.26-18.73-19.26H31.55c-10.32 0-18.72 8.64-18.72 19.26v237.39c0 10.62 8.4 19.26 18.72 19.26H182.4l49.7 76.11a57.94 57.94 0 0048.55 26.55h51.62c20 0 36.23-16.68 36.23-37.18V227.35a21.78 21.78 0 00-18.72-21.48zM31.55 269.72a6.35 6.35 0 01-6.24-6.43V25.9a6.34 6.34 0 016.24-6.42h299.5a6.34 6.34 0 016.25 6.42v12.83h-181a6.42 6.42 0 000 12.83h181v156.18h-.1c-.5-11.92-10-21.49-21.74-21.49a21.46 21.46 0 00-15.53 6.75 21.68 21.68 0 00-25-4.59v-14.2a48.53 48.53 0 0025-42.46c0-26.53-21-48.12-46.8-48.12s-46.8 21.59-46.8 48.12A48.38 48.38 0 00230 173.63v89.68c-6.12-7.42-13.7-16.63-19.78-24.06a23.13 23.13 0 00-33.12-2.73 23.84 23.84 0 00-4.45 31.17l1.33 2zM230 138.41v19.44a35.7 35.7 0 01-11.3-26.09c0-19.46 15.4-35.29 34.32-35.29s34.32 15.83 34.32 35.29a35.85 35.85 0 01-12.48 27.13v-20.48a23 23 0 00-22.7-22.69C240 115.72 230 125.9 230 138.41zm126 208.68c0 13.43-10.66 24.35-23.76 24.35h-51.59a45.56 45.56 0 01-38.19-20.87l-59.41-91a10.9 10.9 0 012.34-14.38 10.76 10.76 0 0115.32 1.36C213 261.64 231.52 284 231.52 284a6.12 6.12 0 006.91 1.87 6.41 6.41 0 004.09-6v-142.4a9.78 9.78 0 019.68-9.85c5.44 0 10.22 4.6 10.22 9.85v118.47a6.24 6.24 0 1012.48 0v-48.67a9.36 9.36 0 0118.72 0v48.67a6.24 6.24 0 1012.48 0v-48.12a9.36 9.36 0 1118.72 0v52.07a6.24 6.24 0 1012.48 0v-33.48a9.37 9.37 0 0118.72 0z"/><ellipse id="Oval" class="cls-1" cx="41.14" cy="35.16" rx="9.17" ry="9.51"/><ellipse id="Oval-2" data-name="Oval" class="cls-1" cx="65.86" cy="35.16" rx="9.17" ry="9.51"/><ellipse id="Oval-3" data-name="Oval" class="cls-1" cx="90.58" cy="35.16" rx="9.17" ry="9.51"/><path id="Shape-2" data-name="Shape" d="M110.52 167a5.34 5.34 0 01-3.48-1.27c-3.64-3.09-7.16-6-10.25-8.54h0c-9.08-7.5-16.92-14-22.37-20.35-6.1-7.13-8.94-13.89-8.94-21.28a26.83 26.83 0 017.12-18.65 24.63 24.63 0 0118-7.61 23.09 23.09 0 0114.19 4.7 28.87 28.87 0 015.73 5.79 28.83 28.83 0 015.72-5.79 23.17 23.17 0 0114.16-4.7 24.58 24.58 0 0118 7.61 26.78 26.78 0 017.14 18.64c0 7.38-2.84 14.14-8.94 21.27-5.45 6.38-13.29 12.86-22.36 20.35-3.11 2.56-6.62 5.46-10.27 8.56a5.36 5.36 0 01-3.45 1.27zM90.64 94.42a19.27 19.27 0 00-14.14 6 21.82 21.82 0 00-5.76 15.18c0 6.21 2.39 11.76 7.73 18 5.16 6 12.84 12.37 21.73 19.72h0c3.11 2.56 6.63 5.47 10.3 8.58 3.69-3.11 7.21-6 10.33-8.59 8.89-7.35 16.57-13.69 21.73-19.72 5.34-6.25 7.72-11.81 7.72-18a21.81 21.81 0 00-5.75-15.18 19.05 19.05 0 00-5.13-3.83 19.72 19.72 0 00-9-2.12 22.61 22.61 0 00-5 .67c-7.87 2.06-13.71 10-14.81 11.5-1.45-2.2-6.15-8.78-13.83-11.19a20.33 20.33 0 00-6.12-1.02z" fill="#f57373" stroke="#f57373" stroke-width="6"/></g></g></svg>