<?xml version="1.0" encoding="UTF-8"?>
<svg width="630px" height="420px" viewBox="0 0 630 420" version="1.1" xmlns="http://www.w3.org/2000/svg" xmlns:xlink="http://www.w3.org/1999/xlink">
    <title>Group 3</title>
    <g id="Page-1" stroke="none" stroke-width="1" fill="none" fill-rule="evenodd">
        <g id="Group-3" fill="#FFF8EE">
            <rect id="Rectangle" x="0" y="0" width="630" height="420"></rect>
        </g>
        <g id="684279" opacity="0.262881324" transform="translate(34.000000, 138.000000)" fill-rule="nonzero">
            <path d="M122.5,207 C122.5,207 56.8607675,167.855441 22.60029,118.1226 C2.74842457,89.2454667 -0.133297833,64.2186177 5.63014697,44.6463383 C13.9551228,16.4109189 45.6540692,-11.5036435 89.8404794,4.86006552 C111.293302,12.8814915 122.5,21.8654886 122.5,21.8654886 C122.5,21.8654886 133.706698,12.8814915 155.159521,4.86006552 C199.345931,-11.5036435 231.044877,16.4109189 239.369853,44.6463383 C245.133298,63.8977607 242.251575,88.9246097 222.39971,118.1226 C188.139233,167.855441 122.5,207 122.5,207 Z" id="Path" fill="#A3E4AA"></path>
            <path d="M235.35512,101.333333 L215.04793,101.333333 C223.639434,81.952381 222.598039,66.5 219.473856,56.0238095 C214.006536,37.1666667 195.782135,17 168.445534,17 C161.155773,17 153.866013,18.3095238 146.315904,21.1904762 C133.298475,26.1666667 124.706972,31.4047619 121.062092,34.0238095 C117.156863,31.4047619 108.825708,26.1666667 95.8082789,21.1904762 C88.2581699,18.3095238 80.9684096,17 73.6786492,17 C46.3420479,17 28.1176471,37.1666667 22.6503268,56.0238095 C19.0054466,67.0238095 17.9640523,84.047619 28.3779956,105.261905 L3.64488017,105.261905 C1.5620915,105.261905 0,106.833333 0,108.928571 C0,111.02381 1.5620915,112.595238 3.64488017,112.595238 L32.543573,112.595238 C33.8453159,114.690476 35.1470588,116.785714 36.4488017,118.880952 C60.1405229,153.190476 111.429194,190.380952 120.801743,192.738095 L120.801743,193 C120.801743,193 121.062092,193 121.32244,192.738095 C121.582789,192.738095 121.843137,192.738095 121.843137,192.738095 L121.843137,192.47619 C129.913943,188.547619 179.119826,156.595238 205.154684,118.619048 C207.497821,115.214286 209.58061,111.547619 211.40305,108.404762 L235.35512,108.404762 C237.437908,108.404762 239,106.833333 239,104.738095 C239,102.904762 237.437908,101.333333 235.35512,101.333333 Z M29.41939,58.1190476 C34.1056645,41.8809524 49.9869281,24.3333333 73.4183007,24.3333333 C79.6666667,24.3333333 86.1753813,25.6428571 92.9444444,28 C109.606754,34.2857143 118.458606,41.3571429 118.458606,41.3571429 C119.760349,42.4047619 121.843137,42.4047619 123.14488,41.3571429 C123.14488,41.3571429 131.996732,34.2857143 148.659041,28 C155.428105,25.6428571 161.936819,24.3333333 168.185185,24.3333333 C191.616558,24.3333333 207.497821,41.8809524 212.184096,58.1190476 C216.089325,71.4761905 214.006536,86.1428571 206.716776,101.333333 L184.587146,101.333333 L175.214597,85.3571429 C174.6939,84.3095238 173.392157,83.5238095 172.090414,83.5238095 C170.788671,83.5238095 169.486928,84.047619 168.966231,85.0952381 L161.155773,96.6190476 L148.659041,55.7619048 C148.138344,54.1904762 146.576253,53.1428571 145.014161,53.1428571 C143.45207,53.1428571 141.889978,54.1904762 141.369281,55.7619048 L120.281046,129.357143 L97.3703704,70.4285714 C96.8496732,69.1190476 95.5479303,68.0714286 93.9858388,68.0714286 C92.4237473,68.0714286 91.1220044,68.8571429 90.6013072,70.1666667 L72.6372549,105.261905 L36.9694989,105.261905 C27.8572985,88.5 24.9934641,72.5238095 29.41939,58.1190476 Z M198.906318,114.690476 C174.6939,150.047619 130.434641,178.857143 120.801743,184.880952 C111.168845,178.857143 66.9095861,149.785714 42.6971678,114.690476 C42.1764706,113.904762 41.916122,113.380952 41.3954248,112.595238 L74.9803922,112.595238 C76.2821351,112.595238 77.583878,111.809524 78.3649237,110.5 L93.4651416,80.6428571 L117.417211,142.190476 C117.937908,143.761905 119.239651,144.547619 120.801743,144.547619 C120.801743,144.547619 120.801743,144.547619 121.062092,144.547619 C122.624183,144.547619 123.925926,143.5 124.446623,141.928571 L145.27451,69.9047619 L156.469499,106.309524 C156.990196,107.619048 158.03159,108.666667 159.593682,108.928571 C160.895425,109.190476 162.457516,108.404762 163.238562,107.357143 L172.090414,94.5238095 L179.640523,107.357143 C180.421569,108.404762 181.462963,109.190476 182.764706,109.190476 L202.811547,109.190476 C201.509804,110.761905 200.208061,112.857143 198.906318,114.690476 Z" id="Shape" fill="#FFFFFF"></path>
        </g>
        <g id="3142682" transform="translate(390.000000, 305.500000) rotate(10.000000) translate(-390.000000, -305.500000) translate(256.000000, 126.000000)" fill-rule="nonzero">
            <path d="M268,29 L0,29 L0,7.17719694 C0,3.21308797 3.22823271,0 7.20946313,0 L260.790537,0 C264.772467,0 268,3.21308797 268,7.17719694 L268,29 Z" id="Path" fill="#78D090"></path>
            <path d="M259.855588,51.4689211 L268,29 L0,29 L8.14441195,51.4689211 C10.4649885,57.8708612 11.6518696,64.6308438 11.6518696,71.4427776 L11.6518696,287.557924 C11.6518696,294.369858 10.4649885,301.129841 8.14441195,307.531781 L0,330 L268,330 L259.855588,307.531079 C257.535011,301.129139 256.34813,294.369156 256.34813,287.557222 L256.34813,71.4427776 C256.347431,64.6301417 257.535011,57.8708612 259.855588,51.4689211 Z" id="Path" fill="#B3E59F"></path>
            <path d="M256.347431,287.481374 L256.347431,175 C232.809954,210.114297 196.354648,241.847838 150.574347,263.670493 C103.435011,286.140887 54.4565699,294.263987 11.6084813,289.506171 C11.3971381,295.642452 10.2354502,301.712623 8.14511176,307.491628 L0,330 L268,330 L259.855588,307.490925 C257.535011,301.077544 256.347431,294.306184 256.347431,287.481374 Z" id="Path" fill="#95D6A4"></path>
            <path d="M75,82.8847182 L75,74.1152818 C75,70.1853698 78.240787,67 82.2390693,67 L184.760931,67 C188.759213,67 192,70.1853698 192,74.1152818 L192,82.8847182 C192,86.8146302 188.759213,90 184.760931,90 L82.2390693,90 C78.240787,90 75,86.8139395 75,82.8847182 Z" id="Path" fill="#ECF4FF"></path>
            <path d="M220.859357,205 L184,205 L184,154 L220.859357,154 C224.803277,154 228,157.228894 228,161.212503 L228,197.787497 C228,201.770406 224.802583,205 220.859357,205 Z" id="Path" fill="#DD636E"></path>
            <path d="M46.1406427,205 L83,205 L83,154 L46.1406427,154 C42.1967234,154 39,157.228894 39,161.212503 L39,197.787497 C39.0006931,201.770406 42.1974165,205 46.1406427,205 Z" id="Path" fill="#DD636E"></path>
            <circle id="Oval" fill="#FFE07D" cx="134" cy="179" r="56"></circle>
            <path d="M165.098577,132 C171.130093,140.964339 174.652223,151.758206 174.652223,163.375186 C174.652223,194.456102 149.456528,219.651625 118.3754,219.651625 C106.758341,219.651625 95.9651022,216.129519 87,210.098044 C97.1056683,225.117034 114.25981,235 133.723177,235 C164.804305,235 190,209.804477 190,178.723561 C190,159.259624 180.117669,142.105599 165.098577,132 L165.098577,132 Z" id="Path" fill="#FFD064"></path>
            <polygon id="Path" fill="#63AF7D" points="236 0 247 0 247 29 236 29"></polygon>
            <polygon id="Path" fill="#63AF7D" points="209 0 220 0 220 29 209 29"></polygon>
            <polygon id="Path" fill="#63AF7D" points="182 0 193 0 193 29 182 29"></polygon>
            <polygon id="Path" fill="#63AF7D" points="155 0 166 0 166 29 155 29"></polygon>
            <polygon id="Path" fill="#63AF7D" points="20 0 31 0 31 29 20 29"></polygon>
            <polygon id="Path" fill="#63AF7D" points="47 0 58 0 58 29 47 29"></polygon>
            <polygon id="Path" fill="#63AF7D" points="74 0 85 0 85 29 74 29"></polygon>
            <polygon id="Path" fill="#63AF7D" points="101 0 112 0 112 29 101 29"></polygon>
            <polygon id="Path" fill="#63AF7D" points="128 0 139 0 139 29 128 29"></polygon>
            <path d="M63.5856547,312 L34.4143453,312 C31.4240513,312 29,309.5376 29,306.5 C29,303.461688 31.4240513,301 34.4143453,301 L63.5856547,301 C66.5759487,301 69,303.4624 69,306.5 C69,309.5376 66.5759487,312 63.5856547,312 Z" id="Path" fill="#ECF4FF"></path>
            <path d="M48.673928,289 L34.326072,289 C31.3845305,289 29,286.5376 29,283.5 C29,280.4624 31.3845305,278 34.326072,278 L48.673928,278 C51.6154695,278 54,280.4624 54,283.5 C54,286.5376 51.6154695,289 48.673928,289 Z" id="Path" fill="#ECF4FF"></path>
            <path d="M232.673928,289 L218.326072,289 C215.383841,289 213,286.5376 213,283.5 C213,280.4624 215.384531,278 218.326072,278 L232.673928,278 C235.616159,278 238,280.4624 238,283.5 C238,286.5376 235.616159,289 232.673928,289 Z" id="Path" fill="#ECF4FF"></path>
        </g>
        <text id="Healthy-Snacks" opacity="0.157900856" font-family="ArialUnicodeMS, Arial Unicode MS" font-size="34" font-weight="normal" letter-spacing="0.111475412" fill="#787C78">
            <tspan x="43.6078557" y="118">Healthy Snacks</tspan>
        </text>
    </g>
</svg>