<?xml version="1.0" encoding="UTF-8"?>
<svg width="603px" height="199px" viewBox="0 0 603 199" version="1.1" xmlns="http://www.w3.org/2000/svg" xmlns:xlink="http://www.w3.org/1999/xlink">
    <title>Group 9</title>
    <g id="Page-1" stroke="none" stroke-width="1" fill="none" fill-rule="evenodd">
        <g id="Survival-Boxes-Logo" transform="translate(-307.000000, -327.000000)">
            <g id="Group-9" transform="translate(307.064000, 327.026000)">
                <path d="M81.537,0.459 C99.174,5.113 103.919,13.043 95.776,24.249 C93.111,23.729 90.141,23.729 86.865,24.249 L83.926,23.055 C83.038,19.963 80.649,17.575 76.761,15.891 L76.761,7.578 C76.975,6.292 76.975,4.914 76.761,3.444 L77.358,2.25 L81.537,0.459 Z M68.448,1.056 C71.632,7.486 70.652,13.625 65.509,19.473 L65.509,23.055 C68.356,24.433 71.923,25.413 76.21,25.994 L79.747,28.382 L82.134,28.979 L84.523,29.577 C85.41,30.679 86.589,31.674 88.059,32.562 C89.559,33.634 91.55,34.415 94.03,34.904 C95.101,36.803 96.678,38.793 98.76,40.874 C99.556,43.447 99.955,46.615 99.955,50.382 C99.862,56.628 96.892,61.374 91.044,64.619 C87.983,68.293 83.818,69.487 78.552,68.201 C74.511,62.935 75.506,57.394 81.537,51.576 C77.772,48.085 72.627,45.116 66.106,42.666 L64.912,42.069 C64.82,41.671 64.422,41.273 63.718,40.874 L61.926,39.083 L59.539,38.486 L57.794,36.695 L56.002,35.502 C42.928,25.918 42.729,15.033 55.405,2.847 C57.364,3.03 59.539,2.633 61.926,1.653 L66.702,1.653 C67.284,1.653 67.867,1.454 68.448,1.056 Z M48.837,45.008 C52.604,46.294 57.166,46.692 62.523,46.202 L64.315,47.994 L64.912,52.173 C72.72,58.113 74.097,63.854 69.045,69.396 C56.583,70.773 48.271,64.834 44.107,51.576 L48.837,45.008 L48.837,45.008 Z" id="Fill-73" fill="#598F40"></path>
                <path d="M147.948,0.459 C151.04,1.317 154.714,1.699 158.971,1.607 L160.716,2.204 C162.736,7.502 163.119,14.069 161.865,21.907 C165.936,37.522 163.242,51.989 153.781,65.308 C152.311,65.706 150.566,66.487 148.546,67.65 C139.177,72.855 134.936,68.6 135.824,54.882 C139.957,51.24 142.851,46.417 144.503,40.416 L143.906,36.925 L143.906,28.244 L144.503,27.097 L143.906,25.949 L143.906,13.181 C143.724,10.884 143.724,8.19 143.906,5.097 L147.948,0.459 Z M107.441,0.459 L106.844,0.459 L107.992,0.459 L107.441,0.459 L107.992,0.459 C110.594,1.807 113.686,2.005 117.269,1.056 C118.341,1.515 119.887,2.082 121.908,2.755 C122.764,6.521 123.148,11.359 123.055,17.268 L123.055,23.606 L122.458,28.244 L122.458,29.99 L124.204,41.012 L124.204,42.758 L124.801,44.457 L124.801,46.202 L126.546,49.692 C131.077,52.694 133.589,57.332 134.078,63.608 L130.588,69.396 C118.709,69.763 110.212,63.777 105.098,51.438 L104.501,40.416 L103.95,38.67 C104.043,36.956 104.043,33.68 103.95,28.842 L104.501,27.097 L104.501,21.907 L103.95,20.713 L103.95,13.181 L102.802,10.884 C102.802,10.028 102.603,9.063 102.206,7.991 C102.694,5.297 104.241,2.786 106.844,0.459 L107.441,0.459 L107.441,0.459 Z" id="Fill-74" fill="#598F40"></path>
                <path d="M206.045,0.459 L217.849,1.056 L219.043,1.653 L220.835,1.056 L222.579,1.653 L229.699,3.399 C232.148,5.756 234.504,9.109 236.77,13.456 L237.965,14.65 C239.435,23.407 237.26,31.873 231.443,40.048 C228.993,40.14 226.636,40.921 224.371,42.391 C226.146,47.81 229.682,52.342 234.98,55.985 C235.775,57.27 236.969,58.649 238.562,60.118 C239.418,61.895 240.199,64.053 240.905,66.594 C237.965,70.054 234.228,70.651 229.699,68.385 C226.453,69.181 223.298,68.982 220.236,67.788 C218.553,63.869 215.797,60.333 211.969,57.179 C211.081,54.913 209.505,52.54 207.24,50.06 C205.862,48.683 204.484,46.922 203.106,44.778 C202.8,41.717 203.199,38.762 204.301,35.915 L204.301,34.123 L204.851,29.99 C205.648,29.684 206.245,29.087 206.643,28.199 C213.746,29.699 217.482,26.76 217.849,19.381 C214.725,18.371 210.593,17.773 205.448,17.589 C199.937,11.19 200.136,5.48 206.045,0.459 Z M181.245,0.459 C185.073,1.041 189.604,1.041 194.839,0.459 L196.584,1.056 C196.982,2.128 197.579,3.306 198.376,4.592 C198.467,6.951 198.069,9.706 197.181,12.859 L197.181,27.051 C196.783,29.102 196.783,31.46 197.181,34.123 L196.584,35.318 L197.181,42.987 L197.181,44.778 C197.274,47.136 197.074,49.892 196.584,53.046 L197.181,55.388 C197.395,57.47 197.793,59.644 198.376,61.909 L197.779,64.848 C197.381,66.41 196.401,67.391 194.839,67.788 C191.379,67.605 187.444,68.201 183.036,69.58 C181.535,69.273 179.759,68.676 177.708,67.788 C177.004,63.471 177.004,57.96 177.708,51.254 C177.892,49.295 177.692,46.937 177.111,44.182 L177.708,42.987 C177.616,40.323 177.616,36.971 177.708,32.929 L178.306,30.587 C177.908,27.342 177.908,23.407 178.306,18.784 L178.306,14.65 C178.489,12.385 178.289,9.629 177.708,6.383 C178.289,4.7 179.469,2.725 181.245,0.459 L181.245,0.459 Z" id="Fill-75" fill="#598F40"></path>
                <path d="M306.351,1.056 C317.465,-0.107 322.731,2.22 322.15,8.037 L318.659,15.661 L316.317,19.151 L315.72,20.897 C314.647,22.55 313.668,24.693 312.781,27.326 L312.229,29.072 L311.035,30.817 L309.887,32.608 C309.397,34.261 308.616,36.006 307.544,37.844 L306.948,39.037 L305.799,41.931 C305.401,44.166 304.422,46.708 302.86,49.555 L302.263,50.703 L300.518,54.193 L299.967,56.536 L297.028,51.851 L292.344,41.334 L292.344,39.589 C291.669,37.844 290.505,35.701 288.853,33.159 L288.256,31.414 C290.093,29.179 291.255,26.453 291.745,23.239 L292.94,22.09 C293.522,19.856 294.486,17.713 295.833,15.661 L296.43,13.916 L297.625,12.124 L298.175,10.379 L299.37,8.634 L299.37,6.889 L300.518,5.143 C302.263,4.347 304.207,2.985 306.351,1.056 Z M254.958,0.459 C258.846,1.531 263.134,1.73 267.818,1.056 L269.562,1.607 C271.981,5.22 274.323,10.088 276.589,16.212 C276.774,16.917 277.157,17.514 277.738,18.003 C277.829,19.932 278.411,21.876 279.483,23.836 L279.483,25.581 L280.677,27.326 L280.677,29.072 L282.423,33.159 L283.019,34.951 C283.601,36.695 284.565,38.823 285.913,41.334 L288.256,48.361 L289.403,50.703 C290.2,52.938 291.578,55.663 293.537,58.878 L295.283,62.369 C295.067,64.022 294.486,65.982 293.537,68.247 C290.904,68.615 287.397,68.798 283.019,68.798 L280.677,68.798 L276.589,69.396 L275.396,68.798 C272.67,65.003 270.328,59.95 268.369,53.642 C267.695,52.571 266.929,51.009 266.073,48.958 L266.073,47.213 L264.878,46.019 C264.48,44.273 263.7,42.528 262.536,40.783 C262.353,38.823 261.77,36.68 260.792,34.353 L259.643,32.608 C258.57,29.975 257.591,26.653 256.704,22.641 C255.723,20.988 254.743,18.662 253.765,15.661 L252.616,13.319 L252.019,10.379 L250.274,8.037 C250.579,5.128 252.14,2.602 254.958,0.459 L254.958,0.459 Z" id="Fill-76" fill="#598F40"></path>
                <path d="M336.57,3.97903932e-13 C340.337,0.949 344.761,1.148 349.844,0.597 L350.991,1.148 C351.389,3.659 351.389,6.736 350.991,10.379 C351.389,11.543 351.588,13.074 351.588,14.972 L351.588,34.582 L350.991,36.879 C350.991,37.951 351.191,39.114 351.588,40.37 L351.588,47.259 C351.588,47.841 351.772,48.423 352.139,49.003 L351.588,50.152 L352.139,54.193 L352.736,57.087 L352.736,61.129 C351.665,63.028 350.699,65.523 349.844,68.615 C346.382,67.942 343.122,68.324 340.061,69.763 L338.315,69.166 L336.57,69.166 C335.529,68.033 334.579,66.502 333.722,64.573 L333.125,61.129 C333.524,59.383 333.722,57.072 333.722,54.193 L333.722,39.772 L333.125,38.073 L333.125,21.907 L333.722,19.61 L333.125,16.717 C333.524,14.88 333.524,12.967 333.125,10.977 C333.524,9.231 333.722,7.103 333.722,4.592 L333.722,2.893 L336.57,3.97903932e-13" id="Fill-77" fill="#598F40"></path>
                <path d="M417.265,1.056 C428.379,-0.107 433.645,2.22 433.064,8.037 L429.573,15.661 L427.231,19.151 L426.634,20.897 C425.561,22.55 424.582,24.693 423.695,27.326 L423.143,29.072 L421.949,30.817 L420.801,32.608 C420.311,34.261 419.53,36.006 418.458,37.844 L417.862,39.037 L416.713,41.931 C416.315,44.166 415.336,46.708 413.774,49.555 L413.177,50.703 L411.432,54.193 L410.881,56.536 L407.942,51.851 L403.257,41.334 L403.257,39.589 C402.583,37.844 401.419,35.701 399.767,33.159 L399.17,31.414 C401.007,29.179 402.169,26.453 402.659,23.239 L403.854,22.09 C404.436,19.856 405.4,17.713 406.747,15.661 L407.344,13.916 L408.539,12.124 L409.089,10.379 L410.284,8.634 L410.284,6.889 L411.432,5.143 C413.177,4.347 415.121,2.985 417.265,1.056 Z M365.872,0.459 C369.76,1.531 374.048,1.73 378.732,1.056 L380.476,1.607 C382.895,5.22 385.237,10.088 387.503,16.212 C387.688,16.917 388.071,17.514 388.652,18.003 C388.743,19.932 389.325,21.876 390.397,23.836 L390.397,25.581 L391.591,27.326 L391.591,29.072 L393.336,33.159 L393.933,34.951 C394.515,36.695 395.479,38.823 396.827,41.334 L399.17,48.361 L400.317,50.703 C401.114,52.938 402.492,55.663 404.451,58.878 L406.196,62.369 C405.981,64.022 405.4,65.982 404.451,68.247 C401.817,68.615 398.311,68.798 393.933,68.798 L391.591,68.798 L387.503,69.396 L386.31,68.798 C383.584,65.003 381.242,59.95 379.283,53.642 C378.608,52.571 377.843,51.009 376.987,48.958 L376.987,47.213 L375.792,46.019 C375.393,44.273 374.614,42.528 373.449,40.783 C373.267,38.823 372.684,36.68 371.705,34.353 L370.557,32.608 C369.484,29.975 368.505,26.653 367.618,22.641 C366.637,20.988 365.657,18.662 364.679,15.661 L363.53,13.319 L362.933,10.379 L361.188,8.037 C361.493,5.128 363.054,2.602 365.872,0.459 L365.872,0.459 Z" id="Fill-78" fill="#598F40"></path>
                <path d="M473.157,5.68434189e-13 C477.199,1.041 481.761,1.041 486.844,5.68434189e-13 C488.099,1.317 489.691,2.71 491.62,4.179 C491.682,7.027 492.677,9.798 494.605,12.492 C494.759,13.809 495.157,15.201 495.799,16.671 C495.708,17.069 495.906,17.452 496.396,17.82 L496.396,19.61 L497.544,23.193 L498.141,24.387 L498.738,26.178 L499.336,27.969 L500.53,29.117 L501.724,33.894 C502.397,35.486 503.393,37.079 504.709,38.67 C505.137,45.621 507.71,51.959 512.424,57.684 L513.023,60.669 L514.216,63.057 C512.716,70.651 505.78,71.63 493.412,65.997 C492.829,61.282 491.038,56.536 488.037,51.76 L487.441,48.177 L485.053,44.595 C484.96,42.972 484.379,41.396 483.308,39.865 C483.337,39.252 483.139,38.655 482.711,38.073 L482.113,35.685 L480.919,33.894 C480.705,31.536 480.107,28.766 479.128,25.581 L473.754,14.88 L470.815,11.297 L469.621,6.521 C469.651,3.888 470.831,1.715 473.157,5.68434189e-13 Z M465.442,12.492 L467.829,13.686 C467.891,16.503 468.887,19.473 470.815,22.596 L470.815,24.984 L474.351,30.312 C473.801,33.221 472.621,36.604 470.815,40.461 L470.218,42.804 C472.943,42.283 475.714,42.482 478.53,43.4 L479.725,42.804 L482.113,45.789 C482.42,48.085 483.399,50.26 485.053,52.311 C485.205,53.475 485.604,54.668 486.247,55.893 L486.247,57.087 C485.236,57.852 484.057,59.047 482.711,60.669 C477.933,58.955 472.774,58.358 467.233,58.878 C465.61,61.175 464.216,64.344 463.053,68.385 L460.665,69.58 C456.929,68.6 452.382,68.002 447.025,67.788 L445.234,67.788 L444.039,67.191 C443.856,66.303 443.458,65.308 442.846,64.206 C443.458,60.44 445.05,56.475 447.621,52.311 L452.353,39.267 L453.546,37.476 L454.143,35.685 L455.338,33.296 L456.532,31.505 L457.129,28.566 L458.921,26.775 L461.263,19.013 C462.579,17.36 463.972,15.187 465.442,12.492 L465.442,12.492 Z" id="Fill-79" fill="#598F40"></path>
                <path d="M578.239,49.05 C583.535,51.438 584.332,57.623 580.627,67.605 C577.933,68.094 574.749,68.293 571.075,68.201 L569.283,68.201 L567.492,68.798 L558.49,68.798 L553.714,69.396 C552.336,69.487 550.943,68.89 549.534,67.605 C546.84,60.409 548.233,54.423 553.714,49.647 C556.316,49.953 559.715,49.953 563.91,49.647 L566.297,49.647 C569.481,50.351 572.865,50.351 576.448,49.647 C577.06,49.647 577.657,49.448 578.239,49.05 Z M538.19,2.27373675e-13 C540.272,0.49 542.462,1.684 544.758,3.582 L544.161,15.569 L544.161,20.346 C543.854,22.121 544.054,24.111 544.758,26.316 C544.268,28.307 544.069,30.495 544.161,32.883 L544.758,34.078 L544.161,35.318 L544.161,37.706 L544.758,38.9 C543.747,42.268 543.548,46.05 544.161,50.244 L543.564,52.035 C544.268,53.934 544.865,56.536 545.354,59.843 C545.049,62.721 544.054,65.706 542.37,68.798 L539.385,69.396 C537.669,68.6 535.664,68.201 533.368,68.201 L529.189,68.798 L526.204,67.007 C525.009,63.823 524.412,60.027 524.412,55.617 L525.607,54.423 L525.607,43.08 L526.204,41.885 L525.607,40.094 L526.204,38.303 L525.607,36.511 L525.607,28.107 C525.607,27.004 525.407,25.811 525.009,24.525 C525.499,22.443 525.499,20.253 525.009,17.957 L525.607,16.166 L525.607,11.986 L525.009,8.955 L525.607,5.373 L526.204,2.388 C529.388,1.286 532.97,0.888 536.951,1.193 L538.19,2.27373675e-13 L538.19,2.27373675e-13 Z" id="Fill-80" fill="#598F40"></path>
                <path d="M4.433,186.919 L4.275,187.018 L4.459,187.715 L3.663,186.919 L4.433,186.919 Z M8.425,153.957 L10.425,153.521 L10.425,157.141 L8.425,156.704 L8.425,153.957 Z M40.425,160.366 L36.763,153.042 C39.205,153.042 40.425,152.431 40.425,151.211 L40.425,123.742 L41.341,119.164 L40.425,116.417 L40.425,108.176 L41.272,103.599 L40.322,102.683 L41.22,98.105 L40.296,91.878 C40.296,88.826 31.131,87.483 12.819,87.483 L9.156,87.483 L4.579,86.385 C1.729,88.623 0.203,91.279 2.84217094e-14,94.534 L7.325,103.644 L6.41,138.415 L7.333,141.15 L6.425,142.054 L6.425,167.692 L7.333,168.607 L6.414,169.523 L7.327,175.017 C7.327,178.679 4.987,180.816 0.714,181.426 L1.425,185.088 L1.425,186.004 L0.713,186.919 C0.713,191.803 6.498,194.244 17.484,194.244 L32.425,191.497 L32.425,192.413 C38.425,192.413 42.308,189.056 42.308,182.342 L40.971,174.268 C41.767,171.678 42.425,169.521 42.425,169.521 L42.425,166.409 L40.425,161.927 L40.425,160.366 L40.425,160.366 Z" id="Fill-81" fill="#373835"></path>
                <path d="M92.477,115.727 C88.509,97.415 80.88,88.483 69.587,88.483 L64.093,88.483 L59.515,89.174 L58.599,88.146 L54.937,89.231 L51.275,88.483 L48.528,88.483 L46.425,89.865 L46.425,98.105 C46.425,99.326 49.347,100.241 54.841,100.852 C59.114,100.852 61.425,104.515 61.425,111.839 L61.425,114.586 C61.425,127.404 58.295,133.483 52.19,133.483 L51.275,133.483 L50.359,132.733 L47.561,134.647 L48.425,141.139 L48.425,147.548 C57.425,148.311 61.295,151.363 61.295,156.704 L60.405,169.523 L60.505,169.629 L59.425,171.353 L59.425,174.101 L57.684,180.483 L51.275,180.483 L47.425,184.173 L47.425,190.582 C47.425,191.803 49.96,192.718 54.844,193.328 L58.553,192.413 L62.238,193.328 C70.937,193.328 77.663,190.582 82.394,185.088 C82.394,182.664 82.791,181.219 83.562,180.72 L84.606,180.509 L89.99,168.716 L89.971,168.366 L90.646,167.692 L89.62,164.029 L90.425,160.366 L90.425,153.042 C90.425,148.769 88.704,146.632 85.042,146.632 L86.013,145.717 C84.858,143.949 83.792,142.618 82.757,141.703 L81.287,137.878 C88.736,130.634 92.477,123.326 92.477,115.727" id="Fill-82" fill="#373835"></path>
                <path d="M156.425,192.483 L156.425,190.483 L157.302,190.483 L159.134,192.483 L156.425,192.483 Z M170.121,102.607 C176.836,98.792 180.193,95.571 180.193,92.671 L175.615,85.483 L173.784,85.483 C163.151,85.483 153.69,91.145 145.399,102.744 L145.492,102.953 L139.362,109.049 L139.357,109.106 L138.99,109.025 C134.92,118.385 131.706,127.841 129.672,137.405 L130.425,140.147 L130.425,141.062 L129.672,141.978 C131.656,168.836 134.789,182.265 138.909,182.265 C138.909,187.759 147.495,192.337 164.587,195.999 L167.338,195.083 L166.425,194.168 L166.425,193.252 L167.358,192.121 L171.952,196.483 L172.868,196.483 L178.425,193.252 L178.425,191.421 L176.562,184.32 C168.017,184.32 163.712,177.483 163.712,163.483 L164.627,163.483 L164.238,160.535 L164.479,159.507 L164.134,143.796 L164.627,131.934 L163.737,125.682 L163.73,125.372 C165.709,110.202 167.839,102.607 170.121,102.607 L170.121,102.607 Z" id="Fill-83" fill="#373835"></path>
                <path d="M364.353,90.318 L362.521,88.483 L350.596,88.483 L350.581,88.482 L350.571,88.483 L344.21,88.483 L339.632,89.399 L336.885,88.483 L332.307,88.483 L329.56,92.15 L329.816,92.493 L329.65,92.746 L327.959,94.976 L327.425,94.9 L327.425,96.731 L330.324,100.394 L330.547,100.248 L330.739,100.541 L331.802,101.235 L335.93,101.336 C333.944,103.022 332.522,104.505 331.62,105.799 L327.685,109.531 C326.873,109.925 326.578,110.348 326.578,110.961 L327.35,111.47 L327.916,113.736 L328.644,114.128 L328.863,113.909 L329.814,115.642 C330.356,118.154 331.792,120.483 334.138,121.483 L335.97,121.483 L343.721,110.899 L344.448,110.405 L354.346,100.316 L362.425,98.562 L362.425,97.743 L363.425,96.731 L363.425,94.498 C364.04,93.868 364.353,92.483 364.353,90.318" id="Fill-84" fill="#373835"></path>
                <path d="M354.094,176.444 L354.098,176.327 L351.954,171.455 L351.535,169.483 L351.162,169.483 L313.547,89.09 L313.215,89.291 C312.879,88.694 312.537,88.152 312.163,87.513 L301.176,89.375 C288.052,88.613 280.239,87.712 278.103,86.644 C274.44,87.865 272.425,89.101 272.425,90.322 L272.425,98.563 C272.425,100.292 276.271,102.314 283.596,104.247 C285.528,106.435 290.596,116.483 298.429,136.483 L299.175,136.483 L300.358,138.942 L300.26,138.945 C300.26,139.47 300.5,139.827 300.951,140.126 L305.536,150.367 C307.693,156.273 311.121,164.247 315.826,173.877 C319.03,185.474 322.388,191.483 325.898,191.483 L326.813,191.483 L326.824,191.423 L356.45,190.483 L358.86,190.483 L362.425,188.293 L362.425,180.968 C362.425,179.604 359.673,178.095 354.094,176.444" id="Fill-85" fill="#373835"></path>
                <path d="M302.092,180.052 C305.754,174.966 307.586,170.694 307.586,167.234 C303.797,158.817 301.174,154.279 299.708,153.6 C299.713,153.54 299.717,153.498 299.717,153.498 L299.662,153.576 C299.55,153.529 299.443,153.499 299.345,153.499 L297.12,157.208 L282.278,178.412 C279.27,180.025 275.51,181.49 270.961,182.799 L271.877,189.972 C271.877,192.414 276.149,193.483 284.695,193.483 L285.611,193.483 L285.665,193.581 L288.092,193.445 L288.357,193.749 L290.009,193.323 L295.425,192.856 L295.425,192.871 L296.733,192.753 L299.652,192.504 C299.652,192.504 299.683,192.251 299.68,192.232 L304.839,191.483 L308.501,191.483 C309.518,191.483 310.739,189.583 312.163,185.31 C312.163,183.835 308.806,182.24 302.092,180.052" id="Fill-86" fill="#373835"></path>
                <path d="M452.526,98.944 L456.189,97.113 C458.021,97.113 458.935,98.142 458.935,99.973 C463.819,105.314 466.26,111.483 466.26,117.483 L469.007,117.483 L471.755,114.623 L474.501,115.482 L478.164,113.622 L477.379,110.861 L478.425,107.185 L478.425,90.704 C478.425,86.431 476.027,84.483 471.755,84.483 L463.514,84.483 L449.78,85.305 L448.863,84.342 L442.454,86.149 C442.454,90.422 441.844,93.157 440.624,94.378 C440.624,96.007 444.59,97.521 452.526,98.944" id="Fill-87" fill="#373835"></path>
                <path d="M468.626,161.483 L467.71,161.483 L467.881,162.378 L466.022,166.483 L465.879,166.483 L463.425,171.736 L463.425,172.075 L459.077,177.228 L458.896,177.298 C458.805,177.267 458.678,177.23 458.591,177.23 L442.092,185.47 C442.55,192.795 443.455,196.457 444.829,196.457 L445.352,196.122 L445.212,196.456 L455.301,193.709 C455.301,193.709 455.334,193.68 455.381,193.64 L461.301,192.682 L469.542,193.483 L475.035,193.483 L478.697,190.85 L477.782,185.413 L478.581,178.245 C479.114,177.633 479.425,177.284 479.425,177.284 L479.425,164.2 L468.765,161.713 L468.626,161.483" id="Fill-88" fill="#373835"></path>
                <path d="M453.742,148.507 L454.425,147.701 L454.425,148.616 C459.425,148.566 462.425,147.65 465.425,145.87 L465.425,144.954 L465.169,144.929 L465.281,144.887 L465.273,140.444 C465.274,140.393 464.994,140.342 464.966,140.29 L465.425,136.713 L465.425,134.882 L464.047,133.483 L458.554,133.483 L453.06,132.568 L448.483,133.483 L438.922,133.483 L437.342,131.891 L435.663,116.678 L437.495,96.48 L434.748,85.466 L406.364,86.368 L399.955,85.446 L395.376,95.627 C395.376,97.459 395.987,98.483 397.209,98.483 L399.039,98.483 L400.425,97.342 L400.425,98.483 L401.786,98.483 L399.955,131.333 L400.871,135.855 L399.955,136.742 L400.871,142.221 L399.955,149.539 L401.81,180.666 C399.572,182.498 397.425,183.41 395.425,183.41 L395.425,184.326 C395.425,191.04 399.345,194.483 407.28,194.483 L408.195,194.483 L409.425,193.481 L409.425,194.397 L418.268,193.483 L426.507,193.483 L431.009,194.398 C434.672,192.364 436.425,189.311 436.425,185.241 L436.425,181.578 C436.425,180.358 435.425,179.747 433.425,179.747 L433.425,176.085 L436.425,172.422 L436.425,164.182 L437.495,150.483 L436.425,150.483 L436.425,148.483 L437.495,148.483 L438.411,147.483 L449.398,147.483 L453.742,148.507" id="Fill-89" fill="#373835"></path>
                <path d="M523.785,169.228 L526.69,170.483 L523.716,170.483 L523.425,169.981 L523.425,169.4 L523.785,169.228 Z M601.208,163.571 C601.208,154.06 597.546,146.124 590.221,139.765 C584.523,132.44 577.198,127.252 568.246,124.2 C552.569,121.4 544.103,117.828 542.805,113.488 C544.081,115.072 544.966,116.159 544.966,116.159 C544.966,116.159 544.966,99.122 574.798,104.778 C575.959,104.998 577.053,105.173 578.092,105.434 C582.83,108.48 588.09,113.483 593.883,119.483 L594.798,119.483 C595.884,119.483 597.645,117.523 600.073,113.501 L600.664,113.177 L598.911,100.428 L598.647,100.224 C599.145,98.996 599.425,97.236 599.425,94.9 L599.425,91.238 C599.425,90.017 597.57,89.101 593.908,88.491 C591.337,89.306 589.85,90.96 589.445,93.433 C587.591,91.971 576.779,85.165 540.239,89.405 C540.239,89.405 540.14,89.567 539.975,89.847 L539.632,89.407 C524.982,95.715 517.425,104.871 517.425,116.875 L517.425,119.622 C517.425,134.832 524.371,146.124 537.799,153.499 L564.467,160.824 C573.014,160.824 577.343,164.792 577.343,172.727 L577.813,172.58 C577.772,172.689 577.758,172.796 577.758,172.895 C577.758,175.186 574.337,180.568 558.996,180.568 C551.873,180.568 545.209,178.826 540.258,176.959 C535.739,173.528 532.425,171.812 530.425,171.812 L530.425,169.065 C530.425,166.013 529.405,164.182 527.574,163.571 C527.558,163.571 528.425,163.573 527.425,163.573 L527.425,163.57 L527.64,163.574 C526.494,163.58 525.647,163.717 524.85,163.985 L520.669,164.584 L520.603,164.487 C519.973,164.581 519.44,164.701 518.94,164.834 L517.425,165.05 L517.425,165.404 C516.523,165.881 516.425,166.487 516.425,167.234 L516.425,185.546 C516.425,192.261 516.971,195.483 518.802,195.483 L521.55,195.483 C522.567,195.483 523.787,193.719 525.211,190.057 L537.352,193.559 C537.488,193.624 537.622,193.711 537.76,193.774 C550.656,199.627 572.28,196.534 572.28,196.534 C572.28,196.534 572.299,196.521 572.315,196.507 C576.015,196.276 581.978,192.935 590.221,186.459 C597.546,177.507 601.208,169.879 601.208,163.571 L601.208,163.571 Z" id="Fill-90" fill="#373835"></path>
                <path d="M236.058,133.116 C236.058,133.116 235.906,133.027 235.646,132.896 C230.3,101.545 213.257,86.126 192.096,86.126 C188.891,86.126 186.45,87.652 184.771,90.704 L185.687,99.86 C196.674,102.099 202.167,111.255 202.167,127.328 C201.557,153.017 200.641,168.277 199.421,173.109 L200.337,174.024 L199.421,174.94 L202.167,177.796 L200.337,182.483 L196.674,182.483 C192.401,182.483 188.433,184.206 184.771,187.868 C184.771,193.972 189.044,196.969 197.589,196.969 L206.746,191.448 L205.83,190.424 L207.661,188.483 L208.577,188.483 L211.324,190.483 L213.155,190.483 L224.425,181.349 L224.425,181.249 L224.656,181.179 L227.332,177.601 L228.554,175.577 C230.016,173.592 231.243,171.597 232.259,169.589 L233.65,167.337 C233.65,167.337 233.553,167.231 233.399,167.054 C233.698,166.327 233.976,165.599 234.216,164.869 L228.721,159.218 L231.467,154.483 L232.383,154.483 L233.299,155.555 C236.639,154.349 237.323,151.522 237.418,146.928 C237.644,146.478 237.789,146.058 237.804,145.6 C237.913,142.231 236.058,133.116 236.058,133.116" id="Fill-91" fill="#373835"></path>
            </g>
        </g>
    </g>
</svg>