<?xml version="1.0" encoding="UTF-8"?>
<svg width="630px" height="420px" viewBox="0 0 630 420" version="1.1" xmlns="http://www.w3.org/2000/svg" xmlns:xlink="http://www.w3.org/1999/xlink">
    <title>Group 3</title>
    <g id="Page-1" stroke="none" stroke-width="1" fill="none" fill-rule="evenodd">
        <g id="Group-3" fill="#FFF8EE">
            <rect id="Rectangle" x="0" y="0" width="630" height="420"></rect>
        </g>
        <g id="684279" opacity="0.262881324" transform="translate(34.000000, 138.000000)" fill-rule="nonzero">
            <path d="M122.5,207 C122.5,207 56.8607675,167.855441 22.60029,118.1226 C2.74842457,89.2454667 -0.133297833,64.2186177 5.63014697,44.6463383 C13.9551228,16.4109189 45.6540692,-11.5036435 89.8404794,4.86006552 C111.293302,12.8814915 122.5,21.8654886 122.5,21.8654886 C122.5,21.8654886 133.706698,12.8814915 155.159521,4.86006552 C199.345931,-11.5036435 231.044877,16.4109189 239.369853,44.6463383 C245.133298,63.8977607 242.251575,88.9246097 222.39971,118.1226 C188.139233,167.855441 122.5,207 122.5,207 Z" id="Path" fill="#A3E4AA"></path>
            <path d="M235.35512,101.333333 L215.04793,101.333333 C223.639434,81.952381 222.598039,66.5 219.473856,56.0238095 C214.006536,37.1666667 195.782135,17 168.445534,17 C161.155773,17 153.866013,18.3095238 146.315904,21.1904762 C133.298475,26.1666667 124.706972,31.4047619 121.062092,34.0238095 C117.156863,31.4047619 108.825708,26.1666667 95.8082789,21.1904762 C88.2581699,18.3095238 80.9684096,17 73.6786492,17 C46.3420479,17 28.1176471,37.1666667 22.6503268,56.0238095 C19.0054466,67.0238095 17.9640523,84.047619 28.3779956,105.261905 L3.64488017,105.261905 C1.5620915,105.261905 0,106.833333 0,108.928571 C0,111.02381 1.5620915,112.595238 3.64488017,112.595238 L32.543573,112.595238 C33.8453159,114.690476 35.1470588,116.785714 36.4488017,118.880952 C60.1405229,153.190476 111.429194,190.380952 120.801743,192.738095 L120.801743,193 C120.801743,193 121.062092,193 121.32244,192.738095 C121.582789,192.738095 121.843137,192.738095 121.843137,192.738095 L121.843137,192.47619 C129.913943,188.547619 179.119826,156.595238 205.154684,118.619048 C207.497821,115.214286 209.58061,111.547619 211.40305,108.404762 L235.35512,108.404762 C237.437908,108.404762 239,106.833333 239,104.738095 C239,102.904762 237.437908,101.333333 235.35512,101.333333 Z M29.41939,58.1190476 C34.1056645,41.8809524 49.9869281,24.3333333 73.4183007,24.3333333 C79.6666667,24.3333333 86.1753813,25.6428571 92.9444444,28 C109.606754,34.2857143 118.458606,41.3571429 118.458606,41.3571429 C119.760349,42.4047619 121.843137,42.4047619 123.14488,41.3571429 C123.14488,41.3571429 131.996732,34.2857143 148.659041,28 C155.428105,25.6428571 161.936819,24.3333333 168.185185,24.3333333 C191.616558,24.3333333 207.497821,41.8809524 212.184096,58.1190476 C216.089325,71.4761905 214.006536,86.1428571 206.716776,101.333333 L184.587146,101.333333 L175.214597,85.3571429 C174.6939,84.3095238 173.392157,83.5238095 172.090414,83.5238095 C170.788671,83.5238095 169.486928,84.047619 168.966231,85.0952381 L161.155773,96.6190476 L148.659041,55.7619048 C148.138344,54.1904762 146.576253,53.1428571 145.014161,53.1428571 C143.45207,53.1428571 141.889978,54.1904762 141.369281,55.7619048 L120.281046,129.357143 L97.3703704,70.4285714 C96.8496732,69.1190476 95.5479303,68.0714286 93.9858388,68.0714286 C92.4237473,68.0714286 91.1220044,68.8571429 90.6013072,70.1666667 L72.6372549,105.261905 L36.9694989,105.261905 C27.8572985,88.5 24.9934641,72.5238095 29.41939,58.1190476 Z M198.906318,114.690476 C174.6939,150.047619 130.434641,178.857143 120.801743,184.880952 C111.168845,178.857143 66.9095861,149.785714 42.6971678,114.690476 C42.1764706,113.904762 41.916122,113.380952 41.3954248,112.595238 L74.9803922,112.595238 C76.2821351,112.595238 77.583878,111.809524 78.3649237,110.5 L93.4651416,80.6428571 L117.417211,142.190476 C117.937908,143.761905 119.239651,144.547619 120.801743,144.547619 C120.801743,144.547619 120.801743,144.547619 121.062092,144.547619 C122.624183,144.547619 123.925926,143.5 124.446623,141.928571 L145.27451,69.9047619 L156.469499,106.309524 C156.990196,107.619048 158.03159,108.666667 159.593682,108.928571 C160.895425,109.190476 162.457516,108.404762 163.238562,107.357143 L172.090414,94.5238095 L179.640523,107.357143 C180.421569,108.404762 181.462963,109.190476 182.764706,109.190476 L202.811547,109.190476 C201.509804,110.761905 200.208061,112.857143 198.906318,114.690476 Z" id="Shape" fill="#FFFFFF"></path>
        </g>
        <g id="1075230" transform="translate(143.000000, 138.000000)" fill-rule="nonzero">
            <path d="M6.24507532,352.754925 C-2.08169177,344.428158 -2.08169177,330.927665 6.24507532,322.600898 L135.845974,193 L166,223.154026 L36.3991016,352.754925 C28.0723352,361.081692 14.5718417,361.081692 6.24507532,352.754925 L6.24507532,352.754925 Z" id="Path" fill="#D0D1D2"></path>
            <path d="M135.808554,193 L97,231.805809 C101.246788,237.430674 105.919077,242.835926 111.041576,247.958424 C116.164074,253.080923 121.569326,257.753212 127.194191,262 L166,223.191446 L135.808554,193 Z" id="Path" fill="#BBBCBD"></path>
            <path d="M317.996034,41.0038651 C263.321336,-13.667955 174.677978,-13.667955 120.006024,41.0038651 C65.3313254,95.6784294 65.3313254,184.32157 120.006024,238.996134 C174.677978,293.667955 263.321336,293.667955 317.996034,238.996134 C372.667989,184.32157 372.667989,95.6784294 317.996034,41.0038651 Z" id="Path" fill="#E3637B"></path>
            <path d="M139.622998,59.6245532 C190.915625,8.33508512 272.21754,5.35904998 327,50.6827832 C324.201574,47.2995588 321.225514,44.0119824 318.058156,40.8446499 C263.598171,-13.6148833 175.302924,-13.6148833 120.842939,40.8446499 C66.3856869,95.3041831 66.3856869,183.598697 120.842939,238.05823 C124.013031,241.225563 127.297902,244.201598 130.681154,247 C85.357045,192.217994 88.3331048,110.916755 139.622998,59.6245532 Z" id="Path" fill="#D75E74"></path>
            <path d="M200.591337,89.5409486 C207.453411,45.5510613 248.713338,23.6274848 289,18.8129167 C257.150135,0.273811766 219.561827,-4.56271561 184.71288,4.30059055 C159.448966,36.4297334 143.625188,75.5748592 168.511825,114.719985 C179.595031,131.702728 199.423964,141.073842 219.255631,139.901767 C207.590105,125.84784 197.674272,108.865097 200.591337,89.5409486 L200.591337,89.5409486 Z" id="Path" fill="#F9EFD1"></path>
            <path d="M269.599848,22.03262 C275.994693,20.3799226 282.509628,19.1786932 289,18.4181832 C257.203184,0.268066635 219.677483,-4.46698051 184.88658,4.21035536 C175.934344,15.3761441 168.183017,27.4099353 163,40 C195.050645,19.8048371 233.657165,13.8175021 269.599848,22.03262 Z" id="Path" fill="#E6DDC1"></path>
            <g id="Group" transform="translate(79.000000, 68.000000)" fill="#F9EFD1">
                <path d="M275.827851,37.8524421 C252.140899,18.2022975 225.139803,3.92125449 190.570175,10.8369205 C165.424891,16.1018212 145.540022,33.6514901 141.052632,58.2539321 C139.668312,66.7298739 140.120614,71.8357304 140.120614,71.8357304 C159.575109,50.0330095 192.324561,46.520333 216.888706,62.9018524 C246.151316,81.4551426 257.404057,111.632347 260.657895,142.895437 C279.536733,110.902939 284.588815,73.0093645 275.827851,37.8524421 Z" id="Path"></path>
                <path d="M158.407347,122.573469 C150.616776,167.947589 110.882675,187.825331 70.4358554,193.188949 C102.294408,211.520126 139.819079,216.272248 174.618969,207.450797 C182.541119,198.174152 189.668312,188.231167 194.665571,176.393367 C210.455044,138.368171 199.928728,83.3773803 154.835526,73.1574402 C145.66886,71.3860201 140.120614,71.8329884 140.120614,71.8329884 C151.389803,86.3032386 161.329495,103.266091 158.407347,122.573469 L158.407347,122.573469 Z" id="Path"></path>
                <path d="M125.655154,112.043667 C135.013706,101.511124 139.692982,86.3032386 140.120614,71.8357304 C140.120614,71.8357304 136.600877,75.9900662 129.081688,81.1644766 C106.356908,95.0780731 77.1162281,91.5681393 56.0635965,75.1866206 C32.0531796,55.9724752 23.1058112,28.8171045 19.8629389,0.304377245 C0.545504561,32.7548115 -4.50109614,71.3339201 4.71217123,106.989911 C41.3377193,135.546513 91.3377193,149.081695 125.655154,112.043667 Z" id="Path"></path>
            </g>
            <path d="M109,107.234133 C104.025186,95.227691 101.25374,82.261499 99.7342709,69 C80.298301,101.358058 75.2214537,139.827344 84.4926978,175.381833 C89.9859515,179.628247 95.7797897,183.535605 101.772179,187 C96.3423518,160.457862 98.7470291,132.655197 109,107.234133 Z" id="Path" fill="#E6DDC1"></path>
        </g>
        <text id="Healthy-treats" opacity="0.157900856" font-family="ArialUnicodeMS, Arial Unicode MS" font-size="34" font-weight="normal" letter-spacing="0.111475412" fill="#787C78">
            <tspan x="56.839301" y="118">Healthy treats</tspan>
        </text>
    </g>
</svg>