<svg data-name="Capa 1" xmlns="http://www.w3.org/2000/svg" viewBox="0 0 376.38 376.38"><path d="M188.19 0C84.27 0 0 84.27 0 188.19s84.27 188.19 188.19 188.19 188.19-84.27 188.19-188.19S292.11 0 188.19 0zm85.92 146.73c.09 1.85.13 3.71.13 5.58 0 57.08-43.45 122.9-122.9 122.9a122.31 122.31 0 01-66.21-19.4 87.66 87.66 0 0010.3.6 86.7 86.7 0 0053.65-18.49 43.23 43.23 0 01-40.35-30 42.59 42.59 0 008.12.78 43.24 43.24 0 0011.39-1.52 43.2 43.2 0 01-34.66-42.34v-.55a42.88 42.88 0 0019.56 5.4A43.22 43.22 0 0199.78 112a122.68 122.68 0 0089 45.13 42.68 42.68 0 01-1.13-9.85 43.21 43.21 0 0174.73-29.54 86.84 86.84 0 0027.43-10.49 43.4 43.4 0 01-19 23.89 86 86 0 0024.8-6.8 87.81 87.81 0 01-21.5 22.39z" fill="#ad7736"/></svg>